<svg width="427" height="584" viewBox="0 0 427 584" fill="none" xmlns="http://www.w3.org/2000/svg">
<rect width="427" height="584" fill="#D9D9D9"/>
<path d="M208 112.25C249.299 112.25 282.75 145.285 282.75 186C282.75 226.715 249.299 259.75 208 259.75C166.701 259.75 133.25 226.715 133.25 186C133.25 145.285 166.701 112.25 208 112.25Z" fill="white" fill-opacity="0.75" stroke="black" stroke-width="2.5"/>
<path d="M81.25 165C81.25 131.655 94.7045 99.6724 118.66 76.0882C142.617 52.5033 175.112 39.25 209 39.25C242.888 39.25 275.384 52.5033 299.34 76.0882C323.295 99.6725 336.75 131.655 336.75 165" stroke="black" stroke-width="2.5"/>
<line x1="133.25" y1="186" x2="133.25" y2="343" stroke="black" stroke-width="2.5"/>
<path d="M41.2929 343.707C41.6834 344.098 42.3166 344.098 42.7071 343.707L49.0711 337.343C49.4616 336.953 49.4616 336.319 49.0711 335.929C48.6806 335.538 48.0474 335.538 47.6569 335.929L42 341.586L36.3432 335.929C35.9526 335.538 35.3195 335.538 34.9289 335.929C34.5384 336.319 34.5384 336.953 34.9289 337.343L41.2929 343.707ZM42 186L41 186L41 343L42 343L43 343L43 186L42 186Z" fill="black"/>
<path d="M42.7071 185.293C42.3166 184.902 41.6834 184.902 41.2929 185.293L34.9289 191.657C34.5384 192.047 34.5384 192.681 34.9289 193.071C35.3195 193.462 35.9526 193.462 36.3431 193.071L42 187.414L47.6569 193.071C48.0474 193.462 48.6805 193.462 49.0711 193.071C49.4616 192.681 49.4616 192.047 49.0711 191.657L42.7071 185.293ZM42 343L43 343L43 186L42 186L41 186L41 343L42 343Z" fill="black"/>
<line x1="283.25" y1="186" x2="283.25" y2="488" stroke="black" stroke-width="2.5"/>
<rect x="84.25" y="344.25" width="97.5" height="57.5" fill="white" stroke="black" stroke-width="2.5"/>
<rect x="233.25" y="489.25" width="97.5" height="57.5" fill="white" stroke="black" stroke-width="2.5"/>
<path d="M109.72 362.36C110.2 362.307 110.747 362.32 111.36 362.4C112.88 362.747 113.867 363.573 114.32 364.88L114.4 365.12L114.84 364.72C115.347 364.213 115.813 363.827 116.24 363.56C117.573 362.707 119.04 362.293 120.64 362.32C122.16 362.4 123.32 362.827 124.12 363.6C124.547 364 124.88 364.547 125.12 365.24L125.16 365.48L125.68 364.96C126.213 364.373 126.76 363.907 127.32 363.56C128.653 362.707 130.12 362.293 131.72 362.32C133.24 362.4 134.4 362.827 135.2 363.6C136.24 364.613 136.6 366.093 136.28 368.04C136.013 369.587 135.28 371.933 134.08 375.08C133.627 376.333 133.4 377.213 133.4 377.72C133.4 378.253 133.573 378.533 133.92 378.56C133.973 378.56 134.04 378.56 134.12 378.56C134.68 378.507 135.2 378.227 135.68 377.72C136.453 376.947 137.013 375.893 137.36 374.56C137.493 374.16 137.627 373.947 137.76 373.92C137.84 373.893 138.08 373.88 138.48 373.88C138.987 373.88 139.28 373.907 139.36 373.96C139.413 374.013 139.44 374.12 139.44 374.28C139.44 374.867 139.067 375.827 138.32 377.16C138.24 377.293 138.16 377.427 138.08 377.56C137.2 378.92 136.147 379.813 134.92 380.24C133.827 380.587 132.76 380.493 131.72 379.96C131.347 379.773 131.067 379.573 130.88 379.36C130.64 379.12 130.453 378.867 130.32 378.6C130.053 378.093 129.933 377.56 129.96 377C129.96 376.44 130.12 375.72 130.44 374.84C132.147 370.307 132.92 367.373 132.76 366.04C132.68 365.267 132.427 364.747 132 364.48C131.707 364.24 131.187 364.16 130.44 364.24C128.467 364.48 126.773 365.76 125.36 368.08L125.12 368.52L123.8 373.72C122.973 377.133 122.493 378.96 122.36 379.2C121.987 380 121.36 380.413 120.48 380.44C120.053 380.44 119.68 380.32 119.36 380.08C119.227 380.027 119.107 379.88 119 379.64C118.867 379.347 118.867 378.907 119 378.32C119.107 377.787 119.493 376.173 120.16 373.48C121.067 369.907 121.533 368.04 121.56 367.88C121.773 366.787 121.76 365.933 121.52 365.32C121.307 364.573 120.787 364.2 119.96 364.2C117.72 364.2 115.827 365.493 114.28 368.08L114.04 368.52L112.72 373.72C111.893 377.133 111.413 378.96 111.28 379.2C110.907 380 110.28 380.413 109.4 380.44C108.973 380.44 108.6 380.32 108.28 380.08C108.147 380.027 108.027 379.88 107.92 379.64C107.787 379.373 107.773 378.973 107.88 378.44C108.013 377.827 108.48 375.907 109.28 372.68C110.32 368.547 110.853 366.4 110.88 366.24C111.067 364.933 110.813 364.253 110.12 364.2C110.04 364.2 109.96 364.2 109.88 364.2C109.107 364.36 108.413 365.6 107.8 367.92L107.6 368.64C107.307 368.8 106.987 368.88 106.64 368.88H105.88L105.76 368.76C105.653 368.653 105.653 368.373 105.76 367.92C106.293 366.08 106.92 364.693 107.64 363.76C108.2 363.04 108.893 362.573 109.72 362.36ZM151.317 362C151.477 361.92 151.637 361.88 151.797 361.88C151.984 361.88 152.117 361.92 152.197 362L152.357 362.12V369.76C152.357 374.853 152.384 377.413 152.437 377.44C152.571 377.627 153.557 377.733 155.397 377.76C156.544 377.76 157.171 377.853 157.277 378.04C157.357 378.227 157.371 378.707 157.317 379.48C157.317 379.613 157.304 379.693 157.277 379.72C157.197 379.88 156.957 379.96 156.557 379.96C156.371 379.96 156.011 379.96 155.477 379.96C153.184 379.853 150.131 379.84 146.317 379.92C145.944 379.947 145.637 379.96 145.397 379.96C144.331 379.987 143.744 379.92 143.637 379.76C143.504 379.6 143.477 379.107 143.557 378.28C143.584 378.12 143.611 378.027 143.637 378C143.691 377.84 143.944 377.76 144.397 377.76C144.584 377.76 144.957 377.76 145.517 377.76C147.304 377.733 148.291 377.627 148.477 377.44C148.531 377.413 148.557 375.4 148.557 371.4V365.44H148.437C147.131 365.68 145.891 365.813 144.717 365.84H143.637L143.517 365.72L143.357 365.56V364.72V363.88L143.477 363.76L143.597 363.6H144.637C147.597 363.52 149.824 362.987 151.317 362Z" fill="black"/>
<path d="M100.336 312.208C100.4 312.165 102.416 312.144 106.384 312.144C110.416 312.144 112.507 312.155 112.656 312.176C114.341 312.347 115.707 312.944 116.752 313.968C117.349 314.587 117.744 315.355 117.936 316.272C118.064 316.72 118.085 317.232 118 317.808C117.787 319.621 116.773 321.221 114.96 322.608C113.872 323.44 112.656 324.027 111.312 324.368C110.544 324.581 109.552 324.688 108.336 324.688C108.037 324.688 107.483 324.688 106.672 324.688H103.888L102.992 328.336C102.373 330.789 102.085 332.027 102.128 332.048C102.171 332.091 102.245 332.112 102.352 332.112C102.693 332.176 103.312 332.208 104.208 332.208C104.699 332.208 104.965 332.229 105.008 332.272C105.136 332.315 105.2 332.411 105.2 332.56L104.88 333.808C104.795 333.936 104.581 333.989 104.24 333.968C104.133 333.968 103.888 333.968 103.504 333.968C101.733 333.883 99.504 333.872 96.816 333.936C96.56 333.957 96.3573 333.968 96.208 333.968C95.4613 333.989 95.0453 333.936 94.96 333.808C94.9173 333.744 94.9387 333.499 95.024 333.072C95.1307 332.603 95.2373 332.336 95.344 332.272C95.4507 332.229 95.8347 332.208 96.496 332.208C97.6907 332.187 98.3627 332.101 98.512 331.952C98.576 331.909 99.344 328.944 100.816 323.056C102.288 317.168 103.024 314.203 103.024 314.16C103.024 314.139 103.003 314.107 102.96 314.064C102.875 314.021 102.299 313.979 101.232 313.936H100.144L100.016 313.808C99.9307 313.723 99.9413 313.467 100.048 313.04C100.176 312.528 100.272 312.251 100.336 312.208ZM111.408 313.968H106.864C106.651 313.989 106.512 314.053 106.448 314.16L105.328 318.576C104.581 321.499 104.208 322.971 104.208 322.992C104.208 323.035 105.04 323.056 106.704 323.056C108.539 323.035 109.701 322.971 110.192 322.864C111.344 322.629 112.208 322.149 112.784 321.424C113.253 320.805 113.648 319.813 113.968 318.448C114.203 317.531 114.32 316.827 114.32 316.336C114.32 315.781 114.203 315.344 113.968 315.024C113.456 314.405 112.603 314.053 111.408 313.968ZM123.491 319.6C123.619 319.536 123.747 319.504 123.875 319.504C124.025 319.504 124.131 319.536 124.195 319.6L124.323 319.696V325.808C124.323 329.883 124.345 331.931 124.387 331.952C124.494 332.101 125.283 332.187 126.755 332.208C127.673 332.208 128.174 332.283 128.259 332.432C128.323 332.581 128.334 332.965 128.291 333.584C128.291 333.691 128.281 333.755 128.259 333.776C128.195 333.904 128.003 333.968 127.683 333.968C127.534 333.968 127.246 333.968 126.819 333.968C124.985 333.883 122.542 333.872 119.491 333.936C119.193 333.957 118.947 333.968 118.755 333.968C117.902 333.989 117.433 333.936 117.347 333.808C117.241 333.68 117.219 333.285 117.283 332.624C117.305 332.496 117.326 332.421 117.347 332.4C117.39 332.272 117.593 332.208 117.955 332.208C118.105 332.208 118.403 332.208 118.851 332.208C120.281 332.187 121.07 332.101 121.219 331.952C121.262 331.931 121.283 330.32 121.283 327.12V322.352H121.187C120.142 322.544 119.15 322.651 118.211 322.672H117.347L117.251 322.576L117.123 322.448V321.776V321.104L117.219 321.008L117.315 320.88H118.147C120.515 320.816 122.297 320.389 123.491 319.6Z" fill="black"/>
<path d="M6.304 247.176C6.34667 247.155 6.51733 247.144 6.816 247.144C8.48 247.229 10.7307 247.251 13.568 247.208C15.4453 247.165 16.3733 247.144 16.352 247.144H16.736L16.832 247.24C16.9387 247.347 16.9493 247.592 16.864 247.976C16.864 248.019 16.8533 248.061 16.832 248.104C16.7253 248.573 16.6293 248.829 16.544 248.872C16.48 248.915 16.1493 248.936 15.552 248.936C14.2933 248.936 13.472 248.968 13.088 249.032C12.7467 249.075 12.5333 249.16 12.448 249.288L8 267.08C8 267.123 8.04267 267.155 8.128 267.176H10.272C11.8507 267.176 12.8853 267.112 13.376 266.984C13.4187 266.984 13.4613 266.973 13.504 266.952C14.9547 266.611 16.1493 265.853 17.088 264.68C17.6853 263.933 18.3253 262.643 19.008 260.808C19.2 260.296 19.328 260.029 19.392 260.008C19.5413 259.901 19.8933 259.891 20.448 259.976C20.5333 259.976 20.5867 259.987 20.608 260.008C20.736 260.051 20.8 260.147 20.8 260.296L17.76 268.84C17.7173 268.925 17.44 268.968 16.928 268.968C16.288 268.989 13.7493 269 9.312 269C3.82933 269 1.056 268.979 0.992 268.936C0.928 268.872 0.885333 268.819 0.864 268.776C0.842667 268.691 0.874667 268.445 0.96 268.04C1.088 267.613 1.17333 267.368 1.216 267.304L1.344 267.208H2.432C3.62667 267.187 4.29867 267.101 4.448 266.952C4.512 266.909 5.28 263.944 6.752 258.056C8.224 252.168 8.96 249.203 8.96 249.16C8.96 249.139 8.93867 249.107 8.896 249.064C8.81067 249.021 8.23467 248.979 7.168 248.936H6.08L5.984 248.84C5.856 248.755 5.856 248.456 5.984 247.944C6.09067 247.496 6.19733 247.24 6.304 247.176ZM30.7413 254.6C30.8693 254.536 30.9973 254.504 31.1253 254.504C31.2746 254.504 31.3813 254.536 31.4453 254.6L31.5733 254.696V260.808C31.5733 264.883 31.5946 266.931 31.6373 266.952C31.7439 267.101 32.5333 267.187 34.0053 267.208C34.9226 267.208 35.4239 267.283 35.5093 267.432C35.5733 267.581 35.5839 267.965 35.5413 268.584C35.5413 268.691 35.5306 268.755 35.5093 268.776C35.4453 268.904 35.2533 268.968 34.9333 268.968C34.7839 268.968 34.4959 268.968 34.0693 268.968C32.2346 268.883 29.7919 268.872 26.7413 268.936C26.4426 268.957 26.1973 268.968 26.0052 268.968C25.1519 268.989 24.6826 268.936 24.5973 268.808C24.4906 268.68 24.4693 268.285 24.5333 267.624C24.5546 267.496 24.5759 267.421 24.5973 267.4C24.6399 267.272 24.8426 267.208 25.2053 267.208C25.3546 267.208 25.6533 267.208 26.1013 267.208C27.5306 267.187 28.3199 267.101 28.4693 266.952C28.5119 266.931 28.5333 265.32 28.5333 262.12V257.352H28.4373C27.3919 257.544 26.3999 257.651 25.4613 257.672H24.5973L24.5013 257.576L24.3733 257.448V256.776V256.104L24.4693 256.008L24.5653 255.88H25.3973C27.7653 255.816 29.5466 255.389 30.7413 254.6Z" fill="black"/>
<path d="M163.304 3.176C163.347 3.15467 163.517 3.144 163.816 3.144C165.48 3.22933 167.731 3.25067 170.568 3.208C172.445 3.16533 173.373 3.144 173.352 3.144H173.736L173.832 3.24C173.939 3.34667 173.949 3.592 173.864 3.976C173.864 4.01867 173.853 4.06133 173.832 4.104C173.725 4.57333 173.629 4.82933 173.544 4.872C173.48 4.91467 173.149 4.936 172.552 4.936C171.293 4.936 170.472 4.968 170.088 5.032C169.747 5.07467 169.533 5.16 169.448 5.288L165 23.08C165 23.1227 165.043 23.1547 165.128 23.176H167.272C168.851 23.176 169.885 23.112 170.376 22.984C170.419 22.984 170.461 22.9733 170.504 22.952C171.955 22.6107 173.149 21.8533 174.088 20.68C174.685 19.9333 175.325 18.6427 176.008 16.808C176.2 16.296 176.328 16.0293 176.392 16.008C176.541 15.9013 176.893 15.8907 177.448 15.976C177.533 15.976 177.587 15.9867 177.608 16.008C177.736 16.0507 177.8 16.1467 177.8 16.296L174.76 24.84C174.717 24.9253 174.44 24.968 173.928 24.968C173.288 24.9893 170.749 25 166.312 25C160.829 25 158.056 24.9787 157.992 24.936C157.928 24.872 157.885 24.8187 157.864 24.776C157.843 24.6907 157.875 24.4453 157.96 24.04C158.088 23.6133 158.173 23.368 158.216 23.304L158.344 23.208H159.432C160.627 23.1867 161.299 23.1013 161.448 22.952C161.512 22.9093 162.28 19.944 163.752 14.056C165.224 8.168 165.96 5.20267 165.96 5.16C165.96 5.13867 165.939 5.10667 165.896 5.064C165.811 5.02133 165.235 4.97867 164.168 4.936H163.08L162.984 4.84C162.856 4.75467 162.856 4.456 162.984 3.944C163.091 3.496 163.197 3.24 163.304 3.176ZM188.093 10.888H189.405C190.963 11.1227 191.933 11.7733 192.317 12.84C192.531 13.48 192.477 14.1307 192.157 14.792C192.008 15.0693 191.869 15.272 191.741 15.4C191.165 15.9333 190.547 16.1467 189.885 16.04C189.565 15.9973 189.288 15.88 189.053 15.688C188.84 15.4747 188.712 15.2187 188.669 14.92C188.563 14.28 188.776 13.672 189.309 13.096C189.459 12.9467 189.619 12.8293 189.789 12.744C189.853 12.7013 189.896 12.6693 189.917 12.648C189.917 12.584 189.629 12.4987 189.053 12.392C187.645 12.2 186.376 12.68 185.245 13.832C184.499 14.6427 183.901 15.9013 183.453 17.608C183.432 17.7573 183.4 17.9067 183.357 18.056C182.931 19.7627 182.76 20.9573 182.845 21.64C182.995 22.7707 183.603 23.4747 184.669 23.752C185.117 23.88 185.779 23.88 186.653 23.752C187.997 23.56 189.139 23.1013 190.077 22.376C190.483 22.12 190.824 21.8107 191.101 21.448C191.336 21.1707 191.528 21.0853 191.677 21.192C191.741 21.2347 191.859 21.3413 192.029 21.512C192.328 21.832 192.467 22.0347 192.445 22.12C192.36 22.3547 191.987 22.7493 191.325 23.304C191.219 23.3893 191.123 23.464 191.037 23.528C189.523 24.68 187.699 25.288 185.565 25.352C184.157 25.3733 182.963 25.0533 181.981 24.392C181.491 24.0933 181.053 23.6667 180.669 23.112C180.264 22.5147 179.987 21.8533 179.837 21.128C179.432 19.144 179.912 17.1387 181.277 15.112C181.427 14.8773 181.587 14.6533 181.757 14.44C182.12 13.9707 182.632 13.4587 183.293 12.904C184.808 11.688 186.408 11.016 188.093 10.888ZM197.297 10.888C197.617 10.824 198.065 10.8453 198.641 10.952C199.793 11.2507 200.486 11.912 200.721 12.936C200.785 13.192 200.806 13.448 200.785 13.704C200.764 14.088 200.593 14.7067 200.273 15.56C199.484 17.6507 198.972 19.2507 198.737 20.36C198.545 21.4907 198.588 22.3653 198.865 22.984C199.057 23.3893 199.356 23.6453 199.761 23.752C200.273 23.9653 200.913 23.88 201.681 23.496C202.3 23.1547 202.833 22.6213 203.281 21.896C203.345 21.8107 203.761 20.2107 204.529 17.096C205.34 13.9173 205.777 12.2747 205.841 12.168C206.182 11.5493 206.694 11.2293 207.377 11.208C207.718 11.208 208.006 11.304 208.241 11.496C208.348 11.5387 208.444 11.656 208.529 11.848C208.636 12.0827 208.646 12.4133 208.561 12.84C208.454 13.3307 208.092 14.8027 207.473 17.256C206.705 20.328 206.3 21.992 206.257 22.248C206.214 22.8027 206.225 23.176 206.289 23.368C206.374 23.6453 206.556 23.8053 206.833 23.848C207.089 23.848 207.292 23.784 207.441 23.656C207.889 23.336 208.326 22.3867 208.753 20.808C208.838 20.4027 208.934 20.1787 209.041 20.136C209.126 20.1147 209.329 20.104 209.649 20.104C210.054 20.104 210.278 20.1253 210.321 20.168C210.449 20.2533 210.449 20.4987 210.321 20.904C209.958 22.248 209.521 23.272 209.009 23.976C208.668 24.488 208.252 24.8613 207.761 25.096C207.42 25.2667 206.993 25.352 206.481 25.352C205.222 25.288 204.305 24.776 203.729 23.816L203.633 23.656L203.505 23.784C203.1 24.2107 202.588 24.584 201.969 24.904C201.393 25.1813 200.817 25.3307 200.241 25.352C198.897 25.3947 197.82 25.0853 197.009 24.424C196.049 23.656 195.633 22.4827 195.761 20.904C195.846 19.8587 196.348 18.0987 197.265 15.624C197.286 15.5387 197.308 15.464 197.329 15.4C197.628 14.6533 197.788 14.2053 197.809 14.056C198.065 13.3307 198.097 12.8293 197.905 12.552C197.82 12.424 197.649 12.36 197.393 12.36C196.497 12.4453 195.74 13.2133 195.121 14.664C195.014 14.92 194.918 15.1973 194.833 15.496C194.748 15.752 194.705 15.8907 194.705 15.912C194.47 16.04 194.214 16.104 193.937 16.104H193.329L193.233 16.008C193.126 15.9227 193.137 15.6987 193.265 15.336C193.436 14.76 193.628 14.2693 193.841 13.864C194.716 12.136 195.868 11.144 197.297 10.888ZM214.714 10.888C215.098 10.8453 215.535 10.856 216.026 10.92C217.028 11.1547 217.743 11.6453 218.17 12.392L218.266 12.552L218.458 12.328C218.906 11.88 219.375 11.5387 219.866 11.304C220.42 11.0267 221.039 10.888 221.722 10.888C222.106 10.888 222.372 10.9093 222.522 10.952C222.906 11.0587 223.279 11.24 223.642 11.496C224.367 12.0933 224.687 12.904 224.602 13.928C224.602 13.992 224.602 14.0453 224.602 14.088C224.474 15.1333 224.026 15.8373 223.258 16.2C222.66 16.4773 222.095 16.4987 221.562 16.264C220.943 15.9653 220.708 15.4213 220.858 14.632C220.943 14.2053 221.146 13.8107 221.466 13.448C221.743 13.192 222.052 13.0107 222.394 12.904L222.618 12.808L222.522 12.712C222.031 12.3067 221.412 12.2427 220.666 12.52C219.919 12.8187 219.236 13.512 218.618 14.6L218.362 14.984L217.242 19.56C216.452 22.632 216.026 24.232 215.962 24.36C215.663 25 215.162 25.3307 214.458 25.352C214.116 25.352 213.818 25.256 213.562 25.064C213.455 25.0213 213.359 24.904 213.274 24.712C213.167 24.4987 213.156 24.1787 213.242 23.752C213.348 23.2613 213.722 21.7253 214.362 19.144C215.194 15.8373 215.62 14.12 215.641 13.992C215.791 12.9467 215.588 12.4027 215.034 12.36C214.97 12.36 214.906 12.36 214.842 12.36C214.202 12.488 213.636 13.5333 213.146 15.496C213.06 15.752 213.018 15.8907 213.018 15.912C212.783 16.04 212.527 16.104 212.25 16.104H211.642L211.546 16.008C211.46 15.9227 211.46 15.6987 211.546 15.336C211.951 13.8427 212.452 12.7227 213.049 11.976C213.519 11.4 214.074 11.0373 214.714 10.888ZM238.175 10.888C238.516 10.8027 238.858 10.8453 239.199 11.016C239.668 11.208 239.999 11.656 240.191 12.36C240.234 12.5733 240.255 12.904 240.255 13.352C240.255 13.9493 240.18 14.6427 240.031 15.432C239.711 17.0107 239.338 18.3653 238.911 19.496C237.631 22.8453 236.031 24.7653 234.111 25.256C233.215 25.4693 232.212 25.3947 231.103 25.032C230.292 24.776 229.674 24.36 229.247 23.784C228.522 22.7813 228.319 21.4693 228.639 19.848C228.767 19.016 229.247 17.512 230.079 15.336C230.527 14.1413 230.74 13.3307 230.719 12.904C230.698 12.5627 230.559 12.3813 230.303 12.36C230.239 12.36 230.175 12.36 230.111 12.36C229.578 12.424 229.087 12.744 228.639 13.32C228.362 13.6187 228.138 14.0027 227.967 14.472C227.754 14.8773 227.594 15.3253 227.487 15.816C227.423 15.944 227.38 16.0187 227.359 16.04C227.316 16.0827 227.092 16.104 226.687 16.104H226.079L225.983 16.008C225.876 15.9227 225.887 15.6987 226.015 15.336C226.42 13.9707 227.039 12.872 227.871 12.04C228.255 11.6773 228.66 11.4 229.087 11.208C229.535 10.9733 230.026 10.8667 230.559 10.888C230.922 10.888 231.188 10.9093 231.359 10.952C232.447 11.2507 233.14 11.9013 233.439 12.904C233.524 13.2667 233.524 13.7253 233.439 14.28C233.396 14.4293 233.236 14.8667 232.959 15.592C232.127 17.8747 231.636 19.4427 231.487 20.296C231.444 20.5307 231.423 20.904 231.423 21.416C231.423 21.8853 231.444 22.1947 231.487 22.344C231.658 22.9627 231.967 23.3787 232.415 23.592C232.671 23.7413 233.023 23.816 233.471 23.816C233.77 23.816 234.015 23.784 234.207 23.72C235.679 23.208 236.884 21.2667 237.823 17.896C238.015 17.2133 238.111 16.6693 238.111 16.264C238.111 15.8373 238.036 15.4427 237.887 15.08C237.652 14.632 237.322 14.2373 236.895 13.896C236.767 13.7893 236.66 13.6507 236.575 13.48C236.511 13.3733 236.468 13.2027 236.447 12.968C236.447 12.648 236.522 12.3493 236.671 12.072C236.991 11.432 237.492 11.0373 238.175 10.888ZM250.218 10.888H251.498C253.034 11.1227 254.016 11.8267 254.442 13C254.57 13.4267 254.592 13.864 254.506 14.312C254.144 15.9547 252.96 17.032 250.954 17.544C250.058 17.8 248.576 17.96 246.506 18.024H245.482L245.418 18.216C245.333 18.5787 245.226 19.1333 245.098 19.88C245.013 20.5627 245.013 21.1707 245.098 21.704C245.226 22.3227 245.493 22.824 245.898 23.208C246.389 23.656 247.05 23.8693 247.882 23.848C249.589 23.7413 251.029 23.2507 252.202 22.376C252.608 22.12 252.949 21.8107 253.226 21.448C253.461 21.1707 253.653 21.0853 253.802 21.192C253.866 21.2347 253.984 21.3413 254.154 21.512C254.453 21.832 254.592 22.0347 254.57 22.12C254.549 22.2267 254.314 22.504 253.866 22.952C252.522 24.232 250.794 25 248.682 25.256C247.957 25.384 247.317 25.4053 246.762 25.32C244.757 25.1067 243.36 24.0933 242.57 22.28C242.421 21.96 242.304 21.6187 242.218 21.256C242.069 20.7227 241.994 20.0507 241.994 19.24C242.016 17.9813 242.293 16.8293 242.826 15.784C243.21 14.9947 243.733 14.2693 244.394 13.608C244.714 13.3093 245.109 12.9787 245.578 12.616C246.88 11.656 248.288 11.0907 249.802 10.92C249.909 10.8987 250.048 10.888 250.218 10.888ZM251.082 12.392C250.293 12.2427 249.461 12.392 248.586 12.84C247.328 13.416 246.453 14.5253 245.962 16.168C245.92 16.3387 245.888 16.4347 245.866 16.456C245.866 16.4987 246.218 16.52 246.922 16.52C248.309 16.4987 249.354 16.4027 250.058 16.232C251.509 15.9333 252.362 15.3147 252.618 14.376C252.704 14.0347 252.693 13.736 252.586 13.48C252.394 12.9253 251.893 12.5627 251.082 12.392Z" fill="black"/>
<path d="M387.304 340.176C387.347 340.155 387.517 340.144 387.816 340.144C389.48 340.229 391.731 340.251 394.568 340.208C396.445 340.165 397.373 340.144 397.352 340.144H397.736L397.832 340.24C397.939 340.347 397.949 340.592 397.864 340.976C397.864 341.019 397.853 341.061 397.832 341.104C397.725 341.573 397.629 341.829 397.544 341.872C397.48 341.915 397.149 341.936 396.552 341.936C395.293 341.936 394.472 341.968 394.088 342.032C393.747 342.075 393.533 342.16 393.448 342.288L389 360.08C389 360.123 389.043 360.155 389.128 360.176H391.272C392.851 360.176 393.885 360.112 394.376 359.984C394.419 359.984 394.461 359.973 394.504 359.952C395.955 359.611 397.149 358.853 398.088 357.68C398.685 356.933 399.325 355.643 400.008 353.808C400.2 353.296 400.328 353.029 400.392 353.008C400.541 352.901 400.893 352.891 401.448 352.976C401.533 352.976 401.587 352.987 401.608 353.008C401.736 353.051 401.8 353.147 401.8 353.296L398.76 361.84C398.717 361.925 398.44 361.968 397.928 361.968C397.288 361.989 394.749 362 390.312 362C384.829 362 382.056 361.979 381.992 361.936C381.928 361.872 381.885 361.819 381.864 361.776C381.843 361.691 381.875 361.445 381.96 361.04C382.088 360.613 382.173 360.368 382.216 360.304L382.344 360.208H383.432C384.627 360.187 385.299 360.101 385.448 359.952C385.512 359.909 386.28 356.944 387.752 351.056C389.224 345.168 389.96 342.203 389.96 342.16C389.96 342.139 389.939 342.107 389.896 342.064C389.811 342.021 389.235 341.979 388.168 341.936H387.08L386.984 341.84C386.856 341.755 386.856 341.456 386.984 340.944C387.091 340.496 387.197 340.24 387.304 340.176ZM409.405 347.536C410.003 347.493 410.771 347.504 411.709 347.568C414.44 347.931 416.157 349.019 416.861 350.832C416.989 351.131 417.075 351.44 417.117 351.76C417.181 352.272 417.16 352.741 417.053 353.168C416.925 353.616 416.723 354.021 416.445 354.384C415.933 355.003 414.813 355.685 413.085 356.432C412.381 356.731 411.315 357.285 409.885 358.096L408.285 359.024H411.389C413.608 358.981 414.728 358.96 414.749 358.96L415.005 358.928L415.101 358.768C415.229 358.555 415.347 358.171 415.453 357.616C415.539 357.232 415.635 357.019 415.741 356.976C415.827 356.955 416.029 356.944 416.349 356.944H416.925L417.021 357.04C417.043 357.061 417.085 357.125 417.149 357.232L416.701 359.536C416.381 361.008 416.221 361.755 416.221 361.776C416.221 361.84 416.179 361.893 416.093 361.936L416.029 362H410.237C406.333 362 404.339 361.936 404.253 361.808C404.147 361.68 404.125 361.264 404.189 360.56C404.189 360.453 404.2 360.389 404.221 360.368C404.243 360.304 405.128 359.696 406.877 358.544L410.237 356.368C411.304 355.664 412.051 355.099 412.477 354.672C413.181 353.968 413.533 353.2 413.533 352.368C413.533 351.813 413.373 351.312 413.053 350.864C412.285 349.84 410.92 349.328 408.957 349.328C408.509 349.328 408.211 349.349 408.061 349.392C407.677 349.499 407.411 349.605 407.261 349.712L407.069 349.808L407.261 350C407.795 350.469 407.933 351.056 407.677 351.76C407.656 351.824 407.624 351.899 407.581 351.984C407.475 352.24 407.251 352.453 406.909 352.624C406.419 352.88 405.917 352.88 405.405 352.624C404.979 352.411 404.701 352.059 404.573 351.568C404.488 351.269 404.509 350.885 404.637 350.416C404.765 349.968 404.936 349.627 405.149 349.392C405.917 348.368 407.336 347.749 409.405 347.536Z" fill="black"/>
<path d="M97.136 172.432L97.232 172.336H106.736C113.136 172.336 116.389 172.4 116.496 172.528C116.539 172.635 116.357 173.915 115.952 176.368C115.525 178.885 115.301 180.155 115.28 180.176C115.195 180.283 114.939 180.336 114.512 180.336C114.064 180.336 113.819 180.272 113.776 180.144C113.733 180.059 113.744 179.792 113.808 179.344C114.128 177.403 114.192 176.101 114 175.44C113.808 174.8 113.136 174.384 111.984 174.192C111.792 174.171 111.173 174.16 110.128 174.16C108.912 174.139 108.251 174.192 108.144 174.32C108.101 174.363 107.355 177.317 105.904 183.184L103.696 191.984L103.792 192.048C104.069 192.155 105.125 192.208 106.96 192.208H107.952L108.08 192.304C108.144 192.389 108.176 192.464 108.176 192.528L107.888 193.808C107.824 193.936 107.611 193.989 107.248 193.968C107.12 193.968 106.811 193.968 106.32 193.968C101.861 193.883 98.384 193.893 95.888 194H95.408L95.312 193.904C95.2053 193.797 95.1947 193.552 95.28 193.168C95.28 193.125 95.2907 193.083 95.312 193.04C95.4187 192.571 95.5147 192.315 95.6 192.272C95.664 192.229 96.0373 192.208 96.72 192.208C98.1493 192.208 99.0773 192.176 99.504 192.112C99.8453 192.091 100.08 192.016 100.208 191.888C100.251 191.824 100.997 188.869 102.448 183.024C103.92 177.157 104.656 174.213 104.656 174.192C104.571 174.149 103.909 174.128 102.672 174.128C101.691 174.149 101.093 174.181 100.88 174.224C99.6427 174.416 98.736 174.864 98.16 175.568C97.6053 176.251 97.008 177.541 96.368 179.44C96.1973 179.909 96.112 180.155 96.112 180.176C96.0267 180.283 95.7707 180.336 95.344 180.336C94.9173 180.336 94.6613 180.261 94.576 180.112L94.544 180.016L95.76 176.272C96.6133 173.776 97.072 172.496 97.136 172.432ZM121.648 179.6C121.776 179.536 121.904 179.504 122.032 179.504C122.181 179.504 122.288 179.536 122.352 179.6L122.48 179.696V185.808C122.48 189.883 122.501 191.931 122.544 191.952C122.65 192.101 123.44 192.187 124.912 192.208C125.829 192.208 126.33 192.283 126.416 192.432C126.48 192.581 126.49 192.965 126.448 193.584C126.448 193.691 126.437 193.755 126.416 193.776C126.352 193.904 126.16 193.968 125.84 193.968C125.69 193.968 125.402 193.968 124.976 193.968C123.141 193.883 120.698 193.872 117.648 193.936C117.349 193.957 117.104 193.968 116.911 193.968C116.058 193.989 115.589 193.936 115.504 193.808C115.397 193.68 115.376 193.285 115.44 192.624C115.461 192.496 115.482 192.421 115.504 192.4C115.546 192.272 115.749 192.208 116.112 192.208C116.261 192.208 116.56 192.208 117.008 192.208C118.437 192.187 119.226 192.101 119.376 191.952C119.418 191.931 119.44 190.32 119.44 187.12V182.352H119.344C118.298 182.544 117.306 182.651 116.368 182.672H115.504L115.408 182.576L115.28 182.448V181.776V181.104L115.376 181.008L115.472 180.88H116.304C118.672 180.816 120.453 180.389 121.648 179.6Z" fill="black"/>
<path d="M293.136 172.432L293.232 172.336H302.736C309.136 172.336 312.389 172.4 312.496 172.528C312.539 172.635 312.357 173.915 311.952 176.368C311.525 178.885 311.301 180.155 311.28 180.176C311.195 180.283 310.939 180.336 310.512 180.336C310.064 180.336 309.819 180.272 309.776 180.144C309.733 180.059 309.744 179.792 309.808 179.344C310.128 177.403 310.192 176.101 310 175.44C309.808 174.8 309.136 174.384 307.984 174.192C307.792 174.171 307.173 174.16 306.128 174.16C304.912 174.139 304.251 174.192 304.144 174.32C304.101 174.363 303.355 177.317 301.904 183.184L299.696 191.984L299.792 192.048C300.069 192.155 301.125 192.208 302.96 192.208H303.952L304.08 192.304C304.144 192.389 304.176 192.464 304.176 192.528L303.888 193.808C303.824 193.936 303.611 193.989 303.248 193.968C303.12 193.968 302.811 193.968 302.32 193.968C297.861 193.883 294.384 193.893 291.888 194H291.408L291.312 193.904C291.205 193.797 291.195 193.552 291.28 193.168C291.28 193.125 291.291 193.083 291.312 193.04C291.419 192.571 291.515 192.315 291.6 192.272C291.664 192.229 292.037 192.208 292.72 192.208C294.149 192.208 295.077 192.176 295.504 192.112C295.845 192.091 296.08 192.016 296.208 191.888C296.251 191.824 296.997 188.869 298.448 183.024C299.92 177.157 300.656 174.213 300.656 174.192C300.571 174.149 299.909 174.128 298.672 174.128C297.691 174.149 297.093 174.181 296.88 174.224C295.643 174.416 294.736 174.864 294.16 175.568C293.605 176.251 293.008 177.541 292.368 179.44C292.197 179.909 292.112 180.155 292.112 180.176C292.027 180.283 291.771 180.336 291.344 180.336C290.917 180.336 290.661 180.261 290.576 180.112L290.544 180.016L291.76 176.272C292.613 173.776 293.072 172.496 293.136 172.432ZM315.312 179.536C315.909 179.493 316.677 179.504 317.616 179.568C320.346 179.931 322.064 181.019 322.768 182.832C322.896 183.131 322.981 183.44 323.024 183.76C323.088 184.272 323.066 184.741 322.96 185.168C322.832 185.616 322.629 186.021 322.352 186.384C321.84 187.003 320.72 187.685 318.992 188.432C318.288 188.731 317.221 189.285 315.792 190.096L314.192 191.024H317.296C319.514 190.981 320.634 190.96 320.656 190.96L320.912 190.928L321.008 190.768C321.136 190.555 321.253 190.171 321.36 189.616C321.445 189.232 321.541 189.019 321.648 188.976C321.733 188.955 321.936 188.944 322.256 188.944H322.832L322.928 189.04C322.949 189.061 322.992 189.125 323.056 189.232L322.608 191.536C322.288 193.008 322.128 193.755 322.128 193.776C322.128 193.84 322.085 193.893 322 193.936L321.936 194H316.144C312.24 194 310.245 193.936 310.16 193.808C310.053 193.68 310.032 193.264 310.096 192.56C310.096 192.453 310.106 192.389 310.128 192.368C310.149 192.304 311.034 191.696 312.784 190.544L316.144 188.368C317.21 187.664 317.957 187.099 318.384 186.672C319.088 185.968 319.44 185.2 319.44 184.368C319.44 183.813 319.28 183.312 318.96 182.864C318.192 181.84 316.826 181.328 314.864 181.328C314.416 181.328 314.117 181.349 313.968 181.392C313.584 181.499 313.317 181.605 313.168 181.712L312.976 181.808L313.168 182C313.701 182.469 313.84 183.056 313.584 183.76C313.562 183.824 313.53 183.899 313.488 183.984C313.381 184.24 313.157 184.453 312.816 184.624C312.325 184.88 311.824 184.88 311.312 184.624C310.885 184.411 310.608 184.059 310.48 183.568C310.394 183.269 310.416 182.885 310.544 182.416C310.672 181.968 310.842 181.627 311.056 181.392C311.824 180.368 313.242 179.749 315.312 179.536Z" fill="black"/>
<path d="M196.688 163.472C197.221 163.429 197.915 163.44 198.768 163.504C200.603 163.76 202.117 164.507 203.312 165.744C204.485 166.917 205.221 168.421 205.52 170.256C205.989 173.029 205.445 175.845 203.888 178.704C203.589 179.237 203.259 179.76 202.896 180.272C201.68 182.021 200.208 183.44 198.48 184.528C197.328 185.275 196.187 185.819 195.056 186.16C192.091 187.077 189.499 186.853 187.28 185.488C186.832 185.211 186.416 184.891 186.032 184.528C184.752 183.269 183.952 181.616 183.632 179.568C183.547 178.885 183.536 178.021 183.6 176.976C183.621 176.891 183.632 176.816 183.632 176.752C184.016 173.829 185.253 171.141 187.344 168.688C187.941 168.005 188.581 167.365 189.264 166.768C191.632 164.805 194.107 163.707 196.688 163.472ZM198.128 165.136C197.595 165.051 197.051 165.029 196.496 165.072C195.109 165.243 193.84 165.776 192.688 166.672C191.003 167.952 189.712 169.733 188.816 172.016C188.155 173.659 187.685 175.504 187.408 177.552C187.323 178.384 187.312 179.28 187.376 180.24C187.397 180.325 187.408 180.389 187.408 180.432C187.728 182.459 188.624 183.845 190.096 184.592C191.525 185.317 193.168 185.232 195.024 184.336C197.413 183.163 199.259 180.955 200.56 177.712C201.307 175.792 201.787 173.872 202 171.952C202.085 171.248 202.085 170.501 202 169.712C202 169.669 202 169.627 202 169.584C201.765 168.219 201.296 167.184 200.592 166.48C199.909 165.776 199.088 165.328 198.128 165.136Z" fill="black"/>
<path d="M291.336 457.208C291.4 457.165 293.416 457.144 297.384 457.144C301.416 457.144 303.507 457.155 303.656 457.176C305.341 457.347 306.707 457.944 307.752 458.968C308.349 459.587 308.744 460.355 308.936 461.272C309.064 461.72 309.085 462.232 309 462.808C308.787 464.621 307.773 466.221 305.96 467.608C304.872 468.44 303.656 469.027 302.312 469.368C301.544 469.581 300.552 469.688 299.336 469.688C299.037 469.688 298.483 469.688 297.672 469.688H294.888L293.992 473.336C293.373 475.789 293.085 477.027 293.128 477.048C293.171 477.091 293.245 477.112 293.352 477.112C293.693 477.176 294.312 477.208 295.208 477.208C295.699 477.208 295.965 477.229 296.008 477.272C296.136 477.315 296.2 477.411 296.2 477.56L295.88 478.808C295.795 478.936 295.581 478.989 295.24 478.968C295.133 478.968 294.888 478.968 294.504 478.968C292.733 478.883 290.504 478.872 287.816 478.936C287.56 478.957 287.357 478.968 287.208 478.968C286.461 478.989 286.045 478.936 285.96 478.808C285.917 478.744 285.939 478.499 286.024 478.072C286.131 477.603 286.237 477.336 286.344 477.272C286.451 477.229 286.835 477.208 287.496 477.208C288.691 477.187 289.363 477.101 289.512 476.952C289.576 476.909 290.344 473.944 291.816 468.056C293.288 462.168 294.024 459.203 294.024 459.16C294.024 459.139 294.003 459.107 293.96 459.064C293.875 459.021 293.299 458.979 292.232 458.936H291.144L291.016 458.808C290.931 458.723 290.941 458.467 291.048 458.04C291.176 457.528 291.272 457.251 291.336 457.208ZM302.408 458.968H297.864C297.651 458.989 297.512 459.053 297.448 459.16L296.328 463.576C295.581 466.499 295.208 467.971 295.208 467.992C295.208 468.035 296.04 468.056 297.704 468.056C299.539 468.035 300.701 467.971 301.192 467.864C302.344 467.629 303.208 467.149 303.784 466.424C304.253 465.805 304.648 464.813 304.968 463.448C305.203 462.531 305.32 461.827 305.32 461.336C305.32 460.781 305.203 460.344 304.968 460.024C304.456 459.405 303.603 459.053 302.408 458.968ZM312.155 464.536C312.753 464.493 313.521 464.504 314.459 464.568C317.19 464.931 318.907 466.019 319.611 467.832C319.739 468.131 319.825 468.44 319.867 468.76C319.931 469.272 319.91 469.741 319.803 470.168C319.675 470.616 319.473 471.021 319.195 471.384C318.683 472.003 317.563 472.685 315.835 473.432C315.131 473.731 314.065 474.285 312.635 475.096L311.035 476.024H314.139C316.358 475.981 317.478 475.96 317.499 475.96L317.755 475.928L317.851 475.768C317.979 475.555 318.097 475.171 318.203 474.616C318.289 474.232 318.385 474.019 318.491 473.976C318.577 473.955 318.779 473.944 319.099 473.944H319.675L319.771 474.04C319.793 474.061 319.835 474.125 319.899 474.232L319.451 476.536C319.131 478.008 318.971 478.755 318.971 478.776C318.971 478.84 318.929 478.893 318.843 478.936L318.779 479H312.987C309.083 479 307.089 478.936 307.003 478.808C306.897 478.68 306.875 478.264 306.939 477.56C306.939 477.453 306.95 477.389 306.971 477.368C306.993 477.304 307.878 476.696 309.627 475.544L312.987 473.368C314.054 472.664 314.801 472.099 315.227 471.672C315.931 470.968 316.283 470.2 316.283 469.368C316.283 468.813 316.123 468.312 315.803 467.864C315.035 466.84 313.67 466.328 311.707 466.328C311.259 466.328 310.961 466.349 310.811 466.392C310.427 466.499 310.161 466.605 310.011 466.712L309.819 466.808L310.011 467C310.545 467.469 310.683 468.056 310.427 468.76C310.406 468.824 310.374 468.899 310.331 468.984C310.225 469.24 310.001 469.453 309.659 469.624C309.169 469.88 308.667 469.88 308.155 469.624C307.729 469.411 307.451 469.059 307.323 468.568C307.238 468.269 307.259 467.885 307.387 467.416C307.515 466.968 307.686 466.627 307.899 466.392C308.667 465.368 310.086 464.749 312.155 464.536Z" fill="black"/>
<path d="M260.72 513.36C261.2 513.307 261.747 513.32 262.36 513.4C263.88 513.747 264.867 514.573 265.32 515.88L265.4 516.12L265.84 515.72C266.347 515.213 266.813 514.827 267.24 514.56C268.573 513.707 270.04 513.293 271.64 513.32C273.16 513.4 274.32 513.827 275.12 514.6C275.547 515 275.88 515.547 276.12 516.24L276.16 516.48L276.68 515.96C277.213 515.373 277.76 514.907 278.32 514.56C279.653 513.707 281.12 513.293 282.72 513.32C284.24 513.4 285.4 513.827 286.2 514.6C287.24 515.613 287.6 517.093 287.28 519.04C287.013 520.587 286.28 522.933 285.08 526.08C284.627 527.333 284.4 528.213 284.4 528.72C284.4 529.253 284.573 529.533 284.92 529.56C284.973 529.56 285.04 529.56 285.12 529.56C285.68 529.507 286.2 529.227 286.68 528.72C287.453 527.947 288.013 526.893 288.36 525.56C288.493 525.16 288.627 524.947 288.76 524.92C288.84 524.893 289.08 524.88 289.48 524.88C289.987 524.88 290.28 524.907 290.36 524.96C290.413 525.013 290.44 525.12 290.44 525.28C290.44 525.867 290.067 526.827 289.32 528.16C289.24 528.293 289.16 528.427 289.08 528.56C288.2 529.92 287.147 530.813 285.92 531.24C284.827 531.587 283.76 531.493 282.72 530.96C282.347 530.773 282.067 530.573 281.88 530.36C281.64 530.12 281.453 529.867 281.32 529.6C281.053 529.093 280.933 528.56 280.96 528C280.96 527.44 281.12 526.72 281.44 525.84C283.147 521.307 283.92 518.373 283.76 517.04C283.68 516.267 283.427 515.747 283 515.48C282.707 515.24 282.187 515.16 281.44 515.24C279.467 515.48 277.773 516.76 276.36 519.08L276.12 519.52L274.8 524.72C273.973 528.133 273.493 529.96 273.36 530.2C272.987 531 272.36 531.413 271.48 531.44C271.053 531.44 270.68 531.32 270.36 531.08C270.227 531.027 270.107 530.88 270 530.64C269.867 530.347 269.867 529.907 270 529.32C270.107 528.787 270.493 527.173 271.16 524.48C272.067 520.907 272.533 519.04 272.56 518.88C272.773 517.787 272.76 516.933 272.52 516.32C272.307 515.573 271.787 515.2 270.96 515.2C268.72 515.2 266.827 516.493 265.28 519.08L265.04 519.52L263.72 524.72C262.893 528.133 262.413 529.96 262.28 530.2C261.907 531 261.28 531.413 260.4 531.44C259.973 531.44 259.6 531.32 259.28 531.08C259.147 531.027 259.027 530.88 258.92 530.64C258.787 530.373 258.773 529.973 258.88 529.44C259.013 528.827 259.48 526.907 260.28 523.68C261.32 519.547 261.853 517.4 261.88 517.24C262.067 515.933 261.813 515.253 261.12 515.2C261.04 515.2 260.96 515.2 260.88 515.2C260.107 515.36 259.413 516.6 258.8 518.92L258.6 519.64C258.307 519.8 257.987 519.88 257.64 519.88H256.88L256.76 519.76C256.653 519.653 256.653 519.373 256.76 518.92C257.293 517.08 257.92 515.693 258.64 514.76C259.2 514.04 259.893 513.573 260.72 513.36ZM299.397 512.92C300.144 512.867 301.104 512.88 302.277 512.96C305.691 513.413 307.837 514.773 308.717 517.04C308.877 517.413 308.984 517.8 309.037 518.2C309.117 518.84 309.091 519.427 308.957 519.96C308.797 520.52 308.544 521.027 308.197 521.48C307.557 522.253 306.157 523.107 303.997 524.04C303.117 524.413 301.784 525.107 299.997 526.12L297.997 527.28H301.877C304.651 527.227 306.051 527.2 306.077 527.2L306.397 527.16L306.517 526.96C306.677 526.693 306.824 526.213 306.957 525.52C307.064 525.04 307.184 524.773 307.317 524.72C307.424 524.693 307.677 524.68 308.077 524.68H308.797L308.917 524.8C308.944 524.827 308.997 524.907 309.077 525.04L308.517 527.92C308.117 529.76 307.917 530.693 307.917 530.72C307.917 530.8 307.864 530.867 307.757 530.92L307.677 531H300.437C295.557 531 293.064 530.92 292.957 530.76C292.824 530.6 292.797 530.08 292.877 529.2C292.877 529.067 292.891 528.987 292.917 528.96C292.944 528.88 294.051 528.12 296.237 526.68L300.437 523.96C301.771 523.08 302.704 522.373 303.237 521.84C304.117 520.96 304.557 520 304.557 518.96C304.557 518.267 304.357 517.64 303.957 517.08C302.997 515.8 301.291 515.16 298.837 515.16C298.277 515.16 297.904 515.187 297.717 515.24C297.237 515.373 296.904 515.507 296.717 515.64L296.477 515.76L296.717 516C297.384 516.587 297.557 517.32 297.237 518.2C297.211 518.28 297.171 518.373 297.117 518.48C296.984 518.8 296.704 519.067 296.277 519.28C295.664 519.6 295.037 519.6 294.397 519.28C293.864 519.013 293.517 518.573 293.357 517.96C293.251 517.587 293.277 517.107 293.437 516.52C293.597 515.96 293.811 515.533 294.077 515.24C295.037 513.96 296.811 513.187 299.397 512.92Z" fill="black"/>
<line x1="208" y1="184.75" x2="209" y2="184.75" stroke="black" stroke-width="2.5"/>
<path d="M373.293 488.707C373.683 489.098 374.317 489.098 374.707 488.707L381.071 482.343C381.462 481.953 381.462 481.319 381.071 480.929C380.681 480.538 380.047 480.538 379.657 480.929L374 486.586L368.343 480.929C367.953 480.538 367.319 480.538 366.929 480.929C366.538 481.319 366.538 481.953 366.929 482.343L373.293 488.707ZM374 178H373V488H374H375V178H374Z" fill="black"/>
<path d="M374.707 177.293C374.317 176.902 373.683 176.902 373.293 177.293L366.929 183.657C366.538 184.047 366.538 184.681 366.929 185.071C367.319 185.462 367.953 185.462 368.343 185.071L374 179.414L379.657 185.071C380.047 185.462 380.681 185.462 381.071 185.071C381.462 184.681 381.462 184.047 381.071 183.657L374.707 177.293ZM374 488L375 488L375 178L374 178L373 178L373 488L374 488Z" fill="black"/>
</svg>
