<svg width="1929" height="2113" xmlns="http://www.w3.org/2000/svg" xmlns:xlink="http://www.w3.org/1999/xlink" xml:space="preserve" overflow="hidden"><defs><clipPath id="clip0"><rect x="2264" y="215" width="1929" height="2113"/></clipPath><clipPath id="clip1"><rect x="2264" y="215" width="1929" height="2113"/></clipPath></defs><g clip-path="url(#clip0)" transform="translate(-2264 -215)"><g clip-path="url(#clip1)"><rect x="2271.5" y="220.5" width="1915" height="2103" stroke="#FFFFFF" stroke-width="6.875" stroke-linecap="butt" stroke-linejoin="miter" stroke-miterlimit="8" stroke-opacity="1" fill="#FFFFFF" fill-opacity="1"/><path d="M2569 1261.5C2569 923.778 2854.42 650 3206.5 650 3558.58 650 3844 923.778 3844 1261.5 3844 1599.22 3558.58 1873 3206.5 1873 2854.42 1873 2569 1599.22 2569 1261.5Z" stroke="#042433" stroke-width="13.75" stroke-linecap="butt" stroke-linejoin="miter" stroke-miterlimit="8" stroke-opacity="1" fill="#FFFFFF" fill-rule="evenodd" fill-opacity="1"/><text fill="#000000" fill-opacity="1" font-family="Arial,Arial_MSFontService,sans-serif" font-style="normal" font-variant="normal" font-weight="700" font-stretch="normal" font-size="92" text-anchor="start" direction="ltr" writing-mode="lr-tb" unicode-bidi="normal" text-decoration="none" transform="matrix(1 0 0 1 3041.82 466)">Top View</text><path d="M4.75337-4.967 280.801 259.208 271.294 269.142-4.75337 4.967ZM285.341 244.52 300.882 287.942 256.82 274.322Z" fill="#000000" fill-rule="nonzero" fill-opacity="1" transform="matrix(-1 0 0 1 3205.88 1262)"/><path d="M3206 1255.12 3566.33 1255.13 3566.33 1268.88 3206 1268.87ZM3559.46 1241.38 3600.71 1262 3559.46 1282.63Z" fill="#000000" fill-rule="nonzero" fill-opacity="1"/><path d="M6.87343-0.146863 8.04834 54.8406-5.69853 55.1343-6.87343 0.146863ZM8.92951 96.0812 10.1044 151.069-3.64244 151.362-4.81735 96.3749ZM10.9856 192.309 12.1605 247.297-1.58636 247.59-2.76126 192.603ZM13.0417 288.537 14.2166 343.525 0.469725 343.818-0.70518 288.831ZM27.8271 336.848 8.08796 378.53-13.4135 337.73Z" fill="#000000" fill-rule="nonzero" fill-opacity="1" transform="matrix(-1 0 0 1 3210.09 1262)"/><path d="M5.36913-4.29395 39.7207 38.6591 28.9825 47.247-5.36913 4.29395ZM65.4845 70.8739 99.8361 113.827 89.0978 122.415 54.7462 79.4618ZM125.6 146.042 159.951 188.995 149.213 197.583 114.862 154.63ZM185.715 221.21 220.067 264.163 209.328 272.751 174.977 229.798ZM243.91 271.962 253.567 317.058 211.695 297.725Z" fill="#000000" fill-rule="nonzero" fill-opacity="1" transform="matrix(1 0 0 -1 3205 1262.06)"/><text fill="#000000" fill-opacity="1" font-family="Cambria Math,Cambria Math_MSFontService,sans-serif" font-style="normal" font-variant="normal" font-weight="400" font-stretch="normal" font-size="92" text-anchor="start" direction="ltr" writing-mode="lr-tb" unicode-bidi="normal" text-decoration="none" transform="matrix(1 0 0 1 2795.02 1656)">𝑵</text><text fill="#000000" fill-opacity="1" font-family="Cambria Math,Cambria Math_MSFontService,sans-serif" font-style="normal" font-variant="normal" font-weight="400" font-stretch="normal" font-size="67" text-anchor="start" direction="ltr" writing-mode="lr-tb" unicode-bidi="normal" text-decoration="none" transform="matrix(1 0 0 1 2864.92 1675)">𝒙</text><text fill="#000000" fill-opacity="1" font-family="Cambria Math,Cambria Math_MSFontService,sans-serif" font-style="normal" font-variant="normal" font-weight="400" font-stretch="normal" font-size="92" text-anchor="start" direction="ltr" writing-mode="lr-tb" unicode-bidi="normal" text-decoration="none" transform="matrix(1 0 0 1 3153.26 1763)">𝑨</text><text fill="#000000" fill-opacity="1" font-family="Cambria Math,Cambria Math_MSFontService,sans-serif" font-style="normal" font-variant="normal" font-weight="400" font-stretch="normal" font-size="67" text-anchor="start" direction="ltr" writing-mode="lr-tb" unicode-bidi="normal" text-decoration="none" transform="matrix(1 0 0 1 3213.99 1782)">𝒙</text><text fill="#000000" fill-opacity="1" font-family="Cambria Math,Cambria Math_MSFontService,sans-serif" font-style="normal" font-variant="normal" font-weight="400" font-stretch="normal" font-size="92" text-anchor="start" direction="ltr" writing-mode="lr-tb" unicode-bidi="normal" text-decoration="none" transform="matrix(1 0 0 1 3643.84 1302)">𝑵</text><text fill="#000000" fill-opacity="1" font-family="Cambria Math,Cambria Math_MSFontService,sans-serif" font-style="normal" font-variant="normal" font-weight="400" font-stretch="normal" font-size="67" text-anchor="start" direction="ltr" writing-mode="lr-tb" unicode-bidi="normal" text-decoration="none" transform="matrix(1 0 0 1 3713.74 1321)">𝒚</text><text fill="#000000" fill-opacity="1" font-family="Cambria Math,Cambria Math_MSFontService,sans-serif" font-style="normal" font-variant="normal" font-weight="400" font-stretch="normal" font-size="92" text-anchor="start" direction="ltr" writing-mode="lr-tb" unicode-bidi="normal" text-decoration="none" transform="matrix(1 0 0 1 3461.99 873)">𝑨</text><text fill="#000000" fill-opacity="1" font-family="Cambria Math,Cambria Math_MSFontService,sans-serif" font-style="normal" font-variant="normal" font-weight="400" font-stretch="normal" font-size="67" text-anchor="start" direction="ltr" writing-mode="lr-tb" unicode-bidi="normal" text-decoration="none" transform="matrix(1 0 0 1 3522.72 891)">𝒚</text><rect x="3507" y="1532" width="103" height="108" stroke="#215F9A" stroke-width="13.75" stroke-linecap="butt" stroke-linejoin="miter" stroke-miterlimit="8" stroke-opacity="1" fill="#215F9A" fill-opacity="1"/><path d="M3220.67 1252.96 3437.28 1453.5 3427.94 1463.59 3211.33 1263.05ZM3441.58 1438.74 3457.84 1481.89 3413.56 1469.01Z" fill="#215F9A" fill-rule="nonzero" fill-opacity="1"/><text fill="#215F9A" fill-opacity="1" font-family="Cambria Math,Cambria Math_MSFontService,sans-serif" font-style="normal" font-variant="normal" font-weight="400" font-stretch="normal" font-size="92" text-anchor="start" direction="ltr" writing-mode="lr-tb" unicode-bidi="normal" text-decoration="none" transform="matrix(1 0 0 1 3482.4 1447)">𝒓</text><path d="M3195.46 1565.96C3119.81 1602.3 3025.05 1566.03 2980.58 1483.71" stroke="#000000" stroke-width="6.875" stroke-linecap="butt" stroke-linejoin="miter" stroke-miterlimit="8" stroke-opacity="1" fill="none" fill-rule="evenodd"/><text fill="#000000" fill-opacity="1" font-family="Cambria Math,Cambria Math_MSFontService,sans-serif" font-style="normal" font-variant="normal" font-weight="400" font-stretch="normal" font-size="92" text-anchor="start" direction="ltr" writing-mode="lr-tb" unicode-bidi="normal" text-decoration="none" transform="matrix(1 0 0 1 3010.95 1648)">𝝓</text><path d="M3409.46 1449.67C3387.05 1530.56 3297.4 1578.06 3206.14 1557.39" stroke="#000000" stroke-width="6.875" stroke-linecap="butt" stroke-linejoin="miter" stroke-miterlimit="8" stroke-opacity="1" fill="none" fill-rule="evenodd"/><text fill="#000000" fill-opacity="1" font-family="Cambria Math,Cambria Math_MSFontService,sans-serif" font-style="normal" font-variant="normal" font-weight="400" font-stretch="normal" font-size="92" text-anchor="start" direction="ltr" writing-mode="lr-tb" unicode-bidi="normal" text-decoration="none" transform="matrix(1 0 0 1 3324.39 1637)">𝜽</text><path d="M3314.72 1393.44 3307.64 1400 3299.3 1406.8 3290.8 1413.16 3282.15 1419.11 3273.35 1424.64 3264.39 1429.77 3246.25 1438.7 3227.75 1445.93 3209.07 1451.44 3190.32 1455.18 3171.7 1457.14 3162.39 1457.45 3153.19 1457.31 3144.08 1456.71 3135.07 1455.64 3126.17 1454.12 3117.41 1452.13 3108.8 1449.67 3100.36 1446.73 3092.11 1443.33 3084.06 1439.44 3076.24 1435.08 3068.65 1430.23 3061.32 1424.9 3054.34 1419.15 3058.72 1413.85 3065.61 1419.53 3065.45 1419.4 3072.61 1424.61 3072.44 1424.49 3079.85 1429.23 3079.67 1429.12 3087.32 1433.39 3087.14 1433.3 3095.01 1437.09 3094.83 1437.01 3102.9 1440.34 3102.71 1440.27 3110.97 1443.14 3110.78 1443.08 3119.21 1445.49 3119.03 1445.44 3127.6 1447.39 3127.42 1447.36 3136.14 1448.85 3135.96 1448.83 3144.8 1449.87 3144.62 1449.85 3153.56 1450.44 3153.39 1450.44 3162.41 1450.58 3162.25 1450.58 3171.34 1450.28 3171.1 1450.29 3189.45 1448.36 3189.13 1448.41 3207.57 1444.72 3207.27 1444.8 3225.66 1439.38 3225.38 1439.48 3243.61 1432.35 3243.34 1432.47 3261.26 1423.65 3261.07 1423.75 3269.87 1418.71 3269.75 1418.78 3278.43 1413.33 3278.31 1413.4 3286.85 1407.54 3286.74 1407.62 3295.12 1401.34 3295.01 1401.43 3303.21 1394.74 3303.05 1394.88 3310.05 1388.4ZM3299.51 1384.27 3328.8 1374.92 3318.7 1403.96Z" fill="#215F9A" fill-rule="nonzero" fill-opacity="1"/><text fill="#215F9A" fill-opacity="1" font-family="Cambria Math,Cambria Math_MSFontService,sans-serif" font-style="normal" font-variant="normal" font-weight="400" font-stretch="normal" font-size="92" text-anchor="start" direction="ltr" writing-mode="lr-tb" unicode-bidi="normal" text-decoration="none" transform="matrix(1 0 0 1 3225.25 1509)">𝒒</text><text fill="#215F9A" fill-opacity="1" font-family="Cambria Math,Cambria Math_MSFontService,sans-serif" font-style="normal" font-variant="normal" font-weight="400" font-stretch="normal" font-size="67" text-anchor="start" direction="ltr" writing-mode="lr-tb" unicode-bidi="normal" text-decoration="none" transform="matrix(1 0 0 1 3280.82 1528)">𝟏</text><path d="M3732.14 1818.63 3716.73 1834.87 3700.97 1850.59 3685.09 1865.7 3669.1 1880.2 3653.03 1894.07 3636.91 1907.31 3620.77 1919.9 3604.63 1931.83 3588.52 1943.09 3572.47 1953.66 3556.5 1963.54 3540.65 1972.71 3524.93 1981.17 3509.38 1988.89 3494.01 1995.87 3478.87 2002.09 3463.96 2007.54 3449.33 2012.22 3434.99 2016.1 3420.97 2019.17 3407.3 2021.43 3394 2022.85 3381.09 2023.42 3368.62 2023.12 3356.59 2021.95 3345.05 2019.87 3334.02 2016.88 3323.53 2012.96 3313.62 2008.1 3304.32 2002.27 3295.83 1995.59 3300.08 1990.19 3308.43 1996.76 3308.13 1996.54 3317.12 2002.18 3316.81 2002.01 3326.4 2006.72 3326.09 2006.58 3336.27 2010.39 3335.97 2010.29 3346.7 2013.2 3346.41 2013.13 3357.67 2015.15 3357.4 2015.12 3369.16 2016.27 3368.91 2016.25 3381.14 2016.54 3380.91 2016.54 3393.59 2015.98 3393.37 2016 3406.47 2014.6 3406.28 2014.63 3419.76 2012.4 3419.58 2012.44 3433.43 2009.4 3433.27 2009.44 3447.46 2005.6 3447.31 2005.65 3461.8 2001.02 3461.67 2001.06 3476.44 1995.66 3476.32 1995.7 3491.34 1989.53 3491.23 1989.58 3506.48 1982.65 3506.37 1982.7 3521.82 1975.03 3521.72 1975.09 3537.35 1966.68 3537.25 1966.74 3553.02 1957.62 3552.93 1957.67 3568.81 1947.84 3568.73 1947.9 3584.7 1937.37 3584.62 1937.43 3600.66 1926.22 3600.58 1926.28 3616.65 1914.4 3616.58 1914.45 3632.65 1901.92 3632.58 1901.97 3648.63 1888.79 3648.57 1888.84 3664.57 1875.02 3664.51 1875.08 3680.44 1860.63 3680.38 1860.69 3696.21 1845.63 3696.15 1845.69 3711.84 1830.03 3711.78 1830.1 3727.15 1813.9ZM3716.42 1810.33 3745.16 1799.4 3736.66 1828.95Z" fill="#000000" fill-rule="nonzero" fill-opacity="1"/><text fill="#000000" fill-opacity="1" font-family="Cambria Math,Cambria Math_MSFontService,sans-serif" font-style="normal" font-variant="normal" font-weight="400" font-stretch="normal" font-size="92" text-anchor="start" direction="ltr" writing-mode="lr-tb" unicode-bidi="normal" text-decoration="none" transform="matrix(1 0 0 1 3556.52 2069)">𝒘</text><text fill="#000000" fill-opacity="1" font-family="Cambria Math,Cambria Math_MSFontService,sans-serif" font-style="normal" font-variant="normal" font-weight="400" font-stretch="normal" font-size="92" text-anchor="start" direction="ltr" writing-mode="lr-tb" unicode-bidi="normal" text-decoration="none" transform="matrix(1 0 0 1 3654.16 2069)">=</text><text fill="#000000" fill-opacity="1" font-family="Cambria Math,Cambria Math_MSFontService,sans-serif" font-style="normal" font-variant="normal" font-weight="400" font-stretch="normal" font-size="92" text-anchor="start" direction="ltr" writing-mode="lr-tb" unicode-bidi="normal" text-decoration="none" transform="matrix(1 0 0 1 3748.37 2069)">𝝓</text><path d="M-12.9375-51.8848C-14.375-51.8848-15.5729-52.3864-16.5312-53.3896-17.4896-54.3929-17.9687-55.6582-17.9687-57.1855-17.9687-58.7129-17.4896-59.9782-16.5312-60.9814-15.5729-61.9847-14.375-62.4863-12.9375-62.4863-11.5299-62.4863-10.347-61.9847-9.38867-60.9814-8.43034-59.9782-7.95117-58.7129-7.95117-57.1855-7.95117-55.6582-8.43034-54.3929-9.38867-53.3896-10.347-52.3864-11.5299-51.8848-12.9375-51.8848Z" fill="#000000" fill-rule="nonzero" fill-opacity="1" transform="matrix(1 0 0 1 3796.2 2050)"/><text fill="#000000" fill-opacity="0" font-family="Arial,Arial_MSFontService,sans-serif" font-size="10.6016" direction="ltr" writing-mode="lr-tb" x="-17.9687" y="-53.21">ሶ</text><text fill="#215F9A" fill-opacity="1" font-family="Arial,Arial_MSFontService,sans-serif" font-style="normal" font-variant="normal" font-weight="400" font-stretch="normal" font-size="92" text-anchor="start" direction="ltr" writing-mode="lr-tb" unicode-bidi="normal" text-decoration="none" transform="matrix(1 0 0 1 3650.26 1552)">Block</text></g></g></svg>