<?xml version="1.0" encoding="UTF-8"?>
<!DOCTYPE svg PUBLIC "-//W3C//DTD SVG 1.1//EN" "http://www.w3.org/Graphics/SVG/1.1/DTD/svg11.dtd">
<svg xmlns="http://www.w3.org/2000/svg" version="1.1" width="856px" height="758px" style="shape-rendering:geometricPrecision; text-rendering:geometricPrecision; image-rendering:optimizeQuality; fill-rule:evenodd; clip-rule:evenodd" xmlns:xlink="http://www.w3.org/1999/xlink">
<g><path style="opacity:1" fill="#fefefe" d="M -0.5,-0.5 C 284.833,-0.5 570.167,-0.5 855.5,-0.5C 855.5,252.167 855.5,504.833 855.5,757.5C 570.167,757.5 284.833,757.5 -0.5,757.5C -0.5,504.833 -0.5,252.167 -0.5,-0.5 Z"/></g>
<g><path style="opacity:1" fill="#1b1b1b" d="M 736.5,80.5 C 739.044,80.1043 741.211,80.771 743,82.5C 745.418,80.3199 748.084,79.9865 751,81.5C 750.508,85.8095 750.175,90.1428 750,94.5C 750.965,92.7397 752.132,92.4063 753.5,93.5C 751.929,96.0934 749.596,97.0934 746.5,96.5C 747.016,91.7709 747.016,87.1043 746.5,82.5C 741.968,85.5672 739.801,89.9006 740,95.5C 738.989,96.3366 737.822,96.67 736.5,96.5C 736.947,92.2135 737.947,88.0468 739.5,84C 738.352,82.274 737.185,82.4407 736,84.5C 734.413,83.154 734.58,81.8206 736.5,80.5 Z"/></g>
<g><path style="opacity:1" fill="#0f0f0f" d="M 720.5,88.5 C 721.978,88.238 723.311,88.5713 724.5,89.5C 723.436,92.6266 722.103,95.6266 720.5,98.5C 719.522,98.0233 718.689,97.3567 718,96.5C 703.5,109 689,121.5 674.5,134C 688.496,134.5 702.496,134.667 716.5,134.5C 716.343,133.127 716.51,131.793 717,130.5C 720.421,132.461 723.921,134.294 727.5,136C 723.921,137.706 720.421,139.539 717,141.5C 716.51,140.207 716.343,138.873 716.5,137.5C 702.167,137.5 687.833,137.5 673.5,137.5C 673.5,149.167 673.5,160.833 673.5,172.5C 674.5,172.5 675.5,172.5 676.5,172.5C 673.5,185.833 670.5,185.833 667.5,172.5C 668.5,172.5 669.5,172.5 670.5,172.5C 670.627,159.417 670.461,146.417 670,133.5C 685.634,120.924 700.801,107.757 715.5,94C 714.643,93.3109 713.977,92.4776 713.5,91.5C 715.875,90.3395 718.208,89.3395 720.5,88.5 Z"/></g>
<g><path style="opacity:1" fill="#222222" d="M 756.5,91.5 C 759.898,91.1796 763.232,91.513 766.5,92.5C 763.978,95.1878 761.644,98.0211 759.5,101C 761.479,101.684 763.146,101.184 764.5,99.5C 765.59,100.391 765.59,101.391 764.5,102.5C 761.216,103.657 757.882,103.824 754.5,103C 757.13,99.3683 760.13,96.035 763.5,93C 760.741,92.0226 758.741,92.856 757.5,95.5C 756.571,94.3112 756.238,92.9778 756.5,91.5 Z"/></g>
<g><path style="opacity:1" fill="#1b1b1b" d="M 738.5,129.5 C 741.044,129.104 743.211,129.771 745,131.5C 747.418,129.32 750.084,128.987 753,130.5C 752.508,134.809 752.175,139.143 752,143.5C 752.965,141.74 754.132,141.406 755.5,142.5C 753.929,145.093 751.596,146.093 748.5,145.5C 749.016,140.771 749.016,136.104 748.5,131.5C 743.968,134.567 741.801,138.901 742,144.5C 740.989,145.337 739.822,145.67 738.5,145.5C 738.947,141.213 739.947,137.047 741.5,133C 740.352,131.274 739.185,131.441 738,133.5C 736.413,132.154 736.58,130.821 738.5,129.5 Z"/></g>
<g><path style="opacity:1" fill="#181818" d="M 352.5,139.5 C 361.328,138.161 364.828,141.827 363,150.5C 361.737,159.777 356.571,163.611 347.5,162C 344.682,158.662 343.849,154.829 345,150.5C 346.043,145.721 348.543,142.054 352.5,139.5 Z"/></g>
<g><path style="opacity:1" fill="#1c1c1c" d="M 759.5,140.5 C 761.911,140.137 763.411,141.137 764,143.5C 765.323,140.941 767.157,140.275 769.5,141.5C 764.75,143.497 763.75,146.497 766.5,150.5C 768.529,149.371 768.863,149.871 767.5,152C 765.024,152.68 763.191,151.847 762,149.5C 760.677,152.059 758.843,152.725 756.5,151.5C 760.84,149.822 762.173,146.822 760.5,142.5C 756.839,143.823 756.506,143.157 759.5,140.5 Z"/></g>
<g><path style="opacity:1" fill="#f6f6f6" d="M 353.5,141.5 C 358.492,140.492 360.492,142.492 359.5,147.5C 359.493,151.519 358.327,155.185 356,158.5C 350.826,162.039 348.326,160.705 348.5,154.5C 348.778,149.615 350.444,145.281 353.5,141.5 Z"/></g>
<g><path style="opacity:1" fill="#000000" d="M 427.5,265.5 C 426.167,265.5 424.833,265.5 423.5,265.5C 423.5,238.833 423.5,212.167 423.5,185.5C 382.5,185.5 341.5,185.5 300.5,185.5C 300.334,192.508 300.5,199.508 301,206.5C 304.227,207.312 307.393,208.312 310.5,209.5C 310.5,210.5 310.5,211.5 310.5,212.5C 306.942,210.032 302.942,209.032 298.5,209.5C 298.5,201.5 298.5,193.5 298.5,185.5C 259.833,185.5 221.167,185.5 182.5,185.5C 182.5,183.5 182.5,181.5 182.5,179.5C 305.5,179.5 428.5,179.5 551.5,179.5C 551.5,181.5 551.5,183.5 551.5,185.5C 510.167,185.5 468.833,185.5 427.5,185.5C 427.5,212.167 427.5,238.833 427.5,265.5 Z"/></g>
<g><path style="opacity:1" fill="#fefefe" d="M 423.5,265.5 C 412.5,265.5 401.5,265.5 390.5,265.5C 389.51,259.355 389.177,253.022 389.5,246.5C 388.5,246.5 387.5,246.5 386.5,246.5C 386.5,255.167 386.5,263.833 386.5,272.5C 386.5,281.5 386.5,290.5 386.5,299.5C 398.833,299.5 411.167,299.5 423.5,299.5C 423.5,319.833 423.5,340.167 423.5,360.5C 382.833,360.5 342.167,360.5 301.5,360.5C 301.5,353.167 301.5,345.833 301.5,338.5C 315.885,334.88 321.719,325.547 319,310.5C 317.7,307.705 316.2,305.039 314.5,302.5C 321.078,292.656 321.078,282.822 314.5,273C 321.164,263.019 321.164,253.019 314.5,243C 320.807,233.198 320.974,223.365 315,213.5C 313.629,211.959 312.129,210.625 310.5,209.5C 307.393,208.312 304.227,207.312 301,206.5C 300.5,199.508 300.334,192.508 300.5,185.5C 341.5,185.5 382.5,185.5 423.5,185.5C 423.5,212.167 423.5,238.833 423.5,265.5 Z"/></g>
<g><path style="opacity:1" fill="#1b1b1b" d="M 658.5,197.5 C 661.044,197.104 663.211,197.771 665,199.5C 667.418,197.32 670.084,196.987 673,198.5C 672.508,202.809 672.175,207.143 672,211.5C 672.965,209.74 674.132,209.406 675.5,210.5C 673.929,213.093 671.596,214.093 668.5,213.5C 669.016,208.771 669.016,204.104 668.5,199.5C 663.968,202.567 661.801,206.901 662,212.5C 660.989,213.337 659.822,213.67 658.5,213.5C 658.947,209.213 659.947,205.047 661.5,201C 660.352,199.274 659.185,199.441 658,201.5C 656.413,200.154 656.58,198.821 658.5,197.5 Z"/></g>
<g><path style="opacity:1" fill="#1d1d1d" d="M 678.5,208.5 C 680.144,208.286 681.644,208.62 683,209.5C 684.092,212.044 684.759,214.711 685,217.5C 686.555,215.557 687.722,213.39 688.5,211C 688.355,210.228 688.022,209.561 687.5,209C 688.944,208.219 690.277,208.386 691.5,209.5C 689.03,214.942 685.697,219.776 681.5,224C 679.975,225.009 678.308,225.509 676.5,225.5C 676.5,224.5 676.5,223.5 676.5,222.5C 680.338,222.993 682.338,221.326 682.5,217.5C 682.308,215.423 681.808,213.423 681,211.5C 679.865,211.273 678.698,210.94 677.5,210.5C 677.863,209.817 678.196,209.15 678.5,208.5 Z"/></g>
<g><path style="opacity:1" fill="#000000" d="M 131.5,389.5 C 126.245,397.521 126.245,405.521 131.5,413.5C 131.5,428.167 131.5,442.833 131.5,457.5C 127.578,464.854 127.578,472.188 131.5,479.5C 131.5,497.833 131.5,516.167 131.5,534.5C 129.5,534.5 127.5,534.5 125.5,534.5C 125.5,432.167 125.5,329.833 125.5,227.5C 127.5,227.5 129.5,227.5 131.5,227.5C 131.5,281.5 131.5,335.5 131.5,389.5 Z"/></g>
<g><path style="opacity:1" fill="#000000" d="M 596.5,475.5 C 597.574,470.48 597.574,465.48 596.5,460.5C 596.5,442.5 596.5,424.5 596.5,406.5C 596.5,403.5 596.5,400.5 596.5,397.5C 596.5,340.833 596.5,284.167 596.5,227.5C 598.5,227.5 600.5,227.5 602.5,227.5C 602.5,329.833 602.5,432.167 602.5,534.5C 600.5,534.5 598.5,534.5 596.5,534.5C 596.5,514.833 596.5,495.167 596.5,475.5 Z"/></g>
<g><path style="opacity:1" fill="#323232" d="M 313.5,239.5 C 312.817,241.176 311.483,241.843 309.5,241.5C 309.737,242.791 309.404,243.791 308.5,244.5C 308.279,243.265 307.612,242.265 306.5,241.5C 302.541,240.34 298.541,240.173 294.5,241C 293.663,242.011 293.33,243.178 293.5,244.5C 292.9,243.1 291.9,242.1 290.5,241.5C 293.092,238.544 296.426,237.211 300.5,237.5C 304.286,237.475 307.786,238.475 311,240.5C 311.902,240.257 312.735,239.923 313.5,239.5 Z"/></g>
<g><path style="opacity:1" fill="#e2e2e2" d="M 308.5,244.5 C 303.5,245.833 298.5,245.833 293.5,244.5C 293.33,243.178 293.663,242.011 294.5,241C 298.541,240.173 302.541,240.34 306.5,241.5C 307.612,242.265 308.279,243.265 308.5,244.5 Z"/></g>
<g><path style="opacity:1" fill="#0f1011" d="M 390.5,265.5 C 390.5,266.5 390.5,267.5 390.5,268.5C 389.566,269.568 389.232,270.901 389.5,272.5C 388.5,272.5 387.5,272.5 386.5,272.5C 386.5,263.833 386.5,255.167 386.5,246.5C 387.5,246.5 388.5,246.5 389.5,246.5C 389.177,253.022 389.51,259.355 390.5,265.5 Z"/></g>
<g><path style="opacity:1" fill="#909090" d="M 308.5,246.5 C 308.389,247.117 308.056,247.617 307.5,248C 303.642,248.81 299.976,248.643 296.5,247.5C 300.566,247.693 304.566,247.36 308.5,246.5 Z"/></g>
<g><path style="opacity:1" fill="#121313" d="M 460.5,282.5 C 459.5,282.5 458.5,282.5 457.5,282.5C 457.5,277.833 457.5,273.167 457.5,268.5C 457.5,267.5 457.5,266.5 457.5,265.5C 458.49,259.69 458.823,253.69 458.5,247.5C 459.5,247.5 460.5,247.5 461.5,247.5C 461.527,259.18 461.194,270.846 460.5,282.5 Z"/></g>
<g><path style="opacity:1" fill="#0d2332" d="M 390.5,265.5 C 401.5,265.5 412.5,265.5 423.5,265.5C 424.833,265.5 426.167,265.5 427.5,265.5C 437.5,265.5 447.5,265.5 457.5,265.5C 457.5,266.5 457.5,267.5 457.5,268.5C 435.167,268.5 412.833,268.5 390.5,268.5C 390.5,267.5 390.5,266.5 390.5,265.5 Z"/></g>
<g><path style="opacity:1" fill="#868686" d="M 304.5,267.5 C 300.802,267.552 297.135,267.886 293.5,268.5C 297.044,266.431 300.71,266.098 304.5,267.5 Z"/></g>
<g><path style="opacity:1" fill="#161616" d="M 197.5,261.5 C 199.364,260.207 201.364,260.207 203.5,261.5C 201.618,265.782 200.951,270.116 201.5,274.5C 202.914,273.376 204.414,272.376 206,271.5C 206.617,270.551 206.451,269.718 205.5,269C 207.5,268.333 209.5,268.333 211.5,269C 209.1,271.4 206.767,273.733 204.5,276C 205.029,277.559 205.696,279.059 206.5,280.5C 207.391,281.59 208.391,281.59 209.5,280.5C 210.594,281.868 210.26,283.035 208.5,284C 207.167,284.667 205.833,284.667 204.5,284C 201.476,273.981 199.476,274.147 198.5,284.5C 197.022,284.762 195.689,284.429 194.5,283.5C 196.112,276.998 197.779,270.498 199.5,264C 199.361,262.699 198.695,261.866 197.5,261.5 Z"/></g>
<g><path style="opacity:1" fill="#161616" d="M 242.5,261.5 C 244.364,260.207 246.364,260.207 248.5,261.5C 246.618,265.782 245.951,270.116 246.5,274.5C 247.914,273.376 249.414,272.376 251,271.5C 251.617,270.551 251.451,269.718 250.5,269C 252.5,268.333 254.5,268.333 256.5,269C 254.1,271.4 251.767,273.733 249.5,276C 250.029,277.559 250.696,279.059 251.5,280.5C 252.391,281.59 253.391,281.59 254.5,280.5C 255.594,281.868 255.26,283.035 253.5,284C 252.167,284.667 250.833,284.667 249.5,284C 246.476,273.981 244.476,274.147 243.5,284.5C 242.022,284.762 240.689,284.429 239.5,283.5C 241.112,276.998 242.779,270.498 244.5,264C 244.361,262.699 243.695,261.866 242.5,261.5 Z"/></g>
<g><path style="opacity:1" fill="#fefefe" d="M 390.5,268.5 C 412.833,268.5 435.167,268.5 457.5,268.5C 457.5,273.167 457.5,277.833 457.5,282.5C 457.5,287.167 457.5,291.833 457.5,296.5C 434.833,296.5 412.167,296.5 389.5,296.5C 389.5,288.5 389.5,280.5 389.5,272.5C 389.232,270.901 389.566,269.568 390.5,268.5 Z"/></g>
<g><path style="opacity:1" fill="#131313" d="M 484.5,268.5 C 487.167,268.5 489.833,268.5 492.5,268.5C 492.5,269.833 492.5,271.167 492.5,272.5C 491.5,272.5 490.5,272.5 489.5,272.5C 489.5,271.5 489.5,270.5 489.5,269.5C 483.12,271.429 481.12,275.596 483.5,282C 485.669,282.429 487.669,281.929 489.5,280.5C 490.571,282.325 489.904,283.492 487.5,284C 479.992,285.141 477.492,281.974 480,274.5C 480.804,271.854 482.304,269.854 484.5,268.5 Z"/></g>
<g><path style="opacity:1" fill="#0c2231" d="M 386.5,272.5 C 387.5,272.5 388.5,272.5 389.5,272.5C 389.5,280.5 389.5,288.5 389.5,296.5C 412.167,296.5 434.833,296.5 457.5,296.5C 457.5,291.833 457.5,287.167 457.5,282.5C 458.5,282.5 459.5,282.5 460.5,282.5C 460.5,288.167 460.5,293.833 460.5,299.5C 449.5,299.5 438.5,299.5 427.5,299.5C 426.167,299.5 424.833,299.5 423.5,299.5C 411.167,299.5 398.833,299.5 386.5,299.5C 386.5,290.5 386.5,281.5 386.5,272.5 Z"/></g>
<g><path style="opacity:1" fill="#090909" d="M 217.5,276.5 C 219.275,280.386 220.108,284.72 220,289.5C 221.067,290.191 222.234,290.691 223.5,291C 220.167,291.667 216.833,291.667 213.5,291C 214.766,290.691 215.933,290.191 217,289.5C 217.498,286.183 217.665,282.85 217.5,279.5C 215.891,279.906 214.557,279.906 213.5,279.5C 214.901,278.479 216.235,277.479 217.5,276.5 Z"/></g>
<g><path style="opacity:1" fill="#090909" d="M 497.5,276.5 C 499.275,280.386 500.108,284.72 500,289.5C 501.067,290.191 502.234,290.691 503.5,291C 500.167,291.667 496.833,291.667 493.5,291C 494.766,290.691 495.933,290.191 497,289.5C 497.498,286.183 497.665,282.85 497.5,279.5C 495.891,279.906 494.557,279.906 493.5,279.5C 494.901,278.479 496.235,277.479 497.5,276.5 Z"/></g>
<g><path style="opacity:1" fill="#191919" d="M 259.5,276.5 C 263.007,275.994 266.174,276.66 269,278.5C 269.667,279.5 269.667,280.5 269,281.5C 266.715,283.907 264.549,286.407 262.5,289C 264.807,289.779 266.807,289.279 268.5,287.5C 269.429,288.689 269.762,290.022 269.5,291.5C 265.818,291.665 262.152,291.499 258.5,291C 261.568,287.603 264.235,283.936 266.5,280C 264.927,276.876 262.927,276.71 260.5,279.5C 259.614,278.675 259.281,277.675 259.5,276.5 Z"/></g>
<g><path style="opacity:1" fill="#101010" d="M 228.5,280.5 C 229.5,280.5 230.5,280.5 231.5,280.5C 232.107,284.07 230.94,286.737 228,288.5C 226.249,288.172 226.249,287.505 228,286.5C 228.495,284.527 228.662,282.527 228.5,280.5 Z"/></g>
<g><path style="opacity:1" fill="#010101" d="M 726.5,298.5 C 727.5,298.5 728.5,298.5 729.5,298.5C 729.5,344.833 729.5,391.167 729.5,437.5C 730.873,437.343 732.207,437.51 733.5,438C 731.539,441.421 729.706,444.921 728,448.5C 726.294,444.921 724.461,441.421 722.5,438C 723.793,437.51 725.127,437.343 726.5,437.5C 726.5,391.167 726.5,344.833 726.5,298.5 Z"/></g>
<g><path style="opacity:1" fill="#000000" d="M 423.5,299.5 C 424.833,299.5 426.167,299.5 427.5,299.5C 427.5,319.833 427.5,340.167 427.5,360.5C 426.167,361.833 424.833,361.833 423.5,360.5C 423.5,340.167 423.5,319.833 423.5,299.5 Z"/></g>
<g><path style="opacity:1" fill="#1b1b1b" d="M 310.5,209.5 C 312.129,210.625 313.629,211.959 315,213.5C 320.974,223.365 320.807,233.198 314.5,243C 321.164,253.019 321.164,263.019 314.5,273C 321.078,282.822 321.078,292.656 314.5,302.5C 316.2,305.039 317.7,307.705 319,310.5C 321.719,325.547 315.885,334.88 301.5,338.5C 301.152,346.057 300.152,353.39 298.5,360.5C 298.5,352.167 298.5,343.833 298.5,335.5C 312.491,334.327 318.658,326.66 317,312.5C 315.498,305.11 311.665,303.61 305.5,308C 300.111,309.132 295.111,308.298 290.5,305.5C 289.585,304.672 288.919,303.672 288.5,302.5C 292.943,297.186 298.61,295.353 305.5,297C 307.754,298.256 310.088,299.423 312.5,300.5C 318.706,292.595 319.039,284.429 313.5,276C 312.5,275.333 311.5,275.333 310.5,276C 304.476,280.302 298.143,280.635 291.5,277C 287.293,273.11 287.96,270.276 293.5,268.5C 297.135,267.886 300.802,267.552 304.5,267.5C 307.423,268.295 310.09,269.628 312.5,271.5C 317.858,264.306 318.691,256.639 315,248.5C 313.379,245.679 311.212,245.013 308.5,246.5C 304.566,247.36 300.566,247.693 296.5,247.5C 294.407,246.955 292.407,246.122 290.5,245C 289.209,243.708 289.209,242.542 290.5,241.5C 291.9,242.1 292.9,243.1 293.5,244.5C 298.5,245.833 303.5,245.833 308.5,244.5C 309.404,243.791 309.737,242.791 309.5,241.5C 311.483,241.843 312.817,241.176 313.5,239.5C 319.549,229.656 318.549,220.656 310.5,212.5C 310.5,211.5 310.5,210.5 310.5,209.5 Z"/></g>
<g><path style="opacity:1" fill="#e5e5e5" d="M 295.5,299.5 C 298.85,299.335 302.183,299.502 305.5,300C 307.286,300.196 308.619,301.029 309.5,302.5C 303.467,307.826 297.467,307.826 291.5,302.5C 292.901,301.479 294.235,300.479 295.5,299.5 Z"/></g>
<g><path style="opacity:1" fill="#e8e8e8" d="M 297.5,269.5 C 302.377,268.812 306.71,269.979 310.5,273C 304.13,277.545 297.796,277.545 291.5,273C 293.432,271.541 295.432,270.375 297.5,269.5 Z"/></g>
<g><path style="opacity:1" fill="#122635" d="M 301.5,338.5 C 301.5,345.833 301.5,353.167 301.5,360.5C 342.167,360.5 382.833,360.5 423.5,360.5C 424.833,361.833 426.167,361.833 427.5,360.5C 463.502,360.333 499.502,360.5 535.5,361C 550.286,367.163 556.786,378.33 555,394.5C 563.521,379.548 575.021,376.715 589.5,386C 592.518,389.557 594.851,393.391 596.5,397.5C 596.5,400.5 596.5,403.5 596.5,406.5C 589.5,421.336 578.5,425.503 563.5,419C 559.866,416.575 557.032,413.408 555,409.5C 554.333,427.5 554.333,445.5 555,463.5C 563.069,447.031 574.902,443.531 590.5,453C 592.364,455.688 594.364,458.188 596.5,460.5C 597.574,465.48 597.574,470.48 596.5,475.5C 587.777,490.351 576.11,493.184 561.5,484C 558.414,480.659 556.248,476.826 555,472.5C 556.109,488.814 548.942,499.314 533.5,504C 493.835,504.5 454.168,504.667 414.5,504.5C 413.599,503.71 412.932,502.71 412.5,501.5C 453.168,501.667 493.835,501.5 534.5,501C 544.283,498.555 549.783,492.388 551,482.5C 551.667,448.167 551.667,413.833 551,379.5C 548.124,370.283 541.957,365.116 532.5,364C 417.833,363.333 303.167,363.333 188.5,364C 180.641,366.526 175.474,371.693 173,379.5C 172.333,414.5 172.333,449.5 173,484.5C 175.095,492.927 180.261,498.427 188.5,501C 261.166,501.5 333.833,501.667 406.5,501.5C 407.401,502.29 408.068,503.29 408.5,504.5C 335.166,504.667 261.833,504.5 188.5,504C 176.275,499.434 169.775,490.601 169,477.5C 162.621,488.074 153.454,491.574 141.5,488C 137.497,485.85 134.164,483.016 131.5,479.5C 127.578,472.188 127.578,464.854 131.5,457.5C 141.139,446.136 152.139,444.636 164.5,453C 166.123,455.08 167.623,457.246 169,459.5C 169.667,442.5 169.667,425.5 169,408.5C 162.976,420.426 153.476,424.593 140.5,421C 137.019,418.947 134.019,416.447 131.5,413.5C 126.245,405.521 126.245,397.521 131.5,389.5C 141.101,379.04 151.768,377.873 163.5,386C 165.333,388.5 167.167,391 169,393.5C 167.647,377.351 174.48,366.518 189.5,361C 225.832,360.5 262.165,360.333 298.5,360.5C 300.152,353.39 301.152,346.057 301.5,338.5 Z"/></g>
<g><path style="opacity:1" fill="#fefefe" d="M 412.5,501.5 C 395.111,479.081 377.944,456.414 361,433.5C 360.167,434.333 359.333,435.167 358.5,436C 374.631,457.774 390.631,479.607 406.5,501.5C 333.833,501.667 261.166,501.5 188.5,501C 180.261,498.427 175.095,492.927 173,484.5C 172.333,449.5 172.333,414.5 173,379.5C 175.474,371.693 180.641,366.526 188.5,364C 303.167,363.333 417.833,363.333 532.5,364C 541.957,365.116 548.124,370.283 551,379.5C 551.667,413.833 551.667,448.167 551,482.5C 549.783,492.388 544.283,498.555 534.5,501C 493.835,501.5 453.168,501.667 412.5,501.5 Z"/></g>
<g><path style="opacity:1" fill="#f9f9fa" d="M 144.5,383.5 C 162.48,383.309 169.647,391.975 166,409.5C 158.455,420.042 148.955,422.208 137.5,416C 128.227,406.261 128.227,396.594 137.5,387C 139.925,385.787 142.259,384.621 144.5,383.5 Z"/></g>
<g><path style="opacity:1" fill="#f9f9fa" d="M 570.5,383.5 C 588.48,383.309 595.647,391.975 592,409.5C 584.455,420.042 574.955,422.208 563.5,416C 554.227,406.261 554.227,396.594 563.5,387C 565.925,385.787 568.259,384.621 570.5,383.5 Z"/></g>
<g><path style="opacity:1" fill="#141414" d="M 495.5,389.5 C 497.607,388.532 499.941,388.198 502.5,388.5C 502.588,393.536 503.088,398.536 504,403.5C 506.635,398.702 509.468,394.035 512.5,389.5C 514.421,388.359 516.421,388.192 518.5,389C 514.588,395.892 513.255,403.225 514.5,411C 512.167,411.667 509.833,411.667 507.5,411C 508.893,409.829 509.727,408.329 510,406.5C 510.705,402.426 511.371,398.426 512,394.5C 509.387,399.6 506.22,404.267 502.5,408.5C 500.549,403.695 499.382,398.695 499,393.5C 496.9,399.285 496.4,405.119 497.5,411C 495.5,411.667 493.5,411.667 491.5,411C 494.256,405.216 495.923,399.049 496.5,392.5C 496.48,391.274 496.147,390.274 495.5,389.5 Z"/></g>
<g><path style="opacity:1" fill="#fcfcfc" d="M 596.5,406.5 C 596.5,424.5 596.5,442.5 596.5,460.5C 594.364,458.188 592.364,455.688 590.5,453C 574.902,443.531 563.069,447.031 555,463.5C 554.333,445.5 554.333,427.5 555,409.5C 557.032,413.408 559.866,416.575 563.5,419C 578.5,425.503 589.5,421.336 596.5,406.5 Z"/></g>
<g><path style="opacity:1" fill="#fcfcfc" d="M 131.5,457.5 C 131.5,442.833 131.5,428.167 131.5,413.5C 134.019,416.447 137.019,418.947 140.5,421C 153.476,424.593 162.976,420.426 169,408.5C 169.667,425.5 169.667,442.5 169,459.5C 167.623,457.246 166.123,455.08 164.5,453C 152.139,444.636 141.139,446.136 131.5,457.5 Z"/></g>
<g><path style="opacity:1" fill="#0c0c0c" d="M 412.5,501.5 C 412.932,502.71 413.599,503.71 414.5,504.5C 440.268,539.717 466.268,574.717 492.5,609.5C 491.713,611.104 490.38,611.771 488.5,611.5C 462.552,575.259 435.885,539.592 408.5,504.5C 408.068,503.29 407.401,502.29 406.5,501.5C 390.631,479.607 374.631,457.774 358.5,436C 359.333,435.167 360.167,434.333 361,433.5C 377.944,456.414 395.111,479.081 412.5,501.5 Z"/></g>
<g><path style="opacity:1" fill="#f9f9fa" d="M 145.5,450.5 C 163.48,450.309 170.647,458.975 167,476.5C 159.455,487.042 149.955,489.208 138.5,483C 129.227,473.261 129.227,463.594 138.5,454C 140.925,452.787 143.259,451.621 145.5,450.5 Z"/></g>
<g><path style="opacity:1" fill="#f9f9fa" d="M 571.5,450.5 C 589.48,450.309 596.647,458.975 593,476.5C 585.455,487.042 575.955,489.208 564.5,483C 555.227,473.261 555.227,463.594 564.5,454C 566.925,452.787 569.259,451.621 571.5,450.5 Z"/></g>
<g><path style="opacity:1" fill="#111111" d="M 716.5,485.5 C 719.85,485.335 723.183,485.502 726.5,486C 724.666,492.016 723.333,498.183 722.5,504.5C 722.57,505.772 722.903,506.938 723.5,508C 721.866,508.494 720.199,508.66 718.5,508.5C 719.339,505.165 719.839,501.832 720,498.5C 718.136,501.207 715.636,502.041 712.5,501C 710.223,494.727 711.556,489.561 716.5,485.5 Z"/></g>
<g><path style="opacity:1" fill="#eaeaea" d="M 718.5,486.5 C 720.948,486.085 722.281,487.085 722.5,489.5C 722.022,493.795 720.022,497.128 716.5,499.5C 715.914,499.291 715.414,498.957 715,498.5C 713.745,493.738 714.912,489.738 718.5,486.5 Z"/></g>
<g><path style="opacity:1" fill="#1e1e1e" d="M 732.5,493.5 C 733.5,493.5 734.5,493.5 735.5,493.5C 735.5,498.167 735.5,502.833 735.5,507.5C 736.294,508.84 734.294,509.007 729.5,508C 730.416,507.626 731.25,507.126 732,506.5C 732.824,503.118 732.657,499.784 731.5,496.5C 730.391,497.59 729.391,497.59 728.5,496.5C 729.901,495.479 731.235,494.479 732.5,493.5 Z"/></g>
<g><path style="opacity:1" fill="#0f0f0f" d="M 427.5,550.5 C 428.117,550.611 428.617,550.944 429,551.5C 429.5,560.827 429.666,570.161 429.5,579.5C 428.5,579.5 427.5,579.5 426.5,579.5C 426.666,572.825 426.5,566.158 426,559.5C 414.467,577.696 397.967,588.53 376.5,592C 360.201,594.113 344.534,592.113 329.5,586C 330.025,585.308 330.692,584.808 331.5,584.5C 358.651,594.548 384.318,591.715 408.5,576C 414.709,570.622 420.042,564.455 424.5,557.5C 424,557.167 423.5,556.833 423,556.5C 416.867,558.901 410.867,561.567 405,564.5C 403.887,563.24 403.72,562.073 404.5,561C 412.496,557.999 420.162,554.499 427.5,550.5 Z"/></g>
<g><path style="opacity:1" fill="#152937" d="M 488.5,611.5 C 490.38,611.771 491.713,611.104 492.5,609.5C 512.946,601.236 530.113,605.57 544,622.5C 554.867,642.598 551.367,659.765 533.5,674C 512.374,685.339 494.208,681.839 479,663.5C 470.382,649.787 470.382,636.121 479,622.5C 482.083,618.596 485.25,614.929 488.5,611.5 Z"/></g>
<g><path style="opacity:1" fill="#000000" d="M 505.5,608.5 C 533.963,608.13 547.797,622.13 547,650.5C 539.735,670.894 525.235,679.728 503.5,677C 483.153,670.641 473.986,656.808 476,635.5C 480.63,620.699 490.463,611.699 505.5,608.5 Z"/></g>
<g><path style="opacity:1" fill="#111111" d="M 386.5,610.5 C 389.85,610.335 393.183,610.502 396.5,611C 394.666,617.016 393.333,623.183 392.5,629.5C 392.57,630.772 392.903,631.938 393.5,633C 391.866,633.494 390.199,633.66 388.5,633.5C 389.339,630.165 389.839,626.832 390,623.5C 388.136,626.207 385.636,627.041 382.5,626C 380.223,619.727 381.556,614.561 386.5,610.5 Z"/></g>
<g><path style="opacity:1" fill="#eaeaea" d="M 388.5,611.5 C 390.948,611.085 392.281,612.085 392.5,614.5C 392.022,618.795 390.022,622.128 386.5,624.5C 385.914,624.291 385.414,623.957 385,623.5C 383.745,618.738 384.912,614.738 388.5,611.5 Z"/></g>
<g><path style="opacity:1" fill="#191919" d="M 399.5,618.5 C 403.007,617.994 406.174,618.66 409,620.5C 409.667,621.5 409.667,622.5 409,623.5C 406.715,625.907 404.549,628.407 402.5,631C 404.807,631.779 406.807,631.279 408.5,629.5C 409.429,630.689 409.762,632.022 409.5,633.5C 405.818,633.665 402.152,633.499 398.5,633C 401.568,629.603 404.235,625.936 406.5,622C 404.927,618.876 402.927,618.71 400.5,621.5C 399.614,620.675 399.281,619.675 399.5,618.5 Z"/></g>
</svg>
