<?xml version="1.0" standalone="no"?>
<!DOCTYPE svg PUBLIC "-//W3C//DTD SVG 20010904//EN"
 "http://www.w3.org/TR/2001/REC-SVG-20010904/DTD/svg10.dtd">
<svg version="1.0" xmlns="http://www.w3.org/2000/svg"
 width="1224.000000pt" height="1022.000000pt" viewBox="0 0 1224.000000 1022.000000"
 preserveAspectRatio="xMidYMid meet">

<g transform="translate(0.000000,1022.000000) scale(0.100000,-0.100000)"
fill="#000000" stroke="none">
<path d="M11130 9527 c-50 -16 -134 -103 -152 -157 l-15 -45 -539 -6 c-296 -4
-680 -9 -852 -13 -245 -5 -313 -3 -316 7 -15 48 -11 48 -95 4 -44 -23 -77 -45
-73 -49 8 -8 149 -78 157 -78 3 0 5 11 5 24 l0 24 203 6 c162 5 1290 21 1466
21 43 0 45 -1 58 -42 21 -62 94 -139 153 -160 l48 -17 6 -60 c4 -45 10 -1598
7 -1683 -1 -7 -12 -13 -26 -13 l-25 0 40 -80 c22 -44 42 -80 45 -80 3 0 23 36
45 80 31 62 37 80 25 81 -8 1 -21 2 -27 3 -10 1 -14 185 -16 877 l-2 876 38
11 c138 42 214 210 151 339 -26 53 -99 119 -148 133 -45 13 -116 11 -161 -3z
m196 -83 c52 -42 74 -88 74 -156 0 -48 -5 -63 -33 -100 -39 -52 -92 -80 -152
-80 -60 0 -113 28 -152 80 -28 37 -33 52 -33 98 0 122 78 198 197 192 51 -3
69 -9 99 -34z"/>
<path d="M11176 9324 c-32 -31 -10 -94 33 -94 29 0 54 25 54 55 0 48 -55 72
-87 39z"/>
<path d="M9193 8993 c-21 -8 -15 -22 7 -16 24 6 24 4 5 -67 -18 -68 -18 -70 0
-70 8 0 17 12 21 28 11 54 29 95 46 106 31 19 39 -4 26 -67 -10 -49 -10 -60 2
-67 8 -5 21 -5 32 1 22 12 24 31 3 23 -17 -7 -18 5 -5 61 17 71 -10 95 -65 59
-23 -15 -25 -15 -25 0 0 16 -22 20 -47 9z"/>
<path d="M10671 8986 c-10 -12 -8 -13 8 -9 25 6 26 -3 6 -77 -8 -30 -12 -56
-10 -58 13 -14 33 12 39 51 7 47 36 87 63 87 13 0 14 -7 8 -42 -14 -76 -12
-93 11 -96 11 -2 26 4 33 12 10 12 9 14 -10 9 -20 -6 -21 -4 -13 28 4 19 8 50
9 69 0 29 -4 36 -23 38 -13 2 -32 -4 -43 -14 -17 -15 -19 -15 -25 0 -8 20 -37
21 -53 2z"/>
<path d="M9396 8881 c-3 -5 3 -11 14 -14 11 -3 20 -13 20 -22 0 -25 -19 -55
-35 -55 -7 0 -17 -4 -20 -10 -12 -19 24 -10 43 10 l19 21 6 -21 c5 -20 47 -30
47 -10 0 6 -6 9 -12 8 -9 -2 -13 9 -13 32 0 27 5 37 23 45 25 11 29 25 7 25
-7 0 -19 -8 -24 -17 -10 -17 -12 -17 -25 0 -14 18 -41 23 -50 8z"/>
<path d="M10880 8873 c0 -13 3 -14 12 -5 13 13 48 16 48 4 0 -4 -18 -26 -40
-47 -22 -21 -40 -43 -40 -47 0 -4 23 -8 50 -8 40 0 50 3 50 17 0 13 -3 14 -12
5 -7 -7 -23 -12 -37 -12 -25 0 -25 0 10 38 68 72 68 72 10 72 -41 0 -51 -3
-51 -17z"/>
<path d="M4943 8529 c-18 -3 -43 -13 -57 -22 -36 -24 -70 -103 -74 -174 -4
-56 -2 -64 21 -87 33 -33 95 -35 143 -6 69 43 110 205 65 261 -23 30 -51 38
-98 28z m55 -31 c15 -15 15 -99 0 -151 -13 -44 -67 -107 -91 -107 -51 0 -63
93 -23 183 32 74 82 107 114 75z"/>
<path d="M2580 7920 l0 -40 795 0 795 0 2 -162 3 -163 50 -6 c66 -8 105 -29
147 -79 75 -87 79 -237 9 -321 l-27 -32 -44 23 c-61 32 -147 32 -213 0 -61
-29 -69 -47 -33 -75 63 -51 165 -59 242 -20 l49 25 18 -23 c69 -87 76 -241 14
-312 l-22 -25 -49 25 c-68 34 -153 35 -222 0 -27 -13 -55 -33 -61 -44 -11 -17
-9 -23 17 -41 80 -57 183 -67 266 -25 l49 25 22 -26 c52 -65 57 -196 10 -276
l-26 -45 -57 28 c-89 45 -186 36 -259 -24 -33 -27 -35 -31 -21 -46 59 -65 200
-83 284 -36 l47 26 21 -26 c47 -60 58 -178 23 -255 -38 -84 -96 -128 -184
-139 l-50 -6 -3 -172 -2 -173 -730 0 c-489 0 -746 -4 -780 -11 -105 -22 -190
-93 -237 -196 -20 -43 -26 -77 -31 -159 l-5 -103 -19 39 c-25 50 -87 106 -147
133 -93 42 -238 21 -308 -45 l-23 -21 0 1091 0 1092 -40 0 -40 0 0 -2110 0
-2110 40 0 40 0 0 376 0 376 37 -32 c121 -107 307 -99 413 16 22 24 40 49 41
56 0 7 7 -21 14 -62 24 -129 88 -215 204 -269 l56 -26 1520 -3 1520 -3 525
-706 c289 -388 536 -721 549 -739 l24 -34 -29 -22 c-192 -148 -256 -417 -150
-626 140 -276 507 -375 764 -206 348 229 309 721 -71 894 -128 58 -262 63
-399 16 -67 -24 -72 -24 -84 -8 -6 9 -248 334 -537 722 l-525 705 822 5 c499
4 831 10 846 15 99 39 165 101 209 194 l26 56 5 560 c3 308 8 541 12 518 16
-87 120 -182 224 -203 183 -38 349 96 348 280 0 156 -125 273 -289 274 -138 1
-238 -73 -281 -209 -12 -38 -13 -35 -13 62 -1 56 -6 125 -12 153 -22 105 -92
189 -198 239 l-56 26 -732 3 -733 3 0 419 0 420 223 0 224 0 7 293 c3 160 9
322 12 360 l7 67 -27 0 -26 0 0 -130 0 -130 -210 0 -210 0 0 550 0 550 855 0
855 0 0 40 0 40 -2535 0 -2535 0 0 -40z m3310 -590 l0 -550 -229 0 -228 0 -6
68 c-4 37 -7 97 -7 135 0 60 -2 67 -20 67 -20 0 -20 -7 -20 -365 l0 -365 255
0 255 0 0 -420 0 -420 -845 0 -845 0 0 154 0 154 44 6 c89 14 180 97 206 190
7 25 11 78 9 119 -4 63 -9 82 -37 127 -29 47 -31 54 -18 69 77 85 76 278 -1
363 -15 17 -15 19 0 36 9 10 26 39 38 66 41 93 24 221 -40 302 l-20 26 25 34
c38 49 53 100 54 175 1 145 -76 250 -207 283 l-48 12 -3 142 -3 142 846 0 845
0 0 -550z m-1605 -219 l40 -18 -32 -16 c-37 -20 -125 -22 -172 -6 -39 14 -36
29 10 45 49 18 108 16 154 -5z m2065 -561 l0 -190 -465 0 -465 0 0 153 c0 83
3 169 6 190 l7 37 458 0 459 0 0 -190z m-2051 155 c17 -8 31 -20 31 -25 0 -19
-66 -44 -120 -44 -52 -1 -140 27 -140 44 0 6 42 27 90 44 25 9 107 -2 139 -19z
m-4 -402 c19 -9 35 -21 35 -25 0 -5 -21 -18 -47 -30 -35 -15 -58 -19 -95 -15
-56 7 -120 35 -112 49 23 37 158 50 219 21z m3174 -898 c67 -37 115 -92 141
-163 20 -53 20 -71 18 -766 l-3 -711 -30 -54 c-37 -66 -92 -115 -162 -141 -52
-19 -77 -20 -879 -20 l-825 0 -304 408 c-275 367 -304 410 -299 437 6 36 -15
60 -64 74 -39 12 -59 -3 -67 -49 -7 -40 12 -66 58 -78 19 -5 97 -103 294 -367
148 -198 279 -375 291 -393 l24 -32 -1509 2 -1508 3 -54 30 c-67 37 -115 92
-141 163 -20 53 -20 71 -18 766 l3 711 30 54 c36 65 92 115 159 140 50 20 90
20 2421 18 l2370 -2 54 -30z m-5249 -260 c56 -28 99 -75 120 -132 26 -70 25
-127 -4 -189 -72 -155 -286 -192 -414 -71 -38 37 -72 121 -72 180 0 90 73 188
165 222 51 19 158 14 205 -10z m5860 0 c56 -28 99 -75 120 -132 26 -70 25
-127 -4 -189 -72 -155 -286 -192 -414 -71 -38 37 -72 121 -72 180 0 90 73 188
165 222 51 19 158 14 205 -10z m-5690 -651 l0 -357 -40 46 c-111 126 -311 137
-427 25 l-33 -32 0 276 0 277 50 -34 c57 -38 143 -60 204 -51 98 15 198 89
227 170 7 20 14 36 16 36 2 0 3 -160 3 -356z m-150 -269 c56 -28 99 -75 120
-132 26 -70 25 -127 -4 -189 -72 -155 -286 -192 -414 -71 -38 37 -72 121 -72
180 0 90 73 188 165 222 51 19 158 14 205 -10z"/>
<path d="M6880 5093 c0 -5 5 -14 10 -19 7 -7 2 -46 -15 -121 -28 -126 -34
-143 -46 -143 -5 0 -9 -4 -9 -10 0 -5 18 -10 40 -10 38 0 40 1 34 25 -3 14 2
68 12 121 20 108 27 103 39 -31 10 -106 28 -103 101 20 31 52 58 95 59 95 3 0
-32 -162 -41 -192 -3 -10 -10 -18 -15 -18 -5 0 -9 -4 -9 -10 0 -5 20 -10 45
-10 45 0 54 7 35 26 -12 12 43 257 59 262 25 8 9 22 -27 22 -36 0 -38 -2 -97
-99 -33 -54 -62 -97 -65 -95 -2 3 -9 46 -15 97 l-10 92 -42 3 c-24 2 -43 -1
-43 -5z"/>
<path d="M10671 7356 c-10 -12 -8 -13 8 -9 25 6 26 -3 7 -74 -8 -31 -10 -55
-5 -59 17 -10 27 5 34 52 7 47 33 84 61 84 14 0 15 -7 9 -42 -14 -76 -12 -93
11 -96 11 -2 27 5 35 14 12 15 12 16 -9 10 -22 -7 -23 -6 -16 31 19 94 3 122
-54 91 -20 -10 -26 -10 -29 0 -6 16 -38 15 -52 -2z"/>
<path d="M8270 5693 l0 -1608 -21 42 c-85 172 -332 212 -471 76 -112 -109
-110 -295 4 -398 61 -56 120 -79 203 -79 118 -1 213 57 261 159 l24 50 0 -427
0 -428 40 0 40 0 0 2110 0 2110 -40 0 -40 0 0 -1607z m-170 -1468 c56 -28 99
-75 120 -132 26 -70 25 -127 -4 -189 -72 -155 -286 -192 -414 -71 -38 37 -72
121 -72 180 0 90 73 188 165 222 51 19 158 14 205 -10z"/>
<path d="M10883 7263 c-17 -6 -17 -24 -1 -20 7 1 18 -19 25 -48 11 -43 10 -51
-4 -67 -9 -10 -23 -16 -30 -14 -7 3 -13 -1 -13 -9 0 -42 70 14 115 92 29 48
31 63 10 63 -8 0 -15 -9 -15 -20 0 -24 -21 -70 -32 -70 -4 0 -8 10 -8 23 0 53
-18 80 -47 70z"/>
<path d="M2797 6864 c-3 -3 -1 -14 4 -23 8 -11 2 -53 -20 -149 -17 -73 -31
-138 -31 -143 0 -6 10 -9 23 -7 18 2 24 12 31 56 11 64 31 68 47 10 7 -24 17
-49 22 -55 14 -19 52 -15 72 7 21 23 13 39 -10 20 -20 -17 -30 -6 -44 45 -11
40 -11 40 34 79 25 21 45 42 45 47 0 5 -18 9 -41 9 -35 0 -40 -2 -34 -19 4
-13 -4 -26 -25 -45 -39 -32 -52 -33 -45 -3 27 119 35 154 35 165 0 12 -51 17
-63 6z"/>
<path d="M3427 6864 c-3 -3 -1 -14 4 -23 8 -11 2 -53 -20 -149 -17 -73 -31
-138 -31 -143 0 -6 10 -9 23 -7 18 2 24 12 31 56 11 64 31 68 47 10 7 -24 17
-49 22 -55 14 -19 52 -15 72 7 21 23 13 39 -10 20 -20 -17 -30 -6 -44 45 -11
40 -11 40 34 79 25 21 45 42 45 47 0 5 -18 9 -41 9 -35 0 -40 -2 -34 -19 4
-13 -4 -26 -25 -45 -39 -32 -52 -33 -45 -3 27 119 35 154 35 165 0 12 -51 17
-63 6z"/>
<path d="M6711 6744 c-28 -20 -60 -88 -61 -129 0 -71 74 -101 134 -54 33 26
24 47 -11 24 -13 -9 -34 -15 -46 -13 -34 5 -36 81 -5 128 28 41 63 51 73 21
10 -33 35 -26 35 9 0 29 -1 30 -48 30 -28 0 -57 -7 -71 -16z"/>
<path d="M3043 6647 c-50 -24 -57 -42 -13 -32 l31 7 -3 -74 c-3 -67 -5 -73
-25 -76 -49 -7 -20 -22 42 -22 62 0 91 15 43 22 -22 3 -23 9 -28 99 l-5 96
-42 -20z"/>
<path d="M3663 6663 c-26 -5 -33 -43 -8 -43 8 0 15 4 15 9 0 5 10 13 22 17 20
6 48 -15 48 -37 0 -3 -25 -37 -55 -74 -30 -36 -55 -71 -55 -76 0 -5 34 -9 75
-9 73 0 75 1 75 25 0 27 -9 32 -27 14 -6 -6 -26 -9 -44 -7 l-34 3 48 51 c84
91 57 150 -60 127z"/>
<path d="M6893 6647 c-50 -24 -57 -42 -13 -32 l31 7 -3 -74 c-3 -67 -5 -73
-25 -76 -49 -7 -20 -22 42 -22 62 0 91 15 43 22 -22 3 -23 9 -28 99 l-5 96
-42 -20z"/>
<path d="M3210 6567 c0 -18 -7 -42 -15 -54 -18 -26 -2 -42 22 -21 40 33 49
108 12 108 -15 0 -19 -7 -19 -33z"/>
<path d="M10040 5380 l0 -960 -25 0 c-14 0 -25 -2 -25 -5 0 -10 65 -135 70
-135 5 0 70 125 70 135 0 3 -11 5 -25 5 l-25 0 0 960 c0 953 0 960 -20 960
-20 0 -20 -7 -20 -960z"/>
<path d="M9901 3764 c-28 -20 -60 -88 -61 -129 0 -66 64 -100 105 -55 10 11
20 19 21 17 2 -2 -3 -27 -11 -57 -21 -77 -20 -80 20 -80 38 0 40 2 24 28 -8
13 -3 49 20 151 17 74 31 135 31 136 0 1 -28 2 -63 3 -44 1 -70 -3 -86 -14z
m87 -34 c9 -59 -47 -150 -82 -137 -19 8 -22 77 -5 110 32 61 81 76 87 27z"/>
<path d="M10123 3667 c-50 -24 -57 -42 -13 -32 l31 7 -3 -74 c-3 -67 -5 -73
-25 -76 -49 -7 -20 -22 42 -22 62 0 91 15 43 22 -22 3 -23 9 -28 99 l-5 96
-42 -20z"/>
<path d="M5775 2803 c-93 -41 -171 -75 -172 -77 -2 -1 3 -10 10 -18 11 -14 26
-10 142 41 185 81 172 79 140 24 -125 -218 -336 -365 -608 -424 -178 -39 -428
-22 -611 41 -73 25 -76 25 -76 1 0 -35 163 -82 349 -101 163 -17 368 11 521
72 155 61 310 175 396 292 l49 66 3 -120 c2 -110 4 -120 22 -120 18 0 19 11
22 173 2 94 7 180 12 189 5 11 2 19 -11 26 -14 7 -59 -9 -188 -65z"/>
<path d="M5371 2054 c-28 -20 -60 -88 -61 -129 0 -66 64 -100 105 -55 10 11
20 19 21 17 2 -2 -3 -27 -11 -57 -21 -77 -20 -80 20 -80 38 0 40 2 24 28 -8
13 -3 49 20 151 17 74 31 135 31 136 0 1 -28 2 -63 3 -44 1 -70 -3 -86 -14z
m87 -34 c9 -59 -47 -150 -82 -137 -19 8 -22 77 -5 110 32 61 81 76 87 27z"/>
<path d="M5583 1963 c-26 -5 -33 -43 -8 -43 8 0 15 4 15 9 0 5 10 13 22 17 20
6 48 -15 48 -37 0 -3 -25 -37 -55 -74 -30 -36 -55 -71 -55 -76 0 -5 34 -9 75
-9 73 0 75 1 75 25 0 27 -9 32 -27 14 -6 -6 -26 -9 -44 -7 l-34 3 48 51 c84
91 57 150 -60 127z"/>
</g>
</svg>
