<svg class="align-center" width="700" overflow="hidden" version="1.1" viewBox="0 0 688.80481 280.10239" xmlns="http://www.w3.org/2000/svg">
 <path d="m2.0081863 236.67296c0-13.52885 10.9679357-24.49756 24.4975597-24.49756h250.397984c13.53079 0 24.49756 10.96871 24.49756 24.49756 0 13.53079-10.96871 24.49756-24.49756 24.49756h-250.397984c-13.529624 0-24.4975597-10.96871-24.4975597-24.49756z" fill="#00b050" fill-rule="evenodd" stroke-width=".193657"/>
 <path d="m263.42136 258.26761c-11.62521-6.86707-15.48285-21.85802-8.61578-33.48323l71.97053-121.84099c6.86707-11.625201 21.85802-15.482841 33.48323-8.615778 11.62521 6.867068 15.48285 21.858018 8.61578 33.483228l-71.97054 121.84098c-6.86706 11.62521-21.85802 15.48285-33.48322 8.61579z" fill="#0070c0" fill-rule="evenodd" stroke-width=".193657"/>
 <path d="m14.351277 260.59923c-12.2952575-5.57924-17.7397191-20.07057-12.1604725-32.36583l91.5395385-201.729364c5.579246-12.295258 20.069987-17.7397193 32.365247-12.160473v3.88e-4c12.29526 5.579246 17.73894 20.069408 12.1597 32.364665l-91.539347 201.728984c-5.579247 12.29526-20.069602 17.74088-32.36486 12.16163z" fill="#0070c0" fill-rule="evenodd" stroke-width=".193657"/>
 <path d="m15.757805 236.67296c0-6.25705 5.07206-11.32891 11.328911-11.32891s11.328911 5.07186 11.328911 11.32891c0 6.25704-5.07206 11.32891-11.328911 11.32891s-11.328911-5.07187-11.328911-11.32891z" fill="none" fill-rule="evenodd" stroke="#ffffff" stroke-miterlimit="8" stroke-width="5.32556"/>
 <path d="m267.12407 236.67296c0-6.25705 5.07187-11.32891 11.32891-11.32891 6.25705 0 11.32891 5.07186 11.32891 11.32891 0 6.25704-5.07186 11.32891-11.32891 11.32891-6.25704 0-11.32891-5.07187-11.32891-11.32891z" fill="none" fill-rule="evenodd" stroke="#ffffff" stroke-miterlimit="8" stroke-width="5.32556"/>
 <path d="m93.800253 28.646265c4.363858-12.777269 18.259107-19.597854 31.036567-15.233996l230.30224 78.655371c12.77746 4.363083 19.59805 18.25988 15.23303 31.03734-4.36309 12.77747-18.25988 19.59805-31.03541 15.23303l-230.30224-78.655176c-12.77746-4.363858-19.597851-18.259494-15.233994-31.036956z" fill="#2f5597" fill-rule="evenodd" stroke-width=".193657"/>
 <path d="m334.71023 113.89468c0-6.25705 5.07186-11.32892 11.32891-11.32892 6.25704 0 11.32891 5.07187 11.32891 11.32892 0 6.25704-5.07187 11.32891-11.32891 11.32891-6.25705 0-11.32891-5.07187-11.32891-11.32891z" fill="none" fill-rule="evenodd" stroke="#ffffff" stroke-miterlimit="8" stroke-width="5.32556"/>
 <path d="m105.0335 37.787631c0-6.256851 5.02926-11.328911 11.23208-11.328911s11.23208 5.07206 11.23208 11.328911-5.02926 11.328911-11.23208 11.328911-11.23208-5.07206-11.23208-11.328911z" fill="none" fill-rule="evenodd" stroke="#ffffff" stroke-miterlimit="8" stroke-width="5.32556"/>
 <path d="m305.46033 114.251-0.17235-3.74919 0.3602-2.14378 0.41442-1.9172 0.50545-1.88234 0.59452-1.84748 0.67393-1.81069 0.76494-1.791326 0.85596-1.752592 0.93149-1.692559 1.00895-1.655764 1.08835-1.60735 1.18712-1.582174 2.54465-2.916469 2.85062-2.6957 3.10044-2.405215 1.69837-1.121271 1.72161-1.020571 1.79132-0.948917 1.85136-0.854025 1.90558-0.776563 1.96949-0.673925 1.99272-0.582907 2.00629-0.466712 2.00434-0.373757 1.99854-0.2595 2.01209-0.168481 1.99273-0.05229 1.98304 0.02518 1.97336 0.143305 1.9385 0.218832 1.93463 0.325344 1.9172 0.414425 1.88235 0.505443 1.84748 0.594526 1.81069 0.673925 1.79132 0.764944 1.7526 0.855962 1.69449 0.931488 1.65383 1.008951 1.60735 1.08835 1.58411 1.189052 2.90485 2.544647 2.69376 2.848689 2.40522 3.100442 1.12127 1.700305 1.02057 1.719671 0.94892 1.791323 0.85596 1.857167 0.763 1.899767 0.68361 1.96174 0.58485 2.00048 0.46671 2.00628 0.37376 2.00434 0.25949 1.99854 0.16849 2.00435 0.0658 2.00047-0.0387 1.98304-0.12975 1.97336-0.23433 1.93851-0.30985 1.92688-0.41636 1.92495-0.50544 1.88234-0.59646 1.85523-0.68555 1.81069-0.76107 1.77776-0.84241 1.75066-0.93536 1.70224-1.00895 1.65383-1.09222 1.61316-1.19874 1.58024-2.52915 2.90097-2.85256 2.69764-3.10819 2.40328-1.68481 1.1174-1.72355 1.02444-1.79326 0.94892-1.8591 0.8579-1.90945 0.76107-1.93851 0.67973-1.18518 0.35439-1.52795-5.10091 1.12515-0.33697-0.11813 0.0387 1.82812-0.64101-0.10458 0.0387 1.79133-0.71459-0.12975 0.0562 1.73129-0.7998-0.12975 0.0639 1.67125-0.88308-0.11426 0.0639 1.60929-0.95473-0.11426 0.0697 1.54926-1.02832-0.15493 0.11039 2.93003-2.26191-0.20141 0.17235 2.66278-2.51753-0.17816 0.18397 2.38391-2.73443-0.11426 0.13943 1.10191-1.45242-0.0833 0.11619 1.01669-1.50084-0.0697 0.10845 0.94504-1.54925-0.06 0.10263 0.87145-1.58604-0.0658 0.12781 0.78624-1.63446-0.0484 0.10845 0.71459-1.66932-0.0426 0.10263 0.641-1.69449-0.0445 0.12781 0.55773-1.73129-0.0368 0.12394 0.47252-1.75453-0.031 0.12975 0.38732-1.79132-0.0271 0.13943 0.29048-1.80488-0.0155 0.10652 0.21883-1.81457-0.0136 0.14137 0.12007-1.83974-4e-3 0.12394 0.0368-1.85329v0.13943l-0.06-1.86491 8e-3 0.1375-0.15687-1.87654 0.0116 0.12007-0.24207-1.86298 0.0232 0.14525-0.35052-1.8746 0.0232 0.11232-0.43573-1.87653 0.0387 0.14524-0.54612-1.86491 0.0426 0.12975-0.64101-1.83974 0.0426 0.1162-0.71459-1.77971 0.0542 0.12394-0.7998-1.73129 0.0639 0.12975-0.88308-1.671253 0.0639 0.116194-0.95473-1.611223 0.0658 0.106511-1.03025-1.560872 0.12007 0.166545-2.26385-2.916469 0.17042 0.195593-2.51754-2.662778 0.18011 0.174291-2.73637-2.397469 0.15686 0.127814-1.45243-1.08835 0.10458 0.07359-1.50084-1.016697 0.10845 0.06972-1.54925-0.945044 0.10263 0.06003-1.58604-0.871455 0.11425 0.06003-1.63446-0.799802 0.12201 0.05616-1.66932-0.714593 0.12006 0.04841-1.69449-0.629383 0.11038 0.03873-1.73129-0.557731 0.12394 0.03679-1.75453-0.470586 0.12975 0.03099-1.79132-0.387313 0.122 0.02324-1.80488-0.302105 0.14137 0.01937-1.81456-0.205276 0.10651 0.0097-1.83974-0.133623 0.1588 0.0058-1.85329-0.02324h0.10457l-1.86491 0.04841 0.15493-0.0097-1.87654 0.156862 0.12007-0.01162-1.86298 0.24207 0.14525-0.02324-1.8746 0.350519 0.11232-0.02324-1.87653 0.435727 0.14524-0.03873-1.86491 0.546112 0.11619-0.03679-1.83974 0.629384 0.14331-0.05422-1.7797 0.726212 0.11038-0.04841-1.73129 0.799802 0.12975-0.06391-1.67126 0.883074 0.1162-0.06391-1.61123 0.954727 0.10652-0.06584-1.56088 1.030253 0.16655-0.120067-2.91647 2.263845 0.19559-0.170418-2.66278 2.517536 0.17817-0.183974-2.39747 2.747988 0.12394-0.152989-1.08835 1.452424 0.0736-0.104574-1.0167 1.500838 0.0697-0.106511-0.94505 1.549253 0.06-0.104574-0.87146 1.586047 0.06-0.112321-0.7998 1.632529 0.0562-0.12201-0.7146 1.67126 0.0484-0.12007-0.62939 1.6945 0.0387-0.11232-0.55773 1.73129 0.0368-0.12394-0.47059 1.75452 0.031-0.12781-0.38732 1.79132 0.0232-0.122-0.3021 1.80294 0.0329-0.56354 0.1588 3.46646zm10.36063-3.52648-6.44295 16.65834-9.46207-15.14976z" fill="#00b0f0" stroke-width=".193657"/>
 <path d="m111.16079 80.246841-3.74667 0.06584-2.1432-0.418298-1.89377-0.466712-1.85833-0.555795-1.84322-0.635194-1.800038-0.737831-1.765373-0.805612-1.710182-0.906313-1.680745-0.970219-1.651891-1.082541-3.06539-2.322136-2.876576-2.643219-2.619011-2.930218-2.312454-3.160282-1.08041-1.726255-0.973318-1.752011-0.895856-1.817467-0.801932-1.875564-0.724663-1.928045-0.62125-1.980139-0.530813-2.007057-0.415393-2.025067-0.311013-2.007638-0.207406-2.022937-0.103412-1.991371-0.01297-1.993888 0.09063-1.983431 0.181843-1.960192 0.28545-1.94683 0.3755-1.929207 0.466906-1.893768 0.557344-1.866462 0.646232-1.83509 0.725244-1.800038 0.817812-1.765374 0.893919-1.709988 0.986293-1.68733 1.079442-1.6455 2.321555-3.06539 2.641476-2.874445 2.919373-2.6211421 3.171321-2.3110979 1.715216-1.0817657 1.768279-0.9752547 1.810883-0.8925632 1.863363-0.8021257 1.931145-0.7258249 2.0024-0.628222 3.14228-0.77268986 3.17538-0.50544373 3.17016-0.25872522 3.16048-0.01297199 3.13723 0.2333562 3.10432 0.48046203 3.04428 0.72563127 2.95907 0.943495 2.90098 1.1654254 2.79253 1.3894861 2.69376 1.6183882 2.56402 1.8130131 2.42458 2.0233237 2.28127 2.229569 2.11279 2.423225 1.87266 2.5278-4.27981 3.169964-1.80875-2.442784 0.13169 0.164608-1.97336-2.263265 0.14717 0.154732-2.13022-2.081808 0.15493 0.140207-2.26385-1.888152 0.16848 0.129556-2.39553-1.694495 0.16461 0.108061-2.51754-1.5128458 0.18591 0.1014761-2.60274-1.2949817 0.19366 0.086952-2.7112-1.0893184 0.18398 0.066037-2.77123-0.8834614 0.19172 0.053256-2.84481-0.6777981 0.20914 0.041249-2.89129-0.4479277 0.20915 0.024013-2.93002-0.2178636 0.20915 0.00736-2.95327 0.012007 0.20528-0.00871-2.96488 0.2420707 0.2014-0.024401-2.96469 0.4721348 0.21728-0.04396-2.95326 0.7262123 0.16132-0.045122-1.85194 0.5809698 0.13982-0.048027-1.80353 0.6777981 0.1162-0.046865-1.742912 0.7504193 0.124327-0.057322-1.694495 0.835241 0.108642-0.056741-1.646082 0.9076686 0.134785-0.0794-1.573459 0.99249 0.147566-0.100314-2.989477 2.178637 0.210505-0.170418-2.723199 2.444914 0.181649-0.179713-2.469121 2.686985 0.16209-0.194237-2.190643 2.892842 0.103606-0.147179-0.99249 1.513039 0.07243-0.116581-0.919869 1.57346 0.061-0.110385-0.835048 1.597667 0.05616-0.114451-0.762426 1.646081 0.05364-0.124133-0.677798 1.682488 0.04183-0.110771-0.605176 1.718702 0.03989-0.122391-0.520549 1.742909 0.03389-0.124521-0.435728 1.767117 0.02847-0.128782-0.351099 1.803524 0.02091-0.122391-0.266277 1.815531 0.01685-0.140595-0.16945 1.827731 0.0085-0.124134-0.08463 1.851744 0.0027-0.138851 0.01201 1.863944-0.0035-0.120841 0.09683 1.863944-0.01026-0.133623 0.193656 1.888152-0.01743-0.135753 0.290485 1.875951-0.02304-0.127619 0.387313 1.888152-0.03428-0.145824 0.496342 1.876145-0.0337-0.116194 0.580969 1.851938-0.04803-0.13982 0.677798 1.803331-0.04415-0.109997 0.750419 1.755109-0.06003-0.13033 0.835241 1.694495-0.06081-0.116001 0.907862 1.633881-0.07068-0.11968 0.99249 1.585661-0.10806-0.159573 2.178636 2.97747-0.163639-0.202178 2.444914 2.7354-0.183586-0.186104 2.686985 2.469121-0.194238-0.16209 2.892843 2.190837-0.147179-0.1038 1.513039 0.99249-0.129944-0.07998 1.57346 0.907668-0.08308-0.0459 1.597667 0.847247-0.142918-0.07049 1.646083 0.75042-0.09431-0.04067 1.68229 0.690192-0.14157-0.05422 1.71871 0.592589-0.10671-0.03292 1.74291 0.518999-0.12452-0.03292 1.76712 0.435727-0.12879-0.02905 1.80353 0.352455-0.55502-0.05035 3.46819-0.06003zm-3.23987-10.453583 16.47824 6.894175-15.40345 9.045699z" fill="#00b0f0" stroke-width=".193657"/>
 <path d="m27.183544 233.91335h49.51044v5.32556h-49.51044zm46.847662-5.32555 15.97667 7.98833-15.97667 7.98834z" fill="#ff0000" stroke-width=".193657"/>
 <path d="m30.620949 190.05013v49.58578h-5.325557v-49.58578zm-10.651113 2.66278 7.988335-15.97667 7.988334 15.97667z" fill="#ff0000" stroke-width=".193657"/>
 <text transform="rotate(20.636022)" x="217.61748" y="-6.2926989" fill="#ffffff" font-family="Arial, Arial_MSFontService, sans-serif" font-size="16px" font-weight="400" stroke-width=".193657">Link3</text>
 <text transform="rotate(-59.450547)" x="-9.7048655" y="361.74994" fill="#ffffff" font-family="Arial, Arial_MSFontService, sans-serif" font-size="16px" font-weight="400" stroke-width=".193657">Link2</text>
 <text transform="rotate(-64.933169)" x="-117.5733" y="126.01302" fill="#ffffff" font-family="Arial, Arial_MSFontService, sans-serif" font-size="16px" font-weight="400" stroke-width=".193657">Link4</text>
 <path d="m281.12738 200.04088 3.74726 0.13943 2.11473 0.519 1.87653 0.57322 1.83586 0.65844 1.80295 0.73976 1.74871 0.82885 1.7158 0.90244 1.67126 0.98572 1.61897 1.06123 1.59766 1.16194 2.94165 2.49236 2.72087 2.78672 2.43039 3.03266 1.14645 1.65964 1.03994 1.69062 0.95666 1.74679 0.87727 1.79326 0.80561 1.8591 0.70103 1.9172 0.6197 1.954 0.519 2.02564 0.41443 2.02952 0.30985 2.03146 0.20721 2.0334 0.10458 2.02371v2.00434l-0.091 1.99467-0.19559 1.97917-0.29824 1.96174-0.38731 1.90752-0.46477 1.90364-0.57323 1.87653-0.66037 1.83587-0.73977 1.80294-0.82885 1.74872-0.90244 1.7158-0.98377 1.67125-1.06318 1.61897-1.16194 1.59767-2.49236 2.94164-2.78865 2.72282-3.04041 2.42651-1.64608 1.14451-1.6945 1.04381-1.74678 0.95667-1.7952 0.8792-1.86878 0.80367-1.90558 0.70104-1.96562 0.6197-2.02758 0.52287-2.8971 0.55386-2.90098 0.35052-2.9184 0.12975-2.88549-0.0775-2.86224-0.27306-2.83126-0.48027-2.78478-0.68554-2.71701-0.86758-2.66277-1.06512-2.56402-1.25683-2.48268-1.42144-2.38584-1.60928-2.28322-1.78939-2.15152-1.95787-2.01984-2.12247-1.82618-2.21156 4.10746-3.38899 1.76614 2.13797-0.12394-0.13944 1.88816 1.98498-0.1375-0.13556 2.00822 1.82812-0.14912-0.12587 2.13023 1.67125-0.15493-0.11232 2.22705 1.50084-0.16267-0.10264 2.32388 1.33042-0.15299-0.0813 2.39553 1.17549-0.18204-0.0813 2.48075 0.99152-0.17817-0.0639 2.54078 0.81142-0.17236-0.0484 2.60275 0.641-0.19172-0.0407 2.63954 0.44929-0.19366-0.0271 2.6744 0.25562-0.1801-0.0116 2.69763 0.0736h-0.18978l2.72475-0.12006-0.20141 0.0155 2.7112-0.32535-0.1801 0.0271 2.72281-0.52094-0.16655 0.0387 1.87654-0.48414-0.13556 0.0387 1.83973-0.58097-0.11619 0.0387 1.77777-0.65262-0.13363 0.0542 1.74291-0.75138-0.11813 0.0542 1.68288-0.82304-0.11038 0.0562 1.63446-0.89469-0.1162 0.0658 1.57443-0.96828-0.12588 0.0833 1.51246-1.05349-0.13943 0.10457 2.86999-2.28708-0.2014 0.17622 2.60274-2.54271-0.17042 0.18398 2.34712-2.77123-0.122 0.15493 1.06511-1.46405-0.0717 0.10458 0.99152-1.51246-0.0678 0.10845 0.91987-1.56088-0.062 0.11233 0.84628-1.61123-0.0484 0.1007 0.77463-1.63446-0.0581 0.12975 0.68942-1.68094-0.0426 0.10845 0.61776-1.71773-0.0407 0.122 0.53256-1.74291-0.0387 0.14524 0.43572-1.7797-0.0232 0.10457 0.36213-1.79132-0.0232 0.12781 0.27887-1.82811-0.0174 0.13943 0.18204-1.83974-0.01 0.14137 0.0833-1.86491-2e-3 0.122v-1.87653l4e-3 0.13556-0.0968-1.88815 0.01 0.13362-0.19366-1.89977 0.0174 0.13362-0.29048-1.90171 0.0232 0.12975-0.38731-1.89977 0.029 0.12975-0.48414-1.88815 0.0426 0.14524-0.58097-1.82812 0.0349 0.10651-0.65262-1.79132 0.0581 0.14524-0.75139-1.72935 0.0523 0.11038-0.82305-1.68287 0.0562 0.11038-0.8947-1.63446 0.0658 0.1162-0.96828-1.57443 0.0775 0.11813-1.05349-1.52408 0.11232 0.15105-2.28708-2.85643 0.17429 0.19559-2.54271-2.60274 0.18397 0.17235-2.77122-2.34905 0.15492 0.122-1.46404-1.06511 0.10457 0.0736-1.51246-0.99346 0.10845 0.0678-1.56087-0.91987 0.11232 0.062-1.61122-0.84628 0.1007 0.0484-1.63446-0.77463 0.12975 0.0581-1.68094-0.68942 0.10845 0.0426-1.71774-0.61776 0.12201 0.0407-1.74291-0.53256 0.14524 0.0407-1.77971-0.43573 0.5345 0.0736-3.47614-0.12781zm2.67246 10.61238-16.08318-7.7695 15.86629-8.20523z" fill="#92d050" stroke-width=".193657"/>
 <path d="m498.70638 142.45902-50.32031 7e-5" fill="none" fill-rule="evenodd" stroke="#92d050" stroke-miterlimit="8" stroke-width="5.32556"/>
 <text x="505.32043" y="148.07506" fill="CurrentColor" font-family="Arial, Arial_MSFontService, sans-serif" font-size="16px" font-weight="400" stroke-width=".193657">Degree of Freedom (DoF)</text>
 <text x="506.57825" y="201.83926" fill="CurrentColor" font-family="Arial, Arial_MSFontService, sans-serif" font-size="16px" font-weight="400" stroke-width=".193657">Active constraint</text>
 <text x="505.75793" y="174.5529" fill="CurrentColor" font-family="Arial, Arial_MSFontService, sans-serif" font-size="16px" font-weight="400" stroke-width=".193657">Constrained DoF</text>
 <path d="m498.70638 169.18363-50.32031 7e-5" fill="none" fill-rule="evenodd" stroke="#00b0f0" stroke-miterlimit="8" stroke-width="5.32556"/>
 <path d="m498.70638 195.13362-50.32031 8e-5" fill="none" fill-rule="evenodd" stroke="#ff0000" stroke-miterlimit="8" stroke-width="5.32556"/>
 <path d="m448.38665 116.0249c0-3.47614 2.8177-6.29384 6.29384-6.29384h37.76304c3.47613 0 6.29384 2.8177 6.29384 6.29384 0 3.47613-2.81771 6.29384-6.29384 6.29384h-37.76304c-3.47614 0-6.29384-2.81771-6.29384-6.29384z" fill="#4472c4" fill-rule="evenodd" stroke-width=".193657"/>
 <text x="505.36731" y="121.73777" fill="CurrentColor" font-family="Arial, Arial_MSFontService, sans-serif" font-size="16px" font-weight="400" stroke-width=".193657">Moving body</text>
 <path d="m448.38665 90.26857c0-3.476136 2.8177-6.29384 6.29384-6.29384h37.76304c3.47613 0 6.29384 2.817704 6.29384 6.29384s-2.81771 6.293839-6.29384 6.293839h-37.76304c-3.47614 0-6.29384-2.817703-6.29384-6.293839z" fill="#00b050" fill-rule="evenodd" stroke-width=".193657"/>
 <text x="505.24231" y="95.400467" fill="CurrentColor" font-family="Arial, Arial_MSFontService, sans-serif" font-size="16px" font-weight="400" stroke-width=".193657">Fixed body</text>
 <text x="138.75917" y="240.86946" fill="CurrentColor" font-family="Arial, Arial_MSFontService, sans-serif" font-size="16px" font-weight="400" stroke-width=".193657"><tspan fill="#ffffff">link1</tspan></text>
 <text x="326.16098" y="232.57265" fill="CurrentColor" font-family="Arial, Arial_MSFontService, sans-serif" font-size="16px" font-weight="400" stroke-width=".193657">q1, u1</text>
 <text x="32.488701" y="20.635042" fill="CurrentColor" font-family="Arial, Arial_MSFontService, sans-serif" font-size="16px" font-weight="400" stroke-width=".193657">q3, u3</text>
 <text x="327.66376" y="65.940979" fill="CurrentColor" font-family="Arial, Arial_MSFontService, sans-serif" font-size="16px" font-weight="400" stroke-width=".193657">q2, u2</text>
</svg>
