<svg width="1280" height="720" xmlns="http://www.w3.org/2000/svg" xmlns:xlink="http://www.w3.org/1999/xlink" overflow="hidden"><defs><clipPath id="clip0"><rect x="0" y="0" width="1280" height="720"/></clipPath><linearGradient x1="626" y1="255.5" x2="626" y2="356.5" gradientUnits="userSpaceOnUse" spreadMethod="reflect" id="fill1"><stop offset="0" stop-color="#F5B8A4"/><stop offset="0.5" stop-color="#F2AB96"/><stop offset="1" stop-color="#F59E81"/></linearGradient></defs><g clip-path="url(#clip0)"><rect x="0" y="0" width="1280" height="720" fill="#FFFFFF"/><rect x="548.5" y="255.5" width="155" height="101" stroke="#E97132" stroke-width="1.33333" stroke-miterlimit="8" fill="url(#fill1)"/><path d="M624.668 503.102C636.79 534.67 650.219 565.645 678.815 578.04 707.411 590.436 772.202 594.591 796.245 577.475 820.288 560.359 834.695 507.645 823.074 475.343 811.453 443.04 755.96 420.396 726.518 383.658 697.075 346.92 673.245 273.354 646.419 254.916 619.593 236.478 572.364 246.646 565.562 273.029 558.761 299.411 596.235 350.286 606.086 388.632 615.937 426.977 612.547 471.534 624.668 503.102Z" stroke="#92D050" stroke-width="1.33333" stroke-miterlimit="8" fill="#D9F2D0" fill-rule="evenodd" fill-opacity="0.509804"/><path d="M0 0 127.772 69.5874" stroke="#FF0000" stroke-width="2" stroke-miterlimit="8" fill="none" fill-rule="evenodd" transform="matrix(-1 0 0 1 706.772 454)"/><path d="M0 0 182.874 103.671" stroke="#FF0000" stroke-width="2" stroke-miterlimit="8" fill="none" fill-rule="evenodd" transform="matrix(-1 0 0 1 743.874 520)"/><path d="M0 0 182.874 103.671" stroke="#FF0000" stroke-width="2" stroke-miterlimit="8" fill="none" fill-rule="evenodd" transform="matrix(-1 0 0 1 625.874 307)"/><rect x="194" y="89" width="66" height="468" stroke="#042433" stroke-width="2" stroke-miterlimit="8" fill="#AEAEAE"/><path d="M100 245 100 362.965 98.0001 362.965 98 245ZM103 361.632 99.0001 369.632 95.0001 361.632Z"/><text font-family="Aptos,Aptos_MSFontService,sans-serif" font-weight="400" font-size="27" transform="translate(124.61 319)">g</text><text font-family="Aptos,Aptos_MSFontService,sans-serif" font-weight="400" font-size="27" transform="translate(221.367 316)">O</text><text font-family="Aptos,Aptos_MSFontService,sans-serif" font-weight="400" font-size="27" transform="translate(251.867 316)">●</text><path d="M260 307 869.2 307" stroke="#000000" stroke-width="2" stroke-miterlimit="8" fill="none" fill-rule="evenodd"/><text font-family="Aptos,Aptos_MSFontService,sans-serif" font-weight="400" font-size="27" transform="translate(614.582 319)">●</text><path d="M581 232 800.035 615.271" stroke="#000000" stroke-width="2" stroke-linejoin="round" stroke-miterlimit="10" stroke-dasharray="8 6" fill="none" fill-rule="evenodd"/><text font-family="Aptos,Aptos_MSFontService,sans-serif" font-weight="400" font-size="27" transform="translate(697.998 464)">●</text><text font-family="Aptos,Aptos_MSFontService,sans-serif" font-weight="400" font-size="27" transform="translate(733.956 528)">●</text><path d="M626 101 626 578.383" stroke="#0F9ED5" stroke-width="2" stroke-linejoin="round" stroke-miterlimit="10" stroke-dasharray="8 6" fill="none" fill-rule="evenodd"/><path d="M266.665 110 619.082 110 619.082 112 266.665 112ZM268 115 260 111 268 107ZM617.748 107 625.748 111 617.748 115Z" fill="#0F9ED5"/><rect x="414" y="90" width="37" height="42" fill="#FFFFFF"/><text fill="#46B1E1" font-family="Cambria Math,Cambria Math_MSFontService,sans-serif" font-weight="400" font-size="27" transform="translate(424.058 120)">𝑞</text><text fill="#46B1E1" font-family="Cambria Math,Cambria Math_MSFontService,sans-serif" font-weight="400" font-size="20" transform="translate(437.252 125)">1</text><text fill="#46B1E1" font-family="Cambria Math,Cambria Math_MSFontService,sans-serif" font-weight="400" font-size="27" transform="translate(640.68 431)">𝑞</text><text fill="#46B1E1" font-family="Cambria Math,Cambria Math_MSFontService,sans-serif" font-weight="400" font-size="20" transform="translate(654.493 436)">2</text><path d="M744 520 746.699 677.582" stroke="#000000" stroke-width="2" stroke-miterlimit="8" fill="none" fill-rule="evenodd"/><text font-family="Aptos,Aptos_MSFontService,sans-serif" font-weight="400" font-size="27" transform="translate(736.249 687)">●</text><text font-family="Cambria Math,Cambria Math_MSFontService,sans-serif" font-weight="400" font-size="27" transform="translate(761.749 687)">𝑀</text><text font-family="Cambria Math,Cambria Math_MSFontService,sans-serif" font-weight="400" font-size="20" transform="translate(782.855 692)">𝑐</text><text font-family="Cambria Math,Cambria Math_MSFontService,sans-serif" font-weight="400" font-size="27" transform="translate(794.415 687)">,</text><text font-family="Cambria Math,Cambria Math_MSFontService,sans-serif" font-weight="400" font-size="27" transform="translate(804.362 687)">𝑃</text><text font-family="Cambria Math,Cambria Math_MSFontService,sans-serif" font-weight="400" font-size="20" transform="translate(815.655 692)">𝑐</text><path d="M736.782 552.849 730.707 550.953C730.634 550.93 730.563 550.899 730.497 550.86L725.037 547.64C724.982 547.608 724.93 547.57 724.882 547.528L720.167 543.355C720.119 543.313 720.076 543.267 720.037 543.217L716.194 538.227C716.155 538.177 716.121 538.122 716.092 538.065L713.248 532.395C713.219 532.337 713.195 532.276 713.178 532.213L711.461 525.999C711.443 525.935 711.432 525.869 711.427 525.803L710.964 519.181C710.96 519.114 710.962 519.047 710.97 518.981L711.836 512.408C711.844 512.341 711.86 512.276 711.881 512.212L713.973 506.136C713.995 506.074 714.022 506.015 714.055 505.958L717.238 500.506C717.271 500.45 717.309 500.398 717.351 500.35L721.49 495.649C721.533 495.601 721.579 495.557 721.63 495.518L726.589 491.696C726.641 491.656 726.695 491.622 726.753 491.593L732.397 488.776C732.456 488.746 732.518 488.723 732.581 488.706L738.775 487.02C738.84 487.003 738.906 486.992 738.973 486.987L745.581 486.561C745.648 486.557 745.715 486.559 745.781 486.568L752.348 487.472C752.414 487.481 752.48 487.497 752.543 487.519L758.62 489.648C758.682 489.67 758.741 489.698 758.797 489.731L764.257 492.95C764.312 492.983 764.364 493.02 764.412 493.063L769.127 497.235C769.175 497.277 769.218 497.324 769.257 497.374L773.1 502.363C773.139 502.414 773.173 502.468 773.202 502.525L776.046 508.195C776.075 508.253 776.099 508.314 776.116 508.377L777.833 514.591C777.851 514.655 777.862 514.721 777.867 514.788L778.33 521.409C778.335 521.48 778.332 521.552 778.322 521.622L777.258 528.964C777.247 529.039 777.228 529.112 777.201 529.182L774.555 536.004C774.534 536.057 774.51 536.107 774.481 536.156L772.605 539.294 770.32 542.302 767.694 545.049 764.744 547.501 763.468 545.961 766.251 543.664 768.729 541.09 770.888 538.268 772.764 535.13 772.69 535.281 775.336 528.459 775.279 528.677 776.343 521.336 776.335 521.549 775.872 514.927 775.906 515.124 774.188 508.91 774.258 509.092 771.414 503.422 771.516 503.584 767.673 498.594 767.802 498.733 763.087 494.56 763.241 494.673 757.781 491.454 757.958 491.536 751.881 489.406 752.076 489.453 745.509 488.549 745.709 488.557 739.102 488.983 739.3 488.95 733.107 490.635 733.291 490.565 727.646 493.383 727.81 493.28 722.851 497.102 722.991 496.971 718.852 501.671 718.965 501.515 715.782 506.966 715.864 506.788 713.772 512.864 713.818 512.668 712.953 519.242 712.959 519.042 713.422 525.663 713.389 525.467 715.106 531.681 715.036 531.499 717.88 537.169 717.778 537.007 721.622 541.996 721.492 541.857 726.208 546.03 726.053 545.918 731.513 549.137 731.303 549.044 737.378 550.94ZM736.449 547.726 743.649 553.032 735.084 555.608Z" fill="#0F9ED5"/><text fill="#46B1E1" font-family="Cambria Math,Cambria Math_MSFontService,sans-serif" font-weight="400" font-size="27" transform="translate(761.179 482)">𝑞</text><text fill="#46B1E1" font-family="Cambria Math,Cambria Math_MSFontService,sans-serif" font-weight="400" font-size="20" transform="translate(774.992 487)">3</text><path d="M701 364 824.384 364" stroke="#000000" stroke-width="2" stroke-miterlimit="8" fill="none" fill-rule="evenodd"/><text font-family="Cambria Math,Cambria Math_MSFontService,sans-serif" font-weight="400" font-size="24" transform="translate(833.972 371)">𝑀</text><text font-family="Cambria Math,Cambria Math_MSFontService,sans-serif" font-weight="400" font-size="18" transform="translate(853.066 376)">𝑏</text><text font-family="Cambria Math,Cambria Math_MSFontService,sans-serif" font-weight="400" font-size="24" transform="translate(865.026 371)">,</text><text font-family="Cambria Math,Cambria Math_MSFontService,sans-serif" font-weight="400" font-size="24" transform="translate(874.026 371)">𝐼</text><text font-family="Cambria Math,Cambria Math_MSFontService,sans-serif" font-weight="400" font-size="18" transform="translate(881.786 376)">𝑏</text><text font-family="Cambria Math,Cambria Math_MSFontService,sans-serif" font-weight="400" font-size="14" transform="translate(891.572 380)">0</text><path d="M710 454 833.384 454" stroke="#000000" stroke-width="2" stroke-miterlimit="8" fill="none" fill-rule="evenodd"/><text font-family="Cambria Math,Cambria Math_MSFontService,sans-serif" font-weight="400" font-size="24" transform="translate(851.786 465)">𝑏</text><text font-family="Cambria Math,Cambria Math_MSFontService,sans-serif" font-weight="400" font-size="18" transform="translate(864.026 469)">0</text><path d="M744 518 867.384 518" stroke="#000000" stroke-width="2" stroke-miterlimit="8" fill="none" fill-rule="evenodd"/><text font-family="Cambria Math,Cambria Math_MSFontService,sans-serif" font-weight="400" font-size="24" transform="translate(880.557 529)">𝑃</text><text font-family="Cambria Math,Cambria Math_MSFontService,sans-serif" font-weight="400" font-size="18" transform="translate(892.81 534)">𝑏𝑐</text><path d="M689 269 812.384 269" stroke="#000000" stroke-width="2" stroke-miterlimit="8" fill="none" fill-rule="evenodd"/><text font-family="Cambria Math,Cambria Math_MSFontService,sans-serif" font-weight="400" font-size="24" transform="translate(826.766 280)">𝑀</text><text font-family="Cambria Math,Cambria Math_MSFontService,sans-serif" font-weight="400" font-size="18" transform="translate(845.859 285)">𝑎</text><path d="M0 0 73.3075 94.0889" stroke="#000000" stroke-width="2" stroke-miterlimit="8" fill="none" fill-rule="evenodd" transform="matrix(1 0 0 -1 626 307.089)"/><path d="M698 213 821.384 213" stroke="#000000" stroke-width="2" stroke-miterlimit="8" fill="none" fill-rule="evenodd"/><text font-family="Cambria Math,Cambria Math_MSFontService,sans-serif" font-weight="400" font-size="24" transform="translate(834.063 224)">𝑃</text><text font-family="Cambria Math,Cambria Math_MSFontService,sans-serif" font-weight="400" font-size="18" transform="translate(846.317 229)">𝑎𝑏</text><path d="M260 269 548.074 269" stroke="#000000" stroke-width="2" stroke-miterlimit="8" fill="none" fill-rule="evenodd"/><path d="M0 0 151.976 0.357585" stroke="#000000" stroke-width="2" stroke-miterlimit="8" fill="none" fill-rule="evenodd" transform="matrix(1 0 0 -1 259 340.358)"/><text font-family="Aptos,Aptos_MSFontService,sans-serif" font-weight="400" font-size="32" transform="matrix(6.12323e-17 1 -1 6.12323e-17 398.061 329)">П</text><path d="M419 339 548.406 339" stroke="#000000" stroke-width="2" stroke-miterlimit="8" fill="none" fill-rule="evenodd"/><text font-family="Aptos,Aptos_MSFontService,sans-serif" font-weight="400" font-size="27" transform="translate(404.339 372)">c</text><rect x="397" y="246" width="26" height="48" stroke="#FFFFFF" stroke-width="2" stroke-miterlimit="8" fill="#FFFFFF"/><path d="M397 270.164 398.875 256 403.75 283 408.25 256.885 412 282.115 416.125 257.328 420.25 282.557 424 269.721" stroke="#000000" stroke-width="2" stroke-miterlimit="8" fill="#FFFFFF" fill-rule="evenodd"/><text font-family="Aptos,Aptos_MSFontService,sans-serif" font-weight="400" font-size="27" transform="translate(404.339 238)">k</text><path d="M745.095 604.781C737.839 613.942 724.169 615.201 714.562 607.592 707.959 602.362 704.749 594.019 706.275 586.053" stroke="#000000" stroke-width="2" stroke-miterlimit="8" fill="none" fill-rule="evenodd"/><path d="M717.056 593.98 727.154 602.283 707.739 625.895 697.64 617.592Z" stroke="#FFFFFF" stroke-width="2" stroke-miterlimit="8" fill="#FFFFFF" fill-rule="evenodd"/><path d="M709.08 603.887 714.195 596.727 708.271 612.515 718.176 599.577 712.276 614.126 721.611 601.809 715.88 616.453 721.446 610.484" stroke="#000000" stroke-width="2" stroke-miterlimit="8" fill="#FFFFFF" fill-rule="evenodd"/><text font-family="Cambria Math,Cambria Math_MSFontService,sans-serif" font-weight="400" font-size="16" transform="translate(688.283 624)">𝑘</text><text font-family="Cambria Math,Cambria Math_MSFontService,sans-serif" font-weight="400" font-size="12" transform="translate(697.116 627)">𝑡</text><path d="M460.194 409.279 574.499 607.766 572.766 608.764 458.461 410.277ZM456.526 412.929 456 404 463.459 408.936ZM576.434 605.113 576.96 614.042 569.501 609.106Z" fill="#FF0000"/><path d="M513.14 379.321 587.845 512.141 586.102 513.121 511.397 380.301ZM509.435 382.934 509 374 516.408 379.012ZM589.806 509.508 590.241 518.441 582.833 513.429Z" fill="#FF0000"/><rect x="492" y="470" width="27" height="39" fill="#FFFFFF"/><text fill="#FF0000" font-family="Cambria Math,Cambria Math_MSFontService,sans-serif" font-weight="400" font-size="24" transform="translate(501.343 497)">𝑙</text><rect x="532" y="417" width="30" height="53" fill="#FFFFFF"/><text fill="#FF0000" font-family="Cambria Math,Cambria Math_MSFontService,sans-serif" font-weight="400" font-size="19" transform="translate(541.735 438)">2𝑙</text><text fill="#FF0000" font-family="Cambria Math,Cambria Math_MSFontService,sans-serif" font-weight="400" font-size="19" transform="translate(544.948 465)">3</text><path d="M541.735 446.289 558.735 446.289 558.735 447.289 541.735 447.289Z" fill="#FF0000" fill-rule="evenodd"/><path d="M669.566 395.825 664.983 400.241C664.928 400.295 664.867 400.341 664.801 400.381L659.353 403.621C659.298 403.654 659.24 403.681 659.18 403.703L653.254 405.832C653.195 405.853 653.133 405.869 653.07 405.879L646.848 406.851C646.785 406.861 646.721 406.864 646.657 406.862L640.318 406.631C640.253 406.628 640.188 406.62 640.125 406.605L633.85 405.123C633.785 405.108 633.722 405.086 633.662 405.058L627.633 402.281 626.662 401.698 627.703 399.99 628.469 400.465 634.498 403.242 634.31 403.177 640.584 404.658 640.391 404.632 646.73 404.863 646.539 404.875 652.762 403.903 652.578 403.95 658.504 401.821 658.331 401.902 663.778 398.662 663.596 398.801 668.178 394.385ZM664.913 393.655 673.027 389.892 671.169 398.641Z" fill="#0F9ED5"/><path d="M601.231 396.336 594.994 395.072C594.918 395.056 594.845 395.032 594.775 395L589.015 392.356C588.957 392.33 588.901 392.298 588.849 392.26L583.732 388.592C583.68 388.555 583.632 388.513 583.589 388.467L579.255 383.897C579.211 383.851 579.172 383.8 579.137 383.746L575.728 378.397C575.693 378.342 575.664 378.284 575.64 378.223L573.296 372.217C573.272 372.155 573.254 372.091 573.243 372.025L572.105 365.486C572.092 365.414 572.088 365.342 572.091 365.269L572.441 357.595 574.439 357.686 574.089 365.36 574.075 365.143 575.213 371.683 575.159 371.49 577.503 377.496 577.415 377.322 580.824 382.672 580.706 382.521 585.04 387.091 584.897 386.966 590.014 390.635 589.849 390.539 595.61 393.183 595.391 393.112 601.629 394.376ZM600.375 391.274 608.081 395.816 599.824 399.255Z" fill="#FFC000"/><text fill="#FFC000" font-family="Aptos,Aptos_MSFontService,sans-serif" font-weight="400" font-size="19" transform="translate(569.144 402)">T</text><text fill="#FFC000" font-family="Aptos,Aptos_MSFontService,sans-serif" font-weight="400" font-size="19" transform="translate(723.041 298)">F</text><path d="M628 305 739.241 305 739.241 309 628 309ZM737.241 301 749.241 307 737.241 313Z" fill="#FFC000"/><path d="M1.5-5.14111e-06 1.50008 23.1316-1.49992 23.1316-1.5 5.14111e-06ZM4.50007 21.6316 0.000104987 30.6316-4.49993 21.6316Z" fill="#4EA72E" transform="matrix(1 0 0 -1 746.5 640.132)"/><path d="M748.521 640 765.169 640.228 765.128 643.227 748.48 643ZM763.71 637.207 772.648 641.83 763.587 646.207Z" fill="#4EA72E"/><path d="M0.666667-1.14247e-06 0.66676 54.5965-0.666573 54.5965-0.666667 1.14247e-06ZM4.00009 53.2632 0.000104987 61.2632-3.99991 53.2632Z" fill="#4EA72E" transform="matrix(1 0 0 -1 260.5 80.7633)"/><path d="M260.5 80.8334 315.826 80.8335 315.826 82.1668 260.5 82.1667ZM314.493 77.5001 322.493 81.5002 314.493 85.5001Z" fill="#4EA72E"/><path d="M578.396 228.835 545.222 170.622 546.38 169.962 579.554 228.175ZM542.986 173.431 542.5 164.5 549.936 169.47Z" fill="#4EA72E"/><path d="M0.335681-0.575988 50.5527 28.6901 49.8814 29.8421-0.335681 0.575988ZM51.0791 25.1388 55.9769 32.6229 47.051 32.0506Z" fill="#4EA72E" transform="matrix(1 0 0 -1 577.5 227.123)"/><text fill="#4EA72E" font-family="Cambria Math,Cambria Math_MSFontService,sans-serif" font-weight="400" font-size="16" transform="translate(267.764 28)">𝑛</text><path d="M3.83594-11.2656 6.49219-8.80469 6.07031-8.35938 3.3125-10.2578 3.22656-10.2578 0.421875-8.35938 0-8.80469 2.78906-11.2656Z" fill="#4EA72E" transform="translate(269.77 28)"/><text fill="#000000" fill-opacity="0" font-family="Arial,Arial_MSFontService,sans-serif" font-size="2.90625" y="-8.72266">ො</text><text fill="#4EA72E" font-family="Cambria Math,Cambria Math_MSFontService,sans-serif" font-weight="400" font-size="12" transform="translate(276.93 32)">𝑦</text><text fill="#4EA72E" font-family="Cambria Math,Cambria Math_MSFontService,sans-serif" font-weight="400" font-size="16" transform="translate(327.908 83)">𝑛</text><path d="M3.83594-11.2656 6.49219-8.80469 6.07031-8.35938 3.3125-10.2578 3.22656-10.2578 0.421875-8.35938 0-8.80469 2.78906-11.2656Z" fill="#4EA72E" transform="translate(329.915 83)"/><text fill="#000000" fill-opacity="0" font-family="Arial,Arial_MSFontService,sans-serif" font-size="2.90625" y="-8.72266">ො</text><text fill="#4EA72E" font-family="Cambria Math,Cambria Math_MSFontService,sans-serif" font-weight="400" font-size="12" transform="translate(337.075 87)">𝑥</text><text fill="#4EA72E" font-family="Cambria Math,Cambria Math_MSFontService,sans-serif" font-weight="400" font-size="16" transform="translate(520.795 179)">𝑏</text><path d="M3.75781-10.7812 6.49219-8.80469 6.1875-8.35938 3.32031-9.77344 3.23438-9.77344 0.304688-8.35938 0-8.80469 2.71094-10.7812Z" fill="#4EA72E" transform="translate(522.395 175)"/><text fill="#000000" fill-opacity="0" font-family="Arial,Arial_MSFontService,sans-serif" font-size="2.42188" y="-8.66211">෠</text><text fill="#4EA72E" font-family="Cambria Math,Cambria Math_MSFontService,sans-serif" font-weight="400" font-size="12" transform="translate(528.955 182)">𝑦</text><text fill="#4EA72E" font-family="Cambria Math,Cambria Math_MSFontService,sans-serif" font-weight="400" font-size="16" transform="translate(640.478 194)">𝑏</text><path d="M3.75781-10.7812 6.49219-8.80469 6.1875-8.35938 3.32031-9.77344 3.23438-9.77344 0.304688-8.35938 0-8.80469 2.71094-10.7812Z" fill="#4EA72E" transform="translate(642.078 190)"/><text fill="#000000" fill-opacity="0" font-family="Arial,Arial_MSFontService,sans-serif" font-size="2.42188" y="-8.66211">෠</text><text fill="#4EA72E" font-family="Cambria Math,Cambria Math_MSFontService,sans-serif" font-weight="400" font-size="12" transform="translate(648.638 197)">𝑥</text><text fill="#4EA72E" font-family="Cambria Math,Cambria Math_MSFontService,sans-serif" font-weight="400" font-size="16" transform="translate(750.597 615)">𝑐</text><path d="M-1.67969-11.2656 0-8.80469-0.546875-8.35938-2.20312-10.2578-2.28906-10.2578-3.94531-8.35938-4.47656-8.80469-2.72656-11.2656Z" fill="#4EA72E" transform="translate(757.81 615)"/><text fill="#000000" fill-opacity="0" font-family="Arial,Arial_MSFontService,sans-serif" font-size="2.90625" x="-4.47656" y="-8.72266">Ƹ</text><text fill="#4EA72E" font-family="Cambria Math,Cambria Math_MSFontService,sans-serif" font-weight="400" font-size="12" transform="translate(757.537 618)">𝑦</text><text fill="#4EA72E" font-family="Cambria Math,Cambria Math_MSFontService,sans-serif" font-weight="400" font-size="16" transform="translate(776.482 644)">𝑐</text><path d="M-1.67969-11.2656 0-8.80469-0.546875-8.35938-2.20312-10.2578-2.28906-10.2578-3.94531-8.35938-4.47656-8.80469-2.72656-11.2656Z" fill="#4EA72E" transform="translate(783.695 644)"/><text fill="#000000" fill-opacity="0" font-family="Arial,Arial_MSFontService,sans-serif" font-size="2.90625" x="-4.47656" y="-8.72266">Ƹ</text><text fill="#4EA72E" font-family="Cambria Math,Cambria Math_MSFontService,sans-serif" font-weight="400" font-size="12" transform="translate(783.422 648)">𝑥</text><path d="M151 47C151 37.6112 159.059 30 169 30 178.941 30 187 37.6112 187 47 187 56.3888 178.941 64 169 64 159.059 64 151 56.3888 151 47Z" stroke="#4EA72E" stroke-width="2" stroke-miterlimit="8" fill="#FFFFFF" fill-rule="evenodd"/><text fill="#4EA72E" font-family="Aptos,Aptos_MSFontService,sans-serif" font-weight="400" font-size="24" transform="translate(160.564 54)">N</text><path d="M782 402C782 392.611 790.283 385 800.5 385 810.717 385 819 392.611 819 402 819 411.389 810.717 419 800.5 419 790.283 419 782 411.389 782 402Z" stroke="#4EA72E" stroke-width="2" stroke-miterlimit="8" fill="#FFFFFF" fill-rule="evenodd"/><text fill="#4EA72E" font-family="Aptos,Aptos_MSFontService,sans-serif" font-weight="400" font-size="24" transform="translate(793.343 409)">B</text><path d="M644 652C644 642.611 652.283 635 662.5 635 672.717 635 681 642.611 681 652 681 661.389 672.717 669 662.5 669 652.283 669 644 661.389 644 652Z" stroke="#4EA72E" stroke-width="2" stroke-miterlimit="8" fill="#FFFFFF" fill-rule="evenodd"/><text fill="#4EA72E" font-family="Aptos,Aptos_MSFontService,sans-serif" font-weight="400" font-size="24" transform="translate(654.53 660)">C</text><path d="M747.5 404.5 783.126 404.5" stroke="#4EA72E" stroke-width="1.33333" stroke-miterlimit="8" fill="none" fill-rule="evenodd"/><path d="M681.5 652.5 746.965 652.5" stroke="#4EA72E" stroke-width="1.33333" stroke-miterlimit="8" fill="none" fill-rule="evenodd"/><path d="M187.5 47.5001 211.832 47.5002" stroke="#4EA72E" stroke-width="1.33333" stroke-miterlimit="8" fill="none" fill-rule="evenodd"/><path d="M211.5 47.5001 227.338 89.5951" stroke="#4EA72E" stroke-width="1.33333" stroke-miterlimit="8" fill="none" fill-rule="evenodd"/></g></svg>