<?xml version="1.0" encoding="UTF-8"?>
<!DOCTYPE svg PUBLIC "-//W3C//DTD SVG 1.1//EN" "http://www.w3.org/Graphics/SVG/1.1/DTD/svg11.dtd">
<svg xmlns="http://www.w3.org/2000/svg" version="1.1" width="597px" height="588px" style="shape-rendering:geometricPrecision; text-rendering:geometricPrecision; image-rendering:optimizeQuality; fill-rule:evenodd; clip-rule:evenodd" xmlns:xlink="http://www.w3.org/1999/xlink">
<g><path style="opacity:1" fill="#fefefe" d="M -0.5,-0.5 C 198.5,-0.5 397.5,-0.5 596.5,-0.5C 596.5,66.8333 596.5,134.167 596.5,201.5C 544.5,201.5 492.5,201.5 440.5,201.5C 438.519,199.856 436.519,198.19 434.5,196.5C 433.948,198.003 433.948,199.669 434.5,201.5C 426.521,202.224 418.521,202.558 410.5,202.5C 409.77,197.349 409.104,192.183 408.5,187C 410.2,181.274 412.7,175.774 416,170.5C 419.833,167.333 423.667,164.167 427.5,161C 433.881,158.988 440.215,156.821 446.5,154.5C 438.438,154.185 430.772,156.018 423.5,160C 419.238,163.717 415.072,167.55 411,171.5C 410.023,174.102 408.856,176.602 407.5,179C 403.167,179.667 398.833,179.667 394.5,179C 397.5,173.333 401.833,169 407.5,166C 413.563,160.706 417.729,154.206 420,146.5C 423.79,143.547 426.623,139.88 428.5,135.5C 428,135.167 427.5,134.833 427,134.5C 424.049,136.447 421.382,138.781 419,141.5C 415.808,147.412 412.808,153.412 410,159.5C 402.46,165.373 395.96,172.206 390.5,180C 374.144,180.554 357.81,180.554 341.5,180C 340.544,183.394 340.211,186.894 340.5,190.5C 326.993,190.5 313.493,190.166 300,189.5C 285.164,190.114 270.331,190.781 255.5,191.5C 251.5,191.167 247.5,190.833 243.5,190.5C 241.727,187.94 239.727,185.607 237.5,183.5C 235.946,187.609 234.113,191.609 232,195.5C 230.799,191.345 229.299,187.345 227.5,183.5C 224.474,187.205 221.808,191.205 219.5,195.5C 217.398,191.628 215.564,187.628 214,183.5C 212.989,182.663 211.822,182.33 210.5,182.5C 211.249,189.313 209.249,190.313 204.5,185.5C 203.304,185.846 203.304,186.346 204.5,187C 190.504,187.5 176.504,187.667 162.5,187.5C 152.681,186.506 142.681,186.173 132.5,186.5C 132.825,179.313 132.491,172.313 131.5,165.5C 131.5,162.5 131.5,159.5 131.5,156.5C 131.432,148.486 131.099,140.486 130.5,132.5C 130.768,130.901 130.434,129.568 129.5,128.5C 129.666,119.339 129.666,110.339 129.5,101.5C 129.425,98.7938 129.092,96.1272 128.5,93.5C 131.78,95.1401 135.114,96.8068 138.5,98.5C 139.833,97.5 139.833,96.5 138.5,95.5C 132.198,93.0517 132.865,91.885 140.5,92C 170.172,92.2641 199.839,92.0974 229.5,91.5C 229.291,90.914 228.957,90.414 228.5,90C 198.156,88.8173 167.822,88.6506 137.5,89.5C 136.5,89.1667 135.5,88.8333 134.5,88.5C 135.815,87.1054 135.481,86.1054 133.5,85.5C 132.01,87.1256 130.51,88.7923 129,90.5C 128.667,88.8333 128.333,87.1667 128,85.5C 127.764,87.764 127.264,89.9307 126.5,92C 127.056,92.3826 127.389,92.8826 127.5,93.5C 127.5,94.8333 127.5,96.1667 127.5,97.5C 118.172,88.3388 108.672,79.3388 99,70.5C 101.788,59.5308 98.6214,50.6975 89.5,44C 86.2068,42.3921 82.8734,42.2255 79.5,43.5C 77.8563,46.3106 75.6897,48.644 73,50.5C 70.0708,56.6618 69.7375,62.9952 72,69.5C 74.7633,74.713 79.0966,76.713 85,75.5C 89.6944,75.9037 94.0278,74.9037 98,72.5C 108.084,81.7555 117.917,91.0889 127.5,100.5C 127.664,103.187 127.497,105.854 127,108.5C 124.873,110.114 123.373,112.114 122.5,114.5C 124.5,112.833 126.5,111.167 128.5,109.5C 128.5,116.167 128.5,122.833 128.5,129.5C 128.179,135.026 128.512,140.36 129.5,145.5C 129.5,159.833 129.5,174.167 129.5,188.5C 129.5,192.833 129.5,197.167 129.5,201.5C 128.883,201.389 128.383,201.056 128,200.5C 122.724,203.423 119.724,207.756 119,213.5C 121.469,210.484 124.302,207.151 127.5,203.5C 127.307,207.566 127.64,211.566 128.5,215.5C 127.766,216.708 127.433,218.041 127.5,219.5C 128.222,219.082 128.722,218.416 129,217.5C 129.499,223.157 129.666,228.824 129.5,234.5C 129.666,241.841 129.5,249.174 129,256.5C 127.14,260.22 125.307,263.886 123.5,267.5C 126.051,265.422 127.884,262.756 129,259.5C 129.927,268.632 129.427,277.632 127.5,286.5C 128.268,285.737 128.768,284.737 129,283.5C 129.667,292.167 129.667,300.833 129,309.5C 123.705,315.302 118.538,321.302 113.5,327.5C 114.002,328.521 114.668,328.688 115.5,328C 118.669,323.665 122.336,319.832 126.5,316.5C 125.65,318.494 125.15,320.494 125,322.5C 126.524,320.102 128.024,317.769 129.5,315.5C 128.324,322.496 128.324,329.496 129.5,336.5C 130.5,336.167 131.167,335.5 131.5,334.5C 132.83,327.847 132.83,321.014 131.5,314C 131.376,311.41 132.042,309.077 133.5,307C 132.809,305.933 132.309,304.766 132,303.5C 131.5,275.835 131.333,248.169 131.5,220.5C 161.468,221.477 191.468,221.81 221.5,221.5C 221.5,220.5 221.5,219.5 221.5,218.5C 191.497,217.272 161.497,217.272 131.5,218.5C 130.773,214.776 132.106,212.109 135.5,210.5C 136.747,208.677 137.414,206.677 137.5,204.5C 146.167,204.5 154.833,204.5 163.5,204.5C 222.198,203.92 280.865,204.92 339.5,207.5C 339.5,210.833 339.5,214.167 339.5,217.5C 328.191,216.878 316.858,216.545 305.5,216.5C 280.831,217.122 256.164,217.789 231.5,218.5C 231.756,216.208 231.423,214.041 230.5,212C 225.136,211.171 219.802,211.337 214.5,212.5C 219.12,213.493 223.786,213.827 228.5,213.5C 228.5,217.5 228.5,221.5 228.5,225.5C 224.167,225.5 219.833,225.5 215.5,225.5C 215.33,226.822 215.663,227.989 216.5,229C 221.478,228.949 226.478,228.782 231.5,228.5C 231.5,226.167 231.5,223.833 231.5,221.5C 267.666,220.603 303.666,220.603 339.5,221.5C 335.82,222.56 332.154,223.726 328.5,225C 311.065,233.055 293.731,241.055 276.5,249C 281.401,251.154 285.901,250.32 290,246.5C 290,248.5 290,250.5 290,252.5C 291.57,252.694 293.07,252.694 294.5,252.5C 300.924,265.683 307.09,279.016 313,292.5C 313.592,296.276 314.592,299.943 316,303.5C 318.803,307.141 320.97,311.141 322.5,315.5C 323.325,316.386 324.325,316.719 325.5,316.5C 325.662,314.473 325.495,312.473 325,310.5C 320.706,305.244 318.04,299.244 317,292.5C 310.233,277.8 303.066,263.3 295.5,249C 296.938,248.781 298.271,248.281 299.5,247.5C 298.176,246.065 296.51,245.065 294.5,244.5C 301.107,241.611 307.607,238.611 314,235.5C 314.494,237.134 314.66,238.801 314.5,240.5C 316.467,240.261 318.301,240.594 320,241.5C 322.412,246.659 325.079,251.659 328,256.5C 329.819,264.3 332.986,271.467 337.5,278C 338.448,278.483 339.448,278.649 340.5,278.5C 335.543,265.819 329.71,253.485 323,241.5C 322.405,240.101 322.572,238.768 323.5,237.5C 321.833,236.333 320.167,235.167 318.5,234C 324.759,229.204 331.759,226.037 339.5,224.5C 337.386,228.833 338.719,230.833 343.5,230.5C 340.369,241.586 344.369,248.252 355.5,250.5C 355.5,251.5 355.5,252.5 355.5,253.5C 357.514,253.608 359.18,252.942 360.5,251.5C 361.793,252.842 362.626,254.509 363,256.5C 364.769,273.656 367.436,290.656 371,307.5C 371.751,312.211 373.251,316.544 375.5,320.5C 375.205,322.735 375.539,324.735 376.5,326.5C 377.634,329.37 378.3,332.37 378.5,335.5C 377.223,336.694 376.556,338.36 376.5,340.5C 376.667,342.167 376.833,343.833 377,345.5C 378.395,346.815 379.395,346.481 380,344.5C 380.402,345.872 380.902,347.205 381.5,348.5C 381.062,349.506 380.396,349.506 379.5,348.5C 378.571,349.689 378.238,351.022 378.5,352.5C 378.44,353.043 378.107,353.376 377.5,353.5C 369.471,341.877 361.971,329.21 355,315.5C 353.959,313.415 352.459,311.748 350.5,310.5C 350.167,310.833 349.833,311.167 349.5,311.5C 357.056,324.614 364.056,337.947 370.5,351.5C 368.669,350.948 367.003,350.948 365.5,351.5C 367.283,353.232 369.283,354.732 371.5,356C 368.734,357.467 366.234,359.3 364,361.5C 363.383,362.449 363.549,363.282 364.5,364C 369.169,362.17 373.836,360.003 378.5,357.5C 378.343,358.873 378.51,360.207 379,361.5C 379.718,362.451 380.551,362.617 381.5,362C 382.867,359.699 383.534,357.199 383.5,354.5C 383.833,354.5 384.167,354.5 384.5,354.5C 390.036,368.266 398.036,380.266 408.5,390.5C 402.685,393.721 397.018,397.221 391.5,401C 388.673,402.664 385.673,403.83 382.5,404.5C 382.663,402.143 382.497,399.81 382,397.5C 381.586,397.043 381.086,396.709 380.5,396.5C 379.704,400.322 379.371,403.988 379.5,407.5C 378.027,408.74 376.36,409.74 374.5,410.5C 373.561,406.682 372.228,403.015 370.5,399.5C 369.522,399.977 368.689,400.643 368,401.5C 359.457,384.082 350.124,367.082 340,350.5C 338.829,348.384 337.329,347.718 335.5,348.5C 346.307,367.758 356.64,387.258 366.5,407C 365.328,407.353 364.162,407.187 363,406.5C 361.72,406.613 360.887,407.28 360.5,408.5C 362.677,410.758 365.343,412.258 368.5,413C 366.91,414.046 365.41,415.213 364,416.5C 363.219,417.944 363.386,419.277 364.5,420.5C 369.052,416.937 374.052,414.271 379.5,412.5C 379.335,415.85 379.502,419.183 380,422.5C 381.011,423.337 382.178,423.67 383.5,423.5C 382.836,418.527 382.503,413.527 382.5,408.5C 386.373,407.566 390.039,406.066 393.5,404C 399.391,400.224 405.391,396.724 411.5,393.5C 412.351,399.34 413.018,405.34 413.5,411.5C 415.446,411.193 417.113,411.193 418.5,411.5C 416.585,413.071 415.585,415.071 415.5,417.5C 417.144,417.714 418.644,417.38 420,416.5C 418.659,422.854 420.326,423.854 425,419.5C 425.495,421.473 425.662,423.473 425.5,425.5C 427.143,425.52 428.476,424.853 429.5,423.5C 431.67,425.086 434.004,426.42 436.5,427.5C 437.497,434.468 437.83,441.468 437.5,448.5C 435.716,450.948 434.382,453.615 433.5,456.5C 434.833,456.5 436.167,456.5 437.5,456.5C 438.284,485.275 437.284,513.942 434.5,542.5C 431.081,545.003 429.581,548.336 430,552.5C 432.677,554.514 435.344,556.514 438,558.5C 441.028,556.787 444.028,555.12 447,553.5C 456.333,554.167 465.667,554.833 475,555.5C 477.965,555.562 478.798,554.395 477.5,552C 467.833,551.667 458.167,551.333 448.5,551C 446.821,549.174 445.654,547.008 445,544.5C 443.89,542.963 442.39,542.297 440.5,542.5C 440.728,530.83 441.062,519.163 441.5,507.5C 452.248,512.794 462.914,512.461 473.5,506.5C 476.132,509.07 478.299,512.07 480,515.5C 484.295,520.895 489.795,522.729 496.5,521C 501.956,517.213 507.123,513.046 512,508.5C 516.402,500.827 515.236,494.327 508.5,489C 503.645,485.348 498.145,483.514 492,483.5C 486.658,485.755 481.491,488.422 476.5,491.5C 475.394,495.135 474.394,498.802 473.5,502.5C 463.793,508.221 453.793,508.888 443.5,504.5C 442.638,503.234 441.971,501.901 441.5,500.5C 441.5,493.833 441.5,487.167 441.5,480.5C 449.414,479.533 457.414,479.199 465.5,479.5C 465.609,489.234 468.275,489.568 473.5,480.5C 470.925,477.681 468.592,474.681 466.5,471.5C 465.571,472.689 465.238,474.022 465.5,475.5C 458.124,475.274 450.791,475.608 443.5,476.5C 443.17,469.468 443.503,462.468 444.5,455.5C 445.5,455.167 446.167,454.5 446.5,453.5C 444.093,452.095 442.426,450.095 441.5,447.5C 441.264,434.59 441.264,421.59 441.5,408.5C 446.536,408.588 451.536,409.088 456.5,410C 457.308,411.706 458.641,412.539 460.5,412.5C 460.5,411.5 460.5,410.5 460.5,409.5C 471.955,409.071 482.289,405.571 491.5,399C 498.694,389.412 501.86,378.579 501,366.5C 504.683,367.864 508.516,368.531 512.5,368.5C 512.5,367.5 512.5,366.5 512.5,365.5C 508.21,364.575 503.876,363.909 499.5,363.5C 495.936,345.873 488.269,330.373 476.5,317C 479.685,316.612 482.685,317.279 485.5,319C 490.5,319.667 495.5,319.667 500.5,319C 503.707,318.428 505.374,316.595 505.5,313.5C 501.33,315.11 496.997,316.11 492.5,316.5C 485.928,314.701 479.261,313.201 472.5,312C 467.343,306.591 461.343,302.424 454.5,299.5C 456.66,289.341 462.66,282.675 472.5,279.5C 473.638,284.938 476.972,288.438 482.5,290C 497.164,292.847 505.831,287.014 508.5,272.5C 508.838,263.026 504.505,257.193 495.5,255C 485.203,251.9 477.369,254.734 472,263.5C 470.874,267.749 470.208,272.082 470,276.5C 465.382,279.45 461.048,282.784 457,286.5C 454.425,289.726 452.925,293.393 452.5,297.5C 446.299,295.379 439.966,293.546 433.5,292C 428.226,288.726 424.392,284.226 422,278.5C 420.737,273.379 419.071,268.379 417,263.5C 416.501,259.514 416.334,255.514 416.5,251.5C 420.131,251.84 423.464,251.006 426.5,249C 435.341,241.163 445.008,234.496 455.5,229C 456.337,227.989 456.67,226.822 456.5,225.5C 451.968,226.763 447.635,228.597 443.5,231C 437.167,236 430.833,241 424.5,246C 422.091,247.707 419.425,248.54 416.5,248.5C 419.427,234.314 417.76,220.648 411.5,207.5C 418.833,207.5 426.167,207.5 433.5,207.5C 433.104,210.482 433.771,213.149 435.5,215.5C 439.743,212.35 441.743,208.35 441.5,203.5C 493.167,203.5 544.833,203.5 596.5,203.5C 596.5,331.5 596.5,459.5 596.5,587.5C 397.5,587.5 198.5,587.5 -0.5,587.5C -0.5,391.5 -0.5,195.5 -0.5,-0.5 Z"/></g>
<g><path style="opacity:1" fill="#2e8746" d="M 134.5,19.5 C 137.272,19.5952 139.272,20.9285 140.5,23.5C 139.224,24.6446 137.891,24.6446 136.5,23.5C 135.126,24.7113 133.626,25.7113 132,26.5C 131.5,26.1667 131,25.8333 130.5,25.5C 131.844,23.4714 133.177,21.4714 134.5,19.5 Z"/></g>
<g><path style="opacity:1" fill="#368b4b" d="M 135.5,28.5 C 139.431,30.0097 141.097,33.0097 140.5,37.5C 139.5,37.5 138.5,37.5 137.5,37.5C 136.516,32.4395 135.182,32.6061 133.5,38C 132.551,38.6172 131.718,38.4506 131,37.5C 130.182,34.7728 130.348,32.1062 131.5,29.5C 133.297,30.9321 134.63,30.5988 135.5,28.5 Z"/></g>
<g><path style="opacity:1" fill="#368b4c" d="M 144.5,32.5 C 145.5,32.5 146.5,32.5 147.5,32.5C 148.756,36.087 149.256,39.7537 149,43.5C 145.382,46.4644 142.549,45.7977 140.5,41.5C 142.045,40.5481 143.712,40.2148 145.5,40.5C 145.5,39.5 145.5,38.5 145.5,37.5C 141.777,37.6423 140.944,36.309 143,33.5C 144.107,34.7119 144.607,34.3786 144.5,32.5 Z"/></g>
<g><path style="opacity:1" fill="#2d8644" d="M 128.5,47.5 C 128.5,57.1667 128.5,66.8333 128.5,76.5C 134.833,76.5 141.167,76.5 147.5,76.5C 151.182,76.6653 154.848,76.4986 158.5,76C 157.663,74.9887 157.33,73.8221 157.5,72.5C 161.982,72.7308 164.982,74.8974 166.5,79C 164.893,81.2682 162.726,82.7682 160,83.5C 158.14,81.6259 155.806,80.6259 153,80.5C 144.18,79.8036 135.347,79.3036 126.5,79C 125.678,67.9095 125.178,56.7429 125,45.5C 123.989,46.3366 122.822,46.67 121.5,46.5C 123.122,39.9271 126.455,38.9271 131.5,43.5C 130.174,44.6422 129.174,45.9755 128.5,47.5 Z"/></g>
<g><path style="opacity:1" fill="#288441" d="M 127.5,97.5 C 128.625,98.6522 128.625,99.6522 127.5,100.5C 117.917,91.0889 108.084,81.7555 98,72.5C 94.0278,74.9037 89.6944,75.9037 85,75.5C 79.0966,76.713 74.7633,74.713 72,69.5C 69.7375,62.9952 70.0708,56.6618 73,50.5C 75.6897,48.644 77.8563,46.3106 79.5,43.5C 82.8734,42.2255 86.2068,42.3921 89.5,44C 98.6214,50.6975 101.788,59.5308 99,70.5C 108.672,79.3388 118.172,88.3388 127.5,97.5 Z"/></g>
<g><path style="opacity:1" fill="#f4f8f5" d="M 90.5,51.5 C 92.7525,51.9156 94.2525,53.249 95,55.5C 95.6667,60.1667 95.6667,64.8333 95,69.5C 94.5,70 94,70.5 93.5,71C 88.1131,71.7845 82.7798,71.6178 77.5,70.5C 72.9049,64.498 72.4049,58.1646 76,51.5C 78.6243,49.4393 81.4576,47.7727 84.5,46.5C 87.1018,47.4344 89.1018,49.1011 90.5,51.5 Z"/></g>
<g><path style="opacity:1" fill="#2e8746" d="M 90.5,51.5 C 91.7633,57.1453 91.5967,62.812 90,68.5C 89.2825,69.4506 88.4491,69.6172 87.5,69C 86.1196,67.0748 84.6196,65.2415 83,63.5C 82.5045,65.4727 82.3379,67.4727 82.5,69.5C 81.1667,69.5 79.8333,69.5 78.5,69.5C 78.1718,64.1254 78.5052,58.7921 79.5,53.5C 82.7181,56.258 85.2181,59.5914 87,63.5C 87.3333,59.8333 87.6667,56.1667 88,52.5C 88.6708,51.7476 89.5041,51.4142 90.5,51.5 Z"/></g>
<g><path style="opacity:1" fill="#2f8746" d="M 172.5,59.5 C 176.349,59.0193 178.349,60.686 178.5,64.5C 177.178,64.67 176.011,64.3366 175,63.5C 173.814,65.6766 171.981,66.6766 169.5,66.5C 170.011,63.9785 171.011,61.6451 172.5,59.5 Z"/></g>
<g><path style="opacity:1" fill="#358a4b" d="M 174.5,66.5 C 177.298,67.7063 179.465,69.7063 181,72.5C 182.872,70.6186 185.039,70.6186 187.5,72.5C 187.331,74.1173 186.997,75.784 186.5,77.5C 185.914,77.2907 185.414,76.9574 185,76.5C 184.163,78.0074 182.996,78.5074 181.5,78C 178.619,76.7494 176.786,74.5827 176,71.5C 175.138,73.087 174.471,74.7536 174,76.5C 171.106,77.6148 169.939,76.4481 170.5,73C 170.97,70.2767 172.304,68.11 174.5,66.5 Z"/></g>
<g><path style="opacity:1" fill="#96c4a3" d="M 128.5,47.5 C 129.494,56.6517 129.827,65.985 129.5,75.5C 135.69,75.1771 141.69,75.5104 147.5,76.5C 141.167,76.5 134.833,76.5 128.5,76.5C 128.5,66.8333 128.5,57.1667 128.5,47.5 Z"/></g>
<g><path style="opacity:1" fill="#3869bc" d="M 368.5,81.5 C 370.117,82.5893 370.95,84.256 371,86.5C 371.808,88.5787 371.641,90.5787 370.5,92.5C 365.658,94.3421 361.325,97.0088 357.5,100.5C 356.257,96.8528 357.59,94.3528 361.5,93C 326.829,92.8332 292.162,92.3332 257.5,91.5C 259.078,90.7022 260.744,90.2022 262.5,90C 295.5,89.6667 328.5,89.3333 361.5,89C 359.393,87.7365 358.393,85.9032 358.5,83.5C 359.873,83.3433 361.207,83.51 362.5,84C 367.269,90.585 369.269,89.7516 368.5,81.5 Z"/></g>
<g><path style="opacity:1" fill="#426fbf" d="M 238.5,83.5 C 240.451,83.2267 241.951,83.8934 243,85.5C 243.465,89.8477 243.965,94.181 244.5,98.5C 245.5,98.5 246.5,98.5 247.5,98.5C 246.444,102.685 244.277,103.352 241,100.5C 240.503,97.854 240.336,95.1873 240.5,92.5C 239.178,92.67 238.011,92.3366 237,91.5C 236.109,88.5024 236.609,85.8357 238.5,83.5 Z"/></g>
<g><path style="opacity:1" fill="#4a73bf" d="M 128.5,93.5 C 128.167,93.5 127.833,93.5 127.5,93.5C 127.389,92.8826 127.056,92.3826 126.5,92C 127.264,89.9307 127.764,87.764 128,85.5C 128.333,87.1667 128.667,88.8333 129,90.5C 130.51,88.7923 132.01,87.1256 133.5,85.5C 135.481,86.1054 135.815,87.1054 134.5,88.5C 135.5,88.8333 136.5,89.1667 137.5,89.5C 167.822,88.6506 198.156,88.8173 228.5,90C 228.957,90.414 229.291,90.914 229.5,91.5C 199.839,92.0974 170.172,92.2641 140.5,92C 132.865,91.885 132.198,93.0517 138.5,95.5C 139.833,96.5 139.833,97.5 138.5,98.5C 135.114,96.8068 131.78,95.1401 128.5,93.5 Z"/></g>
<g><path style="opacity:1" fill="#3e6cbe" d="M 250.5,93.5 C 251.5,93.5 252.5,93.5 253.5,93.5C 253.5,96.5 253.5,99.5 253.5,102.5C 252.5,102.5 251.5,102.5 250.5,102.5C 250.5,99.5 250.5,96.5 250.5,93.5 Z"/></g>
<g><path style="opacity:1" fill="#567cc5" d="M 368.5,97.5 C 369.5,97.5 370.5,97.5 371.5,97.5C 371.5,100.833 371.5,104.167 371.5,107.5C 370.5,107.5 369.5,107.5 368.5,107.5C 368.5,104.167 368.5,100.833 368.5,97.5 Z"/></g>
<g><path style="opacity:1" fill="#575757" d="M 127.5,93.5 C 127.833,93.5 128.167,93.5 128.5,93.5C 129.092,96.1272 129.425,98.7938 129.5,101.5C 128.527,103.948 128.194,106.615 128.5,109.5C 126.5,111.167 124.5,112.833 122.5,114.5C 123.373,112.114 124.873,110.114 127,108.5C 127.497,105.854 127.664,103.187 127.5,100.5C 128.625,99.6522 128.625,98.6522 127.5,97.5C 127.5,96.1667 127.5,94.8333 127.5,93.5 Z"/></g>
<g><path style="opacity:1" fill="#0a0a0a" d="M 129.5,101.5 C 129.666,110.339 129.666,119.339 129.5,128.5C 129.5,129.167 129.167,129.5 128.5,129.5C 128.5,122.833 128.5,116.167 128.5,109.5C 128.194,106.615 128.527,103.948 129.5,101.5 Z"/></g>
<g><path style="opacity:1" fill="#121212" d="M 439.5,112.5 C 444.555,113.023 448.222,115.523 450.5,120C 449.557,124.446 446.89,126.946 442.5,127.5C 442.664,130.187 442.497,132.854 442,135.5C 440.989,136.337 439.822,136.67 438.5,136.5C 438.554,130.813 438.221,125.146 437.5,119.5C 437.319,116.837 437.985,114.503 439.5,112.5 Z"/></g>
<g><path style="opacity:1" fill="#3869bc" d="M 370.5,114.5 C 371.117,114.611 371.617,114.944 372,115.5C 372.818,118.227 372.652,120.894 371.5,123.5C 370.516,120.572 370.183,117.572 370.5,114.5 Z"/></g>
<g><path style="opacity:1" fill="#e3e3e3" d="M 439.5,116.5 C 441.493,115.463 443.493,115.797 445.5,117.5C 447.574,121.839 446.241,123.839 441.5,123.5C 441.662,121.473 441.495,119.473 441,117.5C 440.617,116.944 440.117,116.611 439.5,116.5 Z"/></g>
<g><path style="opacity:1" fill="#444444" d="M 122.5,114.5 C 121.287,117.225 119.454,119.559 117,121.5C 117.772,118.536 119.605,116.202 122.5,114.5 Z"/></g>
<g><path style="opacity:1" fill="#338a4a" d="M 312.5,118.5 C 315.121,119.121 316.788,120.788 317.5,123.5C 316.224,124.645 314.891,124.645 313.5,123.5C 312.377,125.289 311.044,125.622 309.5,124.5C 310.513,122.473 311.513,120.473 312.5,118.5 Z"/></g>
<g><path style="opacity:1" fill="#141414" d="M 458.5,118.5 C 461.149,120.412 462.482,123.079 462.5,126.5C 466.314,126.651 467.981,128.651 467.5,132.5C 464.635,132.945 462.135,132.278 460,130.5C 459.499,126.49 458.999,122.49 458.5,118.5 Z"/></g>
<g><path style="opacity:1" fill="#388c4d" d="M 311.5,126.5 C 313.891,129.163 316.724,131.497 320,133.5C 320.216,135.384 320.883,137.051 322,138.5C 323.797,135.904 325.131,136.237 326,139.5C 328.924,146.907 326.59,149.573 319,147.5C 318.833,147.167 318.667,146.833 318.5,146.5C 322.801,146.619 324.801,144.619 324.5,140.5C 321.569,139.994 318.735,139.994 316,140.5C 314.527,140.097 313.194,139.43 312,138.5C 311.501,134.514 311.334,130.514 311.5,126.5 Z"/></g>
<g><path style="opacity:1" fill="#191919" d="M 450.5,127.5 C 458.336,130.256 458.336,132.422 450.5,134C 449.395,131.88 449.395,129.713 450.5,127.5 Z"/></g>
<g><path style="opacity:1" fill="#2b8042" d="M 351.5,161.5 C 350.356,159.9 349.189,158.233 348,156.5C 347.805,157.819 347.972,159.153 348.5,160.5C 347.115,159.426 345.949,158.093 345,156.5C 342.519,150.713 339.853,145.047 337,139.5C 334.606,138.864 332.106,138.864 329.5,139.5C 329.715,135.734 331.049,132.4 333.5,129.5C 336.391,130.006 339.058,131.006 341.5,132.5C 340.5,133.833 339.5,135.167 338.5,136.5C 343.413,144.604 347.746,152.937 351.5,161.5 Z"/></g>
<g><path style="opacity:1" fill="#3e6cbe" d="M 371.5,129.5 C 372.748,130.334 373.415,131.667 373.5,133.5C 373.564,135.389 373.064,137.056 372,138.5C 371.502,135.518 371.335,132.518 371.5,129.5 Z"/></g>
<g><path style="opacity:1" fill="#edf5ef" d="M 315.5,133.5 C 317.465,133.948 317.798,134.948 316.5,136.5C 315.614,135.675 315.281,134.675 315.5,133.5 Z"/></g>
<g><path style="opacity:1" fill="#9a9a9a" d="M 121.5,132.5 C 122.043,132.56 122.376,132.893 122.5,133.5C 119.23,135.267 116.397,137.6 114,140.5C 113.333,139.833 113.333,139.167 114,138.5C 116.114,135.879 118.614,133.879 121.5,132.5 Z"/></g>
<g><path style="opacity:1" fill="#288441" d="M 352.5,164.5 C 351.89,163.609 351.557,162.609 351.5,161.5C 358.311,156.561 365.645,152.561 373.5,149.5C 375.941,148.443 378.275,147.11 380.5,145.5C 379.754,144.264 379.421,142.93 379.5,141.5C 382.23,141.473 384.73,142.14 387,143.5C 388.865,143.294 390.532,142.628 392,141.5C 393.626,142.289 395.126,143.289 396.5,144.5C 397.711,145.274 397.711,146.107 396.5,147C 394.874,146.805 393.207,146.805 391.5,147C 392.406,148.699 392.739,150.533 392.5,152.5C 395.812,153.484 399.145,154.484 402.5,155.5C 403.167,155.167 403.833,154.833 404.5,154.5C 405.474,156.743 405.808,159.076 405.5,161.5C 403.5,161.5 401.5,161.5 399.5,161.5C 399.633,156.728 398.3,156.562 395.5,161C 393.888,161.72 392.388,161.554 391,160.5C 389.796,156.284 389.13,151.951 389,147.5C 388.288,149.847 387.121,151.847 385.5,153.5C 384.167,152.167 382.833,150.833 381.5,149.5C 371.849,154.704 362.182,159.704 352.5,164.5 Z"/></g>
<g><path style="opacity:1" fill="#141414" d="M 465.5,141.5 C 467.722,141.178 469.556,141.845 471,143.5C 473.298,147.218 473.965,151.218 473,155.5C 472.107,156.711 471.274,156.711 470.5,155.5C 470.108,151.538 468.942,147.872 467,144.5C 466.503,147.146 466.336,149.813 466.5,152.5C 465.325,152.719 464.325,152.386 463.5,151.5C 462.38,144.156 460.547,143.823 458,150.5C 457.505,152.473 457.338,154.473 457.5,156.5C 456.5,156.5 455.5,156.5 454.5,156.5C 454.174,152.116 454.508,147.783 455.5,143.5C 458.051,143.063 460.718,143.063 463.5,143.5C 464.522,143.145 465.189,142.478 465.5,141.5 Z"/></g>
<g><path style="opacity:1" fill="#3b6abd" d="M 373.5,149.5 C 371.974,148.508 371.307,147.008 371.5,145C 371.833,143.833 372.167,142.667 372.5,141.5C 373.48,144.086 373.813,146.753 373.5,149.5 Z"/></g>
<g><path style="opacity:1" fill="#959595" d="M 129.5,128.5 C 130.434,129.568 130.768,130.901 130.5,132.5C 129.515,136.634 129.182,140.968 129.5,145.5C 128.512,140.36 128.179,135.026 128.5,129.5C 129.167,129.5 129.5,129.167 129.5,128.5 Z"/></g>
<g><path style="opacity:1" fill="#535353" d="M 130.5,132.5 C 131.099,140.486 131.432,148.486 131.5,156.5C 130.833,167.167 130.167,177.833 129.5,188.5C 129.5,174.167 129.5,159.833 129.5,145.5C 129.182,140.968 129.515,136.634 130.5,132.5 Z"/></g>
<g><path style="opacity:1" fill="#1c1c1c" d="M 479.5,147.5 C 482.25,150.089 484.917,152.923 487.5,156C 485.76,157.827 484.093,157.66 482.5,155.5C 480.561,157.618 478.394,157.951 476,156.5C 475.502,152.832 476.669,149.832 479.5,147.5 Z"/></g>
<g><path style="opacity:1" fill="#1b1b1b" d="M 434.5,201.5 C 434.586,202.496 434.252,203.329 433.5,204C 416.17,204.5 398.837,204.667 381.5,204.5C 400.881,205.343 401.381,202.343 383,195.5C 380.073,197.045 377.24,198.712 374.5,200.5C 374.5,199.833 374.5,199.167 374.5,198.5C 378.812,196.147 378.478,195.147 373.5,195.5C 373.557,194.391 373.89,193.391 374.5,192.5C 377.187,192.664 379.854,192.497 382.5,192C 384.363,189.636 386.029,187.136 387.5,184.5C 372.503,183.667 357.503,183 342.5,182.5C 342.5,190.167 342.5,197.833 342.5,205.5C 345.85,205.665 349.183,205.498 352.5,205C 355.913,199.917 360.247,195.917 365.5,193C 367.134,192.506 368.801,192.34 370.5,192.5C 371.401,193.29 372.068,194.29 372.5,195.5C 365.797,195.829 360.464,198.829 356.5,204.5C 359.784,205.657 363.118,205.824 366.5,205C 367.418,202.867 367.584,200.7 367,198.5C 367.759,200.063 368.926,201.063 370.5,201.5C 371.833,201.5 373.167,201.5 374.5,201.5C 375.694,202.272 376.694,203.272 377.5,204.5C 370.931,206.363 371.264,207.363 378.5,207.5C 378.69,209.959 377.69,211.626 375.5,212.5C 374.078,213.925 372.411,214.925 370.5,215.5C 364.809,215.446 363.142,212.779 365.5,207.5C 356.508,204.262 351.842,207.262 351.5,216.5C 350.596,217.209 350.263,218.209 350.5,219.5C 349.532,221.607 349.198,223.941 349.5,226.5C 358.482,225.782 367.482,225.448 376.5,225.5C 376.5,226.833 376.5,228.167 376.5,229.5C 367.833,229.5 359.167,229.5 350.5,229.5C 350.838,231.854 351.338,234.187 352,236.5C 354.04,238.37 355.873,240.37 357.5,242.5C 356.833,243.5 356.167,244.5 355.5,245.5C 353.567,243.063 351.4,240.729 349,238.5C 348.302,235.996 347.469,233.663 346.5,231.5C 345.947,229.448 344.947,229.115 343.5,230.5C 338.719,230.833 337.386,228.833 339.5,224.5C 339.5,223.5 339.5,222.5 339.5,221.5C 303.666,220.603 267.666,220.603 231.5,221.5C 231.5,223.833 231.5,226.167 231.5,228.5C 226.478,228.782 221.478,228.949 216.5,229C 215.663,227.989 215.33,226.822 215.5,225.5C 219.833,225.5 224.167,225.5 228.5,225.5C 228.5,221.5 228.5,217.5 228.5,213.5C 223.786,213.827 219.12,213.493 214.5,212.5C 219.802,211.337 225.136,211.171 230.5,212C 231.423,214.041 231.756,216.208 231.5,218.5C 256.164,217.789 280.831,217.122 305.5,216.5C 316.858,216.545 328.191,216.878 339.5,217.5C 339.5,214.167 339.5,210.833 339.5,207.5C 280.865,204.92 222.198,203.92 163.5,204.5C 171.833,203.833 180.167,203.167 188.5,202.5C 216.169,202.333 243.835,202.5 271.5,203C 294.145,204.437 316.812,205.271 339.5,205.5C 340.486,201.03 340.819,196.363 340.5,191.5C 337.615,191.194 334.948,191.527 332.5,192.5C 311.497,192.333 290.497,192.5 269.5,193C 260.143,194.563 250.809,194.563 241.5,193C 240.845,191.513 239.845,190.347 238.5,189.5C 236.646,193.221 234.313,196.554 231.5,199.5C 229.717,196.327 228.217,192.994 227,189.5C 225.014,193.165 222.347,196.165 219,198.5C 217.739,198.241 216.739,197.574 216,196.5C 215.562,193.624 214.562,190.957 213,188.5C 211.419,191.751 210.086,195.085 209,198.5C 207.784,196.038 207.118,193.371 207,190.5C 181.906,191.095 156.739,191.095 131.5,190.5C 131.335,194.182 131.501,197.848 132,201.5C 133.011,202.337 134.178,202.67 135.5,202.5C 136.167,203.167 136.833,203.833 137.5,204.5C 137.414,206.677 136.747,208.677 135.5,210.5C 132.106,212.109 130.773,214.776 131.5,218.5C 161.497,217.272 191.497,217.272 221.5,218.5C 221.5,219.5 221.5,220.5 221.5,221.5C 191.468,221.81 161.468,221.477 131.5,220.5C 131.333,248.169 131.5,275.835 132,303.5C 132.309,304.766 132.809,305.933 133.5,307C 132.042,309.077 131.376,311.41 131.5,314C 132.83,321.014 132.83,327.847 131.5,334.5C 131.167,335.5 130.5,336.167 129.5,336.5C 128.324,329.496 128.324,322.496 129.5,315.5C 128.807,312.033 127.807,312.366 126.5,316.5C 122.336,319.832 118.669,323.665 115.5,328C 114.668,328.688 114.002,328.521 113.5,327.5C 118.538,321.302 123.705,315.302 129,309.5C 129.667,300.833 129.667,292.167 129,283.5C 128.768,284.737 128.268,285.737 127.5,286.5C 129.427,277.632 129.927,268.632 129,259.5C 127.884,262.756 126.051,265.422 123.5,267.5C 125.307,263.886 127.14,260.22 129,256.5C 129.5,249.174 129.666,241.841 129.5,234.5C 130.654,228.013 130.821,221.346 130,214.5C 129.617,215.056 129.117,215.389 128.5,215.5C 127.64,211.566 127.307,207.566 127.5,203.5C 128.5,203.167 129.167,202.5 129.5,201.5C 129.5,197.167 129.5,192.833 129.5,188.5C 130.167,177.833 130.833,167.167 131.5,156.5C 131.5,159.5 131.5,162.5 131.5,165.5C 131.5,172.833 131.5,180.167 131.5,187.5C 141.833,187.5 152.167,187.5 162.5,187.5C 176.504,187.667 190.504,187.5 204.5,187C 203.304,186.346 203.304,185.846 204.5,185.5C 209.249,190.313 211.249,189.313 210.5,182.5C 211.822,182.33 212.989,182.663 214,183.5C 215.564,187.628 217.398,191.628 219.5,195.5C 221.808,191.205 224.474,187.205 227.5,183.5C 229.299,187.345 230.799,191.345 232,195.5C 234.113,191.609 235.946,187.609 237.5,183.5C 239.727,185.607 241.727,187.94 243.5,190.5C 247.5,190.833 251.5,191.167 255.5,191.5C 270.331,190.781 285.164,190.114 300,189.5C 313.493,190.166 326.993,190.5 340.5,190.5C 340.211,186.894 340.544,183.394 341.5,180C 357.81,180.554 374.144,180.554 390.5,180C 395.96,172.206 402.46,165.373 410,159.5C 412.808,153.412 415.808,147.412 419,141.5C 421.382,138.781 424.049,136.447 427,134.5C 427.5,134.833 428,135.167 428.5,135.5C 426.623,139.88 423.79,143.547 420,146.5C 417.729,154.206 413.563,160.706 407.5,166C 401.833,169 397.5,173.333 394.5,179C 398.833,179.667 403.167,179.667 407.5,179C 408.856,176.602 410.023,174.102 411,171.5C 415.072,167.55 419.238,163.717 423.5,160C 430.772,156.018 438.438,154.185 446.5,154.5C 440.215,156.821 433.881,158.988 427.5,161C 423.667,164.167 419.833,167.333 416,170.5C 412.7,175.774 410.2,181.274 408.5,187C 409.104,192.183 409.77,197.349 410.5,202.5C 418.521,202.558 426.521,202.224 434.5,201.5 Z"/></g>
<g><path style="opacity:1" fill="#8f8f8f" d="M 125.5,150.5 C 126.043,150.56 126.376,150.893 126.5,151.5C 125.667,153.167 124.833,154.833 124,156.5C 123.282,157.451 122.449,157.617 121.5,157C 123.221,155.056 124.554,152.89 125.5,150.5 Z"/></g>
<g><path style="opacity:1" fill="#cee3d4" d="M 392.5,155.5 C 394.337,155.639 394.67,156.306 393.5,157.5C 392.702,157.043 392.369,156.376 392.5,155.5 Z"/></g>
<g><path style="opacity:1" fill="#3165bb" d="M 371.5,156.5 C 372.725,157.152 373.392,158.319 373.5,160C 373.167,161.167 372.833,162.333 372.5,163.5C 371.526,161.257 371.192,158.924 371.5,156.5 Z"/></g>
<g><path style="opacity:1" fill="#131313" d="M 219.5,157.5 C 220.496,157.414 221.329,157.748 222,158.5C 222.511,160.878 223.178,163.212 224,165.5C 225.011,164.663 226.178,164.33 227.5,164.5C 227.617,166.484 226.95,168.15 225.5,169.5C 228.054,170.899 229.72,172.899 230.5,175.5C 228.516,175.617 226.85,174.95 225.5,173.5C 224.251,175.475 222.751,175.809 221,174.5C 220.243,168.851 219.743,163.184 219.5,157.5 Z"/></g>
<g><path style="opacity:1" fill="#4c75c2" d="M 371.5,167.5 C 372.117,167.611 372.617,167.944 373,168.5C 373.821,171.554 373.655,174.554 372.5,177.5C 370.976,176.473 370.309,174.973 370.5,173C 370.696,171.122 371.029,169.288 371.5,167.5 Z"/></g>
<g><path style="opacity:1" fill="#acacac" d="M 131.5,165.5 C 132.491,172.313 132.825,179.313 132.5,186.5C 142.681,186.173 152.681,186.506 162.5,187.5C 152.167,187.5 141.833,187.5 131.5,187.5C 131.5,180.167 131.5,172.833 131.5,165.5 Z"/></g>
<g><path style="opacity:1" fill="#232724" d="M 351.5,161.5 C 351.557,162.609 351.89,163.609 352.5,164.5C 354.525,169.385 357.192,173.885 360.5,178C 359.365,178.749 358.365,178.583 357.5,177.5C 354.742,171.648 351.742,165.981 348.5,160.5C 347.972,159.153 347.805,157.819 348,156.5C 349.189,158.233 350.356,159.9 351.5,161.5 Z"/></g>
<g><path style="opacity:1" fill="#ff891d" d="M 451.5,186.5 C 449.833,186.5 448.167,186.5 446.5,186.5C 446.5,188.833 446.5,191.167 446.5,193.5C 445.458,194.791 444.292,194.791 443,193.5C 442.333,188.5 442.333,183.5 443,178.5C 446.775,177.006 450.608,176.673 454.5,177.5C 452.464,179.984 449.798,180.984 446.5,180.5C 446.5,181.5 446.5,182.5 446.5,183.5C 448.833,183.5 451.167,183.5 453.5,183.5C 453.715,185.179 453.048,186.179 451.5,186.5 Z"/></g>
<g><path style="opacity:1" fill="#f7f7f8" d="M 391.5,182.5 C 396.167,182.5 400.833,182.5 405.5,182.5C 405.287,189.211 405.62,195.877 406.5,202.5C 401.465,202.879 397.465,201.046 394.5,197C 390.973,196.049 387.64,194.716 384.5,193C 387.216,189.729 389.549,186.229 391.5,182.5 Z"/></g>
<g><path style="opacity:1" fill="#f5f6f6" d="M 374.5,192.5 C 374.663,190.143 374.497,187.81 374,185.5C 373.586,185.043 373.086,184.709 372.5,184.5C 370.771,186.851 370.104,189.518 370.5,192.5C 368.801,192.34 367.134,192.506 365.5,193C 360.247,195.917 355.913,199.917 352.5,205C 349.183,205.498 345.85,205.665 342.5,205.5C 342.5,197.833 342.5,190.167 342.5,182.5C 357.503,183 372.503,183.667 387.5,184.5C 386.029,187.136 384.363,189.636 382.5,192C 379.854,192.497 377.187,192.664 374.5,192.5 Z"/></g>
<g><path style="opacity:1" fill="#5479c3" d="M 374.5,192.5 C 373.89,193.391 373.557,194.391 373.5,195.5C 373.167,196.833 372.833,196.833 372.5,195.5C 372.068,194.29 371.401,193.29 370.5,192.5C 370.104,189.518 370.771,186.851 372.5,184.5C 373.086,184.709 373.586,185.043 374,185.5C 374.497,187.81 374.663,190.143 374.5,192.5 Z"/></g>
<g><path style="opacity:1" fill="#585858" d="M 124.5,185.5 C 125.713,186.497 125.546,187.497 124,188.5C 123.53,187.423 123.697,186.423 124.5,185.5 Z"/></g>
<g><path style="opacity:1" fill="#5279c4" d="M 400.5,186.5 C 404.31,187.754 404.31,188.754 400.5,189.5C 400.5,188.5 400.5,187.5 400.5,186.5 Z"/></g>
<g><path style="opacity:1" fill="#ffc182" d="M 451.5,186.5 C 450.432,187.434 449.099,187.768 447.5,187.5C 447.795,189.735 447.461,191.735 446.5,193.5C 446.5,191.167 446.5,188.833 446.5,186.5C 448.167,186.5 449.833,186.5 451.5,186.5 Z"/></g>
<g><path style="opacity:1" fill="#fafafa" d="M 332.5,192.5 C 334.833,192.5 337.167,192.5 339.5,192.5C 339.5,196.833 339.5,201.167 339.5,205.5C 316.812,205.271 294.145,204.437 271.5,203C 243.835,202.5 216.169,202.333 188.5,202.5C 170.833,202.5 153.167,202.5 135.5,202.5C 134.178,202.67 133.011,202.337 132,201.5C 131.501,197.848 131.335,194.182 131.5,190.5C 156.739,191.095 181.906,191.095 207,190.5C 207.118,193.371 207.784,196.038 209,198.5C 210.086,195.085 211.419,191.751 213,188.5C 214.562,190.957 215.562,193.624 216,196.5C 216.739,197.574 217.739,198.241 219,198.5C 222.347,196.165 225.014,193.165 227,189.5C 228.217,192.994 229.717,196.327 231.5,199.5C 234.313,196.554 236.646,193.221 238.5,189.5C 239.845,190.347 240.845,191.513 241.5,193C 250.809,194.563 260.143,194.563 269.5,193C 290.497,192.5 311.497,192.333 332.5,192.5 Z"/></g>
<g><path style="opacity:1" fill="#292929" d="M 99.5,189.5 C 100.5,189.5 101.5,189.5 102.5,189.5C 103.139,191.76 104.306,193.76 106,195.5C 107.193,200.152 106.36,204.319 103.5,208C 97.1106,210.635 93.7772,208.469 93.5,201.5C 93.4219,196.368 95.4219,192.368 99.5,189.5 Z"/></g>
<g><path style="opacity:1" fill="#535353" d="M 121.5,190.5 C 122.334,192.263 121.834,193.93 120,195.5C 119.878,193.718 120.378,192.052 121.5,190.5 Z"/></g>
<g><path style="opacity:1" fill="#f4f4f4" d="M 97.5,193.5 C 100.547,192.855 102.713,193.855 104,196.5C 104.667,199.167 104.667,201.833 104,204.5C 99.1721,209 96.0054,208 94.5,201.5C 94.9475,198.609 95.9475,195.942 97.5,193.5 Z"/></g>
<g><path style="opacity:1" fill="#e4e5e9" d="M 372.5,195.5 C 372.833,196.833 373.167,196.833 373.5,195.5C 378.478,195.147 378.812,196.147 374.5,198.5C 373.663,198.389 372.663,198.056 371.5,197.5C 370.571,198.689 370.238,200.022 370.5,201.5C 368.926,201.063 367.759,200.063 367,198.5C 367.584,200.7 367.418,202.867 366.5,205C 363.118,205.824 359.784,205.657 356.5,204.5C 360.464,198.829 365.797,195.829 372.5,195.5 Z"/></g>
<g><path style="opacity:1" fill="#646464" d="M 332.5,192.5 C 334.948,191.527 337.615,191.194 340.5,191.5C 340.819,196.363 340.486,201.03 339.5,205.5C 339.5,201.167 339.5,196.833 339.5,192.5C 337.167,192.5 334.833,192.5 332.5,192.5 Z"/></g>
<g><path style="opacity:1" fill="#f0f0f0" d="M 381.5,204.5 C 380.167,204.5 378.833,204.5 377.5,204.5C 376.694,203.272 375.694,202.272 374.5,201.5C 374.5,201.167 374.5,200.833 374.5,200.5C 377.24,198.712 380.073,197.045 383,195.5C 401.381,202.343 400.881,205.343 381.5,204.5 Z"/></g>
<g><path style="opacity:1" fill="#fc7629" d="M 440.5,201.5 C 440.328,202.492 440.662,203.158 441.5,203.5C 441.743,208.35 439.743,212.35 435.5,215.5C 433.771,213.149 433.104,210.482 433.5,207.5C 426.167,207.5 418.833,207.5 411.5,207.5C 409.833,207.5 408.167,207.5 406.5,207.5C 397.167,207.5 387.833,207.5 378.5,207.5C 371.264,207.363 370.931,206.363 377.5,204.5C 378.833,204.5 380.167,204.5 381.5,204.5C 398.837,204.667 416.17,204.5 433.5,204C 434.252,203.329 434.586,202.496 434.5,201.5C 433.948,199.669 433.948,198.003 434.5,196.5C 436.519,198.19 438.519,199.856 440.5,201.5 Z"/></g>
<g><path style="opacity:1" fill="#4069b3" d="M 374.5,198.5 C 374.5,199.167 374.5,199.833 374.5,200.5C 374.5,200.833 374.5,201.167 374.5,201.5C 373.167,201.5 371.833,201.5 370.5,201.5C 370.238,200.022 370.571,198.689 371.5,197.5C 372.663,198.056 373.663,198.389 374.5,198.5 Z"/></g>
<g><path style="opacity:1" fill="#252525" d="M 440.5,201.5 C 492.5,201.5 544.5,201.5 596.5,201.5C 596.5,202.167 596.5,202.833 596.5,203.5C 544.833,203.5 493.167,203.5 441.5,203.5C 440.662,203.158 440.328,202.492 440.5,201.5 Z"/></g>
<g><path style="opacity:1" fill="#575757" d="M 129.5,201.5 C 129.167,202.5 128.5,203.167 127.5,203.5C 124.302,207.151 121.469,210.484 119,213.5C 119.724,207.756 122.724,203.423 128,200.5C 128.383,201.056 128.883,201.389 129.5,201.5 Z"/></g>
<g><path style="opacity:1" fill="#444444" d="M 135.5,202.5 C 153.167,202.5 170.833,202.5 188.5,202.5C 180.167,203.167 171.833,203.833 163.5,204.5C 154.833,204.5 146.167,204.5 137.5,204.5C 136.833,203.833 136.167,203.167 135.5,202.5 Z"/></g>
<g><path style="opacity:1" fill="#edecec" d="M 347.5,217.5 C 345.716,217.893 344.05,218.559 342.5,219.5C 342.5,215.5 342.5,211.5 342.5,207.5C 345.187,207.336 347.854,207.503 350.5,208C 348.937,210.974 347.937,214.141 347.5,217.5 Z"/></g>
<g><path style="opacity:1" fill="#f6f5f5" d="M 370.5,215.5 C 370.336,218.187 370.503,220.854 371,223.5C 372.579,224.8 373.745,224.466 374.5,222.5C 375.906,222.973 376.573,223.973 376.5,225.5C 367.482,225.448 358.482,225.782 349.5,226.5C 349.198,223.941 349.532,221.607 350.5,219.5C 354.901,218.8 358.568,216.8 361.5,213.5C 361.167,213.167 360.833,212.833 360.5,212.5C 357.817,214.585 354.817,215.918 351.5,216.5C 351.842,207.262 356.508,204.262 365.5,207.5C 363.142,212.779 364.809,215.446 370.5,215.5 Z"/></g>
<g><path style="opacity:1" fill="#fcfcfc" d="M 378.5,207.5 C 387.833,207.5 397.167,207.5 406.5,207.5C 406.5,213.5 406.5,219.5 406.5,225.5C 397.808,225.831 389.141,225.498 380.5,224.5C 377.914,221.594 376.248,218.26 375.5,214.5C 375.5,213.833 375.5,213.167 375.5,212.5C 377.69,211.626 378.69,209.959 378.5,207.5 Z"/></g>
<g><path style="opacity:1" fill="#131313" d="M 406.5,207.5 C 408.167,207.5 409.833,207.5 411.5,207.5C 417.76,220.648 419.427,234.314 416.5,248.5C 419.425,248.54 422.091,247.707 424.5,246C 430.833,241 437.167,236 443.5,231C 447.635,228.597 451.968,226.763 456.5,225.5C 456.67,226.822 456.337,227.989 455.5,229C 445.008,234.496 435.341,241.163 426.5,249C 423.464,251.006 420.131,251.84 416.5,251.5C 416.334,255.514 416.501,259.514 417,263.5C 419.071,268.379 420.737,273.379 422,278.5C 424.392,284.226 428.226,288.726 433.5,292C 439.966,293.546 446.299,295.379 452.5,297.5C 452.5,298.833 453.167,299.5 454.5,299.5C 461.343,302.424 467.343,306.591 472.5,312C 479.261,313.201 485.928,314.701 492.5,316.5C 496.997,316.11 501.33,315.11 505.5,313.5C 505.374,316.595 503.707,318.428 500.5,319C 495.5,319.667 490.5,319.667 485.5,319C 482.685,317.279 479.685,316.612 476.5,317C 488.269,330.373 495.936,345.873 499.5,363.5C 503.876,363.909 508.21,364.575 512.5,365.5C 512.5,366.5 512.5,367.5 512.5,368.5C 508.516,368.531 504.683,367.864 501,366.5C 501.86,378.579 498.694,389.412 491.5,399C 482.289,405.571 471.955,409.071 460.5,409.5C 460.5,410.5 460.5,411.5 460.5,412.5C 458.641,412.539 457.308,411.706 456.5,410C 451.536,409.088 446.536,408.588 441.5,408.5C 441.264,421.59 441.264,434.59 441.5,447.5C 440.041,447.433 438.708,447.766 437.5,448.5C 437.83,441.468 437.497,434.468 436.5,427.5C 434.004,426.42 431.67,425.086 429.5,423.5C 428.476,424.853 427.143,425.52 425.5,425.5C 425.662,423.473 425.495,421.473 425,419.5C 420.326,423.854 418.659,422.854 420,416.5C 418.644,417.38 417.144,417.714 415.5,417.5C 415.585,415.071 416.585,413.071 418.5,411.5C 417.113,411.193 415.446,411.193 413.5,411.5C 413.018,405.34 412.351,399.34 411.5,393.5C 412.659,391.75 414.326,390.75 416.5,390.5C 417.476,391.815 418.476,393.148 419.5,394.5C 423.794,395.645 427.461,397.812 430.5,401C 432.74,401.977 435.073,402.477 437.5,402.5C 437.5,399.833 437.5,397.167 437.5,394.5C 440.167,393.167 440.167,391.833 437.5,390.5C 437.666,386.154 437.499,381.821 437,377.5C 436.617,376.944 436.117,376.611 435.5,376.5C 435.5,375.833 435.167,375.5 434.5,375.5C 434.149,367.639 437.316,365.306 444,368.5C 444.273,370.101 444.773,371.601 445.5,373C 452.041,374.03 458.374,373.53 464.5,371.5C 464.557,372.609 464.89,373.609 465.5,374.5C 459.818,377.586 453.818,378.253 447.5,376.5C 446.632,382.803 444.798,383.137 442,377.5C 441.5,386.494 441.334,395.494 441.5,404.5C 445.575,404.998 449.575,404.998 453.5,404.5C 451.553,402.724 451.22,400.724 452.5,398.5C 453.192,399.025 453.692,399.692 454,400.5C 454.333,399.167 454.667,397.833 455,396.5C 455.21,398.058 455.71,399.391 456.5,400.5C 456.5,401.167 456.5,401.833 456.5,402.5C 456.977,404.464 458.144,405.798 460,406.5C 467.525,404.795 475.025,402.961 482.5,401C 484.305,398.597 486.638,396.93 489.5,396C 492.805,392.105 494.972,387.605 496,382.5C 496.499,376.843 496.666,371.176 496.5,365.5C 492.154,365.334 487.821,365.501 483.5,366C 478.042,367.897 472.709,370.064 467.5,372.5C 466.89,371.609 466.557,370.609 466.5,369.5C 470.598,367.952 474.598,366.119 478.5,364C 484.156,363.112 489.823,362.279 495.5,361.5C 490.407,344.475 482.074,329.308 470.5,316C 463.017,315.691 455.684,316.691 448.5,319C 442.282,321.942 435.949,324.609 429.5,327C 428.726,329.405 428.226,331.905 428,334.5C 423.966,338.335 420.133,338.335 416.5,334.5C 416.5,334.167 416.5,333.833 416.5,333.5C 416.571,330.689 417.238,328.022 418.5,325.5C 416.593,320.319 415.76,314.986 416,309.5C 418.431,313.22 420.264,317.22 421.5,321.5C 423.085,323.206 424.918,324.539 427,325.5C 439.296,319.264 452.13,314.598 465.5,311.5C 460.216,307.185 454.55,303.351 448.5,300C 433.784,299.738 423.617,292.905 418,279.5C 416.737,274.379 415.071,269.379 413,264.5C 412.501,260.514 412.334,256.514 412.5,252.5C 408.335,252.873 404.668,251.873 401.5,249.5C 405.25,249.688 409.084,249.355 413,248.5C 415.038,238.115 414.871,227.782 412.5,217.5C 411.91,216.234 411.41,214.901 411,213.5C 410.502,216.817 410.335,220.15 410.5,223.5C 410.662,225.527 410.495,227.527 410,229.5C 409.439,230.022 408.772,230.355 408,230.5C 398.207,229.537 388.374,229.204 378.5,229.5C 377.833,228.167 377.167,226.833 376.5,225.5C 376.573,223.973 375.906,222.973 374.5,222.5C 374.194,219.615 374.527,216.948 375.5,214.5C 376.248,218.26 377.914,221.594 380.5,224.5C 389.141,225.498 397.808,225.831 406.5,225.5C 406.5,219.5 406.5,213.5 406.5,207.5 Z"/></g>
<g><path style="opacity:1" fill="#141414" d="M 507.5,215.5 C 507.5,217.833 507.5,220.167 507.5,222.5C 510.167,222.5 512.833,222.5 515.5,222.5C 516.774,223.189 516.774,224.023 515.5,225C 511.462,225.561 507.462,225.895 503.5,226C 502.216,224.703 502.383,223.536 504,222.5C 504.497,219.854 504.664,217.187 504.5,214.5C 502.319,214.716 500.653,213.883 499.5,212C 504.507,210.745 509.507,210.578 514.5,211.5C 511.732,212.398 509.399,213.731 507.5,215.5 Z"/></g>
<g><path style="opacity:1" fill="#181818" d="M 469.5,214.5 C 474.358,214.854 477.192,217.521 478,222.5C 479.901,218.415 481.401,218.582 482.5,223C 487.794,222.959 490.294,225.459 490,230.5C 489.5,231 489,231.5 488.5,232C 485.776,232.27 483.109,232.77 480.5,233.5C 480.619,229.199 478.619,227.199 474.5,227.5C 474.98,223.694 473.98,220.361 471.5,217.5C 469.985,219.547 469.151,221.881 469,224.5C 467.853,225.458 466.853,225.125 466,223.5C 465.798,225.256 465.298,226.922 464.5,228.5C 463.914,228.291 463.414,227.957 463,227.5C 462.044,223.428 462.544,219.595 464.5,216C 465.549,215.508 466.549,215.674 467.5,216.5C 468.522,216.145 469.189,215.478 469.5,214.5 Z"/></g>
<g><path style="opacity:1" fill="#ed3839" d="M 350.5,219.5 C 350.263,218.209 350.596,217.209 351.5,216.5C 354.817,215.918 357.817,214.585 360.5,212.5C 360.833,212.833 361.167,213.167 361.5,213.5C 358.568,216.8 354.901,218.8 350.5,219.5 Z"/></g>
<g><path style="opacity:1" fill="#476db6" d="M 375.5,212.5 C 375.5,213.167 375.5,213.833 375.5,214.5C 374.527,216.948 374.194,219.615 374.5,222.5C 373.745,224.466 372.579,224.8 371,223.5C 370.503,220.854 370.336,218.187 370.5,215.5C 372.411,214.925 374.078,213.925 375.5,212.5 Z"/></g>
<g><path style="opacity:1" fill="#d52e2f" d="M 347.5,217.5 C 346.89,218.391 346.557,219.391 346.5,220.5C 345.167,221.167 343.833,221.833 342.5,222.5C 342.5,221.5 342.5,220.5 342.5,219.5C 344.05,218.559 345.716,217.893 347.5,217.5 Z"/></g>
<g><path style="opacity:1" fill="#545454" d="M 129.5,234.5 C 129.666,228.824 129.499,223.157 129,217.5C 128.722,218.416 128.222,219.082 127.5,219.5C 127.433,218.041 127.766,216.708 128.5,215.5C 129.117,215.389 129.617,215.056 130,214.5C 130.821,221.346 130.654,228.013 129.5,234.5 Z"/></g>
<g><path style="opacity:1" fill="#fafafb" d="M 412.5,217.5 C 414.871,227.782 415.038,238.115 413,248.5C 409.084,249.355 405.25,249.688 401.5,249.5C 404.668,251.873 408.335,252.873 412.5,252.5C 412.334,256.514 412.501,260.514 413,264.5C 415.071,269.379 416.737,274.379 418,279.5C 423.617,292.905 433.784,299.738 448.5,300C 454.55,303.351 460.216,307.185 465.5,311.5C 452.13,314.598 439.296,319.264 427,325.5C 424.918,324.539 423.085,323.206 421.5,321.5C 420.264,317.22 418.431,313.22 416,309.5C 415.76,314.986 416.593,320.319 418.5,325.5C 417.238,328.022 416.571,330.689 416.5,333.5C 406.573,338.363 396.573,343.029 386.5,347.5C 383.834,338.178 381.167,328.845 378.5,319.5C 378.727,316.562 377.727,314.229 375.5,312.5C 370.928,292.732 367.761,272.732 366,252.5C 365.004,250.34 363.504,248.673 361.5,247.5C 360.876,245.246 359.543,243.579 357.5,242.5C 355.873,240.37 354.04,238.37 352,236.5C 351.338,234.187 350.838,231.854 350.5,229.5C 359.167,229.5 367.833,229.5 376.5,229.5C 377.796,248.061 378.463,248.061 378.5,229.5C 388.374,229.204 398.207,229.537 408,230.5C 408.772,230.355 409.439,230.022 410,229.5C 410.495,227.527 410.662,225.527 410.5,223.5C 411.167,221.5 411.833,219.5 412.5,217.5 Z"/></g>
<g><path style="opacity:1" fill="#888888" d="M 412.5,217.5 C 411.833,219.5 411.167,221.5 410.5,223.5C 410.335,220.15 410.502,216.817 411,213.5C 411.41,214.901 411.91,216.234 412.5,217.5 Z"/></g>
<g><path style="opacity:1" fill="#0a0a0a" d="M 519.5,219.5 C 521.104,220.287 521.771,221.62 521.5,223.5C 527.555,222.942 528.888,225.109 525.5,230C 523.866,230.494 522.199,230.66 520.5,230.5C 519.756,226.881 519.423,223.215 519.5,219.5 Z"/></g>
<g><path style="opacity:1" fill="#ef3333" d="M 339.5,221.5 C 339.5,222.5 339.5,223.5 339.5,224.5C 331.759,226.037 324.759,229.204 318.5,234C 320.167,235.167 321.833,236.333 323.5,237.5C 322.572,238.768 322.405,240.101 323,241.5C 329.71,253.485 335.543,265.819 340.5,278.5C 339.448,278.649 338.448,278.483 337.5,278C 332.986,271.467 329.819,264.3 328,256.5C 325.079,251.659 322.412,246.659 320,241.5C 318.301,240.594 316.467,240.261 314.5,240.5C 314.66,238.801 314.494,237.134 314,235.5C 307.607,238.611 301.107,241.611 294.5,244.5C 296.51,245.065 298.176,246.065 299.5,247.5C 298.271,248.281 296.938,248.781 295.5,249C 303.066,263.3 310.233,277.8 317,292.5C 318.04,299.244 320.706,305.244 325,310.5C 325.495,312.473 325.662,314.473 325.5,316.5C 324.325,316.719 323.325,316.386 322.5,315.5C 320.97,311.141 318.803,307.141 316,303.5C 314.592,299.943 313.592,296.276 313,292.5C 307.09,279.016 300.924,265.683 294.5,252.5C 293.07,252.694 291.57,252.694 290,252.5C 290,250.5 290,248.5 290,246.5C 285.901,250.32 281.401,251.154 276.5,249C 293.731,241.055 311.065,233.055 328.5,225C 332.154,223.726 335.82,222.56 339.5,221.5 Z"/></g>
<g><path style="opacity:1" fill="#ddd8d8" d="M 346.5,220.5 C 346.5,222.5 346.5,224.5 346.5,226.5C 345.167,226.5 343.833,226.5 342.5,226.5C 342.5,225.167 342.5,223.833 342.5,222.5C 343.833,221.833 345.167,221.167 346.5,220.5 Z"/></g>
<g><path style="opacity:1" fill="#808080" d="M 507.5,215.5 C 508.461,217.265 508.795,219.265 508.5,221.5C 511.059,221.198 513.393,221.532 515.5,222.5C 512.833,222.5 510.167,222.5 507.5,222.5C 507.5,220.167 507.5,217.833 507.5,215.5 Z"/></g>
<g><path style="opacity:1" fill="#111111" d="M 496.5,224.5 C 499.011,228.175 498.344,231.675 494.5,235C 493.552,235.483 492.552,235.649 491.5,235.5C 493.401,232.024 495.068,228.358 496.5,224.5 Z"/></g>
<g><path style="opacity:1" fill="#ededed" d="M 522.5,225.5 C 525.001,225.511 525.168,226.178 523,227.5C 522.536,226.906 522.369,226.239 522.5,225.5 Z"/></g>
<g><path style="opacity:1" fill="#d0d0d0" d="M 483.5,225.5 C 489.113,228.089 488.779,229.422 482.5,229.5C 482.433,228.041 482.766,226.708 483.5,225.5 Z"/></g>
<g><path style="opacity:1" fill="#111111" d="M 529.5,227.5 C 533.473,228.075 534.473,230.242 532.5,234C 531.216,234.684 530.049,234.517 529,233.5C 528.322,231.402 528.489,229.402 529.5,227.5 Z"/></g>
<g><path style="opacity:1" fill="#525252" d="M 127.5,219.5 C 125.275,223.931 122.108,227.598 118,230.5C 120.131,226.183 123.298,222.516 127.5,219.5 Z"/></g>
<g><path style="opacity:1" fill="#fc7a30" d="M 346.5,231.5 C 343.36,239.55 345.86,244.884 354,247.5C 355.03,247.164 355.53,246.497 355.5,245.5C 356.167,244.5 356.833,243.5 357.5,242.5C 359.543,243.579 360.876,245.246 361.5,247.5C 361.567,248.959 361.234,250.292 360.5,251.5C 359.18,252.942 357.514,253.608 355.5,253.5C 355.5,252.5 355.5,251.5 355.5,250.5C 344.369,248.252 340.369,241.586 343.5,230.5C 344.947,229.115 345.947,229.448 346.5,231.5 Z"/></g>
<g><path style="opacity:1" fill="#171717" d="M 221.5,232.5 C 223.912,232.244 225.579,233.244 226.5,235.5C 223.881,235.976 221.881,237.309 220.5,239.5C 220.709,240.086 221.043,240.586 221.5,241C 224.226,241.182 226.893,241.682 229.5,242.5C 229.023,243.478 228.357,244.311 227.5,245C 220.514,246.949 217.014,244.449 217,237.5C 218.025,235.313 219.525,233.646 221.5,232.5 Z"/></g>
<g><path style="opacity:1" fill="#f4ede9" d="M 346.5,231.5 C 347.469,233.663 348.302,235.996 349,238.5C 351.4,240.729 353.567,243.063 355.5,245.5C 355.53,246.497 355.03,247.164 354,247.5C 345.86,244.884 343.36,239.55 346.5,231.5 Z"/></g>
<g><path style="opacity:1" fill="#7796cf" d="M 376.5,225.5 C 377.167,226.833 377.833,228.167 378.5,229.5C 378.463,248.061 377.796,248.061 376.5,229.5C 376.5,228.167 376.5,226.833 376.5,225.5 Z"/></g>
<g><path style="opacity:1" fill="#1d1d1d" d="M 380.5,233.5 C 382.335,234.122 383.502,235.456 384,237.5C 385.31,240.503 385.476,243.503 384.5,246.5C 382.006,242.569 380.673,238.236 380.5,233.5 Z"/></g>
<g><path style="opacity:1" fill="#4d76c3" d="M 371.5,235.5 C 372.222,235.918 372.722,236.584 373,237.5C 373.497,240.146 373.664,242.813 373.5,245.5C 372.5,245.5 371.5,245.5 370.5,245.5C 370.253,242.061 370.586,238.728 371.5,235.5 Z"/></g>
<g><path style="opacity:1" fill="#5e5e5e" d="M 122.5,248.5 C 122.511,246.314 123.511,245.481 125.5,246C 124.627,247.045 123.627,247.878 122.5,248.5 Z"/></g>
<g><path style="opacity:1" fill="#171717" d="M 361.5,247.5 C 363.504,248.673 365.004,250.34 366,252.5C 367.761,272.732 370.928,292.732 375.5,312.5C 375.5,315.167 375.5,317.833 375.5,320.5C 373.251,316.544 371.751,312.211 371,307.5C 367.436,290.656 364.769,273.656 363,256.5C 362.626,254.509 361.793,252.842 360.5,251.5C 361.234,250.292 361.567,248.959 361.5,247.5 Z"/></g>
<g><path style="opacity:1" fill="#4b4b4b" d="M 122.5,248.5 C 121.969,250.544 120.802,252.211 119,253.5C 119.077,251.228 120.243,249.562 122.5,248.5 Z"/></g>
<g><path style="opacity:1" fill="#ff8743" d="M 342.5,249.5 C 345.157,249.162 347.49,249.829 349.5,251.5C 348.047,253.721 346.881,256.054 346,258.5C 344.662,255.572 343.495,252.572 342.5,249.5 Z"/></g>
<g><path style="opacity:1" fill="#1b1b1b" d="M 387.5,250.5 C 390.091,251.254 391.924,252.921 393,255.5C 394.496,257.45 394.663,259.45 393.5,261.5C 390.729,258.295 388.729,254.628 387.5,250.5 Z"/></g>
<g><path style="opacity:1" fill="#2e8745" d="M 454.5,299.5 C 453.167,299.5 452.5,298.833 452.5,297.5C 452.925,293.393 454.425,289.726 457,286.5C 461.048,282.784 465.382,279.45 470,276.5C 470.208,272.082 470.874,267.749 472,263.5C 477.369,254.734 485.203,251.9 495.5,255C 504.505,257.193 508.838,263.026 508.5,272.5C 505.831,287.014 497.164,292.847 482.5,290C 476.972,288.438 473.638,284.938 472.5,279.5C 462.66,282.675 456.66,289.341 454.5,299.5 Z"/></g>
<g><path style="opacity:1" fill="#4672c0" d="M 371.5,256.5 C 372.496,256.414 373.329,256.748 374,257.5C 374.497,260.146 374.664,262.813 374.5,265.5C 373.5,265.5 372.5,265.5 371.5,265.5C 371.5,262.5 371.5,259.5 371.5,256.5 Z"/></g>
<g><path style="opacity:1" fill="#f5f9f6" d="M 480.5,258.5 C 486.176,258.334 491.843,258.501 497.5,259C 503.448,262.813 505.948,268.313 505,275.5C 498.176,288.336 488.843,290.669 477,282.5C 471.318,273.255 472.484,265.255 480.5,258.5 Z"/></g>
<g><path style="opacity:1" fill="#328948" d="M 485.5,261.5 C 488.044,261.104 490.211,261.771 492,263.5C 492.495,266.531 492.329,269.531 491.5,272.5C 498.141,272.476 500.307,275.476 498,281.5C 493.73,285.915 489.23,286.415 484.5,283C 484.034,276.779 482.701,270.779 480.5,265C 481.955,263.374 483.622,262.208 485.5,261.5 Z"/></g>
<g><path style="opacity:1" fill="#131313" d="M 393.5,265.5 C 395.017,265.511 396.184,266.177 397,267.5C 398.474,270.756 399.64,274.089 400.5,277.5C 399.325,277.719 398.325,277.386 397.5,276.5C 395.762,272.951 394.429,269.284 393.5,265.5 Z"/></g>
<g><path style="opacity:1" fill="#e9f2ec" d="M 486.5,264.5 C 487.5,264.5 488.5,264.5 489.5,264.5C 488.997,272.118 487.33,272.785 484.5,266.5C 485.243,265.818 485.909,265.151 486.5,264.5 Z"/></g>
<g><path style="opacity:1" fill="#363636" d="M 123.5,267.5 C 122.969,269.544 121.802,271.211 120,272.5C 120.077,270.228 121.243,268.562 123.5,267.5 Z"/></g>
<g><path style="opacity:1" fill="#3969bd" d="M 374.5,271.5 C 375.794,273.048 376.461,275.048 376.5,277.5C 376.167,279.5 375.833,281.5 375.5,283.5C 374.509,279.555 374.176,275.555 374.5,271.5 Z"/></g>
<g><path style="opacity:1" fill="#f6faf7" d="M 487.5,275.5 C 490.167,275.5 492.833,275.5 495.5,275.5C 495.227,280.332 492.56,282.332 487.5,281.5C 487.5,279.5 487.5,277.5 487.5,275.5 Z"/></g>
<g><path style="opacity:1" fill="#ee3031" d="M 345.5,279.5 C 346.822,279.33 347.989,279.663 349,280.5C 349.246,283.89 349.746,287.223 350.5,290.5C 348.598,292.151 346.598,292.484 344.5,291.5C 345.433,287.571 345.766,283.571 345.5,279.5 Z"/></g>
<g><path style="opacity:1" fill="#282828" d="M 402.5,280.5 C 404.411,280.574 405.578,281.574 406,283.5C 407.19,286.194 407.356,288.861 406.5,291.5C 405.522,291.023 404.689,290.357 404,289.5C 403.637,286.456 403.137,283.456 402.5,280.5 Z"/></g>
<g><path style="opacity:1" fill="#ee2b2e" d="M 334.5,283.5 C 336.722,283.178 338.556,283.845 340,285.5C 340.287,287.891 340.787,290.224 341.5,292.5C 345.139,293.46 348.805,293.46 352.5,292.5C 352.5,293.5 352.5,294.5 352.5,295.5C 348.019,296.229 343.519,296.896 339,297.5C 334.735,297.579 332.735,295.579 333,291.5C 334.356,290.62 335.856,290.286 337.5,290.5C 337.5,289.167 337.5,287.833 337.5,286.5C 332.773,288.445 331.773,287.445 334.5,283.5 Z"/></g>
<g><path style="opacity:1" fill="#434343" d="M 127.5,286.5 C 126.728,290.598 124.728,293.931 121.5,296.5C 123.11,292.9 125.11,289.566 127.5,286.5 Z"/></g>
<g><path style="opacity:1" fill="#3f6dbe" d="M 374.5,291.5 C 376.776,291.756 377.943,293.09 378,295.5C 378.667,298.167 378.667,300.833 378,303.5C 377.586,303.957 377.086,304.291 376.5,304.5C 374.935,300.313 374.268,295.98 374.5,291.5 Z"/></g>
<g><path style="opacity:1" fill="#3c6bbc" d="M 407.5,293.5 C 408.08,295.749 409.413,297.415 411.5,298.5C 411.5,299.833 411.5,301.167 411.5,302.5C 408.673,305.489 406.339,308.822 404.5,312.5C 402.99,310.678 401.657,308.678 400.5,306.5C 395.484,307.84 390.484,309.173 385.5,310.5C 382.14,310.491 379.14,309.491 376.5,307.5C 377.5,307.167 378.5,306.833 379.5,306.5C 382.482,307.332 385.482,307.499 388.5,307C 392.464,305.127 396.464,303.46 400.5,302C 399.134,299.003 398.467,295.836 398.5,292.5C 400.787,292.724 402.953,293.391 405,294.5C 405.902,294.257 406.735,293.923 407.5,293.5 Z"/></g>
<g><path style="opacity:1" fill="#151517" d="M 407.5,293.5 C 409.997,294.129 411.33,295.796 411.5,298.5C 409.413,297.415 408.08,295.749 407.5,293.5 Z"/></g>
<g><path style="opacity:1" fill="#525252" d="M 121.5,296.5 C 121.539,297.756 121.039,298.756 120,299.5C 119.415,298.002 119.915,297.002 121.5,296.5 Z"/></g>
<g><path style="opacity:1" fill="#ee2d30" d="M 341.5,299.5 C 347.209,299.096 349.209,301.596 347.5,307C 345.527,307.495 343.527,307.662 341.5,307.5C 341.703,305.362 342.703,303.695 344.5,302.5C 343.007,301.859 342.007,300.859 341.5,299.5 Z"/></g>
<g><path style="opacity:1" fill="#18191d" d="M 411.5,298.5 C 415.012,300.674 416.012,303.674 414.5,307.5C 412.738,306.312 411.738,304.645 411.5,302.5C 411.5,301.167 411.5,299.833 411.5,298.5 Z"/></g>
<g><path style="opacity:1" fill="#101010" d="M 509.5,300.5 C 511.335,301.122 512.502,302.456 513,304.5C 513.833,307.5 514.667,310.5 515.5,313.5C 517.306,312.141 518.806,312.475 520,314.5C 521.48,320.338 519.313,323.171 513.5,323C 511.288,321.372 510.954,319.372 512.5,317C 511.336,311.516 510.336,306.016 509.5,300.5 Z"/></g>
<g><path style="opacity:1" fill="#ee3435" d="M 378.5,352.5 C 380.318,350.922 381.318,351.422 381.5,354C 381.285,355.908 380.285,357.074 378.5,357.5C 373.836,360.003 369.169,362.17 364.5,364C 363.549,363.282 363.383,362.449 364,361.5C 366.234,359.3 368.734,357.467 371.5,356C 369.283,354.732 367.283,353.232 365.5,351.5C 367.003,350.948 368.669,350.948 370.5,351.5C 364.056,337.947 357.056,324.614 349.5,311.5C 349.833,311.167 350.167,310.833 350.5,310.5C 352.459,311.748 353.959,313.415 355,315.5C 361.971,329.21 369.471,341.877 377.5,353.5C 378.107,353.376 378.44,353.043 378.5,352.5 Z"/></g>
<g><path style="opacity:1" fill="#3a67b9" d="M 375.5,312.5 C 377.727,314.229 378.727,316.562 378.5,319.5C 379.01,322.388 378.344,324.721 376.5,326.5C 375.539,324.735 375.205,322.735 375.5,320.5C 375.5,317.833 375.5,315.167 375.5,312.5 Z"/></g>
<g><path style="opacity:1" fill="#4a74c1" d="M 388.5,314.5 C 390.467,314.261 392.301,314.594 394,315.5C 394.072,319.531 394.906,323.364 396.5,327C 396.355,327.772 396.022,328.439 395.5,329C 393.866,329.494 392.199,329.66 390.5,329.5C 390.663,327.143 390.497,324.81 390,322.5C 387.278,320.275 386.778,317.608 388.5,314.5 Z"/></g>
<g><path style="opacity:1" fill="#131313" d="M 525.5,314.5 C 530.805,315.077 532.638,318.077 531,323.5C 525,327.167 522.333,325.5 523,318.5C 523.662,317.016 524.496,315.683 525.5,314.5 Z"/></g>
<g><path style="opacity:1" fill="#626262" d="M 129.5,315.5 C 128.024,317.769 126.524,320.102 125,322.5C 125.15,320.494 125.65,318.494 126.5,316.5C 127.807,312.366 128.807,312.033 129.5,315.5 Z"/></g>
<g><path style="opacity:1" fill="#fbfbfb" d="M 466.5,369.5 C 459.042,358.952 448.708,354.619 435.5,356.5C 430.87,352.293 429.87,352.959 432.5,358.5C 427.409,362.65 423.243,367.65 420,373.5C 419.207,376.741 419.707,379.741 421.5,382.5C 418.957,384.94 415.957,386.606 412.5,387.5C 410.454,385.721 408.287,384.054 406,382.5C 404.77,379.268 402.77,376.601 400,374.5C 395.454,367.141 391.621,359.474 388.5,351.5C 395.168,347.499 402.168,343.999 409.5,341C 412.331,339.334 414.664,337.168 416.5,334.5C 420.133,338.335 423.966,338.335 428,334.5C 428.226,331.905 428.726,329.405 429.5,327C 435.949,324.609 442.282,321.942 448.5,319C 455.684,316.691 463.017,315.691 470.5,316C 482.074,329.308 490.407,344.475 495.5,361.5C 489.823,362.279 484.156,363.112 478.5,364C 474.598,366.119 470.598,367.952 466.5,369.5 Z"/></g>
<g><path style="opacity:1" fill="#989898" d="M 516.5,315.5 C 517.797,316.849 517.63,318.182 516,319.5C 515.421,318.072 515.588,316.738 516.5,315.5 Z"/></g>
<g><path style="opacity:1" fill="#3d6cbe" d="M 400.5,318.5 C 405.604,319.291 407.604,322.291 406.5,327.5C 407.552,327.351 408.552,327.517 409.5,328C 406.287,330.513 402.787,331.346 399,330.5C 398.51,329.207 398.343,327.873 398.5,326.5C 399.833,326.5 401.167,326.5 402.5,326.5C 402.657,325.127 402.49,323.793 402,322.5C 400.817,323.731 399.651,323.731 398.5,322.5C 399.18,321.14 399.847,319.807 400.5,318.5 Z"/></g>
<g><path style="opacity:1" fill="#d7d7d7" d="M 526.5,318.5 C 528.048,318.821 528.715,319.821 528.5,321.5C 525.752,321.598 525.086,320.598 526.5,318.5 Z"/></g>
<g><path style="opacity:1" fill="#ef3635" d="M 325.5,323.5 C 327.722,323.178 329.556,323.845 331,325.5C 331.807,329.186 331.307,332.686 329.5,336C 329.95,337.285 330.617,338.452 331.5,339.5C 328.837,340.192 326.337,341.192 324,342.5C 320.825,341.088 320.825,339.421 324,337.5C 324.223,332.75 324.723,328.084 325.5,323.5 Z"/></g>
<g><path style="opacity:1" fill="#151519" d="M 378.5,319.5 C 381.167,328.845 383.834,338.178 386.5,347.5C 385.486,348.674 384.153,349.34 382.5,349.5C 382.662,347.473 382.495,345.473 382,343.5C 381.15,340.591 379.983,337.924 378.5,335.5C 378.3,332.37 377.634,329.37 376.5,326.5C 378.344,324.721 379.01,322.388 378.5,319.5 Z"/></g>
<g><path style="opacity:1" fill="#ea3334" d="M 416.5,333.5 C 416.5,333.833 416.5,334.167 416.5,334.5C 414.664,337.168 412.331,339.334 409.5,341C 402.168,343.999 395.168,347.499 388.5,351.5C 386.77,352.026 385.436,353.026 384.5,354.5C 384.167,354.5 383.833,354.5 383.5,354.5C 382.549,353.081 382.216,351.415 382.5,349.5C 384.153,349.34 385.486,348.674 386.5,347.5C 396.573,343.029 406.573,338.363 416.5,333.5 Z"/></g>
<g><path style="opacity:1" fill="#171717" d="M 426.5,336.5 C 428.335,337.122 429.502,338.456 430,340.5C 430.735,342.871 431.568,345.205 432.5,347.5C 430.218,348.9 428.718,348.234 428,345.5C 427.047,342.568 426.547,339.568 426.5,336.5 Z"/></g>
<g><path style="opacity:1" fill="#4a74c1" d="M 460.5,344.5 C 462.144,344.286 463.644,344.62 465,345.5C 464.984,349.764 465.817,353.764 467.5,357.5C 465.647,358.76 463.814,358.76 462,357.5C 461.882,354.025 460.715,351.025 458.5,348.5C 458.752,346.927 459.418,345.594 460.5,344.5 Z"/></g>
<g><path style="opacity:1" fill="#ef3333" d="M 379.5,407.5 C 379.5,409.167 379.5,410.833 379.5,412.5C 374.052,414.271 369.052,416.937 364.5,420.5C 363.386,419.277 363.219,417.944 364,416.5C 365.41,415.213 366.91,414.046 368.5,413C 365.343,412.258 362.677,410.758 360.5,408.5C 360.887,407.28 361.72,406.613 363,406.5C 364.162,407.187 365.328,407.353 366.5,407C 356.64,387.258 346.307,367.758 335.5,348.5C 337.329,347.718 338.829,348.384 340,350.5C 350.124,367.082 359.457,384.082 368,401.5C 368.689,400.643 369.522,399.977 370.5,399.5C 372.228,403.015 373.561,406.682 374.5,410.5C 376.36,409.74 378.027,408.74 379.5,407.5 Z"/></g>
<g><path style="opacity:1" fill="#4767b0" d="M 378.5,335.5 C 379.983,337.924 381.15,340.591 382,343.5C 382.495,345.473 382.662,347.473 382.5,349.5C 382.216,351.415 382.549,353.081 383.5,354.5C 383.534,357.199 382.867,359.699 381.5,362C 380.551,362.617 379.718,362.451 379,361.5C 378.51,360.207 378.343,358.873 378.5,357.5C 380.285,357.074 381.285,355.908 381.5,354C 381.318,351.422 380.318,350.922 378.5,352.5C 378.238,351.022 378.571,349.689 379.5,348.5C 380.396,349.506 381.062,349.506 381.5,348.5C 380.902,347.205 380.402,345.872 380,344.5C 379.395,346.481 378.395,346.815 377,345.5C 376.833,343.833 376.667,342.167 376.5,340.5C 376.556,338.36 377.223,336.694 378.5,335.5 Z"/></g>
<g><path style="opacity:1" fill="#4471c0" d="M 469.5,349.5 C 471.467,349.261 473.301,349.594 475,350.5C 475.339,353.036 475.839,355.536 476.5,358C 475.615,361.178 473.782,362.011 471,360.5C 471.439,358.241 471.939,355.908 472.5,353.5C 469.046,353.733 468.046,352.4 469.5,349.5 Z"/></g>
<g><path style="opacity:1" fill="#110f0f" d="M 388.5,351.5 C 391.621,359.474 395.454,367.141 400,374.5C 402.77,376.601 404.77,379.268 406,382.5C 408.287,384.054 410.454,385.721 412.5,387.5C 411.205,388.488 409.872,389.488 408.5,390.5C 398.036,380.266 390.036,368.266 384.5,354.5C 385.436,353.026 386.77,352.026 388.5,351.5 Z"/></g>
<g><path style="opacity:1" fill="#0a0a0b" d="M 435.5,356.5 C 435.027,357.906 434.027,358.573 432.5,358.5C 429.87,352.959 430.87,352.293 435.5,356.5 Z"/></g>
<g><path style="opacity:1" fill="#171717" d="M 517.5,354.5 C 522.16,354.748 525.993,356.748 529,360.5C 529.105,364.585 526.939,366.585 522.5,366.5C 522.5,368.5 522.5,370.5 522.5,372.5C 521.5,372.5 520.5,372.5 519.5,372.5C 518.553,366.534 517.886,360.534 517.5,354.5 Z"/></g>
<g><path style="opacity:1" fill="#e3e3e3" d="M 520.5,357.5 C 522.905,358.398 524.905,359.898 526.5,362C 522.496,363.105 520.496,361.605 520.5,357.5 Z"/></g>
<g><path style="opacity:1" fill="#0f0f0f" d="M 24.5,360.5 C 26.2851,365.067 27.1184,370.067 27,375.5C 27.5,395.497 27.6666,415.497 27.5,435.5C 31.4344,435.979 35.1011,435.312 38.5,433.5C 40.0709,434.309 41.7376,434.643 43.5,434.5C 42.1597,439.703 39.6597,444.37 36,448.5C 33.3178,453.864 30.6511,459.198 28,464.5C 24.4967,453.827 19.6633,443.827 13.5,434.5C 14,434.167 14.5,433.833 15,433.5C 18.4019,434.726 21.9019,435.393 25.5,435.5C 25.6665,410.49 25.3332,385.49 24.5,360.5 Z"/></g>
<g><path style="opacity:1" fill="#4770be" d="M 435.5,356.5 C 448.708,354.619 459.042,358.952 466.5,369.5C 466.557,370.609 466.89,371.609 467.5,372.5C 470.168,381.889 468.502,390.556 462.5,398.5C 460.754,400.252 458.754,401.585 456.5,402.5C 456.5,401.833 456.5,401.167 456.5,400.5C 463.416,395.821 466.75,389.154 466.5,380.5C 466.427,378.41 466.094,376.41 465.5,374.5C 464.89,373.609 464.557,372.609 464.5,371.5C 461.318,364.725 455.984,360.558 448.5,359C 444.642,358.19 440.976,358.357 437.5,359.5C 435.973,359.427 434.973,360.094 434.5,361.5C 433.078,361.709 431.745,362.209 430.5,363C 426.484,366.844 423.484,371.344 421.5,376.5C 421.668,378.171 422.335,379.504 423.5,380.5C 423.427,382.027 424.094,383.027 425.5,383.5C 426.242,385.426 427.242,387.259 428.5,389C 431.459,390.046 434.459,390.546 437.5,390.5C 440.167,391.833 440.167,393.167 437.5,394.5C 431.324,393.895 426.324,390.895 422.5,385.5C 422.443,384.391 422.11,383.391 421.5,382.5C 419.707,379.741 419.207,376.741 420,373.5C 423.243,367.65 427.409,362.65 432.5,358.5C 434.027,358.573 435.027,357.906 435.5,356.5 Z"/></g>
<g><path style="opacity:1" fill="#161719" d="M 437.5,359.5 C 438.809,363.54 437.809,364.206 434.5,361.5C 434.973,360.094 435.973,359.427 437.5,359.5 Z"/></g>
<g><path style="opacity:1" fill="#f9f9fa" d="M 437.5,359.5 C 440.976,358.357 444.642,358.19 448.5,359C 455.984,360.558 461.318,364.725 464.5,371.5C 458.374,373.53 452.041,374.03 445.5,373C 444.773,371.601 444.273,370.101 444,368.5C 437.316,365.306 434.149,367.639 434.5,375.5C 430.983,377.424 427.316,379.091 423.5,380.5C 422.335,379.504 421.668,378.171 421.5,376.5C 423.484,371.344 426.484,366.844 430.5,363C 431.745,362.209 433.078,361.709 434.5,361.5C 437.809,364.206 438.809,363.54 437.5,359.5 Z"/></g>
<g><path style="opacity:1" fill="#fafbfb" d="M 456.5,402.5 C 458.754,401.585 460.754,400.252 462.5,398.5C 468.502,390.556 470.168,381.889 467.5,372.5C 472.709,370.064 478.042,367.897 483.5,366C 487.821,365.501 492.154,365.334 496.5,365.5C 496.666,371.176 496.499,376.843 496,382.5C 494.972,387.605 492.805,392.105 489.5,396C 486.638,396.93 484.305,398.597 482.5,401C 475.025,402.961 467.525,404.795 460,406.5C 458.144,405.798 456.977,404.464 456.5,402.5 Z"/></g>
<g><path style="opacity:1" fill="#151515" d="M 529.5,366.5 C 532.987,367.445 534.32,369.778 533.5,373.5C 537.509,373.014 539.342,374.68 539,378.5C 536.034,381.265 533.367,380.932 531,377.5C 530.68,373.786 530.18,370.119 529.5,366.5 Z"/></g>
<g><path style="opacity:1" fill="#537ac4" d="M 378.5,366.5 C 379.822,366.33 380.989,366.663 382,367.5C 382.667,370.833 382.667,374.167 382,377.5C 381,378.833 380,378.833 379,377.5C 378.501,373.848 378.335,370.182 378.5,366.5 Z"/></g>
<g><path style="opacity:1" fill="#181818" d="M 543.5,373.5 C 546.205,373.38 546.872,374.38 545.5,376.5C 550.722,378.687 550.389,380.354 544.5,381.5C 543.558,381.392 542.725,381.059 542,380.5C 541.167,377.829 541.667,375.496 543.5,373.5 Z"/></g>
<g><path style="opacity:1" fill="#ee3b3a" d="M 434.5,375.5 C 435.167,375.5 435.5,375.833 435.5,376.5C 432.875,379.815 429.542,382.149 425.5,383.5C 424.094,383.027 423.427,382.027 423.5,380.5C 427.316,379.091 430.983,377.424 434.5,375.5 Z"/></g>
<g><path style="opacity:1" fill="#f9f9f9" d="M 465.5,374.5 C 466.094,376.41 466.427,378.41 466.5,380.5C 466.75,389.154 463.416,395.821 456.5,400.5C 455.71,399.391 455.21,398.058 455,396.5C 454.667,397.833 454.333,399.167 454,400.5C 453.692,399.692 453.192,399.025 452.5,398.5C 451.22,400.724 451.553,402.724 453.5,404.5C 449.575,404.998 445.575,404.998 441.5,404.5C 441.334,395.494 441.5,386.494 442,377.5C 444.798,383.137 446.632,382.803 447.5,376.5C 453.818,378.253 459.818,377.586 465.5,374.5 Z"/></g>
<g><path style="opacity:1" fill="#fafafc" d="M 435.5,376.5 C 436.117,376.611 436.617,376.944 437,377.5C 437.499,381.821 437.666,386.154 437.5,390.5C 434.459,390.546 431.459,390.046 428.5,389C 427.242,387.259 426.242,385.426 425.5,383.5C 429.542,382.149 432.875,379.815 435.5,376.5 Z"/></g>
<g><path style="opacity:1" fill="#ec2d30" d="M 421.5,382.5 C 422.11,383.391 422.443,384.391 422.5,385.5C 420.5,387.167 418.5,388.833 416.5,390.5C 414.326,390.75 412.659,391.75 411.5,393.5C 405.391,396.724 399.391,400.224 393.5,404C 390.039,406.066 386.373,407.566 382.5,408.5C 381.314,407.295 381.314,405.961 382.5,404.5C 385.673,403.83 388.673,402.664 391.5,401C 397.018,397.221 402.685,393.721 408.5,390.5C 409.872,389.488 411.205,388.488 412.5,387.5C 415.957,386.606 418.957,384.94 421.5,382.5 Z"/></g>
<g><path style="opacity:1" fill="#4e76c3" d="M 379.5,384.5 C 380.75,384.577 381.583,385.244 382,386.5C 382.494,388.134 382.66,389.801 382.5,391.5C 381.5,391.5 380.5,391.5 379.5,391.5C 379.5,389.167 379.5,386.833 379.5,384.5 Z"/></g>
<g><path style="opacity:1" fill="#181818" d="M 447.5,385.5 C 450.71,387.918 452.376,391.252 452.5,395.5C 451.5,395.5 450.5,395.5 449.5,395.5C 448.833,392.167 448.167,388.833 447.5,385.5 Z"/></g>
<g><path style="opacity:1" fill="#f7f6f7" d="M 422.5,385.5 C 426.324,390.895 431.324,393.895 437.5,394.5C 437.5,397.167 437.5,399.833 437.5,402.5C 435.073,402.477 432.74,401.977 430.5,401C 427.461,397.812 423.794,395.645 419.5,394.5C 418.476,393.148 417.476,391.815 416.5,390.5C 418.5,388.833 420.5,387.167 422.5,385.5 Z"/></g>
<g><path style="opacity:1" fill="#f5f5f5" d="M 414.5,395.5 C 419.746,398.203 424.746,401.37 429.5,405C 431.871,405.735 434.205,406.568 436.5,407.5C 437.833,413.167 437.833,418.833 436.5,424.5C 435.5,424 434.5,423.5 433.5,423C 430.682,419.936 428.016,416.77 425.5,413.5C 423.892,412.758 422.225,412.591 420.5,413C 423.768,407.104 422.435,405.604 416.5,408.5C 414.719,404.384 414.053,400.051 414.5,395.5 Z"/></g>
<g><path style="opacity:1" fill="#466dbc" d="M 382.5,404.5 C 381.314,405.961 381.314,407.295 382.5,408.5C 382.503,413.527 382.836,418.527 383.5,423.5C 382.178,423.67 381.011,423.337 380,422.5C 379.502,419.183 379.335,415.85 379.5,412.5C 379.5,410.833 379.5,409.167 379.5,407.5C 379.371,403.988 379.704,400.322 380.5,396.5C 381.086,396.709 381.586,397.043 382,397.5C 382.497,399.81 382.663,402.143 382.5,404.5 Z"/></g>
<g><path style="opacity:1" fill="#141414" d="M 403.5,418.5 C 404.496,418.414 405.329,418.748 406,419.5C 406.879,422.818 407.713,426.152 408.5,429.5C 409.524,428.147 410.857,427.48 412.5,427.5C 412.149,429.869 411.982,432.203 412,434.5C 414.922,431.782 418.256,431.116 422,432.5C 420.829,435.804 420.329,439.304 420.5,443C 419.551,443.617 418.718,443.451 418,442.5C 417.503,440.19 417.337,437.857 417.5,435.5C 416.167,435.5 414.833,435.5 413.5,435.5C 413.41,440.389 412.244,440.723 410,436.5C 409.044,437.579 408.211,438.745 407.5,440C 406.551,440.617 405.718,440.451 405,439.5C 404.675,432.476 404.175,425.476 403.5,418.5 Z"/></g>
<g><path style="opacity:1" fill="#141414" d="M 461.5,418.5 C 464.564,421.274 465.898,424.608 465.5,428.5C 462.083,426.074 460.75,422.741 461.5,418.5 Z"/></g>
<g><path style="opacity:1" fill="#5279c4" d="M 380.5,430.5 C 381.75,430.577 382.583,431.244 383,432.5C 383.667,435.5 383.667,438.5 383,441.5C 382,442.833 381,442.833 380,441.5C 379.421,437.797 379.588,434.131 380.5,430.5 Z"/></g>
<g><path style="opacity:1" fill="#212121" d="M 73.5,433.5 C 77.692,433.177 79.692,435.177 79.5,439.5C 79.3455,449.8 79.1788,460.133 79,470.5C 74.9183,476.976 69.085,479.143 61.5,477C 59.6675,476.252 58.0009,475.252 56.5,474C 61.797,474.438 67.1303,474.438 72.5,474C 75.1019,473.065 76.6019,471.232 77,468.5C 77.8045,462.431 77.4712,456.431 76,450.5C 69.3292,456.54 64.8292,455.207 62.5,446.5C 64.3583,440.641 68.0249,436.308 73.5,433.5 Z"/></g>
<g><path style="opacity:1" fill="#1e1e1e" d="M 468.5,434.5 C 470.729,435.055 472.395,436.389 473.5,438.5C 470.213,439.568 468.546,438.235 468.5,434.5 Z"/></g>
<g><path style="opacity:1" fill="#f5f5f5" d="M 72.5,436.5 C 73.5,436.5 74.5,436.5 75.5,436.5C 75.6653,440.182 75.4986,443.848 75,447.5C 73.3088,451.213 70.4755,452.379 66.5,451C 63.9787,447.518 64.1453,444.018 67,440.5C 69.0153,439.303 70.8487,437.97 72.5,436.5 Z"/></g>
<g><path style="opacity:1" fill="#2d8645" d="M 448.5,437.5 C 453.682,438.116 454.349,439.95 450.5,443C 451.428,443.388 452.095,444.055 452.5,445C 451.767,446.766 451.433,448.599 451.5,450.5C 454.154,451.342 456.821,451.842 459.5,452C 456.527,450.776 455.86,448.776 457.5,446C 458.448,445.517 459.448,445.351 460.5,445.5C 461.011,448.028 461.678,450.528 462.5,453C 461.003,457.282 458.669,457.615 455.5,454C 449.052,453.893 447.052,450.893 449.5,445C 448.643,444.311 447.977,443.478 447.5,442.5C 448.309,440.929 448.643,439.262 448.5,437.5 Z"/></g>
<g><path style="opacity:1" fill="#26803e" d="M 441.5,447.5 C 442.426,450.095 444.093,452.095 446.5,453.5C 446.167,454.5 445.5,455.167 444.5,455.5C 443.503,462.468 443.17,469.468 443.5,476.5C 450.791,475.608 458.124,475.274 465.5,475.5C 465.238,474.022 465.571,472.689 466.5,471.5C 468.592,474.681 470.925,477.681 473.5,480.5C 468.275,489.568 465.609,489.234 465.5,479.5C 457.414,479.199 449.414,479.533 441.5,480.5C 440.504,480.586 439.671,480.252 439,479.5C 438.829,471.656 438.329,463.989 437.5,456.5C 436.167,456.5 434.833,456.5 433.5,456.5C 434.382,453.615 435.716,450.948 437.5,448.5C 438.708,447.766 440.041,447.433 441.5,447.5 Z"/></g>
<g><path style="opacity:1" fill="#318848" d="M 477.5,468.5 C 479.384,468.712 480.717,469.712 481.5,471.5C 479.328,472.205 477.328,473.205 475.5,474.5C 475.167,474 474.833,473.5 474.5,473C 475.315,471.357 476.315,469.857 477.5,468.5 Z"/></g>
<g><path style="opacity:1" fill="#298542" d="M 477.5,474.5 C 480.96,475.26 481.293,476.76 478.5,479C 479.793,479.49 481.127,479.657 482.5,479.5C 482.143,483.395 480.143,484.395 476.5,482.5C 475.025,479.557 475.358,476.891 477.5,474.5 Z"/></g>
<g><path style="opacity:1" fill="#2a8442" d="M 484.5,477.5 C 491.459,479.308 491.792,481.308 485.5,483.5C 484.534,481.604 484.201,479.604 484.5,477.5 Z"/></g>
<g><path style="opacity:1" fill="#2c8544" d="M 441.5,507.5 C 439.024,504.943 439.024,502.609 441.5,500.5C 441.971,501.901 442.638,503.234 443.5,504.5C 453.793,508.888 463.793,508.221 473.5,502.5C 474.394,498.802 475.394,495.135 476.5,491.5C 481.491,488.422 486.658,485.755 492,483.5C 498.145,483.514 503.645,485.348 508.5,489C 515.236,494.327 516.402,500.827 512,508.5C 507.123,513.046 501.956,517.213 496.5,521C 489.795,522.729 484.295,520.895 480,515.5C 478.299,512.07 476.132,509.07 473.5,506.5C 462.914,512.461 452.248,512.794 441.5,507.5 Z"/></g>
<g><path style="opacity:1" fill="#f5f9f7" d="M 489.5,487.5 C 498.044,485.858 504.877,488.524 510,495.5C 510.817,498.964 510.483,502.298 509,505.5C 505.065,510.11 500.565,513.943 495.5,517C 492.833,517.667 490.167,517.667 487.5,517C 483.73,513.903 480.73,510.236 478.5,506C 479.953,504.287 479.786,502.787 478,501.5C 477.333,499.833 477.333,498.167 478,496.5C 481.709,493.285 485.542,490.285 489.5,487.5 Z"/></g>
<g><path style="opacity:1" fill="#2f8745" d="M 488.5,491.5 C 491.798,491.016 494.464,492.016 496.5,494.5C 496.167,495.5 495.5,496.167 494.5,496.5C 489.021,494.138 486.355,495.972 486.5,502C 486.542,503.967 487.042,505.801 488,507.5C 492.771,508.514 497.605,508.514 502.5,507.5C 502.191,510.346 500.525,511.846 497.5,512C 485.885,514.048 481.385,509.215 484,497.5C 484.979,495.032 486.479,493.032 488.5,491.5 Z"/></g>
<g><path style="opacity:1" fill="#0e0e0e" d="M 437.5,456.5 C 438.329,463.989 438.829,471.656 439,479.5C 439.671,480.252 440.504,480.586 441.5,480.5C 441.5,487.167 441.5,493.833 441.5,500.5C 439.024,502.609 439.024,504.943 441.5,507.5C 441.062,519.163 440.728,530.83 440.5,542.5C 442.39,542.297 443.89,542.963 445,544.5C 445.654,547.008 446.821,549.174 448.5,551C 458.167,551.333 467.833,551.667 477.5,552C 478.798,554.395 477.965,555.562 475,555.5C 465.667,554.833 456.333,554.167 447,553.5C 444.028,555.12 441.028,556.787 438,558.5C 435.344,556.514 432.677,554.514 430,552.5C 429.581,548.336 431.081,545.003 434.5,542.5C 437.284,513.942 438.284,485.275 437.5,456.5 Z"/></g>
<g><path style="opacity:1" fill="#161616" d="M 519.5,540.5 C 524.364,540.001 528.864,541.001 533,543.5C 535.26,548.977 533.427,551.977 527.5,552.5C 527.662,554.527 527.495,556.527 527,558.5C 525.667,559.833 524.333,559.833 523,558.5C 522.501,553.511 522.334,548.511 522.5,543.5C 521.5,543.5 520.5,543.5 519.5,543.5C 519.5,542.5 519.5,541.5 519.5,540.5 Z"/></g>
<g><path style="opacity:1" fill="#111111" d="M 483.5,545.5 C 485.827,545.247 487.827,545.914 489.5,547.5C 491.953,544.912 494.119,545.246 496,548.5C 498.505,551.819 499.505,555.486 499,559.5C 498,560.833 497,560.833 496,559.5C 494.984,556.432 493.817,553.432 492.5,550.5C 491.534,552.396 491.201,554.396 491.5,556.5C 490.5,556.5 489.5,556.5 488.5,556.5C 488.327,553.821 487.327,551.487 485.5,549.5C 484.54,553.139 484.54,556.805 485.5,560.5C 484.178,560.67 483.011,560.337 482,559.5C 481.118,554.647 481.618,549.981 483.5,545.5 Z"/></g>
<g><path style="opacity:1" fill="#dbdbdb" d="M 525.5,544.5 C 529.791,545.31 530.291,546.977 527,549.5C 526.392,547.846 525.892,546.179 525.5,544.5 Z"/></g>
<g><path style="opacity:1" fill="#161616" d="M 503.5,554.5 C 504.833,554.5 506.167,554.5 507.5,554.5C 507.201,556.973 506.201,559.14 504.5,561C 504.645,561.772 504.978,562.439 505.5,563C 510.536,564.151 510.536,565.651 505.5,567.5C 500.818,565.766 499.318,562.433 501,557.5C 502.045,556.627 502.878,555.627 503.5,554.5 Z"/></g>
<g><path style="opacity:1" fill="#161616" d="M 537.5,554.5 C 538.995,554.415 539.995,555.081 540.5,556.5C 539.167,558.167 537.833,559.833 536.5,561.5C 539.32,562.382 541.986,563.548 544.5,565C 540.122,568.491 535.956,568.324 532,564.5C 531.477,559.88 533.31,556.547 537.5,554.5 Z"/></g>
<g><path style="opacity:1" fill="#1b1b1b" d="M 516.5,560.5 C 519.244,561.072 520.077,562.738 519,565.5C 517.974,568.693 515.808,570.026 512.5,569.5C 513.79,566.524 515.123,563.524 516.5,560.5 Z"/></g>
</svg>
