<svg width="694" height="502" viewBox="0 0 694 502" fill="none" xmlns="http://www.w3.org/2000/svg">
<rect width="694" height="502" fill="#D9D9D9"/>
<circle cx="321.5" cy="293.5" r="115.5" fill="white" stroke="black" stroke-width="2"/>
<path d="M72.0418 427.714C71.8838 428.243 72.1848 428.8 72.714 428.958L81.3382 431.532C81.8674 431.69 82.4245 431.389 82.5824 430.86C82.7403 430.33 82.4393 429.773 81.9101 429.615L74.2442 427.328L76.5319 419.662C76.6899 419.133 76.3889 418.576 75.8597 418.418C75.3304 418.26 74.7734 418.561 74.6155 419.09L72.0418 427.714ZM321 294L320.525 293.12L72.5246 427.12L73 428L73.4754 428.88L321.475 294.88L321 294Z" fill="black"/>
<path d="M564.278 428.961C564.808 428.807 565.114 428.253 564.961 427.722L562.461 419.076C562.308 418.546 561.753 418.24 561.223 418.393C560.692 418.547 560.386 419.101 560.54 419.632L562.762 427.317L555.076 429.539C554.546 429.692 554.24 430.247 554.393 430.777C554.547 431.308 555.101 431.614 555.632 431.46L564.278 428.961ZM321 294L320.517 294.876L563.517 428.876L564 428L564.483 427.124L321.483 293.124L321 294Z" fill="black"/>
<path d="M321.707 41.2929C321.317 40.9024 320.683 40.9024 320.293 41.2929L313.929 47.6569C313.538 48.0474 313.538 48.6805 313.929 49.0711C314.319 49.4616 314.953 49.4616 315.343 49.0711L321 43.4142L326.657 49.0711C327.047 49.4616 327.681 49.4616 328.071 49.0711C328.462 48.6805 328.462 48.0474 328.071 47.6569L321.707 41.2929ZM321 294H322L322 42H321H320L320 294H321Z" fill="black"/>
<line x1="47.6578" y1="170.652" x2="213.658" y2="251.652" stroke="#2028BE" stroke-width="3"/>
<line x1="437.835" y1="292.509" x2="645.835" y2="269.509" stroke="#2028BE" stroke-width="3"/>
<path d="M70.04 440.24L70.136 440.144H73.176H76.216L76.312 440.24C76.376 440.283 76.4293 440.357 76.472 440.464L79.16 448.08C80.952 453.093 81.848 455.611 81.848 455.632C81.848 455.653 81.8693 455.621 81.912 455.536C81.9973 455.259 82.52 453.2 83.48 449.36C84.568 445.008 85.0907 442.757 85.048 442.608C85.048 442.587 85.016 442.544 84.952 442.48C84.7173 442.117 84.0667 441.936 83 441.936C82.7013 441.936 82.52 441.861 82.456 441.712C82.4347 441.627 82.4667 441.381 82.552 440.976C82.6587 440.571 82.7547 440.325 82.84 440.24L82.936 440.144H83.288C84.5467 440.229 86.2107 440.251 88.28 440.208L90.136 440.144H90.392L90.488 440.24C90.5733 440.325 90.616 440.4 90.616 440.464L90.328 441.744C90.2427 441.872 89.9867 441.936 89.56 441.936C88.856 441.957 88.2587 442.085 87.768 442.32C87.448 442.469 87.2133 442.683 87.064 442.96C87 443.067 86.2 446.213 84.664 452.4C83.0853 458.715 82.296 461.84 82.296 461.776C82.2747 461.819 82.232 461.872 82.168 461.936C82.104 461.979 81.8373 462 81.368 462H80.664L80.568 461.904C80.504 461.861 79.448 458.96 77.4 453.2C75.224 447.056 74.1573 444.037 74.2 444.144L74.04 443.696L72.088 451.408C70.808 456.549 70.168 459.173 70.168 459.28C70.168 459.429 70.1787 459.515 70.2 459.536C70.3707 459.984 71.0533 460.208 72.248 460.208H72.568L72.696 460.304C72.76 460.389 72.792 460.475 72.792 460.56C72.792 460.901 72.6853 461.317 72.472 461.808C72.408 461.936 72.216 461.989 71.896 461.968C71.8107 461.968 71.6507 461.968 71.416 461.968C68.7493 461.883 66.6587 461.893 65.144 462H64.856L64.76 461.904C64.6747 461.819 64.632 461.733 64.632 461.648C64.632 461.307 64.7387 460.891 64.952 460.4C64.9947 460.272 65.1653 460.208 65.464 460.208C66.424 460.208 67.1493 460.048 67.64 459.728C67.8533 459.621 68.024 459.461 68.152 459.248C68.216 459.141 68.9627 456.24 70.392 450.544C71.8 444.848 72.4933 442 72.472 442L71.16 441.936C70.2427 441.936 69.7413 441.861 69.656 441.712C69.6347 441.648 69.6667 441.403 69.752 440.976C69.8587 440.571 69.9547 440.325 70.04 440.24ZM92.2213 457.84C92.7119 457.755 93.1493 457.819 93.5333 458.032C94.2159 458.416 94.4826 459.024 94.3333 459.856C94.2266 460.325 93.9919 460.752 93.6293 461.136C92.9039 461.904 92.1146 462.171 91.2613 461.936C91.0053 461.851 90.7706 461.712 90.5573 461.52C89.9813 460.987 89.8853 460.283 90.2693 459.408C90.5466 458.832 90.9733 458.395 91.5493 458.096C91.8053 457.968 92.0293 457.883 92.2213 457.84ZM103.634 447.888C104.359 447.781 105.095 447.888 105.842 448.208C106.418 448.464 106.855 448.827 107.154 449.296L107.282 449.456L107.41 449.264C107.943 448.624 108.594 448.187 109.362 447.952C110.3 447.696 111.154 447.867 111.922 448.464C112.071 448.571 112.199 448.688 112.306 448.816C112.562 449.115 112.732 449.467 112.818 449.872C113.031 450.576 112.978 451.269 112.658 451.952C112.316 452.677 111.74 453.083 110.93 453.168C110.247 453.232 109.778 452.987 109.522 452.432C109.458 452.325 109.415 452.155 109.394 451.92C109.394 451.557 109.468 451.227 109.618 450.928C109.788 450.544 110.098 450.235 110.546 450C110.738 449.915 110.834 449.851 110.834 449.808C110.748 449.68 110.599 449.563 110.386 449.456C110.279 449.413 110.119 449.392 109.906 449.392C109.692 449.392 109.532 449.413 109.426 449.456C108.892 449.755 108.476 450.32 108.178 451.152L106.322 458.544C106.172 459.205 106.14 459.696 106.226 460.016C106.396 460.592 106.855 460.869 107.602 460.848C107.858 460.827 108.103 460.773 108.338 460.688C109.191 460.368 109.895 459.632 110.45 458.48C110.599 458.181 110.716 457.883 110.802 457.584C110.887 457.307 110.983 457.157 111.09 457.136C111.154 457.115 111.378 457.104 111.762 457.104C112.231 457.104 112.487 457.125 112.53 457.168C112.636 457.253 112.647 457.435 112.562 457.712C112.391 458.416 112.092 459.067 111.666 459.664C110.556 461.285 109.202 462.181 107.602 462.352C107.559 462.352 107.516 462.352 107.474 462.352C106.236 462.416 105.244 462.011 104.498 461.136C104.455 461.115 104.423 461.083 104.402 461.04C104.274 460.891 104.199 460.805 104.178 460.784L103.986 461.008C103.687 461.349 103.388 461.605 103.09 461.776C102.45 462.181 101.82 462.373 101.202 462.352C100.796 462.331 100.391 462.224 99.9858 462.032C99.3031 461.712 98.8551 461.136 98.6418 460.304C98.4071 459.237 98.5991 458.352 99.2178 457.648C99.8151 457.072 100.466 456.891 101.17 457.104C101.426 457.189 101.628 457.317 101.778 457.488C102.183 457.936 102.204 458.533 101.842 459.28C101.65 459.685 101.351 459.995 100.946 460.208C100.754 460.315 100.647 460.368 100.626 460.368C100.626 460.453 100.786 460.581 101.106 460.752C101.191 460.795 101.34 460.816 101.554 460.816C101.767 460.816 101.927 460.795 102.034 460.752C102.567 460.475 102.972 459.92 103.25 459.088L105.17 451.536C105.212 451.323 105.234 451.024 105.234 450.64C105.234 450.341 105.212 450.139 105.17 450.032C104.914 449.477 104.37 449.275 103.538 449.424C102.748 449.573 102.044 450.107 101.426 451.024C101.063 451.6 100.796 452.197 100.626 452.816C100.562 452.944 100.519 453.019 100.498 453.04C100.455 453.083 100.199 453.104 99.7298 453.104H99.0258L98.9298 453.008C98.8658 452.944 98.8338 452.859 98.8338 452.752C98.9191 452.197 99.2178 451.525 99.7298 450.736C99.7511 450.693 99.7724 450.651 99.7938 450.608C100.732 449.136 101.938 448.24 103.41 447.92C103.495 447.92 103.57 447.909 103.634 447.888Z" fill="black"/>
<path d="M35.832 154.152C35.896 154.109 36.1627 154.088 36.632 154.088C37.144 154.088 37.432 154.141 37.496 154.248C37.5387 154.291 37.7413 157.757 38.104 164.648C38.4453 171.517 38.6373 174.973 38.68 175.016C38.744 175.08 38.808 175.112 38.872 175.112C39.1067 175.176 39.6507 175.208 40.504 175.208C40.9093 175.208 41.1333 175.229 41.176 175.272C41.304 175.315 41.368 175.411 41.368 175.56L41.048 176.808C40.9627 176.936 40.7493 176.989 40.408 176.968C40.3227 176.968 40.1413 176.968 39.864 176.968C38.4133 176.883 36.472 176.872 34.04 176.936C33.8267 176.957 33.6453 176.968 33.496 176.968C32.792 176.989 32.3973 176.936 32.312 176.808C32.2693 176.744 32.2907 176.499 32.376 176.072C32.4827 175.624 32.5787 175.357 32.664 175.272C32.728 175.229 32.8987 175.208 33.176 175.208C34.0507 175.208 34.6587 175.123 35 174.952L35.16 174.888V174.632L35.032 172.648C34.9893 171.475 34.9573 170.867 34.936 170.824V170.728H31.672H28.376L27.48 172.36C26.8613 173.469 26.5307 174.12 26.488 174.312C26.3813 174.675 26.6373 174.941 27.256 175.112C27.4267 175.155 27.6187 175.187 27.832 175.208C28.1307 175.208 28.312 175.283 28.376 175.432C28.3973 175.539 28.3547 175.784 28.248 176.168C28.1627 176.573 28.0773 176.819 27.992 176.904L27.896 177H27.48C25.5813 176.893 23.6613 176.883 21.72 176.968C21.2507 176.989 20.984 176.936 20.92 176.808C20.8773 176.744 20.8987 176.499 20.984 176.072C21.112 175.581 21.2293 175.315 21.336 175.272C21.4 175.251 21.56 175.229 21.816 175.208C23.1813 175.144 24.1627 174.685 24.76 173.832C24.888 173.661 26.712 170.376 30.232 163.976L35.576 154.312C35.6613 154.248 35.7467 154.195 35.832 154.152ZM34.648 164.552C34.4773 161.565 34.392 160.061 34.392 160.04V159.848L31.864 164.392L29.368 168.904L32.088 168.936C33.9227 168.936 34.84 168.925 34.84 168.904L34.648 164.552Z" fill="black"/>
<path d="M306.28 271.472C306.856 271.408 307.443 271.429 308.04 271.536C310.088 271.835 311.677 272.848 312.808 274.576C313.192 275.173 313.459 275.717 313.608 276.208C313.992 277.232 314.195 278.331 314.216 279.504C314.237 281.147 313.96 282.8 313.384 284.464C312.595 286.832 311.283 288.944 309.448 290.8C307.784 292.443 305.992 293.573 304.072 294.192C301.299 295.109 298.909 294.843 296.904 293.392C296.605 293.179 296.328 292.944 296.072 292.688C294.323 290.939 293.565 288.528 293.8 285.456C293.949 283.557 294.493 281.659 295.432 279.76C296.797 277.051 298.664 274.928 301.032 273.392C302.717 272.283 304.467 271.643 306.28 271.472ZM307.144 273.104C306.141 272.955 305.117 273.147 304.072 273.68C302.216 274.555 300.712 276.165 299.56 278.512C298.984 279.685 298.493 281.093 298.088 282.736C297.64 284.613 297.416 286.192 297.416 287.472C297.416 288.795 297.619 289.893 298.024 290.768C298.749 292.261 299.869 293.029 301.384 293.072C301.576 293.072 301.779 293.061 301.992 293.04C303.869 292.827 305.587 291.664 307.144 289.552C307.72 288.784 308.221 287.931 308.648 286.992C309.672 284.709 310.344 282.309 310.664 279.792C310.749 278.981 310.749 278.16 310.664 277.328C310.664 277.285 310.664 277.243 310.664 277.2C310.429 275.92 309.992 274.939 309.352 274.256C308.776 273.616 308.04 273.232 307.144 273.104Z" fill="black"/>
<path d="M278.04 353.24L278.136 353.144H283.288L288.472 353.176L288.92 353.24C290.328 353.453 291.459 353.933 292.312 354.68C293.165 355.363 293.688 356.237 293.88 357.304C293.965 357.88 293.944 358.456 293.816 359.032C293.453 360.547 292.419 361.88 290.712 363.032C290.008 363.48 289.272 363.843 288.504 364.12C288.333 364.205 288.237 364.248 288.216 364.248L288.472 364.504C288.92 364.867 289.304 365.347 289.624 365.944C289.859 366.499 289.987 367.053 290.008 367.608C290.008 368.056 289.944 368.813 289.816 369.88C289.709 370.947 289.656 371.779 289.656 372.376C289.656 372.888 289.677 373.219 289.72 373.368C289.848 373.837 290.179 374.115 290.712 374.2C290.989 374.2 291.213 374.125 291.384 373.976C291.704 373.763 292.003 373.176 292.28 372.216C292.365 371.896 292.483 371.715 292.632 371.672C292.717 371.651 292.931 371.64 293.272 371.64C293.72 371.64 293.987 371.693 294.072 371.8C294.157 371.907 294.136 372.141 294.008 372.504C293.475 374.083 292.643 375.096 291.512 375.544C291.363 375.608 291.213 375.651 291.064 375.672C290.915 375.693 290.648 375.704 290.264 375.704C288.067 375.597 286.659 374.904 286.04 373.624C285.869 373.304 285.773 372.888 285.752 372.376C285.752 371.971 285.763 371.715 285.784 371.608C285.891 371.117 286.04 370.456 286.232 369.624C286.595 368.173 286.755 367.256 286.712 366.872C286.627 365.869 286.179 365.219 285.368 364.92L285.144 364.824H283.256H281.4L281.368 364.952C281.368 364.909 281.027 366.275 280.344 369.048C279.683 371.715 279.363 373.048 279.384 373.048C279.491 373.155 280.141 373.208 281.336 373.208H281.976L282.104 373.304C282.168 373.389 282.2 373.475 282.2 373.56C282.2 373.901 282.093 374.317 281.88 374.808C281.816 374.936 281.603 374.989 281.24 374.968C281.155 374.968 280.973 374.968 280.696 374.968C277.496 374.883 275 374.893 273.208 375H272.856L272.76 374.904C272.675 374.819 272.632 374.733 272.632 374.648C272.632 374.307 272.739 373.891 272.952 373.4C273.208 373.272 273.613 373.208 274.168 373.208C275.128 373.187 275.672 373.144 275.8 373.08C275.907 373.016 275.992 372.888 276.056 372.696C276.205 372.269 276.941 369.389 278.264 364.056C279.736 358.168 280.472 355.203 280.472 355.16C280.472 355.096 280.451 355.064 280.408 355.064C280.28 355.021 279.779 354.979 278.904 354.936C278.157 354.936 277.741 354.861 277.656 354.712C277.635 354.648 277.667 354.403 277.752 353.976C277.859 353.571 277.955 353.325 278.04 353.24ZM287.992 355C287.864 354.979 287.213 354.957 286.04 354.936C284.909 354.936 284.248 354.957 284.056 355C283.949 355.043 283.885 355.085 283.864 355.128L281.784 363.32H283.64C285.091 363.299 286.04 363.235 286.488 363.128C287.725 362.851 288.632 362.243 289.208 361.304C289.485 360.835 289.752 360.067 290.008 359C290.2 358.211 290.296 357.603 290.296 357.176C290.296 356.6 290.125 356.141 289.784 355.8C289.571 355.587 289.379 355.448 289.208 355.384C288.931 355.235 288.525 355.107 287.992 355Z" fill="black"/>
<path d="M364.04 155.24L364.136 155.144H369.608C373.363 155.144 375.304 155.155 375.432 155.176C377.267 155.368 378.632 156.115 379.528 157.416C380.509 158.952 380.573 160.68 379.72 162.6C379.592 162.877 379.453 163.144 379.304 163.4C378.643 164.445 377.8 165.32 376.776 166.024C375.453 166.941 374.035 167.485 372.52 167.656C372.392 167.677 371.464 167.688 369.736 167.688H367.272L366.376 171.368C365.736 173.821 365.437 175.048 365.48 175.048C365.587 175.155 366.237 175.208 367.432 175.208H368.072L368.2 175.304C368.264 175.389 368.296 175.475 368.296 175.56C368.296 175.901 368.189 176.317 367.976 176.808C367.912 176.936 367.688 176.989 367.304 176.968C367.219 176.968 367.037 176.968 366.76 176.968C363.581 176.883 361.064 176.893 359.208 177H358.856L358.76 176.904C358.675 176.819 358.632 176.733 358.632 176.648C358.632 176.307 358.739 175.891 358.952 175.4C359.208 175.272 359.613 175.208 360.168 175.208C361.128 175.187 361.672 175.144 361.8 175.08C361.907 175.016 361.992 174.888 362.056 174.696C362.205 174.269 362.941 171.389 364.264 166.056C365.736 160.168 366.472 157.203 366.472 157.16C366.472 157.096 366.451 157.064 366.408 157.064C366.28 157.021 365.779 156.979 364.904 156.936C364.157 156.936 363.741 156.861 363.656 156.712C363.635 156.648 363.667 156.403 363.752 155.976C363.859 155.571 363.955 155.325 364.04 155.24ZM374.632 157.032C374.397 156.989 373.64 156.957 372.36 156.936C371.016 156.936 370.248 156.957 370.056 157C369.949 157.043 369.885 157.085 369.864 157.128C369.843 157.149 369.459 158.632 368.712 161.576C367.965 164.499 367.592 165.971 367.592 165.992C367.592 166.035 368.243 166.056 369.544 166.056C370.952 166.056 371.731 166.045 371.88 166.024C373.416 165.896 374.536 165.341 375.24 164.36C375.581 163.848 375.933 162.899 376.296 161.512C376.552 160.488 376.68 159.709 376.68 159.176C376.701 158.579 376.541 158.099 376.2 157.736C375.816 157.373 375.293 157.139 374.632 157.032ZM393.76 153.128L393.952 153H394.496H395.04L395.135 153.096C395.2 153.16 395.232 153.235 395.232 153.32C395.232 153.384 395.125 153.512 394.912 153.704C394.336 154.259 393.834 154.76 393.408 155.208C390.549 158.387 388.394 162.611 386.944 167.88C386.218 170.461 385.749 172.883 385.536 175.144C385.429 176.403 385.418 177.491 385.504 178.408C385.653 180.691 386.218 182.664 387.2 184.328C387.349 184.584 387.402 184.755 387.36 184.84C387.274 184.947 387.018 185 386.592 185H386.08L385.92 184.872C385.578 184.509 385.162 183.891 384.672 183.016C383.946 181.672 383.477 180.147 383.264 178.44C382.88 175.645 383.157 172.403 384.096 168.712C385.461 163.549 387.616 159.336 390.56 156.072C391.541 154.963 392.565 154.013 393.632 153.224C393.674 153.181 393.717 153.149 393.76 153.128ZM400.357 157.032C400.656 156.925 400.965 156.936 401.285 157.064C401.563 157.171 401.765 157.352 401.893 157.608C402 157.843 401.968 158.291 401.797 158.952C401.733 159.229 401.595 159.816 401.381 160.712C400.933 162.355 400.72 163.165 400.741 163.144C400.741 163.187 401.2 163.208 402.117 163.208H403.493L403.589 163.304C403.717 163.389 403.717 163.667 403.589 164.136C403.525 164.456 403.461 164.68 403.397 164.808C403.333 164.915 403.131 164.979 402.789 165C402.64 165 402.288 165 401.733 165H400.293L400.261 165.128C398.832 170.696 398.085 173.725 398.021 174.216C397.979 174.472 397.957 174.707 397.957 174.92C397.957 175.517 398.128 175.827 398.469 175.848C398.597 175.848 398.747 175.827 398.917 175.784C399.216 175.763 399.536 175.613 399.877 175.336C400.624 174.76 401.243 173.832 401.733 172.552C401.84 172.296 401.957 172.157 402.085 172.136C402.149 172.115 402.363 172.104 402.725 172.104C403.195 172.104 403.451 172.125 403.493 172.168C403.621 172.275 403.621 172.488 403.493 172.808C403.088 173.789 402.608 174.6 402.053 175.24C401.2 176.328 400.219 177 399.109 177.256C398.939 177.299 398.661 177.32 398.277 177.32C397.893 177.32 397.627 177.299 397.477 177.256C396.88 177.085 396.4 176.829 396.037 176.488C395.696 176.147 395.451 175.731 395.301 175.24C395.259 175.069 395.237 174.781 395.237 174.376V173.768L396.325 169.416C397.051 166.557 397.413 165.096 397.413 165.032C397.413 165.011 396.965 165 396.069 165C395.131 165 394.619 164.925 394.533 164.776C394.491 164.712 394.512 164.477 394.597 164.072C394.725 163.645 394.8 163.421 394.821 163.4C394.885 163.272 395.109 163.208 395.493 163.208C395.643 163.208 395.963 163.208 396.453 163.208H397.893L398.501 160.712C398.907 159.069 399.163 158.141 399.269 157.928C399.461 157.501 399.824 157.203 400.357 157.032ZM410.95 153.032C410.993 153.011 411.196 153 411.558 153H412.102L412.262 153.128C412.604 153.491 413.02 154.109 413.51 154.984C414.214 156.307 414.684 157.821 414.918 159.528C415.302 162.365 415.025 165.608 414.086 169.256C412.721 174.44 410.566 178.664 407.622 181.928C406.641 183.037 405.617 183.987 404.55 184.776C404.508 184.819 404.465 184.851 404.422 184.872L404.23 185H403.686H403.142L403.046 184.904C402.982 184.84 402.95 184.765 402.95 184.68C402.95 184.616 403.057 184.488 403.27 184.296C403.91 183.699 404.412 183.187 404.774 182.76C407.633 179.603 409.788 175.379 411.238 170.088C411.942 167.549 412.412 165.139 412.646 162.856C412.753 161.619 412.764 160.52 412.678 159.56C412.529 157.299 411.964 155.336 410.982 153.672C410.854 153.459 410.79 153.341 410.79 153.32C410.79 153.192 410.844 153.096 410.95 153.032Z" fill="black"/>
<path d="M164.936 253.4L165 253.336H173.768C179.656 253.336 182.653 253.4 182.76 253.528C182.803 253.635 182.611 254.915 182.184 257.368C181.715 259.885 181.48 261.155 181.48 261.176C181.416 261.283 181.128 261.336 180.616 261.336C180.104 261.336 179.827 261.272 179.784 261.144C179.741 261.059 179.763 260.739 179.848 260.184C180.168 258.371 180.253 257.144 180.104 256.504C180.083 256.248 179.955 256.024 179.72 255.832C179.528 255.64 179.251 255.48 178.888 255.352C178.44 255.203 177.725 255.128 176.744 255.128C175.741 255.128 175.197 255.192 175.112 255.32L170.696 273.016C170.867 273.123 171.688 273.187 173.16 273.208C174.141 273.208 174.675 273.283 174.76 273.432C174.781 273.496 174.749 273.741 174.664 274.168C174.557 274.573 174.461 274.819 174.376 274.904L174.28 275H173.704C170.931 274.893 167.688 274.883 163.976 274.968C163.144 274.989 162.685 274.925 162.6 274.776C162.579 274.712 162.611 274.467 162.696 274.04C162.803 273.635 162.899 273.389 162.984 273.304L163.08 273.208H164.008C165.395 273.208 166.259 273.176 166.6 273.112C166.835 273.048 166.963 273.016 166.984 273.016C167.091 272.973 167.165 272.909 167.208 272.824C167.357 272.504 168.115 269.571 169.48 264.024C170.952 258.136 171.677 255.192 171.656 255.192C171.592 255.149 171.027 255.128 169.96 255.128C169.192 255.149 168.723 255.181 168.552 255.224C168.04 255.309 167.603 255.448 167.24 255.64C166.856 255.832 166.547 256.045 166.312 256.28C165.779 256.813 165.181 258.083 164.52 260.088C164.264 260.792 164.136 261.155 164.136 261.176C164.051 261.283 163.763 261.336 163.272 261.336C162.76 261.336 162.483 261.272 162.44 261.144C162.397 261.059 162.376 261.005 162.376 260.984L164.808 253.56C164.808 253.496 164.851 253.443 164.936 253.4ZM196.738 252.152C196.802 252.109 197.069 252.088 197.538 252.088C198.05 252.088 198.338 252.141 198.402 252.248C198.445 252.291 198.648 255.757 199.01 262.648C199.352 269.517 199.544 272.973 199.586 273.016C199.65 273.08 199.714 273.112 199.778 273.112C200.013 273.176 200.557 273.208 201.41 273.208C201.816 273.208 202.04 273.229 202.082 273.272C202.21 273.315 202.274 273.411 202.274 273.56L201.954 274.808C201.869 274.936 201.656 274.989 201.314 274.968C201.229 274.968 201.048 274.968 200.77 274.968C199.32 274.883 197.378 274.872 194.946 274.936C194.733 274.957 194.552 274.968 194.402 274.968C193.698 274.989 193.304 274.936 193.218 274.808C193.176 274.744 193.197 274.499 193.282 274.072C193.389 273.624 193.485 273.357 193.57 273.272C193.634 273.229 193.805 273.208 194.082 273.208C194.957 273.208 195.565 273.123 195.906 272.952L196.066 272.888V272.632L195.938 270.648C195.896 269.475 195.864 268.867 195.842 268.824V268.728H192.578H189.282L188.386 270.36C187.768 271.469 187.437 272.12 187.394 272.312C187.288 272.675 187.544 272.941 188.162 273.112C188.333 273.155 188.525 273.187 188.738 273.208C189.037 273.208 189.218 273.283 189.282 273.432C189.304 273.539 189.261 273.784 189.154 274.168C189.069 274.573 188.984 274.819 188.898 274.904L188.802 275H188.386C186.488 274.893 184.568 274.883 182.626 274.968C182.157 274.989 181.89 274.936 181.826 274.808C181.784 274.744 181.805 274.499 181.89 274.072C182.018 273.581 182.136 273.315 182.242 273.272C182.306 273.251 182.466 273.229 182.722 273.208C184.088 273.144 185.069 272.685 185.666 271.832C185.794 271.661 187.618 268.376 191.138 261.976L196.482 252.312C196.568 252.248 196.653 252.195 196.738 252.152ZM195.554 262.552C195.384 259.565 195.298 258.061 195.298 258.04V257.848L192.77 262.392L190.274 266.904L192.994 266.936C194.829 266.936 195.746 266.925 195.746 266.904L195.554 262.552Z" fill="black"/>
<path d="M445.936 303.4L446 303.336H454.768C460.656 303.336 463.653 303.4 463.76 303.528C463.803 303.635 463.611 304.915 463.184 307.368C462.715 309.885 462.48 311.155 462.48 311.176C462.416 311.283 462.128 311.336 461.616 311.336C461.104 311.336 460.827 311.272 460.784 311.144C460.741 311.059 460.763 310.739 460.848 310.184C461.168 308.371 461.253 307.144 461.104 306.504C461.083 306.248 460.955 306.024 460.72 305.832C460.528 305.64 460.251 305.48 459.888 305.352C459.44 305.203 458.725 305.128 457.744 305.128C456.741 305.128 456.197 305.192 456.112 305.32L451.696 323.016C451.867 323.123 452.688 323.187 454.16 323.208C455.141 323.208 455.675 323.283 455.76 323.432C455.781 323.496 455.749 323.741 455.664 324.168C455.557 324.573 455.461 324.819 455.376 324.904L455.28 325H454.704C451.931 324.893 448.688 324.883 444.976 324.968C444.144 324.989 443.685 324.925 443.6 324.776C443.579 324.712 443.611 324.467 443.696 324.04C443.803 323.635 443.899 323.389 443.984 323.304L444.08 323.208H445.008C446.395 323.208 447.259 323.176 447.6 323.112C447.835 323.048 447.963 323.016 447.984 323.016C448.091 322.973 448.165 322.909 448.208 322.824C448.357 322.504 449.115 319.571 450.48 314.024C451.952 308.136 452.677 305.192 452.656 305.192C452.592 305.149 452.027 305.128 450.96 305.128C450.192 305.149 449.723 305.181 449.552 305.224C449.04 305.309 448.603 305.448 448.24 305.64C447.856 305.832 447.547 306.045 447.312 306.28C446.779 306.813 446.181 308.083 445.52 310.088C445.264 310.792 445.136 311.155 445.136 311.176C445.051 311.283 444.763 311.336 444.272 311.336C443.76 311.336 443.483 311.272 443.44 311.144C443.397 311.059 443.376 311.005 443.376 310.984L445.808 303.56C445.808 303.496 445.851 303.443 445.936 303.4ZM467.978 303.24L468.074 303.144H473.77C477.632 303.144 479.637 303.155 479.786 303.176C480.853 303.283 481.76 303.592 482.506 304.104C482.976 304.403 483.36 304.776 483.658 305.224C483.978 305.757 484.192 306.269 484.298 306.76C484.384 307.251 484.384 307.784 484.298 308.36C483.957 310.152 482.805 311.581 480.842 312.648C480.736 312.712 480.629 312.765 480.522 312.808C480.117 313.021 479.562 313.245 478.858 313.48C478.645 313.501 478.538 313.533 478.538 313.576C478.816 313.576 479.2 313.683 479.69 313.896C481.29 314.515 482.24 315.581 482.538 317.096C482.581 317.352 482.602 317.619 482.602 317.896C482.602 319.411 481.93 320.872 480.586 322.28C480.544 322.323 480.501 322.365 480.458 322.408C479.285 323.581 477.888 324.371 476.266 324.776C475.754 324.904 474.826 324.968 473.482 324.968C473.568 324.968 472.074 324.979 469.002 325C464.864 325 462.752 324.968 462.666 324.904C462.645 324.904 462.624 324.861 462.602 324.776C462.56 324.712 462.592 324.467 462.698 324.04C462.805 323.592 462.89 323.347 462.954 323.304L463.05 323.208H464.074C465.056 323.187 465.61 323.144 465.738 323.08C465.845 323.016 465.93 322.888 465.994 322.696C466.144 322.269 466.88 319.389 468.202 314.056C469.674 308.168 470.41 305.203 470.41 305.16C470.41 305.096 470.389 305.064 470.346 305.064C470.218 305.021 469.717 304.979 468.842 304.936C468.096 304.936 467.68 304.861 467.594 304.712C467.573 304.648 467.605 304.403 467.69 303.976C467.797 303.571 467.893 303.325 467.978 303.24ZM479.05 304.968C478.944 304.947 478.112 304.936 476.554 304.936C474.976 304.936 474.09 304.957 473.898 305C473.792 305.043 473.728 305.085 473.706 305.128L472.682 309.032L471.722 312.872H473.962C475.477 312.872 476.33 312.851 476.522 312.808C477.845 312.531 478.922 311.763 479.754 310.504C480.672 309.139 480.949 307.816 480.586 306.536C480.352 305.661 479.84 305.139 479.05 304.968ZM477.034 314.408C476.906 314.387 475.914 314.376 474.058 314.376H471.338L470.282 318.696C469.557 321.555 469.194 323.027 469.194 323.112C469.194 323.155 469.28 323.176 469.45 323.176C469.514 323.197 470.41 323.208 472.138 323.208L474.602 323.176L474.89 323.112C476.426 322.664 477.568 321.683 478.314 320.168C478.634 319.507 478.837 318.803 478.922 318.056C479.072 316.541 478.72 315.453 477.866 314.792C477.61 314.6 477.333 314.472 477.034 314.408Z" fill="black"/>
<path d="M661.072 253.24L661.168 253.144H666.864C670.725 253.144 672.731 253.155 672.88 253.176C673.947 253.283 674.853 253.592 675.6 254.104C676.069 254.403 676.453 254.776 676.752 255.224C677.072 255.757 677.285 256.269 677.392 256.76C677.477 257.251 677.477 257.784 677.392 258.36C677.051 260.152 675.899 261.581 673.936 262.648C673.829 262.712 673.723 262.765 673.616 262.808C673.211 263.021 672.656 263.245 671.952 263.48C671.739 263.501 671.632 263.533 671.632 263.576C671.909 263.576 672.293 263.683 672.784 263.896C674.384 264.515 675.333 265.581 675.632 267.096C675.675 267.352 675.696 267.619 675.696 267.896C675.696 269.411 675.024 270.872 673.68 272.28C673.637 272.323 673.595 272.365 673.552 272.408C672.379 273.581 670.981 274.371 669.36 274.776C668.848 274.904 667.92 274.968 666.576 274.968C666.661 274.968 665.168 274.979 662.096 275C657.957 275 655.845 274.968 655.76 274.904C655.739 274.904 655.717 274.861 655.696 274.776C655.653 274.712 655.685 274.467 655.792 274.04C655.899 273.592 655.984 273.347 656.048 273.304L656.144 273.208H657.168C658.149 273.187 658.704 273.144 658.832 273.08C658.939 273.016 659.024 272.888 659.088 272.696C659.237 272.269 659.973 269.389 661.296 264.056C662.768 258.168 663.504 255.203 663.504 255.16C663.504 255.096 663.483 255.064 663.44 255.064C663.312 255.021 662.811 254.979 661.936 254.936C661.189 254.936 660.773 254.861 660.688 254.712C660.667 254.648 660.699 254.403 660.784 253.976C660.891 253.571 660.987 253.325 661.072 253.24ZM672.144 254.968C672.037 254.947 671.205 254.936 669.648 254.936C668.069 254.936 667.184 254.957 666.992 255C666.885 255.043 666.821 255.085 666.8 255.128L665.776 259.032L664.816 262.872H667.056C668.571 262.872 669.424 262.851 669.616 262.808C670.939 262.531 672.016 261.763 672.848 260.504C673.765 259.139 674.043 257.816 673.68 256.536C673.445 255.661 672.933 255.139 672.144 254.968ZM670.128 264.408C670 264.387 669.008 264.376 667.152 264.376H664.432L663.376 268.696C662.651 271.555 662.288 273.027 662.288 273.112C662.288 273.155 662.373 273.176 662.544 273.176C662.608 273.197 663.504 273.208 665.232 273.208L667.696 273.176L667.984 273.112C669.52 272.664 670.661 271.683 671.408 270.168C671.728 269.507 671.931 268.803 672.016 268.056C672.165 266.541 671.813 265.453 670.96 264.792C670.704 264.6 670.427 264.472 670.128 264.408Z" fill="black"/>
<path d="M571.04 440.24L571.136 440.144H574.176H577.216L577.312 440.24C577.376 440.283 577.429 440.357 577.472 440.464L580.16 448.08C581.952 453.093 582.848 455.611 582.848 455.632C582.848 455.653 582.869 455.621 582.912 455.536C582.997 455.259 583.52 453.2 584.48 449.36C585.568 445.008 586.091 442.757 586.048 442.608C586.048 442.587 586.016 442.544 585.952 442.48C585.717 442.117 585.067 441.936 584 441.936C583.701 441.936 583.52 441.861 583.456 441.712C583.435 441.627 583.467 441.381 583.552 440.976C583.659 440.571 583.755 440.325 583.84 440.24L583.936 440.144H584.288C585.547 440.229 587.211 440.251 589.28 440.208L591.136 440.144H591.392L591.488 440.24C591.573 440.325 591.616 440.4 591.616 440.464L591.328 441.744C591.243 441.872 590.987 441.936 590.56 441.936C589.856 441.957 589.259 442.085 588.768 442.32C588.448 442.469 588.213 442.683 588.064 442.96C588 443.067 587.2 446.213 585.664 452.4C584.085 458.715 583.296 461.84 583.296 461.776C583.275 461.819 583.232 461.872 583.168 461.936C583.104 461.979 582.837 462 582.368 462H581.664L581.568 461.904C581.504 461.861 580.448 458.96 578.4 453.2C576.224 447.056 575.157 444.037 575.2 444.144L575.04 443.696L573.088 451.408C571.808 456.549 571.168 459.173 571.168 459.28C571.168 459.429 571.179 459.515 571.2 459.536C571.371 459.984 572.053 460.208 573.248 460.208H573.568L573.696 460.304C573.76 460.389 573.792 460.475 573.792 460.56C573.792 460.901 573.685 461.317 573.472 461.808C573.408 461.936 573.216 461.989 572.896 461.968C572.811 461.968 572.651 461.968 572.416 461.968C569.749 461.883 567.659 461.893 566.144 462H565.856L565.76 461.904C565.675 461.819 565.632 461.733 565.632 461.648C565.632 461.307 565.739 460.891 565.952 460.4C565.995 460.272 566.165 460.208 566.464 460.208C567.424 460.208 568.149 460.048 568.64 459.728C568.853 459.621 569.024 459.461 569.152 459.248C569.216 459.141 569.963 456.24 571.392 450.544C572.8 444.848 573.493 442 573.472 442L572.16 441.936C571.243 441.936 570.741 441.861 570.656 441.712C570.635 441.648 570.667 441.403 570.752 440.976C570.859 440.571 570.955 440.325 571.04 440.24ZM593.221 457.84C593.712 457.755 594.149 457.819 594.533 458.032C595.216 458.416 595.483 459.024 595.333 459.856C595.227 460.325 594.992 460.752 594.629 461.136C593.904 461.904 593.115 462.171 592.261 461.936C592.005 461.851 591.771 461.712 591.557 461.52C590.981 460.987 590.885 460.283 591.269 459.408C591.547 458.832 591.973 458.395 592.549 458.096C592.805 457.968 593.029 457.883 593.221 457.84ZM603.738 447.92C603.887 447.877 604.122 447.856 604.442 447.856C604.932 447.877 605.359 447.984 605.722 448.176C605.999 448.325 606.212 448.485 606.362 448.656C606.532 448.805 606.692 449.019 606.842 449.296C607.034 449.701 607.119 450.128 607.098 450.576C607.098 451.003 606.959 451.589 606.682 452.336C606.66 452.443 606.618 452.571 606.554 452.72C605.508 455.621 604.986 457.605 604.986 458.672C604.986 458.757 604.986 458.832 604.986 458.896C605.007 459.621 605.178 460.155 605.498 460.496C605.732 460.709 606.052 460.816 606.458 460.816C606.884 460.816 607.258 460.731 607.578 460.56C608.132 460.283 608.612 459.835 609.018 459.216L609.21 458.896L610.394 454.16C611.226 450.853 611.706 449.104 611.834 448.912C611.855 448.869 611.908 448.805 611.994 448.72C612.463 448.251 612.996 448.091 613.594 448.24C614.106 448.411 614.383 448.741 614.426 449.232C614.426 449.381 613.892 451.611 612.826 455.92C611.78 460.101 611.194 462.384 611.066 462.768C610.852 463.472 610.522 464.133 610.074 464.752C609.924 465.008 609.754 465.253 609.562 465.488C609.135 466.021 608.676 466.48 608.186 466.864C607.268 467.632 606.287 468.133 605.242 468.368C604.858 468.475 604.378 468.528 603.802 468.528C603.354 468.528 603.023 468.507 602.81 468.464C601.38 468.144 600.57 467.376 600.378 466.16C600.314 465.627 600.388 465.104 600.602 464.592C600.943 463.888 601.519 463.493 602.33 463.408C603.012 463.344 603.482 463.589 603.738 464.144C603.802 464.251 603.844 464.421 603.866 464.656C603.887 465.211 603.684 465.723 603.258 466.192C603.066 466.341 602.916 466.448 602.81 466.512C602.724 466.555 602.671 466.587 602.65 466.608L603.194 466.928C604.068 467.227 604.954 467.056 605.85 466.416C606.959 465.584 607.802 464.197 608.378 462.256C608.42 462.021 608.463 461.861 608.506 461.776V461.648L608.25 461.776C607.226 462.373 606.095 462.512 604.858 462.192C603.45 461.851 602.586 460.933 602.266 459.44C602.18 458.885 602.18 458.224 602.266 457.456C602.287 457.392 602.298 457.339 602.298 457.296C602.468 456.229 602.97 454.597 603.802 452.4C604.186 451.269 604.399 450.544 604.442 450.224C604.548 449.733 604.495 449.456 604.282 449.392C604.026 449.307 603.727 449.36 603.386 449.552C602.938 449.829 602.586 450.267 602.33 450.864C602.116 451.248 601.882 451.899 601.626 452.816C601.562 452.944 601.519 453.019 601.498 453.04C601.455 453.083 601.199 453.104 600.73 453.104H600.026L599.93 453.008C599.866 452.944 599.834 452.859 599.834 452.752C599.876 452.411 600.058 451.877 600.378 451.152C600.634 450.597 600.9 450.139 601.178 449.776C601.455 449.392 601.807 449.008 602.234 448.624C602.703 448.261 603.204 448.027 603.738 447.92Z" fill="black"/>
<path d="M310.04 12.24L310.136 12.144H313.176H316.216L316.312 12.24C316.376 12.2827 316.429 12.3573 316.472 12.464L319.16 20.08C320.952 25.0933 321.848 27.6107 321.848 27.632C321.848 27.6533 321.869 27.6213 321.912 27.536C321.997 27.2587 322.52 25.2 323.48 21.36C324.568 17.008 325.091 14.7573 325.048 14.608C325.048 14.5867 325.016 14.544 324.952 14.48C324.717 14.1173 324.067 13.936 323 13.936C322.701 13.936 322.52 13.8613 322.456 13.712C322.435 13.6267 322.467 13.3813 322.552 12.976C322.659 12.5707 322.755 12.3253 322.84 12.24L322.936 12.144H323.288C324.547 12.2293 326.211 12.2507 328.28 12.208L330.136 12.144H330.392L330.488 12.24C330.573 12.3253 330.616 12.4 330.616 12.464L330.328 13.744C330.243 13.872 329.987 13.936 329.56 13.936C328.856 13.9573 328.259 14.0853 327.768 14.32C327.448 14.4693 327.213 14.6827 327.064 14.96C327 15.0667 326.2 18.2133 324.664 24.4C323.085 30.7147 322.296 33.84 322.296 33.776C322.275 33.8187 322.232 33.872 322.168 33.936C322.104 33.9787 321.837 34 321.368 34H320.664L320.568 33.904C320.504 33.8613 319.448 30.96 317.4 25.2C315.224 19.056 314.157 16.0373 314.2 16.144L314.04 15.696L312.088 23.408C310.808 28.5493 310.168 31.1733 310.168 31.28C310.168 31.4293 310.179 31.5147 310.2 31.536C310.371 31.984 311.053 32.208 312.248 32.208H312.568L312.696 32.304C312.76 32.3893 312.792 32.4747 312.792 32.56C312.792 32.9013 312.685 33.3173 312.472 33.808C312.408 33.936 312.216 33.9893 311.896 33.968C311.811 33.968 311.651 33.968 311.416 33.968C308.749 33.8827 306.659 33.8933 305.144 34H304.856L304.76 33.904C304.675 33.8187 304.632 33.7333 304.632 33.648C304.632 33.3067 304.739 32.8907 304.952 32.4C304.995 32.272 305.165 32.208 305.464 32.208C306.424 32.208 307.149 32.048 307.64 31.728C307.853 31.6213 308.024 31.4613 308.152 31.248C308.216 31.1413 308.963 28.24 310.392 22.544C311.8 16.848 312.493 14 312.472 14L311.16 13.936C310.243 13.936 309.741 13.8613 309.656 13.712C309.635 13.648 309.667 13.4027 309.752 12.976C309.859 12.5707 309.955 12.3253 310.04 12.24ZM332.221 29.84C332.712 29.7547 333.149 29.8187 333.533 30.032C334.216 30.416 334.483 31.024 334.333 31.856C334.227 32.3253 333.992 32.752 333.629 33.136C332.904 33.904 332.115 34.1707 331.261 33.936C331.005 33.8507 330.771 33.712 330.557 33.52C329.981 32.9867 329.885 32.2827 330.269 31.408C330.547 30.832 330.973 30.3947 331.549 30.096C331.805 29.968 332.029 29.8827 332.221 29.84ZM344.402 19.888L344.978 19.856H345.01C345.628 19.8773 346.247 20.208 346.866 20.848C346.951 20.9333 347.047 21.0293 347.154 21.136C347.602 21.5627 347.975 21.7973 348.274 21.84C348.402 21.8827 348.487 21.8827 348.53 21.84C348.679 21.7973 349.074 21.2213 349.714 20.112C349.799 19.9413 349.959 19.856 350.194 19.856C350.279 19.856 350.428 19.856 350.642 19.856H351.314L351.41 19.952C351.516 20.0587 351.484 20.2613 351.314 20.56C351.292 20.624 351.25 20.7093 351.186 20.816C350.823 21.456 350.354 22.128 349.778 22.832C348.86 23.984 347.591 25.3707 345.97 26.992C344.391 28.528 343.282 29.6693 342.642 30.416L342.29 30.8L342.386 30.832C342.855 30.8533 343.42 30.96 344.082 31.152C344.999 31.3653 345.671 31.472 346.098 31.472C346.46 31.472 346.706 31.4507 346.834 31.408C347.879 31.1307 348.594 30.5653 348.978 29.712C348.999 29.648 349.02 29.584 349.042 29.52C349.127 29.2853 349.244 29.1573 349.394 29.136C349.479 29.1147 349.682 29.104 350.002 29.104C350.428 29.104 350.674 29.1253 350.738 29.168C350.844 29.2533 350.887 29.3813 350.866 29.552C350.716 30.2347 350.407 30.928 349.938 31.632C349.426 32.4 348.86 32.9973 348.242 33.424C347.751 33.7653 347.292 34 346.866 34.128C345.991 34.4267 345.266 34.4267 344.69 34.128C344.412 34 344.05 33.7227 343.602 33.296C343.154 32.848 342.78 32.5493 342.482 32.4C342.204 32.3147 341.906 32.3147 341.586 32.4C341.052 32.592 340.54 33.104 340.05 33.936C339.964 34.1067 339.879 34.2347 339.794 34.32C339.751 34.3413 339.495 34.352 339.026 34.352H338.354L338.258 34.256C338.151 34.1493 338.194 33.9147 338.386 33.552C338.407 33.5093 338.428 33.4667 338.45 33.424C339.346 31.9307 340.775 30.1707 342.738 28.144C343.228 27.6533 343.804 27.0773 344.466 26.416C345.874 25.008 346.77 24.08 347.154 23.632L347.442 23.312L347.25 23.248L346.29 23.024C345.5 22.832 344.935 22.7253 344.594 22.704C343.548 22.6613 342.876 22.9387 342.578 23.536C342.514 23.6853 342.471 23.76 342.45 23.76C342.386 23.824 342.14 23.856 341.714 23.856C341.244 23.856 340.978 23.8347 340.914 23.792C340.764 23.6853 340.786 23.3867 340.978 22.896C341.255 22.192 341.66 21.5947 342.194 21.104C342.855 20.4427 343.591 20.0373 344.402 19.888Z" fill="black"/>
<mask id="path-18-inside-1_14_36" fill="white">
<path d="M438 293.5C438 266.409 428.558 240.165 411.3 219.282C394.041 198.4 370.044 184.185 343.437 179.084C316.831 173.983 289.278 178.313 265.52 191.331C241.761 204.349 223.282 225.24 213.262 250.41L215.424 251.271C225.244 226.604 243.354 206.13 266.638 193.372C289.922 180.615 316.924 176.37 342.999 181.37C369.074 186.369 392.592 200.3 409.506 220.765C426.42 241.23 435.673 266.95 435.673 293.5H438Z"/>
</mask>
<path d="M438 293.5C438 266.409 428.558 240.165 411.3 219.282C394.041 198.4 370.044 184.185 343.437 179.084C316.831 173.983 289.278 178.313 265.52 191.331C241.761 204.349 223.282 225.24 213.262 250.41L215.424 251.271C225.244 226.604 243.354 206.13 266.638 193.372C289.922 180.615 316.924 176.37 342.999 181.37C369.074 186.369 392.592 200.3 409.506 220.765C426.42 241.23 435.673 266.95 435.673 293.5H438Z" fill="white" stroke="#2028BE" stroke-width="10" mask="url(#path-18-inside-1_14_36)"/>
<path d="M293.145 404.518C293.431 404.991 294.046 405.141 294.518 404.855L302.216 400.192C302.688 399.906 302.839 399.291 302.553 398.818C302.267 398.346 301.652 398.195 301.179 398.481L294.337 402.627L290.192 395.784C289.906 395.312 289.291 395.161 288.818 395.447C288.346 395.733 288.195 396.348 288.481 396.821L293.145 404.518ZM321 294L320.029 293.762L293.029 403.762L294 404L294.971 404.238L321.971 294.238L321 294Z" fill="black"/>
<path d="M388.987 200.84C388.898 200.294 388.385 199.924 387.84 200.013L378.956 201.457C378.411 201.545 378.041 202.059 378.129 202.604C378.218 203.149 378.732 203.519 379.277 203.431L387.173 202.147L388.457 210.044C388.545 210.589 389.059 210.959 389.604 210.871C390.149 210.782 390.519 210.268 390.431 209.723L388.987 200.84ZM321 294L321.811 294.585L388.811 201.585L388 201L387.189 200.415L320.189 293.415L321 294Z" fill="black"/>
<line x1="180.315" y1="324.695" x2="246.315" y2="176.695" stroke="black" stroke-width="1.5" stroke-dasharray="5 5"/>
<line x1="441.209" y1="380.552" x2="435.25" y2="208.026" stroke="black" stroke-width="1.5" stroke-dasharray="5 5"/>
<circle cx="50" cy="172" r="5" fill="black"/>
<circle cx="214" cy="251" r="5" fill="black"/>
<circle cx="388" cy="201" r="5" fill="black"/>
<circle cx="646" cy="270" r="5" fill="black"/>
<circle cx="438" cy="293" r="5" fill="black"/>
</svg>
