<svg width="261" height="384" viewBox="0 0 261 384" fill="none" xmlns="http://www.w3.org/2000/svg">
<rect y="22" width="261" height="362" fill="#D9D9D9"/>
<path d="M193.917 216.048C194.447 215.894 194.753 215.34 194.599 214.809L192.099 206.164C191.946 205.633 191.391 205.327 190.861 205.481C190.33 205.634 190.024 206.189 190.178 206.719L192.4 214.404L184.715 216.627C184.185 216.78 183.879 217.335 184.032 217.865C184.186 218.396 184.74 218.701 185.271 218.548L193.917 216.048ZM130 180L129.517 180.876L193.156 215.963L193.639 215.087L194.122 214.211L130.483 179.124L130 180Z" fill="black"/>
<path d="M130.707 59.2929C130.317 58.9024 129.683 58.9024 129.293 59.2929L122.929 65.6568C122.538 66.0474 122.538 66.6805 122.929 67.0711C123.319 67.4616 123.953 67.4616 124.343 67.0711L130 61.4142L135.657 67.0711C136.047 67.4616 136.681 67.4616 137.071 67.0711C137.462 66.6805 137.462 66.0474 137.071 65.6568L130.707 59.2929ZM130 180H131V60H130H129V180H130Z" fill="black"/>
<path d="M69.0418 211.913C68.8838 212.442 69.1848 212.999 69.714 213.157L78.338 215.731C78.8672 215.889 79.4243 215.588 79.5822 215.059C79.7402 214.53 79.4392 213.973 78.91 213.815L71.2442 211.527L73.5324 203.861C73.6904 203.332 73.3894 202.775 72.8602 202.617C72.331 202.459 71.7739 202.76 71.616 203.289L69.0418 211.913ZM129.601 180L129.125 179.12L69.5247 211.319L70 212.199L70.4753 213.079L130.076 180.88L129.601 180Z" fill="black"/>
<path d="M118.28 158.472C118.856 158.408 119.443 158.429 120.04 158.536C122.088 158.835 123.677 159.848 124.808 161.576C125.192 162.173 125.459 162.717 125.608 163.208C125.992 164.232 126.195 165.331 126.216 166.504C126.237 168.147 125.96 169.8 125.384 171.464C124.595 173.832 123.283 175.944 121.448 177.8C119.784 179.443 117.992 180.573 116.072 181.192C113.299 182.109 110.909 181.843 108.904 180.392C108.605 180.179 108.328 179.944 108.072 179.688C106.323 177.939 105.565 175.528 105.8 172.456C105.949 170.557 106.493 168.659 107.432 166.76C108.797 164.051 110.664 161.928 113.032 160.392C114.717 159.283 116.467 158.643 118.28 158.472ZM119.144 160.104C118.141 159.955 117.117 160.147 116.072 160.68C114.216 161.555 112.712 163.165 111.56 165.512C110.984 166.685 110.493 168.093 110.088 169.736C109.64 171.613 109.416 173.192 109.416 174.472C109.416 175.795 109.619 176.893 110.024 177.768C110.749 179.261 111.869 180.029 113.384 180.072C113.576 180.072 113.779 180.061 113.992 180.04C115.869 179.827 117.587 178.664 119.144 176.552C119.72 175.784 120.221 174.931 120.648 173.992C121.672 171.709 122.344 169.309 122.664 166.792C122.749 165.981 122.749 165.16 122.664 164.328C122.664 164.285 122.664 164.243 122.664 164.2C122.429 162.92 121.992 161.939 121.352 161.256C120.776 160.616 120.04 160.232 119.144 160.104Z" fill="black"/>
<mask id="path-6-inside-1_22_141" fill="white">
<path d="M86.3868 347.118C101.164 355.552 116.911 359.567 132.729 358.936C148.548 358.304 164.128 353.037 178.58 343.436L129.5 179.5L86.3868 347.118Z"/>
</mask>
<path d="M86.3868 347.118C101.164 355.552 116.911 359.567 132.729 358.936C148.548 358.304 164.128 353.037 178.58 343.436L129.5 179.5L86.3868 347.118Z" fill="white" stroke="black" stroke-width="2" mask="url(#path-6-inside-1_22_141)"/>
<line x1="130.5" y1="181" x2="130.5" y2="306" stroke="black" stroke-dasharray="5 5"/>
<path d="M110.04 33.24L110.136 33.144H113.176H116.216L116.312 33.24C116.376 33.2827 116.429 33.3573 116.472 33.464L119.16 41.08C120.952 46.0933 121.848 48.6107 121.848 48.632C121.848 48.6533 121.869 48.6213 121.912 48.536C121.997 48.2587 122.52 46.2 123.48 42.36C124.568 38.008 125.091 35.7573 125.048 35.608C125.048 35.5867 125.016 35.544 124.952 35.48C124.717 35.1173 124.067 34.936 123 34.936C122.701 34.936 122.52 34.8613 122.456 34.712C122.435 34.6267 122.467 34.3813 122.552 33.976C122.659 33.5707 122.755 33.3253 122.84 33.24L122.936 33.144H123.288C124.547 33.2293 126.211 33.2507 128.28 33.208L130.136 33.144H130.392L130.488 33.24C130.573 33.3253 130.616 33.4 130.616 33.464L130.328 34.744C130.243 34.872 129.987 34.936 129.56 34.936C128.856 34.9573 128.259 35.0853 127.768 35.32C127.448 35.4693 127.213 35.6827 127.064 35.96C127 36.0667 126.2 39.2133 124.664 45.4C123.085 51.7147 122.296 54.84 122.296 54.776C122.275 54.8187 122.232 54.872 122.168 54.936C122.104 54.9787 121.837 55 121.368 55H120.664L120.568 54.904C120.504 54.8613 119.448 51.96 117.4 46.2C115.224 40.056 114.157 37.0373 114.2 37.144L114.04 36.696L112.088 44.408C110.808 49.5493 110.168 52.1733 110.168 52.28C110.168 52.4293 110.179 52.5147 110.2 52.536C110.371 52.984 111.053 53.208 112.248 53.208H112.568L112.696 53.304C112.76 53.3893 112.792 53.4747 112.792 53.56C112.792 53.9013 112.685 54.3173 112.472 54.808C112.408 54.936 112.216 54.9893 111.896 54.968C111.811 54.968 111.651 54.968 111.416 54.968C108.749 54.8827 106.659 54.8933 105.144 55H104.856L104.76 54.904C104.675 54.8187 104.632 54.7333 104.632 54.648C104.632 54.3067 104.739 53.8907 104.952 53.4C104.995 53.272 105.165 53.208 105.464 53.208C106.424 53.208 107.149 53.048 107.64 52.728C107.853 52.6213 108.024 52.4613 108.152 52.248C108.216 52.1413 108.963 49.24 110.392 43.544C111.8 37.848 112.493 35 112.472 35L111.16 34.936C110.243 34.936 109.741 34.8613 109.656 34.712C109.635 34.648 109.667 34.4027 109.752 33.976C109.859 33.5707 109.955 33.3253 110.04 33.24ZM132.221 50.84C132.712 50.7547 133.149 50.8187 133.533 51.032C134.216 51.416 134.483 52.024 134.333 52.856C134.227 53.3253 133.992 53.752 133.629 54.136C132.904 54.904 132.115 55.1707 131.261 54.936C131.005 54.8507 130.771 54.712 130.557 54.52C129.981 53.9867 129.885 53.2827 130.269 52.408C130.547 51.832 130.973 51.3947 131.549 51.096C131.805 50.968 132.029 50.8827 132.221 50.84ZM144.402 40.888L144.978 40.856H145.01C145.628 40.8773 146.247 41.208 146.866 41.848C146.951 41.9333 147.047 42.0293 147.154 42.136C147.602 42.5627 147.975 42.7973 148.274 42.84C148.402 42.8827 148.487 42.8827 148.53 42.84C148.679 42.7973 149.074 42.2213 149.714 41.112C149.799 40.9413 149.959 40.856 150.194 40.856C150.279 40.856 150.428 40.856 150.642 40.856H151.314L151.41 40.952C151.516 41.0587 151.484 41.2613 151.314 41.56C151.292 41.624 151.25 41.7093 151.186 41.816C150.823 42.456 150.354 43.128 149.778 43.832C148.86 44.984 147.591 46.3707 145.97 47.992C144.391 49.528 143.282 50.6693 142.642 51.416L142.29 51.8L142.386 51.832C142.855 51.8533 143.42 51.96 144.082 52.152C144.999 52.3653 145.671 52.472 146.098 52.472C146.46 52.472 146.706 52.4507 146.834 52.408C147.879 52.1307 148.594 51.5653 148.978 50.712C148.999 50.648 149.02 50.584 149.042 50.52C149.127 50.2853 149.244 50.1573 149.394 50.136C149.479 50.1147 149.682 50.104 150.002 50.104C150.428 50.104 150.674 50.1253 150.738 50.168C150.844 50.2533 150.887 50.3813 150.866 50.552C150.716 51.2347 150.407 51.928 149.938 52.632C149.426 53.4 148.86 53.9973 148.242 54.424C147.751 54.7653 147.292 55 146.866 55.128C145.991 55.4267 145.266 55.4267 144.69 55.128C144.412 55 144.05 54.7227 143.602 54.296C143.154 53.848 142.78 53.5493 142.482 53.4C142.204 53.3147 141.906 53.3147 141.586 53.4C141.052 53.592 140.54 54.104 140.05 54.936C139.964 55.1067 139.879 55.2347 139.794 55.32C139.751 55.3413 139.495 55.352 139.026 55.352H138.354L138.258 55.256C138.151 55.1493 138.194 54.9147 138.386 54.552C138.407 54.5093 138.428 54.4667 138.45 54.424C139.346 52.9307 140.775 51.1707 142.738 49.144C143.228 48.6533 143.804 48.0773 144.466 47.416C145.874 46.008 146.77 45.08 147.154 44.632L147.442 44.312L147.25 44.248L146.29 44.024C145.5 43.832 144.935 43.7253 144.594 43.704C143.548 43.6613 142.876 43.9387 142.578 44.536C142.514 44.6853 142.471 44.76 142.45 44.76C142.386 44.824 142.14 44.856 141.714 44.856C141.244 44.856 140.978 44.8347 140.914 44.792C140.764 44.6853 140.786 44.3867 140.978 43.896C141.255 43.192 141.66 42.5947 142.194 42.104C142.855 41.4427 143.591 41.0373 144.402 40.888Z" fill="black"/>
<path d="M198.04 205.24L198.136 205.144H201.176H204.216L204.312 205.24C204.376 205.283 204.429 205.357 204.472 205.464L207.16 213.08C208.952 218.093 209.848 220.611 209.848 220.632C209.848 220.653 209.869 220.621 209.912 220.536C209.997 220.259 210.52 218.2 211.48 214.36C212.568 210.008 213.091 207.757 213.048 207.608C213.048 207.587 213.016 207.544 212.952 207.48C212.717 207.117 212.067 206.936 211 206.936C210.701 206.936 210.52 206.861 210.456 206.712C210.435 206.627 210.467 206.381 210.552 205.976C210.659 205.571 210.755 205.325 210.84 205.24L210.936 205.144H211.288C212.547 205.229 214.211 205.251 216.28 205.208L218.136 205.144H218.392L218.488 205.24C218.573 205.325 218.616 205.4 218.616 205.464L218.328 206.744C218.243 206.872 217.987 206.936 217.56 206.936C216.856 206.957 216.259 207.085 215.768 207.32C215.448 207.469 215.213 207.683 215.064 207.96C215 208.067 214.2 211.213 212.664 217.4C211.085 223.715 210.296 226.84 210.296 226.776C210.275 226.819 210.232 226.872 210.168 226.936C210.104 226.979 209.837 227 209.368 227H208.664L208.568 226.904C208.504 226.861 207.448 223.96 205.4 218.2C203.224 212.056 202.157 209.037 202.2 209.144L202.04 208.696L200.088 216.408C198.808 221.549 198.168 224.173 198.168 224.28C198.168 224.429 198.179 224.515 198.2 224.536C198.371 224.984 199.053 225.208 200.248 225.208H200.568L200.696 225.304C200.76 225.389 200.792 225.475 200.792 225.56C200.792 225.901 200.685 226.317 200.472 226.808C200.408 226.936 200.216 226.989 199.896 226.968C199.811 226.968 199.651 226.968 199.416 226.968C196.749 226.883 194.659 226.893 193.144 227H192.856L192.76 226.904C192.675 226.819 192.632 226.733 192.632 226.648C192.632 226.307 192.739 225.891 192.952 225.4C192.995 225.272 193.165 225.208 193.464 225.208C194.424 225.208 195.149 225.048 195.64 224.728C195.853 224.621 196.024 224.461 196.152 224.248C196.216 224.141 196.963 221.24 198.392 215.544C199.8 209.848 200.493 207 200.472 207L199.16 206.936C198.243 206.936 197.741 206.861 197.656 206.712C197.635 206.648 197.667 206.403 197.752 205.976C197.859 205.571 197.955 205.325 198.04 205.24ZM220.221 222.84C220.712 222.755 221.149 222.819 221.533 223.032C222.216 223.416 222.483 224.024 222.333 224.856C222.227 225.325 221.992 225.752 221.629 226.136C220.904 226.904 220.115 227.171 219.261 226.936C219.005 226.851 218.771 226.712 218.557 226.52C217.981 225.987 217.885 225.283 218.269 224.408C218.547 223.832 218.973 223.395 219.549 223.096C219.805 222.968 220.029 222.883 220.221 222.84ZM230.738 212.92C230.887 212.877 231.122 212.856 231.442 212.856C231.932 212.877 232.359 212.984 232.722 213.176C232.999 213.325 233.212 213.485 233.362 213.656C233.532 213.805 233.692 214.019 233.842 214.296C234.034 214.701 234.119 215.128 234.098 215.576C234.098 216.003 233.959 216.589 233.682 217.336C233.66 217.443 233.618 217.571 233.554 217.72C232.508 220.621 231.986 222.605 231.986 223.672C231.986 223.757 231.986 223.832 231.986 223.896C232.007 224.621 232.178 225.155 232.498 225.496C232.732 225.709 233.052 225.816 233.458 225.816C233.884 225.816 234.258 225.731 234.578 225.56C235.132 225.283 235.612 224.835 236.018 224.216L236.21 223.896L237.394 219.16C238.226 215.853 238.706 214.104 238.834 213.912C238.855 213.869 238.908 213.805 238.994 213.72C239.463 213.251 239.996 213.091 240.594 213.24C241.106 213.411 241.383 213.741 241.426 214.232C241.426 214.381 240.892 216.611 239.826 220.92C238.78 225.101 238.194 227.384 238.066 227.768C237.852 228.472 237.522 229.133 237.074 229.752C236.924 230.008 236.754 230.253 236.562 230.488C236.135 231.021 235.676 231.48 235.186 231.864C234.268 232.632 233.287 233.133 232.242 233.368C231.858 233.475 231.378 233.528 230.802 233.528C230.354 233.528 230.023 233.507 229.81 233.464C228.38 233.144 227.57 232.376 227.378 231.16C227.314 230.627 227.388 230.104 227.602 229.592C227.943 228.888 228.519 228.493 229.33 228.408C230.012 228.344 230.482 228.589 230.738 229.144C230.802 229.251 230.844 229.421 230.866 229.656C230.887 230.211 230.684 230.723 230.258 231.192C230.066 231.341 229.916 231.448 229.81 231.512C229.724 231.555 229.671 231.587 229.65 231.608L230.194 231.928C231.068 232.227 231.954 232.056 232.85 231.416C233.959 230.584 234.802 229.197 235.378 227.256C235.42 227.021 235.463 226.861 235.506 226.776V226.648L235.25 226.776C234.226 227.373 233.095 227.512 231.858 227.192C230.45 226.851 229.586 225.933 229.266 224.44C229.18 223.885 229.18 223.224 229.266 222.456C229.287 222.392 229.298 222.339 229.298 222.296C229.468 221.229 229.97 219.597 230.802 217.4C231.186 216.269 231.399 215.544 231.442 215.224C231.548 214.733 231.495 214.456 231.282 214.392C231.026 214.307 230.727 214.36 230.386 214.552C229.938 214.829 229.586 215.267 229.33 215.864C229.116 216.248 228.882 216.899 228.626 217.816C228.562 217.944 228.519 218.019 228.498 218.04C228.455 218.083 228.199 218.104 227.73 218.104H227.026L226.93 218.008C226.866 217.944 226.834 217.859 226.834 217.752C226.876 217.411 227.058 216.877 227.378 216.152C227.634 215.597 227.9 215.139 228.178 214.776C228.455 214.392 228.807 214.008 229.234 213.624C229.703 213.261 230.204 213.027 230.738 212.92Z" fill="black"/>
<path d="M63.04 342.24L63.136 342.144H68.608C72.3627 342.144 74.304 342.155 74.432 342.176C76.2667 342.368 77.632 343.115 78.528 344.416C79.5093 345.952 79.5733 347.68 78.72 349.6C78.592 349.877 78.4533 350.144 78.304 350.4C77.6427 351.445 76.8 352.32 75.776 353.024C74.4533 353.941 73.0347 354.485 71.52 354.656C71.392 354.677 70.464 354.688 68.736 354.688H66.272L65.376 358.368C64.736 360.821 64.4373 362.048 64.48 362.048C64.5867 362.155 65.2373 362.208 66.432 362.208H67.072L67.2 362.304C67.264 362.389 67.296 362.475 67.296 362.56C67.296 362.901 67.1893 363.317 66.976 363.808C66.912 363.936 66.688 363.989 66.304 363.968C66.2187 363.968 66.0373 363.968 65.76 363.968C62.5813 363.883 60.064 363.893 58.208 364H57.856L57.76 363.904C57.6747 363.819 57.632 363.733 57.632 363.648C57.632 363.307 57.7387 362.891 57.952 362.4C58.208 362.272 58.6133 362.208 59.168 362.208C60.128 362.187 60.672 362.144 60.8 362.08C60.9067 362.016 60.992 361.888 61.056 361.696C61.2053 361.269 61.9413 358.389 63.264 353.056C64.736 347.168 65.472 344.203 65.472 344.16C65.472 344.096 65.4507 344.064 65.408 344.064C65.28 344.021 64.7787 343.979 63.904 343.936C63.1573 343.936 62.7413 343.861 62.656 343.712C62.6347 343.648 62.6667 343.403 62.752 342.976C62.8587 342.571 62.9547 342.325 63.04 342.24ZM73.632 344.032C73.3973 343.989 72.64 343.957 71.36 343.936C70.016 343.936 69.248 343.957 69.056 344C68.9493 344.043 68.8853 344.085 68.864 344.128C68.8427 344.149 68.4587 345.632 67.712 348.576C66.9653 351.499 66.592 352.971 66.592 352.992C66.592 353.035 67.2427 353.056 68.544 353.056C69.952 353.056 70.7307 353.045 70.88 353.024C72.416 352.896 73.536 352.341 74.24 351.36C74.5813 350.848 74.9333 349.899 75.296 348.512C75.552 347.488 75.68 346.709 75.68 346.176C75.7013 345.579 75.5413 345.099 75.2 344.736C74.816 344.373 74.2933 344.139 73.632 344.032Z" fill="black"/>
<path d="M76.9074 299.12C77.0713 297.684 77.6524 296.669 78.6508 296.075C78.8653 295.934 79.0997 295.842 79.354 295.8C79.754 295.708 80.1601 295.717 80.5722 295.828C81.685 296.126 82.2277 296.779 82.2004 297.788C82.1959 298.052 82.1324 298.289 82.0099 298.499C81.7427 299.002 81.3357 299.202 80.7889 299.099C80.4798 299.017 80.2078 298.877 79.9731 298.682C79.6574 298.377 79.4784 298.097 79.4361 297.842C79.4114 297.77 79.3916 297.72 79.3765 297.694C79.2941 297.672 79.1077 297.832 78.8173 298.174C78.5104 298.577 78.3525 299.043 78.3436 299.571C78.3468 300.3 78.691 300.912 79.3762 301.404C79.622 301.559 79.8891 301.674 80.1776 301.752C80.5183 301.799 80.8035 301.765 81.0332 301.65C81.2367 301.549 81.4961 301.199 81.8115 300.599C82.2068 299.866 82.4994 299.392 82.6893 299.178C83.3539 298.428 84.1782 298.031 85.1622 297.985C85.5195 297.971 85.9455 298.03 86.44 298.162C86.8672 298.299 87.3266 298.521 87.8182 298.83C88.2686 299.127 88.712 299.533 89.1484 300.047C89.5641 300.556 89.8734 301.092 90.0761 301.654C90.3774 302.508 90.4732 303.428 90.3634 304.415C90.2912 305.014 90.1331 305.645 89.8891 306.308C89.8575 306.344 89.8361 306.383 89.8251 306.424C89.252 307.573 88.5751 308.286 87.7942 308.563C87.357 308.711 87.0196 308.775 86.7819 308.756C86.6472 308.764 86.4253 308.726 86.1162 308.643C85.6573 308.543 85.2776 308.353 84.977 308.073C84.4361 307.619 84.1977 307.025 84.2618 306.291C84.2964 306.08 84.3433 305.905 84.4026 305.766C84.6768 305.155 85.1162 304.875 85.7208 304.926C86.3666 304.989 86.8828 305.37 87.2695 306.07C87.3394 306.222 87.3887 306.367 87.4174 306.507L87.483 306.757L87.6564 306.605C88.0387 306.332 88.3298 305.946 88.5297 305.447C88.9761 304.44 89.0178 303.502 88.6547 302.632C88.4052 302.079 87.9757 301.621 87.3659 301.259C87.0679 301.135 86.7691 301.055 86.4696 301.019C85.957 301.036 85.5286 301.275 85.1845 301.735C85.0358 301.96 84.8651 302.268 84.6722 302.658C84.4311 303.145 84.2445 303.471 84.1124 303.634C83.5453 304.432 82.7182 304.84 81.6312 304.858C81.4347 304.849 81.1304 304.79 80.7183 304.679C80.3061 304.569 80.0026 304.465 79.8075 304.369C78.6746 303.734 77.8524 302.929 77.341 301.952C76.905 301.107 76.7605 300.162 76.9074 299.12ZM79.3107 290.15C79.3016 289.772 79.4306 289.332 79.6978 288.829C79.9539 288.368 80.2938 288.006 80.7174 287.744C81.1354 287.503 81.466 287.382 81.7093 287.381L81.8103 287.375L81.6745 287.139C81.2385 286.294 80.9943 285.433 80.9417 284.558C80.8866 283.527 81.2127 282.598 81.9201 281.772C82.5269 281.073 83.3314 280.626 84.3334 280.431C85.1952 280.264 86.1104 280.311 87.0789 280.57C87.5734 280.703 87.9004 280.801 88.0597 280.866C89.8892 281.621 91.396 282.798 92.58 284.396C93.0205 284.978 93.3626 285.556 93.6065 286.129C94.126 287.24 94.3631 288.375 94.3177 289.533C94.2813 290.164 94.1349 290.71 93.8788 291.171C93.5593 291.704 93.1775 292.099 92.7333 292.355L92.459 292.514L96.9888 295.02C97.03 295.031 97.0589 295.005 97.0755 294.943C97.187 294.774 97.3504 294.288 97.5658 293.485C97.6707 293.093 97.7492 292.882 97.8015 292.852C97.8758 292.739 97.9851 292.702 98.1294 292.741L99.252 293.373C99.3536 293.489 99.3526 293.698 99.2492 294.002C99.2271 294.084 99.1857 294.239 99.125 294.466C98.3413 297.06 97.8437 298.959 97.632 300.161L97.5657 300.408L97.4481 300.476C97.3436 300.537 97.2605 300.559 97.1986 300.542L96.0224 299.862C95.9812 299.851 95.9511 299.799 95.9319 299.706L96.0915 298.986L96.0998 298.956C96.2338 298.373 96.2631 298.016 96.1877 297.886C96.1424 297.807 93.882 296.517 89.4065 294.015C84.9254 291.533 82.5668 290.239 82.3306 290.131C81.832 289.931 81.4452 289.85 81.1703 289.886C81.004 289.93 80.8754 290.039 80.7845 290.214C80.7514 290.337 80.7547 290.449 80.7944 290.548C80.897 290.907 81.3246 291.33 82.0771 291.819C82.3379 291.999 82.8707 292.319 83.6755 292.777C83.7826 292.872 83.8436 292.933 83.8587 292.959C83.8889 293.011 83.8432 293.264 83.7218 293.717L83.5396 294.397L83.422 294.465C83.3436 294.511 83.2529 294.519 83.1499 294.492L82.4886 294.116C80.8339 293.12 79.8257 292.143 79.4641 291.185C79.3464 290.8 79.2952 290.455 79.3107 290.15ZM82.6827 283.5C82.5506 283.664 82.4499 283.957 82.3807 284.38C82.3855 285.022 82.6244 285.737 83.0976 286.527C83.4143 287.076 83.7381 287.516 84.0689 287.847C84.1458 287.89 85.1325 288.452 87.029 289.535L89.8593 291.088L90.1458 291.132C91.3193 291.203 92.118 290.943 92.542 290.349C93.0348 289.664 92.9692 288.796 92.3452 287.746C92.0832 287.322 91.7456 286.934 91.3324 286.58C90.8533 286.142 89.8372 285.484 88.284 284.604C86.6484 283.702 85.5009 283.162 84.8415 282.986C84.4088 282.87 84.055 282.83 83.7801 282.867C83.3293 282.901 82.9635 283.112 82.6827 283.5ZM83.5408 274.363C83.5316 273.985 83.6606 273.545 83.9278 273.042C84.0986 272.735 84.3415 272.447 84.6565 272.178C84.9921 271.914 85.3132 271.746 85.6197 271.674L85.8383 271.6L85.6347 271.247C85.3893 270.762 85.216 270.296 85.1149 269.849C84.9427 269.008 85.0234 268.212 85.3568 267.462C85.9534 266.142 86.8344 265.451 87.9998 265.388C88.3365 265.367 88.6773 265.414 89.0221 265.529C89.7885 265.801 90.2937 266.223 90.5377 266.796C90.8651 267.635 90.7839 268.309 90.2941 268.818C90.1042 269.032 89.8718 269.158 89.5969 269.195C89.4773 269.229 89.3014 269.226 89.0692 269.186C88.7189 269.092 88.4188 268.934 88.169 268.713C87.8176 268.376 87.614 268.023 87.5581 267.654C87.5294 267.514 87.4944 267.439 87.4532 267.428C87.313 267.456 87.1369 267.619 86.9249 267.916C86.6235 268.299 86.4814 268.746 86.4987 269.259C86.5678 270.073 87.181 270.999 88.3382 272.038C88.4809 272.164 89.9057 272.988 92.6124 274.508C95.4016 276.051 96.8723 276.909 97.0246 277.082C97.0603 277.113 97.1084 277.182 97.1687 277.286C97.4855 277.835 97.5048 278.381 97.2265 278.925C96.9442 279.401 96.5503 279.594 96.0447 279.503C95.8592 279.453 94.295 278.614 91.3521 276.986C88.4558 275.349 86.869 274.471 86.5915 274.353C86.0723 274.147 85.6753 274.063 85.4004 274.1C85.2341 274.143 85.1055 274.253 85.0146 274.427C84.9814 274.551 84.9847 274.662 85.0245 274.761C85.1135 275.006 85.3083 275.268 85.6089 275.547C86.0483 275.886 86.8138 276.367 87.9056 276.991C88.0126 277.085 88.0737 277.146 88.0888 277.172C88.119 277.224 88.0733 277.477 87.9518 277.931L87.7696 278.611L87.6521 278.678C87.5737 278.724 87.483 278.733 87.3799 278.705L86.6878 278.321C85.0386 277.305 84.0407 276.33 83.6942 275.398C83.5764 275.013 83.5253 274.668 83.5408 274.363ZM81.3147 256.213C81.328 255.421 81.657 254.935 82.3017 254.754C82.5148 254.701 82.7374 254.695 82.9696 254.735C83.2787 254.817 83.5582 254.97 83.808 255.191C84.3404 255.842 84.5615 256.542 84.4713 257.29C84.4106 257.517 84.2852 257.737 84.0953 257.952C83.9371 258.13 83.7075 258.245 83.4065 258.297C83.3075 258.337 83.1316 258.334 82.8788 258.288C82.5491 258.2 82.2772 258.061 82.063 257.871C81.5633 257.428 81.3139 256.875 81.3147 256.213ZM87.2171 260.643C87.2145 260.488 87.2546 260.256 87.3375 259.947C87.4851 259.478 87.6985 259.094 87.9778 258.793C88.1939 258.564 88.4036 258.399 88.6071 258.299C88.7955 258.173 89.043 258.074 89.3496 258.001C89.7908 257.921 90.225 257.949 90.6522 258.085C91.0025 258.179 91.2443 258.266 91.3775 258.346C91.4132 258.377 92.5768 259.186 94.8685 260.772C96.9445 262.256 98.0978 263.062 98.3286 263.19C98.9534 263.578 99.3984 263.731 99.6637 263.647C99.815 263.577 99.8936 263.366 99.8995 263.015C99.9294 262.161 99.1039 261.244 97.423 260.264C97.1209 260.073 96.9734 259.923 96.9804 259.814C96.9763 259.747 97.024 259.528 97.1234 259.157C97.2449 258.703 97.3317 258.462 97.384 258.431C97.4995 258.33 97.7159 258.388 98.0331 258.605C98.776 259.047 99.437 259.589 100.016 260.23C101.032 261.385 101.471 262.508 101.333 263.598C101.316 263.991 101.194 264.366 100.965 264.725C100.731 265.104 100.485 265.402 100.228 265.62C99.7358 265.974 99.1303 266.132 98.4117 266.094C97.998 266.072 97.5914 265.941 97.1918 265.701C97.038 265.616 95.8922 264.823 93.7544 263.323C91.9749 262.051 90.8037 261.229 90.2407 260.857C89.6572 260.48 89.2224 260.33 88.9365 260.408C88.7551 260.426 88.6662 260.634 88.6698 261.033C88.6484 261.689 89.1512 262.409 90.1782 263.193C91.0337 263.709 91.4408 263.962 91.3996 263.951C91.5067 264.045 91.5678 264.106 91.5828 264.132C91.613 264.184 91.5674 264.437 91.4459 264.891L91.2637 265.571L91.1461 265.638C91.0677 265.684 90.977 265.693 90.874 265.665C90.5553 265.535 90.0871 265.222 89.4693 264.725C88.9998 264.334 88.6258 263.958 88.3472 263.596C88.0481 263.229 87.7683 262.79 87.5078 262.278C87.279 261.731 87.1821 261.186 87.2171 260.643ZM89.5745 251.845C89.5653 251.467 89.6944 251.027 89.9616 250.524C90.2177 250.063 90.5576 249.701 90.9811 249.439C91.3731 249.213 91.7271 249.087 92.0432 249.061L92.3236 249.004L92.1735 248.699C91.5248 247.575 91.2596 246.422 91.3778 245.239C91.4323 244.458 91.6249 243.781 91.9554 243.207C92.3355 242.448 92.8487 241.934 93.4949 241.665C93.8442 241.516 94.2751 241.432 94.7877 241.415C94.9842 241.424 95.3297 241.494 95.8242 241.627C96.36 241.77 96.6973 241.872 96.836 241.931C97.9498 242.472 99.6244 243.517 101.86 245.066C102.657 245.633 103.213 245.992 103.526 246.142C104.025 246.342 104.33 246.357 104.441 246.188C104.59 245.963 104.616 245.661 104.519 245.281C104.298 244.538 103.484 243.745 102.075 242.904C101.773 242.712 101.625 242.562 101.632 242.454C101.628 242.387 101.676 242.167 101.775 241.797C101.897 241.343 101.983 241.101 102.036 241.071C102.151 240.97 102.368 241.028 102.685 241.245C103.428 241.687 104.089 242.229 104.668 242.87C105.683 244.025 106.122 245.148 105.985 246.237C105.968 246.63 105.845 247.006 105.617 247.365C105.333 247.929 104.933 248.308 104.418 248.501C103.839 248.765 103.23 248.812 102.591 248.641C102.2 248.536 101.602 248.21 100.799 247.664C98.3497 245.925 96.5748 244.842 95.4746 244.415C95.0021 244.2 94.5357 244.086 94.0754 244.073C93.6246 244.107 93.3118 244.244 93.137 244.484C92.9788 244.663 92.8726 244.977 92.8184 245.426C92.6601 246.841 93.3757 248.292 94.9652 249.778L95.3317 250.141L98.9922 252.182C101.474 253.554 102.758 254.284 102.844 254.374C103.308 254.785 103.499 255.311 103.415 255.951C103.392 256.122 103.34 256.274 103.26 256.407C102.978 256.883 102.584 257.076 102.078 256.985C101.893 256.935 100.329 256.096 97.3858 254.468C94.4895 252.831 92.9027 251.953 92.6253 251.834C92.1061 251.629 91.709 251.545 91.4341 251.581C91.2678 251.625 91.1392 251.734 91.0483 251.909C91.0151 252.032 91.0184 252.144 91.0582 252.243C91.1608 252.602 91.5884 253.025 92.3408 253.514C92.6017 253.694 93.1345 254.014 93.9393 254.472C94.0463 254.567 94.1074 254.628 94.1225 254.654C94.1527 254.706 94.107 254.959 93.9856 255.412L93.8033 256.092L93.6858 256.16C93.6074 256.206 93.5167 256.214 93.4136 256.187L92.7524 255.811C91.0977 254.815 90.0895 253.838 89.7279 252.88C89.6102 252.495 89.559 252.15 89.5745 251.845ZM95.4427 229.945C95.5719 228.721 96.1302 227.832 97.1176 227.28L97.462 227.107L97.3489 226.911C97.0924 226.467 97.0455 226.024 97.2082 225.581C97.3764 225.118 97.6708 224.844 98.0915 224.758C98.3196 224.731 98.6747 224.848 99.1567 225.109C99.6649 225.356 101.706 226.477 105.279 228.473C109.698 230.938 111.926 232.186 111.961 232.218C112.325 232.426 112.675 232.729 113.009 233.128C113.299 233.449 113.584 233.911 113.863 234.516C114.183 235.22 114.382 236.002 114.46 236.863C114.504 237.36 114.497 237.878 114.442 238.415C114.414 238.849 114.261 239.504 113.982 240.379C113.356 242.221 112.545 243.185 111.55 243.272C111.333 243.258 111.152 243.232 111.008 243.193C110.102 242.95 109.57 242.377 109.415 241.474C109.407 241.339 109.399 241.205 109.391 241.07C109.408 240.346 109.69 239.869 110.237 239.641C110.336 239.601 110.443 239.574 110.557 239.561C111.189 239.509 111.736 239.777 112.197 240.364C112.278 240.474 112.324 240.509 112.335 240.468C112.419 240.402 112.588 239.895 112.842 238.947C112.943 238.488 112.96 238.051 112.895 237.636C112.758 236.826 112.37 236.093 111.729 235.435C111.678 235.377 111.617 235.317 111.545 235.254C111.311 235.058 110.647 234.649 109.556 234.025L108.087 233.2L108.19 233.559C108.558 234.74 108.545 235.819 108.151 236.795C107.484 238.295 106.293 239.114 104.578 239.25C104.054 239.309 103.519 239.287 102.972 239.185C102.414 239.123 101.853 238.951 101.288 238.667C99.0743 237.698 97.4182 236.172 96.3199 234.089C95.8085 233.113 95.5094 232.127 95.4227 231.132C95.3929 230.749 95.3996 230.353 95.4427 229.945ZM97.0633 229.584C96.7037 230.349 96.8366 231.213 97.4621 232.176C97.6788 232.521 97.9506 232.826 98.2773 233.09C98.7715 233.554 99.8617 234.265 101.548 235.225C102.917 235.967 103.932 236.427 104.591 236.604C105.044 236.725 105.435 236.752 105.762 236.685C106.437 236.557 106.845 236.147 106.986 235.456C107.142 234.46 106.662 233.283 105.547 231.924L105.318 231.664L102.572 230.166C100.727 229.141 99.6981 228.612 99.4865 228.577C99.4604 228.592 99.3491 228.595 99.1526 228.587C98.5781 228.588 98.095 228.701 97.7031 228.927C97.4212 229.073 97.2079 229.292 97.0633 229.584Z" fill="black"/>
<path d="M22.04 201.24L22.136 201.144H25.176H28.216L28.312 201.24C28.376 201.283 28.4293 201.357 28.472 201.464L31.16 209.08C32.952 214.093 33.848 216.611 33.848 216.632C33.848 216.653 33.8693 216.621 33.912 216.536C33.9973 216.259 34.52 214.2 35.48 210.36C36.568 206.008 37.0907 203.757 37.048 203.608C37.048 203.587 37.016 203.544 36.952 203.48C36.7173 203.117 36.0667 202.936 35 202.936C34.7013 202.936 34.52 202.861 34.456 202.712C34.4347 202.627 34.4667 202.381 34.552 201.976C34.6587 201.571 34.7547 201.325 34.84 201.24L34.936 201.144H35.288C36.5467 201.229 38.2107 201.251 40.28 201.208L42.136 201.144H42.392L42.488 201.24C42.5733 201.325 42.616 201.4 42.616 201.464L42.328 202.744C42.2427 202.872 41.9867 202.936 41.56 202.936C40.856 202.957 40.2587 203.085 39.768 203.32C39.448 203.469 39.2133 203.683 39.064 203.96C39 204.067 38.2 207.213 36.664 213.4C35.0853 219.715 34.296 222.84 34.296 222.776C34.2747 222.819 34.232 222.872 34.168 222.936C34.104 222.979 33.8373 223 33.368 223H32.664L32.568 222.904C32.504 222.861 31.448 219.96 29.4 214.2C27.224 208.056 26.1573 205.037 26.2 205.144L26.04 204.696L24.088 212.408C22.808 217.549 22.168 220.173 22.168 220.28C22.168 220.429 22.1787 220.515 22.2 220.536C22.3707 220.984 23.0533 221.208 24.248 221.208H24.568L24.696 221.304C24.76 221.389 24.792 221.475 24.792 221.56C24.792 221.901 24.6853 222.317 24.472 222.808C24.408 222.936 24.216 222.989 23.896 222.968C23.8107 222.968 23.6507 222.968 23.416 222.968C20.7493 222.883 18.6587 222.893 17.144 223H16.856L16.76 222.904C16.6747 222.819 16.632 222.733 16.632 222.648C16.632 222.307 16.7387 221.891 16.952 221.4C16.9947 221.272 17.1653 221.208 17.464 221.208C18.424 221.208 19.1493 221.048 19.64 220.728C19.8533 220.621 20.024 220.461 20.152 220.248C20.216 220.141 20.9627 217.24 22.392 211.544C23.8 205.848 24.4933 203 24.472 203L23.16 202.936C22.2427 202.936 21.7413 202.861 21.656 202.712C21.6347 202.648 21.6667 202.403 21.752 201.976C21.8587 201.571 21.9547 201.325 22.04 201.24ZM44.2213 218.84C44.7119 218.755 45.1493 218.819 45.5333 219.032C46.2159 219.416 46.4826 220.024 46.3333 220.856C46.2266 221.325 45.9919 221.752 45.6293 222.136C44.9039 222.904 44.1146 223.171 43.2613 222.936C43.0053 222.851 42.7706 222.712 42.5573 222.52C41.9813 221.987 41.8853 221.283 42.2693 220.408C42.5466 219.832 42.9733 219.395 43.5493 219.096C43.8053 218.968 44.0293 218.883 44.2213 218.84ZM55.6338 208.888C56.3591 208.781 57.0951 208.888 57.8418 209.208C58.4178 209.464 58.8551 209.827 59.1538 210.296L59.2818 210.456L59.4098 210.264C59.9431 209.624 60.5938 209.187 61.3618 208.952C62.3004 208.696 63.1538 208.867 63.9218 209.464C64.0711 209.571 64.1991 209.688 64.3058 209.816C64.5618 210.115 64.7324 210.467 64.8178 210.872C65.0311 211.576 64.9778 212.269 64.6578 212.952C64.3164 213.677 63.7404 214.083 62.9298 214.168C62.2471 214.232 61.7778 213.987 61.5218 213.432C61.4578 213.325 61.4151 213.155 61.3938 212.92C61.3938 212.557 61.4684 212.227 61.6178 211.928C61.7884 211.544 62.0978 211.235 62.5458 211C62.7378 210.915 62.8338 210.851 62.8338 210.808C62.7484 210.68 62.5991 210.563 62.3858 210.456C62.2791 210.413 62.1191 210.392 61.9058 210.392C61.6924 210.392 61.5324 210.413 61.4258 210.456C60.8924 210.755 60.4764 211.32 60.1778 212.152L58.3218 219.544C58.1724 220.205 58.1404 220.696 58.2258 221.016C58.3964 221.592 58.8551 221.869 59.6018 221.848C59.8578 221.827 60.1031 221.773 60.3378 221.688C61.1911 221.368 61.8951 220.632 62.4498 219.48C62.5991 219.181 62.7164 218.883 62.8018 218.584C62.8871 218.307 62.9831 218.157 63.0898 218.136C63.1538 218.115 63.3778 218.104 63.7618 218.104C64.2311 218.104 64.4871 218.125 64.5298 218.168C64.6364 218.253 64.6471 218.435 64.5618 218.712C64.3911 219.416 64.0924 220.067 63.6658 220.664C62.5564 222.285 61.2018 223.181 59.6018 223.352C59.5591 223.352 59.5164 223.352 59.4738 223.352C58.2364 223.416 57.2444 223.011 56.4978 222.136C56.4551 222.115 56.4231 222.083 56.4018 222.04C56.2738 221.891 56.1991 221.805 56.1778 221.784L55.9858 222.008C55.6871 222.349 55.3884 222.605 55.0898 222.776C54.4498 223.181 53.8204 223.373 53.2018 223.352C52.7964 223.331 52.3911 223.224 51.9858 223.032C51.3031 222.712 50.8551 222.136 50.6418 221.304C50.4071 220.237 50.5991 219.352 51.2178 218.648C51.8151 218.072 52.4658 217.891 53.1698 218.104C53.4258 218.189 53.6284 218.317 53.7778 218.488C54.1831 218.936 54.2044 219.533 53.8418 220.28C53.6498 220.685 53.3511 220.995 52.9458 221.208C52.7538 221.315 52.6471 221.368 52.6258 221.368C52.6258 221.453 52.7858 221.581 53.1058 221.752C53.1911 221.795 53.3404 221.816 53.5538 221.816C53.7671 221.816 53.9271 221.795 54.0338 221.752C54.5671 221.475 54.9724 220.92 55.2498 220.088L57.1698 212.536C57.2124 212.323 57.2338 212.024 57.2338 211.64C57.2338 211.341 57.2124 211.139 57.1698 211.032C56.9138 210.477 56.3698 210.275 55.5378 210.424C54.7484 210.573 54.0444 211.107 53.4258 212.024C53.0631 212.6 52.7964 213.197 52.6258 213.816C52.5618 213.944 52.5191 214.019 52.4978 214.04C52.4551 214.083 52.1991 214.104 51.7298 214.104H51.0258L50.9298 214.008C50.8658 213.944 50.8338 213.859 50.8338 213.752C50.9191 213.197 51.2178 212.525 51.7298 211.736C51.7511 211.693 51.7724 211.651 51.7938 211.608C52.7324 210.136 53.9378 209.24 55.4098 208.92C55.4951 208.92 55.5698 208.909 55.6338 208.888Z" fill="black"/>
<path d="M140.08 266.32C138.715 266.32 137.595 265.829 136.72 264.848C135.867 263.867 135.44 262.405 135.44 260.464C135.44 259.163 135.568 257.925 135.824 256.752C136.08 255.557 136.453 254.459 136.944 253.456C137.435 252.453 138.021 251.589 138.704 250.864C139.387 250.117 140.144 249.541 140.976 249.136C141.829 248.731 142.747 248.528 143.728 248.528C144.603 248.528 145.307 248.656 145.84 248.912C146.395 249.147 146.843 249.499 147.184 249.968C147.547 250.416 147.877 250.949 148.176 251.568H148.336L149.648 248.848H151.504L148.752 261.712C148.688 261.989 148.635 262.256 148.592 262.512C148.549 262.747 148.528 262.96 148.528 263.152C148.528 263.429 148.592 263.643 148.72 263.792C148.848 263.941 149.083 264.016 149.424 264.016C149.573 264.016 149.723 264.005 149.872 263.984C150.043 263.963 150.213 263.92 150.384 263.856L149.936 265.904C149.829 265.968 149.669 266.032 149.456 266.096C149.243 266.16 149.008 266.213 148.752 266.256C148.517 266.299 148.283 266.32 148.048 266.32C147.6 266.32 147.205 266.224 146.864 266.032C146.523 265.861 146.267 265.531 146.096 265.04C145.925 264.528 145.861 263.792 145.904 262.832H145.776C145.392 263.344 144.987 263.813 144.56 264.24C144.133 264.667 143.685 265.04 143.216 265.36C142.747 265.659 142.245 265.893 141.712 266.064C141.2 266.235 140.656 266.32 140.08 266.32ZM141.04 263.984C141.616 263.984 142.181 263.824 142.736 263.504C143.312 263.163 143.856 262.693 144.368 262.096C144.901 261.499 145.371 260.816 145.776 260.048C146.181 259.28 146.512 258.469 146.768 257.616C146.939 256.997 147.056 256.411 147.12 255.856C147.184 255.28 147.216 254.768 147.216 254.32C147.216 253.317 146.949 252.496 146.416 251.856C145.883 251.216 145.093 250.896 144.048 250.896C143.387 250.896 142.757 251.067 142.16 251.408C141.584 251.749 141.061 252.229 140.592 252.848C140.123 253.445 139.717 254.149 139.376 254.96C139.035 255.771 138.768 256.645 138.576 257.584C138.405 258.523 138.32 259.493 138.32 260.496C138.32 261.669 138.555 262.544 139.024 263.12C139.515 263.696 140.187 263.984 141.04 263.984Z" fill="black"/>
<path d="M147.583 243.331C142.486 244.912 137.217 245.798 131.904 245.969L131.813 242.847C136.87 242.684 141.886 241.84 146.738 240.336L147.583 243.331Z" fill="black"/>
<circle cx="88" cy="347" r="5" fill="black"/>
<path d="M87.3558 342.384C87.5679 342.74 88.0283 342.856 88.384 342.644L94.1819 339.188C94.5377 338.976 94.6542 338.515 94.4421 338.16C94.23 337.804 93.7696 337.687 93.4138 337.899L88.2602 340.972L85.1878 335.818C84.9757 335.462 84.5153 335.346 84.1595 335.558C83.8037 335.77 83.6873 336.23 83.8994 336.586L87.3558 342.384ZM130 176L129.273 175.816L87.2729 341.816L88 342L88.7271 342.184L130.727 176.184L130 176Z" fill="black"/>
</svg>
