<svg overflow="hidden" version="1.1" viewBox="0 0 490.73743 314.58493" xmlns="http://www.w3.org/2000/svg">
 <g transform="matrix(.51776864 0 0 .51776864 -8.1380774e-6 -499.76806)">
  <g transform="matrix(.47667288 0 0 .47667288 8.2254433e-6 823.19857)">
   <g transform="matrix(.90250556 0 0 .90250556 1.532378e-6 153.35968)">
    <g transform="matrix(.93715297 0 0 .93715297 9.8780419e-7 98.858987)">
     <g transform="matrix(.95836476 0 0 .95836476 6.5440581e-7 65.492632)">
      <path d="m20.0046 1218.8657c-43.375-166.5516-26.52-492.02195 154.563-542.84074 157.999-44.34641 346.758 53.91994 448.209 89.42307 96.55 33.81251 179.97 80.49977 296.81 78.06888 120.67-2.52094 176.79-72.27674 269.72-76.94846 38.48-1.93072 68.95 13.67505 110.35 43.50609-11.6 447.30546-1131.259 402.31876-1279.652 408.79116z" fill="#edfaa9" stroke-width="1.00019"/>
      <path d="m958.3966 875.03856c114.01-1.23045 255.68-121.3949 343.17-63.66354 87.51 57.75136 97.68 175.26482 98.44 190.70058 2.23 45.1967-7.31 132.2889-82.43 225.9335-85.62 108.12-188.77 141.6424-248.38 137.781-81.36-5.262-197.38-111.8814-279.51-120.4746-142.44-14.8955-268.752 135.23-454.598 238.9884-38.333 21.3979-78.316 45.0667-143.896 30.0511-74.445-17.0563-134.659-138.8313-166.449-277.2425-36.392-158.4386-6.811-414.41329 99.085-495.37324 73.979-56.55091 158.749-50.2886 230.363-40.72506 116.588 15.58576 236.975 76.18818 335.375 109.7706s154.82 65.48422 268.83 64.25376z" fill="#a2cc60" stroke-width="1.00019"/>
      <path d="m1820.8696 1107.0314c-197.77 7.7629-265.65-224.80313-273.13-247.22142-13.99-41.86548-31.68-141.19222 43.12-225.17328 90.64-101.74764 194.16-136.85062 252.68-231.75472 53.12-86.13286 21.37-237.43282 68.1-324.464009 47.26-88.0215555 158.58-88.700807 240.58-65.591259 297.94 83.971057-291.06 1078.608888-331.35 1094.204688z" fill="#39e2ee" stroke-width="1.00019"/>
      <path d="m1874.3296 1103.4401c44.49-13.2849 71.9-56.9211 91.06-89.3431 53.67-90.87357 50-212.75865 147.62-325.40031 73.64-84.95142 253.96-137.45084 313.02-233.12322 54.75-88.6678 20.41-220.37751-50.98-312.67565-49.49-63.99567-135.54-110.328806-207.02-126.622833-66.71-15.2096255-145.12-11.9154071-197.55 55.807641-52.94 68.389292-28.24 226.335712-72.17 330.016062-46.31 109.30243-211.02 172.24571-284.97 282.69656-91.5 136.64054 103.45 465.63225 260.99 418.64485z" fill="#31ced2" stroke-width="1.00019"/>
      <path d="m1144.9996 1071.0009c0-14.36 11.64-26 26-26s26 11.64 26 26-11.64 26-26 26-26-11.64-26-26z" fill="#008000" fill-rule="evenodd"/>
      <path d="m1176.266 1066.902-143.5759-88.53564-5.4128 8.77778 143.5759 88.53566zm-133.7736-94.60662-52.00844-13.89755 35.76924 40.23038z" fill="#008000"/>
      <path d="m1168.4168 1070.9185-11.4113 157.5698 10.2858 0.7445 11.4111-157.5695zm-21.324 151.6815 11.704 52.545 19.1527-50.3105z" fill="#008000"/>
      <path d="m1171.0896 1066.2309 136.39-57.02 3.98 9.51-136.39 57.03zm127.65-64.55 53.54-5.62002-41.6 34.16002z" fill="#008000"/>
      <path d="m1784.9696 823.21088c7.86-12.01 23.97-15.37 35.98-7.52 12 7.86 15.37 23.97 7.51 35.98-7.86 12-23.96 15.37-35.97 7.51s-15.37-23.96-7.52-35.97z" fill="#4472c4" fill-rule="evenodd"/>
      <path d="m1813.7373 836.83011-71.6679-152.6968-9.3354 4.38157 71.6679 152.69677zm-60.1415-152.40997-35.911-40.10511 7.9045 53.2489z" fill="#4472c4"/>
      <path d="m1804.9701 835.89345-95.8218 125.60514 8.1994 6.25477 95.8214-125.60505zm-100.8927 115.25047-18.9757 50.37738 43.5729-31.61289z" fill="#4472c4"/>
      <path d="m1809.7596 833.43088 145.36 26.96-1.88 10.14-145.36-26.96zm142.17 15.88 47.88 24.61-53.52 5.81z" fill="#4472c4"/>
      <text x="798.3396" y="1427.0009" fill="#008000" font-family="Calibri, Calibri_MSFontService, sans-serif" font-size="79.9784px" font-weight="400">parent_point</text>
      <text x="611.69263" y="739.9693" fill="#008000" font-family="Calibri, Calibri_MSFontService, sans-serif" font-size="79.9784px" font-weight="400">parent_interframe</text>
      <path d="m1023.4996 1333.9609c0-131.23 61.01-262.46 122.01-262.46" fill="none" fill-rule="evenodd" stroke="#008000" stroke-miterlimit="8" stroke-width="6.875"/>
      <text x="1739.4396" y="665.00085" fill="#0070c0" font-family="Calibri, Calibri_MSFontService, sans-serif" font-size="79.9784px" font-weight="400">child_point</text>
      <path d="m1936.7596 705.50088c0 27.78-28.82 55.55-57.63 55.55-28.82 0-57.63 27.78-57.63 55.55" fill="none" fill-rule="evenodd" stroke="#0070c0" stroke-miterlimit="8" stroke-width="6.875"/>
      <text x="32.089569" y="1254.0009" fill="#008000" font-family="Calibri, Calibri_MSFontService, sans-serif" font-size="79.9784px" font-weight="400">p<tspan x="75.631371" y="1254.0009" font-size="79.9784px">arent.masscenter</tspan></text>
      <path d="m360.49956 1160.8209c0-17.83 47.23-35.66 94.47-35.66 47.23 0 94.47-17.83 94.47-35.66" fill="none" fill-rule="evenodd" stroke="#008000" stroke-miterlimit="8" stroke-width="6.875"/>
      <text x="1298.9996" y="269.00089" fill="#0070c0" font-family="Calibri, Calibri_MSFontService, sans-serif" font-size="79.9784px" font-weight="400">child.masscenter</text>
      <text x="1060.5278" y="577.86377" fill="#0070c0" font-family="Calibri, Calibri_MSFontService, sans-serif" font-size="79.9784px" font-weight="400">child_interframe</text>
      <path d="m2056.6296 420.21088c0-27.9263-117.782-55.853-235.565-55.853-117.782 0-235.564-27.9263-235.564-55.853" fill="none" fill-rule="evenodd" stroke="#0070c0" stroke-miterlimit="8" stroke-width="6.875"/>
      <path d="m535.99956 1056.5009c0-25.13 20.37-45.5 45.5-45.5s45.5 20.37 45.5 45.5-20.37 45.5-45.5 45.5-45.5-20.37-45.5-45.5z" fill-rule="evenodd" stroke="#000000" stroke-miterlimit="8" stroke-width="13.75"/>
      <path d="m535.99956 1056.5009c0-25.13 20.37-45.5 45.5-45.5v45.5z" fill="#ffffff" fill-rule="evenodd"/>
      <path d="m626.99956 1056.5009c0 25.13-20.37 45.5-45.5 45.5v-45.5z" fill="#ffffff" fill-rule="evenodd"/>
      <path d="m587.32553 1060.1028 65.16231-155.58436-9.51194-3.9838-65.16231 155.58436zm72.68203-146.84391 5.65139-53.53582-34.18683 41.5835z" fill="#008000"/>
      <path d="m582.13874 1052.9727-157.43014 13.1996 0.86196 10.2766 157.42982-13.1998zm-153.15292 2.4926-50.08957 19.7229 52.67464 11.1064z" fill="#008000"/>
      <path d="m587.17956 1054.8809 77.51 125.88-8.78 5.41-77.52-125.88zm83.59 116.09 13.87 52.01-40.21-35.79z" fill="#008000"/>
      <path d="m2042.9996 452.50088c0-25.13 20.37-45.5 45.5-45.5s45.5 20.37 45.5 45.5-20.37 45.5-45.5 45.5-45.5-20.37-45.5-45.5z" fill-rule="evenodd" stroke="#000000" stroke-miterlimit="8" stroke-width="13.75"/>
      <path d="m2042.9996 452.50088c0-25.13 20.37-45.5 45.5-45.5v45.5z" fill="#ffffff" fill-rule="evenodd"/>
      <path d="m2133.9996 452.50088c0 25.13-20.37 45.5-45.5 45.5v-45.5z" fill="#ffffff" fill-rule="evenodd"/>
      <path d="m2091.9246 455.69085 97.1581-137.88717-8.4299-5.93993-97.1582 137.88716zm102.6177-127.73165 17.055-51.06021-42.3444 33.23961z" fill="#4472c4"/>
      <path d="m2088.3961 447.61054-156.5757-21.03508-1.3728 10.22096 156.5755 21.0348zm-150.0918-30.56878-53.1628 8.46573 49.0438 22.19632z" fill="#4472c4"/>
      <path d="m2092.9096 450.56088 48.57 139.63-9.74 3.39-48.57-139.63zm56.62 131.37 2.33 53.78-31.55-43.61z" fill="#4472c4"/>
      <text x="121.27957" y="829.00085" fill="#008000" font-family="Calibri, Calibri_MSFontService, sans-serif" font-size="79.9784px" font-weight="400">parent.frame</text>
      <path d="m623.71956 933.28088c-140.11 0-280.22-32.39-280.22-64.78" fill="none" fill-rule="evenodd" stroke="#008000" stroke-miterlimit="8" stroke-width="6.875"/>
      <text x="1969.1996" y="224.00087" fill="#0070c0" font-family="Calibri, Calibri_MSFontService, sans-serif" font-size="79.9784px" font-weight="400">child.frame</text>
      <path d="m2157.6996 331.19388c0-21.9231-10.551-43.8463-21.1021-43.8463s-21.1021-21.9231-21.1021-43.8462" fill="none" fill-rule="evenodd" stroke="#0070c0" stroke-miterlimit="8" stroke-width="6.875"/>
      <path d="m1819.9596 889.15088 79.21 75.27-28.23 11.25c26.05 175.84002-62.13 334.15002-209.87 376.76002 118.81-61.48 182.66-203.91 159.99-356.89002l-28.23 11.25002z" fill="#ff0000" fill-rule="evenodd"/>
      <path d="m1636.6196 1363.5909c-163.71 65.23-358.21-36.99-434.44-228.31l49.87-19.87c76.23 191.32 270.73 293.54 434.44 228.31z" fill="#cd0000" fill-rule="evenodd"/>
      <text transform="rotate(-26.560772)" x="584.57178" y="2035.1802" fill="#ff0000" font-family="Calibri, Calibri_MSFontService, sans-serif" font-size="79.9784px" font-weight="400">joint transformation</text>
      <path d="m1730.4896 710.19088c-186.99 0-373.99-45.84-373.99-91.69" fill="none" fill-rule="evenodd" stroke="#0070c0" stroke-miterlimit="8" stroke-width="6.875"/>
      <path d="m1068.0996 986.17088c0-50.9164-35.1491-101.833-70.29794-101.833-35.1491 0-70.2981-50.916-70.2981-101.833" fill="none" fill-rule="evenodd" stroke="#008000" stroke-miterlimit="8" stroke-width="6.875"/>
     </g>
    </g>
   </g>
  </g>
 </g>
</svg>
