<svg overflow="hidden" version="1.1" class="align-center" width="500" viewBox="0 0 453.51044 333.44882" xmlns="http://www.w3.org/2000/svg">
 <g transform="matrix(.21726615 0 0 .21726615 -.0002263261 -38.380282)">
  <path d="m1080.928 958.15647c11.138-19.32031 22.572-36.90949 34.2032-53.03665 107.5687-149.09103 231.9969-172.63597 301.3538-285.09556 58.47-94.7807 23.5225-261.29588 74.9618-357.07399 52.0132-96.86791 174.5492-97.61597 264.8011-72.18295 327.9433 92.41097-754.7387 902.29938-675.3199 767.38915z" fill="#39e2ee" stroke-width=".896869"/>
  <path d="m1450.3743 1390.9886c48.9731-14.6113 79.1498-62.6339 100.2241-98.3146 59.0798-100.01 55.0354-234.1488 162.4965-358.09835 81.0599-93.49806 279.5351-151.27958 344.5517-256.5546 60.2546-97.58816 22.4463-242.53617-56.1205-344.11038-54.4794-70.42672-149.1972-121.41743-227.8627-139.34836-73.4373-16.73888-159.7524-13.1143-217.4601 61.41327-58.2728 75.26487-31.0824 249.08661-79.4368 363.18761-50.9729 120.28997-232.2659 189.56141-313.6666 311.10711-100.7083 150.3737 113.8641 512.4365 287.2744 460.7183z" fill="#31ced2" stroke-width=".896869"/>
  <path d="m22.020531 1381.0146c-47.74365-183.3007-29.1910731-541.47976 170.127159-597.4046 173.91157-48.80305 381.67837 59.33324 493.35433 98.42232 106.26838 37.19652 198.08068 88.58278 326.68788 85.90091 132.831-2.77158 194.6011-79.54153 296.8878-84.68105 42.3549-2.12577 75.8945 15.05082 121.4598 47.88815-12.7701 492.25517-1245.17933 442.74347-1408.516969 449.87427z" fill="#edfaa9" stroke-width=".896869"/>
  <path d="m1054.9124 1002.6273c125.4954-1.3544 281.4274-133.60075 377.7415-70.06081 96.3052 63.54891 107.506 192.87121 108.34 209.85941 2.4572 49.7448-8.0441 145.5839-90.7272 248.6434-94.2426 118.9895-207.7838 155.881-273.4012 151.6295-89.5434-5.7944-217.25383-123.1154-307.64921-132.5692-156.78398-16.4053-295.82069 148.8129-500.38239 262.9947-42.19348 23.5539-86.20115 49.5923-158.38832 33.0705-81.94144-18.7642-148.217936-152.7865-183.211173-305.1065-40.057351-174.3581-7.49618-456.06318 109.064543-545.15722 81.42938-62.23936 174.73661-55.35078 253.56084-44.82059 128.33006 17.14968 260.83821 83.84689 369.15125 120.80123 108.30408 36.95433 170.41503 72.07888 295.90136 70.71558z" fill="#a2cc60" stroke-width=".896869"/>
  <path d="m1409.8488 1263.9626-75.9213-64.697c-6.7438-4.6014-18.0791 0.2691-22.8679 6.2786-5.0309 6.3146-6.69 17.8493-2.52 22.3431l74.0471 64.114z" fill="#a7acb8" stroke-width=".896869"/>
  <path d="m1407.8282 1288.2453c-7.2004 8.1231-18.4054 9.9484-25.0279 4.076-6.6225-5.8726-6.1531-17.2177 1.0473-25.3408 7.2005-8.1232 18.4054-9.9485 25.028-4.076 6.6225 5.8725 6.1531 17.2175-1.0474 25.3408z" fill="#818389" stroke-width=".896789"/>
  <path d="m1694.3217 703.9577-368.8804 522.1652" fill="none" fill-rule="evenodd" stroke="CurrentColor" stroke-dasharray="41.25, 30.9375" stroke-miterlimit="8" stroke-width="9.24804"/>
  <path d="m1348.1468 1233.9993 218.2044 183.4901-5.9456 7.0756-218.2134-183.4812zm220.6168 173.4372 26.4639 40.373-44.3188-19.1373z" fill="#ff0000" stroke-width=".89678"/>
  <path d="m1334.4082 1218.7092 617.4417 5.9008" fill="none" fill-rule="evenodd" stroke="CurrentColor" stroke-dasharray="41.25, 30.9375" stroke-miterlimit="8" stroke-width="9.24804"/>
  <path d="m1549.1869 1022.3862 8.8063 7.7302 11.5506 12.5998 10.6537 13.0571 9.9005 13.6759 9.0933 14.1332 8.3042 14.7162 7.4343 15.0928 6.6451 15.5233 5.6677 15.9806 4.8067 16.2406 3.892 16.5905 2.9773 16.9043 1.8743 16.9401-12.259 1.3542-1.8473-16.7429 0.054 0.3946-2.9146-16.5366 0.072 0.3407-3.8113-16.2586 0.09 0.3408-4.7081-15.9178 0.099 0.3138-5.5511-15.6398 0.1435 0.3677-6.5016-15.1915 0.1345 0.296-7.2819-14.7969 0.1614 0.3139-8.1248-14.4113 0.1794 0.3139-8.905-13.8463 0.1883 0.278-9.6942-13.3979 0.2152 0.287-10.4295-12.7791 0.2331 0.269-11.2097-12.2231 0.4753 0.4664-8.5553-7.5151zm-10.878 22.9038-36.3913-53.0894 59.609 24.2848z" fill="#ff0000" stroke-width=".89678"/>
  <text x="1608.4777" y="1452.7125" fill="#ff0000" font-family="Calibri, Calibri_MSFontService, sans-serif" font-size="73.6424px" font-weight="400" stroke-width=".89678">joint_axis</text>
  <text x="1645.9321" y="1101.9203" fill="#ff0000" font-family="Calibri, Calibri_MSFontService, sans-serif" font-size="73.6424px" font-weight="400" stroke-width=".89678">q, u</text>
  <path d="m436.28338 1107.0601c0 55.025 130.61954 110.0501 261.23818 110.0501" fill="none" fill-rule="evenodd" stroke="#008000" stroke-miterlimit="8" stroke-width="6.16536"/>
  <text x="1552.5498" y="484.2467" fill="#0070c0" font-family="Calibri, Calibri_MSFontService, sans-serif" font-size="73.6424px" font-weight="400" stroke-width=".89678">child.masscenter</text>
  <path d="m1735.717 703.88596c67.0291 0 134.0578-91.65984 134.0578-183.31968" fill="none" fill-rule="evenodd" stroke="#0070c0" stroke-miterlimit="8" stroke-width="6.16536"/>
  <text x="890.37671" y="1397.1683" font-family="Calibri, Calibri_MSFontService, sans-serif" font-size="73.6424px" font-weight="400" stroke-width=".89678">attachment points</text>
  <path d="m1328.7405 1244.2674c0 17.3437-39.9426 34.6785-79.8941 34.6785-39.9426 0-79.8941 17.3437-79.8941 34.6784" fill="none" fill-rule="evenodd" stroke="#000000" stroke-miterlimit="8" stroke-width="6.16536"/>
  <path d="m696.79786 1216.4672c0-22.536 18.2674-40.8034 40.80347-40.8034s40.80347 18.2674 40.80347 40.8034c0 22.5361-18.2674 40.8035-40.80347 40.8035s-40.80347-18.2674-40.80347-40.8035z" fill-rule="evenodd" stroke="#000000" stroke-miterlimit="8" stroke-width="12.3307"/>
  <path d="m696.79786 1216.4672c0-22.536 18.2674-40.8034 40.80347-40.8034v40.8034z" fill="#ffffff" fill-rule="evenodd" stroke-width=".89678"/>
  <path d="m778.4048 1216.4672c0 22.5361-18.2674 40.8035-40.80347 40.8035v-40.8035z" fill="#ffffff" fill-rule="evenodd" stroke-width=".89678"/>
  <path d="m1653.6617 703.50932c0-22.53608 18.2674-40.80348 40.8035-40.80348 22.536 0 40.8034 18.2674 40.8034 40.80348 0 22.53607-18.2674 40.80347-40.8034 40.80347-22.5361 0-40.8035-18.2674-40.8035-40.80347z" fill-rule="evenodd" stroke="#000000" stroke-miterlimit="8" stroke-width="12.3307"/>
  <path d="m1653.6617 703.50932c0-22.53608 18.2674-40.80348 40.8035-40.80348v40.80348z" fill="#ffffff" fill-rule="evenodd" stroke-width=".89678"/>
  <path d="m1735.2686 703.50932c0 22.53607-18.2674 40.80347-40.8034 40.80347v-40.80347z" fill="#ffffff" fill-rule="evenodd" stroke-width=".89678"/>
  <path d="m1329.9601 1214.0818 151.5109 1.2017-0.072 9.2458-151.5109-1.1927zm146.9643-8.08 46.1303 14.2319-46.3545 13.5145z" fill="#008000" stroke-width=".89678"/>
  <path d="m1335.4835 1219.4827 92.0785-129.2049-7.5316-5.3672-92.0782 129.2048zm96.9256-120.0721 15.5394-45.7071-38.1329 29.6054z" fill="#4472c4" stroke-width=".89678"/>
  <path d="m1324.1131 1217.9559-1.8742-149.4842 9.2458-0.1166 1.8832 149.4842zm-11.0662-144.7492 13.2902-46.4083 14.4561 46.0586z" fill="#008000" stroke-width=".89678"/>
  <path d="m1328.4356 1221.3368-127.3337-87.3643 5.2282-7.6316 127.3337 87.3732zm-128.7506-77.1231-30.2843-37.602 45.9779 14.7252z" fill="#4472c4" stroke-width=".89678"/>
  <path d="m1305.7112 1220.5028c0-12.8778 10.4385-23.3163 23.3163-23.3163 12.8777 0 23.3162 10.4385 23.3162 23.3163 0 12.8777-10.4385 23.3162-23.3162 23.3162-12.8778 0-23.3163-10.4385-23.3163-23.3162z" fill-rule="evenodd" stroke-width=".89678"/>
  <path d="m894.53776 868.51676c0 107.44765 205.60824 214.89444 411.21654 214.89444" fill="none" fill-rule="evenodd" stroke="#008000" stroke-miterlimit="8" stroke-width="6.16536"/>
  <path d="m1399.344 1086.9633c0-190.83021-96.3617-381.66043-192.7234-381.66043" fill="none" fill-rule="evenodd" stroke="#0070c0" stroke-miterlimit="8" stroke-width="6.16536"/>
  <path d="m733.60169 1215.8754 151.51091 1.2017-0.0717 9.2458-151.51091-1.1928zm146.96424-8.08 46.13034 14.2319-46.35453 13.5144z" fill="#008000" stroke-width=".89678"/>
  <path d="m733.13537 1220.6462-1.87427-149.4842 9.24579-0.1165 1.88324 149.4842zm-11.06626-144.7492 13.29027-46.4083 14.45609 46.0586z" fill="#008000" stroke-width=".89678"/>
  <path d="m739.23347 1216.9605 111.92706 93.9914-5.94565 7.0846-111.93603-93.9915zm114.3394 83.9385 26.49087 40.3551-44.33679-19.1103z" fill="#008000" stroke-width=".89678"/>
  <path d="m1697.7824 706.52471 92.0786-129.20484-7.5316-5.36723-92.0782 129.2049zm96.9257-120.07204 15.5394-45.70706-38.133 29.60539z" fill="#4472c4" stroke-width=".89678"/>
  <path d="m1690.7346 706.58527-127.3338-87.36427 5.2282-7.63159 127.3338 87.37323zm-128.7507-77.12305-30.2842-37.60197 45.9779 14.72513z" fill="#4472c4" stroke-width=".89678"/>
  <path d="m1696.0973 699.51865 111.9271 93.99147-5.9457 7.08455-111.936-93.99147zm114.3394 83.93857 26.4909 40.35508-44.3368-19.11037z" fill="#4472c4" stroke-width=".89678"/>
  <text x="270.64819" y="1389.0973" fill="#008000" font-family="Calibri, Calibri_MSFontService, sans-serif" font-size="73.6424px" font-weight="400" stroke-width=".89678">parent.frame</text>
  <text x="607.55475" y="831.78076" fill="#008000" font-family="Calibri, Calibri_MSFontService, sans-serif" font-size="73.6424px" font-weight="400" stroke-width=".89678">parent_interframe</text>
  <text x="119.91459" y="1070.7595" fill="#008000" font-family="Calibri, Calibri_MSFontService, sans-serif" font-size="73.6424px" font-weight="400" stroke-width=".89678">parent.masscenter</text>
  <path d="m695.45269 1365.1264c29.43858 0 58.87708-14.0724 58.87708-28.1446 0-14.0724 29.43858-28.1446 58.87725-28.1446" fill="none" fill-rule="evenodd" stroke="#008000" stroke-miterlimit="8" stroke-width="6.16536"/>
  <text x="1021.9164" y="562.26654" fill="#0070c0" font-family="Calibri, Calibri_MSFontService, sans-serif" font-size="73.6424px" font-weight="400" stroke-width=".89678">child.frame</text>
  <text x="671.80328" y="730.08099" fill="#0070c0" font-family="Calibri, Calibri_MSFontService, sans-serif" font-size="73.6424px" font-weight="400" stroke-width=".89678">child_interframe</text>
  <path d="m1535.7083 626.81672c-34.7413 0-69.4825-22.07871-69.4825-44.15832 0-22.07871-34.7502-44.15653-69.4915-44.15653" fill="none" fill-rule="evenodd" stroke="#0070c0" stroke-miterlimit="8" stroke-width="6.16536"/>
 </g>
</svg>
