<?xml version="1.0" encoding="UTF-8" standalone="no"?>
<!-- Created with Inkscape (http://www.inkscape.org/) -->

<svg
   xmlns:dc="http://purl.org/dc/elements/1.1/"
   xmlns:cc="http://creativecommons.org/ns#"
   xmlns:rdf="http://www.w3.org/1999/02/22-rdf-syntax-ns#"
   xmlns:svg="http://www.w3.org/2000/svg"
   xmlns="http://www.w3.org/2000/svg"
   xmlns:sodipodi="http://sodipodi.sourceforge.net/DTD/sodipodi-0.dtd"
   xmlns:inkscape="http://www.inkscape.org/namespaces/inkscape"
   width="400"
   height="400"
   id="svg2"
   version="1.1"
   inkscape:version="0.48.1 r9760"
   sodipodi:docname="New document 1">
  <defs
     id="defs4">
    <inkscape:path-effect
       effect="skeletal"
       id="path-effect3033"
       is_visible="true"
       pattern="M 0,0 0,10 10,5 z"
       copytype="single_stretched"
       prop_scale="1"
       scale_y_rel="false"
       spacing="0"
       normal_offset="0"
       tang_offset="0"
       prop_units="false"
       vertical_pattern="false"
       fuse_tolerance="0" />
  </defs>
  <sodipodi:namedview
     id="base"
     pagecolor="#ffffff"
     bordercolor="#666666"
     borderopacity="1.0"
     inkscape:pageopacity="0.0"
     inkscape:pageshadow="2"
     inkscape:zoom="1.9475"
     inkscape:cx="200"
     inkscape:cy="200"
     inkscape:document-units="px"
     inkscape:current-layer="layer1"
     showgrid="false"
     inkscape:window-width="1132"
     inkscape:window-height="996"
     inkscape:window-x="0"
     inkscape:window-y="0"
     inkscape:window-maximized="0" />
  <metadata
     id="metadata7">
    <rdf:RDF>
      <cc:Work
         rdf:about="">
        <dc:format>image/svg+xml</dc:format>
        <dc:type
           rdf:resource="http://purl.org/dc/dcmitype/StillImage" />
        <dc:title></dc:title>
      </cc:Work>
    </rdf:RDF>
  </metadata>
  <g
     inkscape:label="Layer 1"
     inkscape:groupmode="layer"
     id="layer1"
     transform="translate(0,-652.36218)">
    <path
       style="fill:none;stroke:#000000;stroke-width:1px;stroke-linecap:butt;stroke-linejoin:miter;stroke-opacity:1"
       d="m 25.160462,33.376123 0,321.951217 275.224648,0 -0.51348,0"
       id="path2985"
       inkscape:connector-curvature="0"
       transform="translate(0,652.36218)" />
    <path
       style="fill:none;stroke:#000000;stroke-width:1px;stroke-linecap:butt;stroke-linejoin:miter;stroke-opacity:1"
       d="m 99.101412,77.535302 c 0.855798,0 1.711598,0 2.567398,0 0.17116,0 0.36039,-0.07654 0.51347,0 0.21651,0.108251 0.34232,0.342319 0.51348,0.513478 0.17116,0.17116 0.34232,0.34232 0.51348,0.513479 0.68464,0.684639 1.36928,1.369277 2.05392,2.053916 0.34232,0.342319 0.62415,0.75842 1.02696,1.026957 0.14241,0.09494 0.3511,-0.05412 0.51347,0 0.36309,0.121028 0.70852,0.301182 1.02696,0.513479 0.2014,0.134269 0.34232,0.342319 0.51348,0.513479 0.17116,0.171159 0.40523,0.296977 0.51348,0.513479 0.0765,0.153089 -0.12103,0.39245 0,0.513478 0.12103,0.121029 0.39245,-0.121028 0.51348,0 0.12103,0.121029 0,0.34232 0,0.513479 0,0.34232 0,0.684639 0,1.026958 0,0.855798 0,1.711596 0,2.567394 0,1.369277 0,2.738554 0,4.107831 0,0.268508 0.0675,1.9189 0,2.053915 -0.10825,0.216502 -0.40523,0.296977 -0.51348,0.513479 -0.83503,1.670065 -0.12963,1.221401 -1.02696,2.567394 -0.13427,0.201403 -0.43693,0.283844 -0.51348,0.513479 -0.10825,0.324752 0.15309,0.720778 0,1.026957 -0.2165,0.433004 -0.73649,0.639668 -1.02695,1.026958 -0.5949,0.793189 -0.9704,2.225809 -1.54044,3.080869 -0.13427,0.20141 -0.37921,0.31208 -0.51348,0.51348 -0.2123,0.31845 -0.34232,0.68464 -0.51348,1.02696 -0.17116,0.34232 -0.39245,0.66387 -0.51348,1.02696 -0.0541,0.16237 0.0766,0.36039 0,0.51348 -0.10825,0.2165 -0.40523,0.29697 -0.51348,0.51348 -0.0765,0.15309 0.0765,0.36038 0,0.51347 -0.10825,0.21651 -0.40522,0.29698 -0.51348,0.51348 -0.0765,0.15309 0.12103,0.39245 0,0.51348 -0.12102,0.12103 -0.39245,-0.12103 -0.51347,0 -0.24206,0.24206 0.24205,0.7849 0,1.02696 -0.12103,0.12103 -0.43694,-0.15309 -0.51348,0 -0.0604,0.12074 0,1.7166 0,2.05391 0,2.05392 0,4.10784 0,6.16175 0,3.59435 0,7.1887 0,10.78306 0,1.19811 0,2.39623 0,3.59435 0,0.17116 0,0.34232 0,0.51348 0,0.17116 -0.0766,0.36039 0,0.51348 1.06849,2.13697 -0.0355,-0.54893 1.02695,0.51347 0.24206,0.24206 -0.15308,0.72078 0,1.02696 0.10826,0.2165 0.40523,0.29698 0.51348,0.51348 0.15309,0.30618 -0.24205,0.7849 0,1.02696 0.27063,0.27063 0.75633,0.24285 1.02696,0.51348 0.12103,0.12103 -0.0765,0.36039 0,0.51348 0.0682,0.13633 1.4041,1.47227 1.54044,1.54043 0.15309,0.0765 0.39245,-0.12103 0.51348,0 1.86886,1.86887 -0.54591,0.36079 1.02695,1.54044 0.4937,0.37027 1.04674,0.65668 1.54044,1.02696 0.19365,0.14523 0.31208,0.37921 0.51348,0.51348 0.31845,0.21229 0.70851,0.30118 1.02696,0.51347 0.2014,0.13427 0.31207,0.37921 0.51348,0.51348 0.31844,0.2123 0.75633,0.24285 1.02695,0.51348 0.27063,0.27063 0.34232,0.68464 0.51348,1.02696 0.34232,0.34232 0.64893,0.72453 1.02696,1.02696 0.48189,0.38551 1.02696,0.68464 1.54044,1.02695 1.02695,0.68464 2.00924,1.44156 3.08087,2.05392 0.6646,0.37977 1.38932,0.64719 2.05391,1.02696 0.53582,0.30618 0.98847,0.75097 1.54044,1.02696 0.48411,0.24205 1.02696,0.34231 1.54044,0.51347 0.51348,0.17116 1.01534,0.38221 1.54043,0.51348 0.16605,0.0415 0.34232,0 0.51348,0 0.68464,0 1.36928,0 2.05392,0 1.02696,0 2.05746,-0.0853 3.08087,0 1.39668,0.11639 4.19343,0.76244 5.64827,1.02696 1.02433,0.18624 2.05997,0.3093 3.08087,0.51348 1.38401,0.2768 2.7106,0.82735 4.10783,1.02696 0.50832,0.0726 1.02696,0 1.54044,0 0.68464,0 1.36927,0 2.05391,0 0.68464,0 1.37268,-0.0681 2.05392,0 1.03596,0.10359 2.04492,0.40988 3.08087,0.51348 1.54044,0.15404 3.08087,-0.19256 4.62131,0 0.53708,0.0671 1.00655,0.42449 1.54044,0.51347 0.50649,0.0844 1.03092,-0.0637 1.54043,0 0.86601,0.10826 1.70139,0.40523 2.5674,0.51348 1.17968,0.14746 2.41467,-0.14746 3.59435,0 0.70026,0.0875 1.35781,0.39746 2.05391,0.51348 1.01299,0.16883 2.06424,-0.14523 3.08088,0 0.53581,0.0765 1.02001,0.36479 1.54043,0.51348 0.67856,0.19387 1.37308,0.3278 2.05392,0.51348 1.20215,0.32786 2.3802,0.74677 3.59435,1.02696 10.46415,2.4148 -6.66938,-2.05266 7.70218,1.02696 0.90127,0.19312 1.66357,0.84619 2.5674,1.02695 0.83918,0.16784 1.71683,-0.0945 2.56739,0 0.70139,0.0779 1.36501,0.36039 2.05392,0.51348 0.85196,0.18933 1.69998,0.4171 2.56739,0.51348 2.86559,0.3184 1.46043,-0.54015 4.62131,0.51348 0.72617,0.24206 1.32775,0.7849 2.05392,1.02696 0.82796,0.27598 1.70872,0.35735 2.56739,0.51348 0.56901,0.10345 4.88724,0.77328 5.64827,1.02695 1.23662,0.41221 2.39623,1.02696 3.59435,1.54044 1.19812,0.51348 2.39623,1.02696 3.59435,1.54044 1.19812,0.51347 2.36678,1.10201 3.59435,1.54043 1.17347,0.4191 2.4931,0.44394 3.59435,1.02696 1.84647,0.97754 3.3807,2.45935 5.13479,3.59435 1.15855,0.74965 2.39624,1.36928 3.59435,2.05392 1.36928,0.68464 2.80964,1.24254 4.10783,2.05391 6.86068,4.28793 1.22883,2.09549 8.72914,5.64827 1.666,0.78915 3.48596,1.2295 5.13479,2.05391 1.10395,0.55198 1.94642,1.56773 3.08088,2.05392 2.20982,0.94707 5.34494,1.14756 7.70218,1.54044 1.51835,-0.24624 2.71918,0.77447 4.10783,1.02695 1.35767,0.24685 2.74394,0.30365 4.10783,0.51348 0.8626,0.13271 1.70652,0.37 2.56739,0.51348 1.19382,0.19897 2.41094,0.25989 3.59435,0.51348 1.21841,0.26109 2.36839,0.80406 3.59436,1.02696 0.67359,0.12247 1.36927,0 2.05391,0 1.36928,0.17116 2.75153,0.25917 4.10783,0.51348 6.46543,1.61635 1.7216,0.54641 7.18871,1.54043 0.85866,0.15613 1.69897,0.42664 2.56739,0.51348 0.85155,0.0852 1.71584,-0.0851 2.56739,0 1.73683,0.17369 3.40278,0.81046 5.13479,1.02696 0.50952,0.0637 1.02696,0 1.54044,0 1.36928,0 2.73855,0 4.10783,0 1.19812,0 2.39623,0 3.59435,0 0.8558,0 1.72822,0.16784 2.56739,0 0.90383,-0.18076 1.69298,-0.73548 2.5674,-1.02696 2.06476,-0.68825 3.49068,-0.54462 5.64827,-1.54043 1.12064,-0.51723 2.02251,-1.4189 3.08087,-2.05392 0.65637,-0.39382 1.41702,-0.60236 2.05391,-1.02696 0.40281,-0.26853 0.63967,-0.73649 1.02696,-1.02695 0.30618,-0.22964 0.70851,-0.30119 1.02696,-0.51348 0.60421,-0.40281 0.97339,-1.08681 1.54044,-1.54044 0.80728,-0.64583 1.99517,-1.10022 2.56739,-2.05392 0.27847,-0.46412 0.27142,-1.05632 0.51348,-1.54043 0.88493,-1.76987 1.45377,-1.49385 2.05391,-3.59435 0.14107,-0.49373 -0.1007,-1.03693 0,-1.54044 0.24438,-1.22186 0.6991,-2.3922 1.02696,-3.59435 0.75136,-2.75499 0.34267,-1.542 1.02696,-4.62131 0.15309,-0.68891 0.43555,-1.35252 0.51348,-2.05392 0.0945,-0.85056 -0.0711,-1.71455 0,-2.56739 0.10051,-1.2061 0.41297,-2.38825 0.51348,-3.59435 0.0711,-0.85284 -0.0711,-1.71455 0,-2.5674 0.10051,-1.2061 0.41297,-2.38825 0.51348,-3.59435 0.0711,-0.85284 -0.0945,-1.71683 0,-2.56739 0.0779,-0.70139 0.42594,-1.35366 0.51347,-2.05392 0.0849,-0.67935 0,-1.36927 0,-2.05391 0,-1.02696 0,-2.05392 0,-3.08088 0,-0.85579 0,-1.71159 0,-2.56739 0,-0.34232 0.083,-0.69486 0,-1.02696 -0.0928,-0.37129 -0.39245,-0.66387 -0.51347,-1.02695 -0.22317,-0.6695 -0.29032,-1.38443 -0.51348,-2.05392 -0.65679,-1.97036 -2.34276,-3.16111 -3.59435,-4.62131 -0.55695,-0.64977 -0.97689,-1.40986 -1.54044,-2.05391 -1.25242,-1.43134 -2.75575,-2.75575 -4.10783,-4.10784 -0.68464,-0.68463 -1.43407,-1.3101 -2.05392,-2.05391 -0.54787,-0.65744 -1.02695,-1.36928 -1.54043,-2.05392 -0.51348,-0.68463 -0.89639,-1.49036 -1.54044,-2.05391 -0.75109,-0.6572 -1.73699,-0.98683 -2.56739,-1.54044 -0.71207,-0.47471 -1.35753,-1.04301 -2.05392,-1.54043 -1.00435,-0.7174 -2.1327,-1.26377 -3.08087,-2.05392 -0.55786,-0.46488 -0.9595,-1.10473 -1.54044,-1.54044 -1.21728,-0.91296 -4.36064,-2.49559 -5.64827,-3.08087 -1.39777,-0.63535 -3.3045,-1.17604 -4.62131,-2.05391 -0.91189,-0.60793 -1.6555,-1.44599 -2.56739,-2.05392 -0.63689,-0.42459 -1.40481,-0.62127 -2.05391,-1.02696 -1.45143,-0.90714 -2.70564,-2.09933 -4.10783,-3.08087 -1.01114,-0.7078 -2.11709,-1.28289 -3.08088,-2.05392 -0.75605,-0.60484 -1.32525,-1.41633 -2.05391,-2.05391 -1.8906,-1.654273 -2.50989,-1.463758 -4.10783,-3.594352 -0.45927,-0.612359 -0.56769,-1.441556 -1.02696,-2.053915 -0.58094,-0.77458 -1.48443,-1.270877 -2.05392,-2.053916 -0.81163,-1.116001 -1.34394,-2.411069 -2.05391,-3.594351 -0.31751,-0.52918 -0.75097,-0.988464 -1.02696,-1.540437 -0.61399,-1.227974 -1.09603,-2.774608 -1.54044,-4.10783 -0.17116,-0.513479 -0.30026,-1.042946 -0.51347,-1.540437 -0.60306,-1.407117 -1.51639,-2.674406 -2.05392,-4.10783 -0.24779,-0.660776 -0.32779,-1.373073 -0.51348,-2.053916 -0.32786,-1.202154 -0.66051,-2.403393 -1.02696,-3.594351 -1.06647,-3.466052 -2.24787,-6.903384 -3.59435,-10.269577 -0.34232,-0.855798 -0.61475,-1.74298 -1.02696,-2.567394 -0.50443,-1.008865 -2.64902,-3.621997 -3.08087,-4.10783 -0.64325,-0.723661 -1.44907,-1.297859 -2.05391,-2.053916 -0.77103,-0.963787 -1.4189,-2.022512 -2.05392,-3.080873 -0.39382,-0.656367 -0.56769,-1.441556 -1.02696,-2.053915 -1.85405,-2.472072 -1.65382,-1.528451 -3.59435,-3.080873 -0.37803,-0.302422 -0.63967,-0.73649 -1.02696,-1.026957 -0.30618,-0.229635 -0.68463,-0.34232 -1.02695,-0.513479 -0.51348,-0.342319 -1.05855,-0.641443 -1.54044,-1.026958 -0.37803,-0.302423 -0.64893,-0.724535 -1.02696,-1.026957 -0.48189,-0.385515 -1.05854,-0.641443 -1.54043,-1.026958 -0.37803,-0.302423 -0.57748,-0.847163 -1.02696,-1.026958 -0.47676,-0.190701 -1.03395,0.08442 -1.54044,0 -0.53389,-0.08898 -1.00969,-0.40733 -1.54044,-0.513479 -0.33567,-0.06713 -0.68463,0 -1.02695,0 -1.02696,0 -2.06185,0.127379 -3.08088,0 -0.70026,-0.08753 -1.3578,-0.397461 -2.05391,-0.513478 -0.33766,-0.05628 -0.68464,0 -1.02696,0 -0.51348,0 -1.02696,0 -1.54044,0 -1.71159,0 -3.42319,0 -5.13478,0 -1.36928,0 -2.74535,-0.136249 -4.10783,0 -0.86842,0.08684 -1.71543,0.324153 -2.5674,0.513478 -0.6889,0.15309 -1.40526,0.235487 -2.05391,0.513479 -0.56723,0.243098 -0.98847,0.750971 -1.54044,1.026958 -0.82441,0.412207 -1.74298,0.614751 -2.56739,1.026958 -0.55198,0.275986 -0.98847,0.750971 -1.54044,1.026957 -0.48411,0.242056 -1.03364,0.323432 -1.54044,0.513479 -0.84752,0.31782 -3.76146,1.43974 -4.62131,2.053915 -2.64975,1.892684 -0.36433,1.209124 -3.08087,2.567394 -0.48411,0.242057 -1.07631,0.235006 -1.54044,0.513479 -0.41512,0.249074 -0.63966,0.73649 -1.02695,1.026958 -0.83143,0.623569 -1.01693,0.241688 -1.54044,1.026957 -0.2123,0.318446 -0.30118,0.708512 -0.51348,1.026958 -0.13427,0.201403 -0.40523,0.296977 -0.51348,0.513479 -0.0765,0.15309 0.12103,0.392451 0,0.513479 -0.27062,0.270627 -0.75633,0.242851 -1.02695,0.513479 -0.44867,0.448664 -0.82644,2.166342 -1.02696,2.567394 -0.10825,0.216501 -0.34232,0.342319 -0.51348,0.513478 -0.34232,0.34232 -0.62415,0.758421 -1.02696,1.026958 -0.14241,0.09494 -0.39245,-0.121028 -0.51348,0 -0.12103,0.121028 0.15309,0.436934 0,0.513479 -0.30618,0.15309 -0.7022,-0.108251 -1.02696,0 -0.22963,0.07654 -0.28384,0.436934 -0.51347,0.513479 -0.32476,0.108251 -0.69486,-0.08302 -1.02696,0 -0.3713,0.09282 -0.64944,0.450559 -1.02696,0.513479 -0.67532,0.112553 -1.36928,0 -2.05391,0 -1.54044,0 -3.08088,0 -4.62131,0 -1.88276,0 -3.76552,0 -5.64827,0 -1.19812,0 -2.39976,0.09189 -3.59435,0 -3.50264,-0.269434 -3.78451,-1.050728 -7.70219,-1.540437 -2.43427,-0.304284 -5.86832,0.391222 -8.21566,0 -0.60872,-0.101455 -1.00462,-0.720778 -1.54043,-1.026958 -0.93971,-0.536972 -2.76035,-1.219908 -3.59435,-2.053915 -0.43638,-0.436373 -0.54507,-1.154922 -1.02696,-1.540436 -0.42265,-0.338119 -1.07632,-0.235006 -1.54044,-0.513479 -0.41512,-0.249074 -0.63967,-0.73649 -1.02696,-1.026958 -0.30618,-0.229634 -0.72077,-0.283844 -1.02695,-0.513479 -0.38729,-0.290467 -0.62416,-0.75842 -1.02696,-1.026957 -0.63689,-0.424595 -1.41702,-0.602363 -2.05392,-1.026958 -2.86558,-1.910391 1.16339,-0.188527 -2.56739,-2.053915 -0.48411,-0.242056 -1.0379,-0.312462 -1.54044,-0.513479 -0.7107,-0.284281 -1.39755,-0.633137 -2.05391,-1.026958 -0.52918,-0.317508 -1.01126,-0.709449 -1.54044,-1.026957 -0.32818,-0.19691 -0.72078,-0.283844 -1.02696,-0.513479 -0.38729,-0.290468 -0.63966,-0.73649 -1.02695,-1.026958 -0.30618,-0.229634 -0.69878,-0.316568 -1.02696,-0.513478 -0.99525,-0.597148 -1.52407,-1.14919 -2.5674,-1.540437 -1.86181,-0.698181 -3.26187,-1.124232 -5.13478,-1.540436 -0.85197,-0.189326 -1.7254,-0.283845 -2.5674,-0.513479 -3.83125,-1.044887 -2.24133,-1.148396 -6.16174,-1.540437 -0.68124,-0.06812 -1.36928,0 -2.05392,0 -1.54044,0 -3.08087,0 -4.62131,0 -1.19812,0 -2.39623,0 -3.59435,0 -0.34232,0 -0.69129,-0.06713 -1.02696,0 -0.53074,0.106149 -1.02696,0.34232 -1.54043,0.513479 -0.51348,0.17116 -1.07632,0.235006 -1.54044,0.513479 -0.41512,0.249074 -0.63967,0.73649 -1.02696,1.026958 -0.30618,0.229634 -0.70851,0.301181 -1.02696,0.513478 -0.4028,0.268538 -0.59395,0.810456 -1.02695,1.026958 -0.15309,0.07654 -0.35111,-0.05412 -0.51348,0 -1.86151,0.620503 -0.36544,0.243627 -1.54044,1.026958 -0.31845,0.212297 -0.75633,0.242851 -1.02696,0.513479 -0.27062,0.270627 -0.30118,0.708511 -0.51348,1.026957 -0.31161,0.467428 -1.31287,1.085321 -1.54043,1.540437 -0.0765,0.153089 0.0765,0.360389 0,0.513478 -0.0682,0.136335 -1.4041,1.47227 -1.54044,1.540437 -0.15309,0.07654 -0.39245,-0.121028 -0.51348,0 -2.00397,2.003971 0.11886,0.275763 -0.51348,1.540436 -0.10825,0.216502 -0.43693,0.283844 -0.51348,0.513479 -0.10825,0.324753 0.15309,0.720778 0,1.026958 -0.0765,0.15309 -0.39245,-0.121028 -0.51347,0 -0.12356,0.123559 0.12356,1.930356 0,2.053915 -0.12103,0.121028 -0.45936,-0.162376 -0.51348,0 -0.16238,0.487129 0.12453,1.042289 0,1.540437 -0.0587,0.234829 -0.43694,0.283844 -0.51348,0.513478 -0.10825,0.324753 0.10825,0.702205 0,1.026958 -0.0766,0.229635 -0.43694,0.283844 -0.51348,0.513479 -0.10825,0.324752 0.10825,0.702205 0,1.026957 -0.0765,0.229635 -0.405228,0.296978 -0.513479,0.513479 -0.07654,0.15309 0.07654,0.360389 0,0.513479 -0.108251,0.216502 -0.436934,0.283844 -0.513479,0.513479 -0.108251,0.324752 0.15309,0.720778 0,1.026958 -0.07654,0.153089 -0.392451,-0.121029 -0.513479,0 -0.242056,0.242056 0.15309,0.720778 0,1.026957 -0.108251,0.216502 -0.405228,0.296977 -0.513479,0.513479 -0.07654,0.15309 0.05413,0.351103 0,0.513479 -0.121028,0.363084 -0.420654,0.65566 -0.513478,1.026957 -0.09762,0.390484 0,2.137413 0,2.567395 0,0.171159 -0.121029,0.39245 0,0.513478 0.121028,0.121028 0.39245,-0.121028 0.513478,0 0.104974,0.104974 -0.101795,1.336847 0,1.540437 0.108251,0.216502 0.436934,0.283844 0.513479,0.513479 0.108251,0.324752 -0.108251,0.702205 0,1.026957 0.07654,0.229635 0.436934,0.283844 0.513479,0.513479 7.76e-4,0.0023 -4.9e-4,1.539946 0,1.540437 0.121028,0.121028 0.392451,-0.121029 0.513479,0 0.01651,0.01651 0,1.415904 0,1.540436 0,1.026958 0,2.053915 0,3.080873 0,0.513479 0.08442,1.033944 0,1.540436 -0.116018,0.696108 -0.342319,1.369277 -0.513479,2.053916 z"
       id="path2987"
       inkscape:connector-curvature="0"
       transform="translate(0,652.36218)" />
    <path
       style="fill:none;stroke:#000000;stroke-width:1px;stroke-linecap:butt;stroke-linejoin:miter;stroke-opacity:1"
       d="m 119.12709,83.697047 c 0.51347,-0.684638 1.02695,-1.369276 1.54043,-2.053915 0,-0.171159 -0.0765,-0.360389 0,-0.513479 0.56767,-1.13533 0.31869,-0.159343 1.02696,-0.513478 0.4224,-0.2112 1.67415,-1.800742 2.05392,-2.053916 0.14241,-0.09494 0.36038,0.07654 0.51347,0 2.13698,-1.068488 -0.54892,0.03545 0.51348,-1.026957 0.12103,-0.121028 0.35111,0.05412 0.51348,0 0.36309,-0.121028 0.70851,-0.301182 1.02696,-0.513479 1.01723,0.05126 0.24285,-0.756331 0.51348,-1.026958 0.12103,-0.121028 0.36039,0.07654 0.51348,0 0.2165,-0.108251 0.28384,-0.436934 0.51348,-0.513479 0.32475,-0.10825 0.7022,0.108251 1.02695,0 0.22964,-0.07654 0.29698,-0.405228 0.51348,-0.513478 0.15309,-0.07654 0.3511,0.05412 0.51348,0 0.36309,-0.121029 0.65566,-0.420655 1.02696,-0.513479 0.3321,-0.08303 0.72078,0.15309 1.02696,0 0.15309,-0.07655 -0.12103,-0.392451 0,-0.513479 0.24205,-0.242056 0.7022,0.108251 1.02695,0 2.90921,-1.454605 -0.76544,0.191362 2.05392,-0.513479 0.3713,-0.09282 0.65566,-0.420654 1.02696,-0.513479 0.49814,-0.124537 1.0533,0.162377 1.54043,0 0.36309,-0.121028 0.65566,-0.420654 1.02696,-0.513479 0.3321,-0.08302 0.68464,0 1.02696,0 1.02696,0 2.05391,0 3.08087,0 0.73717,0 1.95732,-0.152518 2.5674,0 0.23482,0.05871 0.29697,0.405228 0.51347,0.513479 0.30618,0.15309 0.72078,-0.15309 1.02696,0 0.2165,0.108251 0.29698,0.405228 0.51348,0.513479 0.15309,0.07654 0.3511,-0.05412 0.51348,0 0.36308,0.121028 0.65566,0.420655 1.02696,0.513479 0.3321,0.08302 0.72078,-0.15309 1.02696,0 0.15308,0.07654 -0.12103,0.392451 0,0.513479 0.95811,0.958111 1.50424,0.238642 2.05391,0.513479 0.2165,0.10825 0.28384,0.436933 0.51348,0.513478 0.6495,0.216502 1.40441,-0.216501 2.05391,0 0.22964,0.07654 0.28385,0.436934 0.51348,0.513479 0.32476,0.108251 0.72078,-0.15309 1.02696,0 0.15309,0.07654 -0.15309,0.436934 0,0.513479 0.61236,0.30618 1.38972,-0.166049 2.05392,0 0.37129,0.09282 0.66387,0.392451 1.02695,0.513479 0.32476,0.108251 0.68464,0 1.02696,0 0.34232,0 0.68464,0 1.02696,0 0.17116,0 0.39245,-0.121028 0.51348,0 0.12103,0.121028 -0.15309,0.436934 0,0.513479 0.45927,0.229634 1.02696,0 1.54043,0 1.36928,0 2.73856,0 4.10783,0"
       id="path2993"
       inkscape:connector-curvature="0"
       transform="translate(0,652.36218)" />
    <path
       style="fill:none;stroke:#000000;stroke-width:1px;stroke-linecap:butt;stroke-linejoin:miter;stroke-opacity:1"
       d="m 182.28498,77.535302 c 1.54044,0 3.08087,0 4.62131,0 0.34232,0 0.69486,0.08302 1.02696,0 0.74259,-0.185649 1.30333,-0.876841 2.05391,-1.026958 0.50351,-0.100701 1.03693,0.100702 1.54044,0 0.0242,-0.0048 1.98293,-0.998564 2.05391,-1.026958 5.16882,-2.067526 -1.09021,0.400924 2.5674,-0.513478 0.3713,-0.09282 0.66387,-0.392451 1.02696,-0.513479 0.16237,-0.05413 0.3511,0.05412 0.51348,0 0.36308,-0.121028 0.66387,-0.392451 1.02695,-0.513479 0.2831,-0.09436 1.94414,0.109781 2.05392,0 0.27063,-0.270627 0.24285,-0.756331 0.51348,-1.026958 0.12103,-0.121028 0.3511,0.05413 0.51348,0 0.36308,-0.121028 0.66387,-0.39245 1.02695,-0.513479 0.32476,-0.10825 0.72078,0.15309 1.02696,0 0.2165,-0.10825 0.28385,-0.436933 0.51348,-0.513478 0.29422,-0.09807 2.08533,0 2.56739,0 0.17116,0 0.35111,0.05412 0.51348,0 0.36309,-0.121028 0.66388,-0.392451 1.02696,-0.513479 0.16238,-0.05413 0.36039,0.07655 0.51348,0 0.2165,-0.108251 0.29698,-0.405228 0.51348,-0.513479 0.15309,-0.07655 0.34232,0 0.51348,0 0.39251,0 3.44988,0.07223 3.59435,0 0.2165,-0.108251 0.29698,-0.405228 0.51348,-0.513479 0.13684,-0.06842 2.84858,0 3.08087,0 2.22508,0 4.45015,0 6.67523,0 2.39623,0 4.79246,0 7.1887,0 0.56067,0 2.23532,-0.11069 2.56739,0 0.36309,0.121028 0.66388,0.392451 1.02696,0.513479 0.32475,0.108251 0.72078,-0.15309 1.02696,0 2.34999,1.174995 -2.17891,-0.212823 1.54043,1.026958 1.52854,0.509513 -1.05355,-1.215852 1.54044,0.513478 0.2014,0.134269 0.34232,0.34232 0.51348,0.513479 0.34232,0.17116 0.70851,0.301182 1.02696,0.513479 0.2014,0.134269 0.29697,0.405228 0.51348,0.513479 0.30618,0.15309 0.7849,-0.242056 1.02695,0 0.12103,0.121028 -0.12102,0.392451 0,0.513479 0.12103,0.121028 0.39245,-0.121028 0.51348,0 0.12103,0.121028 -0.12103,0.39245 0,0.513479 0.68464,0.684638 0.51348,-0.855798 0.51348,0.513478"
       id="path2995"
       inkscape:connector-curvature="0"
       transform="translate(0,652.36218)" />
    <path
       sodipodi:type="arc"
       id="path2999"
       style="fill:#000000;stroke:none"
       sodipodi:cx="175.60976"
       sodipodi:cy="729.89746"
       sodipodi:rx="2.5"
       sodipodi:ry="2.5"
       d="m 178.10976,729.89746 a 2.5,2.5 0 1 1 -5,0 2.5,2.5 0 1 1 5,0 z" />
    <path
       sodipodi:type="arc"
       id="path3001"
       style="fill:#000000;stroke:none"
       sodipodi:cx="256.22592"
       sodipodi:cy="826.43152"
       sodipodi:rx="2.5"
       sodipodi:ry="2.5"
       d="m 258.72592,826.43152 a 2.5,2.5 0 1 1 -5,0 2.5,2.5 0 1 1 5,0 z" />
    <path
       sodipodi:type="arc"
       id="path3003"
       style="fill:#000000;stroke:none"
       sodipodi:cx="46.726574"
       sodipodi:cy="986.6369"
       sodipodi:rx="2.5"
       sodipodi:ry="2.5"
       d="m 49.226574,986.6369 a 2.5,2.5 0 1 1 -5,0 2.5,2.5 0 1 1 5,0 z" />
    <text
       xml:space="preserve"
       style="font-size:40px;font-style:normal;font-weight:normal;line-height:125%;letter-spacing:0px;word-spacing:0px;fill:#000000;fill-opacity:1;stroke:none;font-family:Sans"
       x="346.59821"
       y="112.96534"
       id="text3005"
       sodipodi:linespacing="125%"
       transform="translate(0,652.36218)"><tspan
         sodipodi:role="line"
         id="tspan3007"
         x="346.59821"
         y="112.96534">B</tspan></text>
    <text
       xml:space="preserve"
       style="font-size:40px;font-style:normal;font-weight:normal;line-height:125%;letter-spacing:0px;word-spacing:0px;fill:#000000;fill-opacity:1;stroke:none;font-family:Sans"
       x="23.620028"
       y="717.57397"
       id="text3009"
       sodipodi:linespacing="125%"><tspan
         sodipodi:role="line"
         id="tspan3011"
         x="23.620028"
         y="717.57397">N</tspan></text>
    <text
       xml:space="preserve"
       style="font-size:40px;font-style:normal;font-weight:normal;line-height:125%;letter-spacing:0px;word-spacing:0px;fill:#000000;fill-opacity:1;stroke:none;font-family:Sans"
       x="48.780487"
       y="1004.6086"
       id="text3013"
       sodipodi:linespacing="125%"><tspan
         sodipodi:role="line"
         id="tspan3015"
         x="48.780487"
         y="1004.6086"
         style="font-size:22px">O</tspan><tspan
         sodipodi:role="line"
         x="48.780487"
         y="1022.1412"
         id="tspan3017"
         style="font-size:12px">fixed in N</tspan></text>
    <text
       xml:space="preserve"
       style="font-size:40px;font-style:normal;font-weight:normal;line-height:125%;letter-spacing:0px;word-spacing:0px;fill:#000000;fill-opacity:1;stroke:none;font-family:Sans"
       x="169.44801"
       y="753.00403"
       id="text3019"
       sodipodi:linespacing="125%"><tspan
         sodipodi:role="line"
         id="tspan3021"
         x="169.44801"
         y="753.00403"
         style="font-size:22px">P</tspan><tspan
         sodipodi:role="line"
         x="169.44801"
         y="770.53656"
         id="tspan3023"
         style="font-size:12px">not fixed in B</tspan></text>
    <text
       xml:space="preserve"
       style="font-size:40px;font-style:normal;font-weight:normal;line-height:125%;letter-spacing:0px;word-spacing:0px;fill:#000000;fill-opacity:1;stroke:none;font-family:Sans"
       x="269.57639"
       y="821.81018"
       id="text3025"
       sodipodi:linespacing="125%"><tspan
         sodipodi:role="line"
         id="tspan3027"
         x="269.57639"
         y="821.81018"
         style="font-size:22px">S</tspan><tspan
         sodipodi:role="line"
         x="269.57639"
         y="839.34271"
         id="tspan3029"
         style="font-size:12px">fixed in B</tspan></text>
    <path
       style="fill:#000000;fill-rule:evenodd;stroke:none"
       d="m 23.274076,349.63243 6.853646,7.282 c 4.530899,-7.98749 9.251185,-14.6846 14.16086,-20.09131 -0.394523,-0.22663 -0.779977,-0.39146 -1.156361,-0.49449 0.308254,0.23929 0.607438,0.41678 0.897553,0.53247 -6.729178,5.5475 -13.647744,9.80461 -20.755698,12.77133 z"
       id="path3031"
       inkscape:path-effect="#path-effect3033"
       inkscape:original-d="m 26.700899,353.27343 17.458279,-16.43132 -1.026957,-0.51348"
       inkscape:connector-curvature="0"
       transform="translate(0,652.36218)" />
    <path
       style="fill:none;stroke:#000000;stroke-width:1px;stroke-linecap:butt;stroke-linejoin:miter;stroke-opacity:1"
       d="m 166.77347,77.630123 -3.9708,-2.647198 0.29413,4.853196 z"
       id="path3035"
       inkscape:connector-curvature="0"
       transform="translate(0,652.36218)" />
    <path
       style="fill:none;stroke:#000000;stroke-width:1px;stroke-linecap:butt;stroke-linejoin:miter;stroke-opacity:1"
       d="m 242.95394,75.129992 -0.29413,-4.411997 -4.11787,5.147329 z"
       id="path3037"
       inkscape:connector-curvature="0"
       transform="translate(0,652.36218)" />
  </g>
</svg>
