<?xml version="1.0" encoding="UTF-8" standalone="no"?>
<!-- Created with Inkscape (http://www.inkscape.org/) -->

<svg
   xmlns:dc="http://purl.org/dc/elements/1.1/"
   xmlns:cc="http://creativecommons.org/ns#"
   xmlns:rdf="http://www.w3.org/1999/02/22-rdf-syntax-ns#"
   xmlns:svg="http://www.w3.org/2000/svg"
   xmlns="http://www.w3.org/2000/svg"
   xmlns:sodipodi="http://sodipodi.sourceforge.net/DTD/sodipodi-0.dtd"
   xmlns:inkscape="http://www.inkscape.org/namespaces/inkscape"
   width="250"
   height="350"
   id="svg3586"
   version="1.1"
   inkscape:version="0.48.1 r9760"
   sodipodi:docname="New document 14.2011_08_15_14_37_17.0.svg">
  <defs
     id="defs3588" />
  <sodipodi:namedview
     id="base"
     pagecolor="#ffffff"
     bordercolor="#666666"
     borderopacity="1.0"
     inkscape:pageopacity="0.0"
     inkscape:pageshadow="2"
     inkscape:zoom="1.86"
     inkscape:cx="125"
     inkscape:cy="175"
     inkscape:document-units="px"
     inkscape:current-layer="layer1"
     showgrid="false"
     inkscape:window-width="830"
     inkscape:window-height="868"
     inkscape:window-x="0"
     inkscape:window-y="0"
     inkscape:window-maximized="0" />
  <metadata
     id="metadata3591">
    <rdf:RDF>
      <cc:Work
         rdf:about="">
        <dc:format>image/svg+xml</dc:format>
        <dc:type
           rdf:resource="http://purl.org/dc/dcmitype/StillImage" />
        <dc:title></dc:title>
      </cc:Work>
    </rdf:RDF>
  </metadata>
  <g
     inkscape:label="Layer 1"
     inkscape:groupmode="layer"
     id="layer1"
     transform="translate(0,-702.36218)">
    <path
       style="fill:none;stroke:#000000;stroke-width:1px;stroke-linecap:butt;stroke-linejoin:miter;stroke-opacity:1"
       d="m 66.590563,127.32116 0,-106.01218 z"
       id="path3594"
       inkscape:connector-curvature="0"
       transform="translate(0,702.36218)" />
    <path
       style="fill:none;stroke:#000000;stroke-width:1px;stroke-linecap:butt;stroke-linejoin:miter;stroke-opacity:1"
       d="M 66.057839,128.91933 12.252664,199.23896 z"
       id="path3596"
       inkscape:connector-curvature="0"
       transform="translate(0,702.36218)" />
    <path
       style="fill:none;stroke:#000000;stroke-width:1px;stroke-linecap:butt;stroke-linejoin:miter;stroke-opacity:1"
       d="m 66.590563,128.38661 66.590567,15.44901 z"
       id="path3598"
       inkscape:connector-curvature="0"
       transform="translate(0,702.36218)" />
    <path
       style="fill:none;stroke:#000000;stroke-width:1px;stroke-linecap:butt;stroke-linejoin:miter;stroke-opacity:1"
       d="m 141.17199,197.64079 c -28.8055,-13.84755 -62.813061,5.00438 -27.16895,28.76712 9.35254,6.23503 26.00574,0.48385 35.69255,5.32725 12.13599,6.068 5.67475,37.29072 40.48706,37.29072 2.08327,0 9.07068,1.05108 10.65449,-0.53273 29.50943,-29.50943 24.73344,-85.9716 -23.9726,-90.03044 -1.76853,-0.14738 -12.51148,-2.93754 -14.38357,-1.06545 -5.03744,5.03744 -12.97884,21.90956 -21.30898,20.24353 z"
       id="path3600"
       inkscape:connector-curvature="0"
       transform="translate(0,702.36218)" />
    <path
       inkscape:connector-curvature="0"
       id="path3624"
       d="m 128.11082,922.04762 c -29.393494,12.55126 -37.610981,50.55629 3.74731,39.39107 10.85187,-2.9296 17.49454,-19.24769 27.51955,-23.34549 12.55971,-5.13386 31.79518,20.29453 54.72674,-5.89785 1.37229,-1.56742 6.76585,-6.1323 6.6175,-8.36723 -2.7641,-41.641 -48.39161,-75.24035 -83.52907,-41.26814 -1.27585,1.23354 -10.45173,7.47847 -10.27638,10.1202 0.47185,7.10837 7.93508,24.19739 1.19435,29.36744 z"
       style="fill:none;stroke:#000000;stroke-width:1;stroke-linecap:butt;stroke-linejoin:miter;stroke-opacity:1;stroke-miterlimit:4;stroke-dasharray:4,1;stroke-dashoffset:0" />
    <path
       style="fill:none;stroke:#000000;stroke-width:1px;stroke-linecap:butt;stroke-linejoin:miter;stroke-opacity:1"
       d="m 192.47312,262.90323 c 0.31796,-1.79843 2.312,-1.23674 3.2258,-2.15054 0.12673,-0.12672 -0.12672,-0.41091 0,-0.53764 0.12673,-0.12672 0.37735,0.0802 0.53764,0 0.14275,-0.0714 1.54153,-1.47015 1.6129,-1.6129 0.0802,-0.16029 -0.0801,-0.37734 0,-0.53763 0.11123,-0.22245 1.38502,-1.46098 1.61291,-1.61291 0.33342,-0.22228 0.79191,-0.25427 1.07526,-0.53763 1.11239,-1.11239 -1.69987,0.0435 0.53764,-1.07527 0.16029,-0.0802 0.37734,0.0802 0.53763,0 0.22669,-0.11334 0.31095,-0.42429 0.53764,-0.53763 0.16029,-0.0802 0.41091,0.12672 0.53763,0 0.12672,-0.12673 -0.0994,-0.38853 0,-0.53764 0.28117,-0.42175 0.71685,-0.71685 1.07527,-1.07527 0.17921,-0.17921 0.42429,-0.31095 0.53764,-0.53763 0.16029,-0.32059 -0.25345,-0.82183 0,-1.07527 0.12672,-0.12672 0.41091,0.12672 0.53763,0 0.0834,-0.0834 -0.0697,-1.4037 0,-1.6129 0.12672,-0.38017 0.41091,-0.69511 0.53763,-1.07527 0.0567,-0.17002 -0.0801,-0.37735 0,-0.53764 0.22669,-0.45337 0.91498,-0.59439 1.07527,-1.07527 0,-3.04659 -0.35842,-0.17921 0.53764,-1.07527 0.12672,-0.12672 -0.0567,-0.36761 0,-0.53763 0.12672,-0.38016 0.25427,-0.79191 0.53763,-1.07527 0.12672,-0.12672 0.41091,0.12672 0.53764,0 0.12672,-0.12672 -0.12673,-0.41091 0,-0.53763 0.12672,-0.12672 0.35842,0 0.53763,0 0,-0.35843 -0.16029,-0.75469 0,-1.07527 0.0802,-0.16029 0.35842,0 0.53763,0 0.17922,-0.17921 0.45749,-0.2972 0.53764,-0.53764 0.28044,-0.84132 -0.45007,-2.15053 0,-2.15053 0.35842,0 -0.16029,0.75468 0,1.07527 0.0801,0.16029 0.41091,-0.12673 0.53763,0 0.12673,0.12672 0,0.35842 0,0.53763 0,0.17921 0,0.35842 0,0.53763 0,0.17922 0.17922,0.53764 0,0.53764 -0.17921,0 -0.17921,-0.53764 0,-0.53764 0.25345,0 0.42429,0.31095 0.53764,0.53764 0.0769,0.15387 0,2.40096 0,2.68817"
       id="path3048"
       inkscape:connector-curvature="0"
       transform="translate(0,702.36218)" />
    <path
       style="fill:none;stroke:#000000;stroke-width:1px;stroke-linecap:butt;stroke-linejoin:miter;stroke-opacity:1"
       d="m 97.849462,215.5914 c 0.179212,0.71684 0.392723,1.42598 0.537635,2.15054 0.121127,0.60563 0,1.49952 0,2.15053 0,1.79212 0,3.58423 0,5.37635 0,0.33714 -0.06641,2.08412 0,2.15053 0.126721,0.12673 0.410913,-0.12672 0.537634,0 0.253443,0.25345 -0.253443,0.82183 0,1.07527 0.126722,0.12673 0.410913,-0.12672 0.537635,0 0.253443,0.25345 -0.160292,0.75469 0,1.07527 0.113343,0.22669 0.424291,0.31095 0.537634,0.53764 0.0802,0.16029 -0.08015,0.37734 0,0.53763 0.11334,0.22669 0.45749,0.2972 0.53763,0.53764 0.11335,0.34003 -0.16029,0.75468 0,1.07526 0.0802,0.1603 0.41092,-0.12672 0.53764,0 0.25344,0.25345 -0.25344,0.82183 0,1.07527 0.12672,0.12672 0.41091,-0.12672 0.53763,0 0.12937,0.12937 -0.12937,2.02117 0,2.15054 1.11239,1.11239 -0.0435,-1.69987 1.07527,0.53764 0.42337,0.84673 -0.69711,0.53763 -1.07527,0.53763 -0.17921,0 -0.45749,0.16029 -0.53763,0 -0.16029,-0.32058 0.25344,-0.82183 0,-1.07527 -0.25344,-0.25344 -0.71685,0 -1.07527,0 -1.643604,0 1.28998,0.37617 -0.537634,-0.53763 -0.320584,-0.1603 -1.075269,0.35842 -1.075269,0 0,-0.17921 0.358423,0 0.537634,0"
       id="path3050"
       inkscape:connector-curvature="0"
       transform="translate(0,702.36218)" />
    <text
       xml:space="preserve"
       style="font-size:22px;font-style:normal;font-weight:normal;line-height:125%;letter-spacing:0px;word-spacing:0px;fill:#000000;fill-opacity:1;stroke:none;font-family:Sans"
       x="194.62366"
       y="159.67741"
       id="text3052"
       sodipodi:linespacing="125%"
       transform="translate(0,702.36218)"><tspan
         sodipodi:role="line"
         id="tspan3054"
         x="194.62366"
         y="159.67741">B</tspan></text>
    <text
       xml:space="preserve"
       style="font-size:15px;font-style:normal;font-weight:normal;line-height:125%;letter-spacing:0px;word-spacing:0px;fill:#000000;fill-opacity:1;stroke:none;font-family:Sans"
       x="80.107529"
       y="115.05376"
       id="text3056"
       sodipodi:linespacing="125%"
       transform="translate(0,702.36218)"><tspan
         sodipodi:role="line"
         id="tspan3058"
         x="80.107529"
         y="115.05376">N</tspan></text>
    <text
       xml:space="preserve"
       style="font-size:15px;font-style:normal;font-weight:normal;line-height:125%;letter-spacing:0px;word-spacing:0px;fill:#000000;fill-opacity:1;stroke:none;font-family:Sans"
       x="13.44086"
       y="213.44086"
       id="text3060"
       sodipodi:linespacing="125%"
       transform="translate(0,702.36218)"><tspan
         sodipodi:role="line"
         id="tspan3062"
         x="13.44086"
         y="213.44086">n<tspan
   style="font-size:65%;baseline-shift:sub"
   id="tspan3066">y</tspan></tspan></text>
    <text
       xml:space="preserve"
       style="font-size:15px;font-style:normal;font-weight:normal;line-height:125%;letter-spacing:0px;word-spacing:0px;fill:#000000;fill-opacity:1;stroke:none;font-family:Sans"
       x="74.19355"
       y="24.193548"
       id="text3068"
       sodipodi:linespacing="125%"
       transform="translate(0,702.36218)"><tspan
         sodipodi:role="line"
         id="tspan3070"
         x="74.19355"
         y="24.193548">n<tspan
   style="font-size:65%;baseline-shift:sub"
   id="tspan3072">x</tspan></tspan></text>
    <text
       xml:space="preserve"
       style="font-size:15px;font-style:normal;font-weight:normal;line-height:125%;letter-spacing:0px;word-spacing:0px;fill:#000000;fill-opacity:1;stroke:none;font-family:Sans"
       x="135.48387"
       y="136.02151"
       id="text3074"
       sodipodi:linespacing="125%"
       transform="translate(0,702.36218)"><tspan
         sodipodi:role="line"
         id="tspan3076"
         x="135.48387"
         y="136.02151">n<tspan
   style="font-size:65%;baseline-shift:sub"
   id="tspan3078">z</tspan></tspan></text>
    <path
       style="fill:none;stroke:#000000;stroke-width:1px;stroke-linecap:butt;stroke-linejoin:miter;stroke-opacity:1"
       d="m 174.73118,200 0,-85.48387"
       id="path3080"
       inkscape:connector-curvature="0"
       transform="translate(0,702.36218)" />
    <text
       xml:space="preserve"
       style="font-size:15px;font-style:normal;font-weight:normal;line-height:125%;letter-spacing:0px;word-spacing:0px;fill:#000000;fill-opacity:1;stroke:none;font-family:Sans"
       x="179.56989"
       y="106.98925"
       id="text3082"
       sodipodi:linespacing="125%"
       transform="translate(0,702.36218)"><tspan
         sodipodi:role="line"
         id="tspan3084"
         x="179.56989"
         y="106.98925">n<tspan
   style="font-size:65%;baseline-shift:sub"
   id="tspan3086">x</tspan></tspan></text>
    <path
       style="fill:none;stroke:#000000;stroke-width:1px;stroke-linecap:butt;stroke-linejoin:miter;stroke-opacity:1"
       d="m 15.591398,202.68817 c 2.150537,-4.83871 2.150537,-4.83871 2.150537,-4.83871 l 3.225807,3.76344"
       id="path3088"
       inkscape:connector-curvature="0"
       transform="translate(0,702.36218)" />
    <path
       style="fill:none;stroke:#000000;stroke-width:1px;stroke-linecap:butt;stroke-linejoin:miter;stroke-opacity:1"
       d="m 74.193548,12.365591 3.763441,-4.3010749 3.225807,4.3010749"
       id="path3090"
       inkscape:connector-curvature="0"
       transform="translate(0,702.36218)" />
    <path
       style="fill:none;stroke:#000000;stroke-width:1px;stroke-linecap:butt;stroke-linejoin:miter;stroke-opacity:1"
       d="m 136.55914,123.65591 2.68817,-3.76344 3.76344,3.22581"
       id="path3092"
       inkscape:connector-curvature="0"
       transform="translate(0,702.36218)" />
    <path
       style="fill:none;stroke:#000000;stroke-width:1px;stroke-linecap:butt;stroke-linejoin:miter;stroke-opacity:1"
       d="m 180.10753,95.16129 3.76344,-3.763441 3.2258,3.763441"
       id="path3094"
       inkscape:connector-curvature="0"
       transform="translate(0,702.36218)" />
    <text
       xml:space="preserve"
       x="92.473122"
       y="294.08603"
       id="text3096"
       transform="translate(0,702.36218)"><tspan
         sodipodi:role="line"
         id="tspan3098"
         x="92.473122"
         y="294.08603"><tspan
   id="tspan3100"
   style="font-size:65.00091553%;baseline-shift:super">N</tspan>w<tspan
   style="font-size:65.00091553%;baseline-shift:super"
   id="tspan3106">B</tspan>=q n<tspan
   style="font-size:65%;baseline-shift:sub"
   id="tspan3111">x</tspan></tspan></text>
    <path
       sodipodi:type="arc"
       id="path3113"
       style="fill:#000000;stroke:none"
       sodipodi:cx="127.41935"
       sodipodi:cy="986.77075"
       sodipodi:rx="1.5"
       sodipodi:ry="1.5"
       d="m 128.91935,986.77075 a 1.5,1.5 0 1 1 -3,0 1.5,1.5 0 1 1 3,0 z" />
    <path
       style="fill:none;stroke:#000000;stroke-width:1px;stroke-linecap:butt;stroke-linejoin:miter;stroke-opacity:1"
       d="m 136.02151,286.02151 2.15053,-3.22581 1.61291,3.22581"
       id="path3115"
       inkscape:connector-curvature="0"
       transform="translate(0,702.36218)" />
  </g>
</svg>
