<svg width="3608" height="1449" xmlns="http://www.w3.org/2000/svg"
     xmlns:xlink="http://www.w3.org/1999/xlink" xml:space="preserve"
     overflow="hidden"><defs><clipPath id="clip0"><rect x="440" y="622" width="3608" height="1449"/></clipPath></defs>
    <g clip-path="url(#clip0)" transform="translate(-440 -622)"><path d="M451 1845.5C451 1775.64 507.636 1719 577.5 1719L1870.5 1719C1940.37 1719 1997 1775.64 1997 1845.5L1997 1845.5C1997 1915.37 1940.36 1972 1870.5 1972L577.5 1972C507.636 1972 451 1915.36 451 1845.5Z" fill="#00B050" fill-rule="evenodd"/>
        <path d="M1800.88 1957.01C1740.85 1921.55 1720.93 1844.14 1756.39 1784.11L2128.03 1154.95C2163.49 1094.92 2240.9 1075 2300.93 1110.46L2300.93 1110.46C2360.96 1145.92 2380.88 1223.33 2345.42 1283.36L1973.78 1912.52C1938.32 1972.55 1860.91 1992.47 1800.88 1957.01Z"
              fill="#0070C0" fill-rule="evenodd"/>
        <path d="M514.737 1969.05C451.247 1940.24 423.133 1865.41 451.943 1801.92L924.633 760.234C953.443 696.744 1028.27 668.63 1091.76 697.44L1091.76 697.442C1155.25 726.252 1183.36 801.076 1154.55 864.566L681.861 1906.25C653.051 1969.74 578.226 1997.86 514.736 1969.05Z"
              fill="#0070C0" fill-rule="evenodd"/>
        <path d="M522 1845.5C522 1813.19 548.191 1787 580.5 1787 612.809 1787 639 1813.19 639 1845.5 639 1877.81 612.809 1904 580.5 1904 548.191 1904 522 1877.81 522 1845.5Z"
              stroke="#FFFFFF" stroke-width="27.5" stroke-miterlimit="8"
              fill="none" fill-rule="evenodd"/>
        <path d="M1820 1845.5C1820 1813.19 1846.19 1787 1878.5 1787 1910.81 1787 1937 1813.19 1937 1845.5 1937 1877.81 1910.81 1904 1878.5 1904 1846.19 1904 1820 1877.81 1820 1845.5Z"
              stroke="#FFFFFF" stroke-width="27.5" stroke-miterlimit="8"
              fill="none" fill-rule="evenodd"/>
        <path d="M924.994 771.296C947.528 705.317 1019.28 670.097 1085.26 692.631L2274.49 1098.79C2340.47 1121.32 2375.69 1193.08 2353.15 1259.06L2353.15 1259.06C2330.62 1325.04 2258.86 1360.26 2192.89 1337.72L1003.66 931.562C937.68 909.028 902.461 837.274 924.995 771.294Z"
              fill="#2F5597" fill-rule="evenodd"/>
        <path d="M2169 1211.5C2169 1179.19 2195.19 1153 2227.5 1153 2259.81 1153 2286 1179.19 2286 1211.5 2286 1243.81 2259.81 1270 2227.5 1270 2195.19 1270 2169 1243.81 2169 1211.5Z"
              stroke="#FFFFFF" stroke-width="27.5" stroke-miterlimit="8"
              fill="none" fill-rule="evenodd"/>
        <path d="M983 818.5C983 786.191 1008.97 760 1041 760 1073.03 760 1099 786.191 1099 818.5 1099 850.809 1073.03 877 1041 877 1008.97 877 983 850.809 983 818.5Z"
              stroke="#FFFFFF" stroke-width="27.5" stroke-miterlimit="8"
              fill="none" fill-rule="evenodd"/>
        <path d="M2017.96 1213.34 2017.07 1193.98 2018.93 1182.91 2021.07 1173.01 2023.68 1163.29 2026.75 1153.75 2030.23 1144.4 2034.18 1135.15 2038.6 1126.1 2043.41 1117.36 2048.62 1108.81 2054.24 1100.51 2060.37 1092.34 2073.51 1077.28 2088.23 1063.36 2104.24 1050.94 2113.01 1045.15 2121.9 1039.88 2131.15 1034.98 2140.71 1030.57 2150.55 1026.56 2160.72 1023.08 2171.01 1020.07 2181.37 1017.66 2191.72 1015.73 2202.04 1014.39 2212.43 1013.52 2222.72 1013.25 2232.96 1013.38 2243.15 1014.12 2253.16 1015.25 2263.15 1016.93 2273.05 1019.07 2282.77 1021.68 2292.31 1024.75 2301.66 1028.23 2310.91 1032.18 2319.96 1036.6 2328.71 1041.41 2337.25 1046.62 2345.55 1052.24 2353.73 1058.38 2368.73 1071.52 2382.64 1086.23 2395.06 1102.24 2400.85 1111.02 2406.12 1119.9 2411.02 1129.15 2415.44 1138.74 2419.38 1148.55 2422.91 1158.68 2425.93 1169.01 2428.34 1179.37 2430.27 1189.72 2431.61 1200.04 2432.48 1210.39 2432.82 1220.72 2432.62 1230.96 2431.95 1241.15 2430.74 1251.16 2429.14 1261.11 2426.99 1271.05 2424.38 1280.77 2421.3 1290.35 2417.76 1299.7 2413.83 1308.88 2409.48 1317.92 2404.65 1326.71 2399.44 1335.25 2393.8 1343.58 2387.61 1351.74 2374.55 1366.72 2359.82 1380.65 2343.77 1393.06 2335.07 1398.83 2326.17 1404.12 2316.91 1409.02 2307.31 1413.45 2297.45 1417.38 2287.44 1420.89 2281.32 1422.72 2273.43 1396.38 2279.24 1394.64 2278.63 1394.84 2288.07 1391.53 2287.53 1391.73 2296.78 1388.04 2296.11 1388.33 2305.05 1384.2 2304.38 1384.53 2313.01 1379.97 2312.42 1380.3 2320.73 1375.37 2320.14 1375.73 2328.14 1370.42 2327.34 1370.99 2342.47 1359.31 2341.43 1360.2 2355.18 1347.2 2354.26 1348.15 2366.57 1334.03 2365.98 1334.75 2371.67 1327.25 2371.24 1327.85 2376.49 1320.1 2376.13 1320.66 2381.01 1312.66 2380.7 1313.19 2385.2 1305 2384.86 1305.66 2388.92 1297.22 2388.67 1297.78 2392.36 1289.16 2392.14 1289.69 2395.45 1280.94 2395.22 1281.6 2398.1 1272.66 2397.91 1273.3 2400.35 1264.24 2400.19 1264.91 2402.19 1255.66 2402.05 1256.38 2403.55 1247.06 2403.47 1247.61 2404.6 1238.24 2404.53 1238.97 2405.15 1229.47 2405.13 1230.11 2405.32 1220.54 2405.32 1221.26 2405.01 1211.63 2405.05 1212.34 2404.24 1202.65 2404.3 1203.27 2403.05 1193.65 2403.17 1194.4 2401.36 1184.72 2401.48 1185.3 2399.23 1175.61 2399.43 1176.36 2396.61 1166.73 2396.83 1167.4 2393.52 1157.9 2393.74 1158.5 2390.05 1149.31 2390.33 1149.95 2386.2 1141.01 2386.53 1141.68 2381.97 1133.05 2382.3 1133.65 2377.37 1125.33 2377.71 1125.88 2372.39 1117.82 2373.01 1118.68 2361.32 1103.62 2362.2 1104.63 2349.2 1090.88 2350.13 1091.78 2336 1079.4 2336.81 1080.06 2329.31 1074.44 2329.85 1074.82 2322.1 1069.57 2322.66 1069.93 2314.66 1065.05 2315.19 1065.36 2307 1060.86 2307.59 1061.17 2299.15 1057.04 2299.78 1057.33 2291.16 1053.64 2291.78 1053.89 2283.03 1050.64 2283.6 1050.84 2274.66 1047.96 2275.3 1048.15 2266.24 1045.72 2266.91 1045.88 2257.66 1043.88 2258.29 1044 2248.97 1042.44 2249.7 1042.54 2240.33 1041.48 2240.88 1041.53 2231.38 1040.84 2232.2 1040.87 2222.63 1040.75 2223.17 1040.75 2213.54 1041 2214.34 1040.95 2204.65 1041.76 2205.27 1041.7 2195.65 1042.95 2196.4 1042.83 2186.72 1044.64 2187.3 1044.52 2177.61 1046.77 2178.36 1046.57 2168.73 1049.39 2169.33 1049.2 2159.83 1052.45 2160.57 1052.17 2151.38 1055.92 2151.95 1055.67 2143.01 1059.8 2143.68 1059.47 2135.05 1064.03 2135.65 1063.7 2127.33 1068.63 2127.88 1068.29 2119.82 1073.61 2120.68 1072.99 2105.62 1084.68 2106.63 1083.8 2092.88 1096.8 2093.8 1095.85 2081.42 1110.04 2082.06 1109.25 2076.44 1116.75 2076.82 1116.21 2071.57 1123.96 2071.93 1123.41 2067.05 1131.41 2067.36 1130.87 2062.86 1139.06 2063.17 1138.48 2059.04 1146.91 2059.33 1146.28 2055.64 1154.91 2055.89 1154.29 2052.64 1163.04 2052.84 1162.46 2049.96 1171.4 2050.15 1170.76 2047.72 1179.82 2047.88 1179.16 2045.88 1188.41 2046 1187.78 2044.44 1197.09 2044.61 1194.18 2045.43 1212.08ZM2071.46 1195.13 2038.19 1281.15 1989.33 1202.92Z"
              fill="#00B0F0"/>
        <path d="M1014.64 1037.75 995.293 1038.09 984.226 1035.93 974.447 1033.52 964.851 1030.65 955.333 1027.37 946.038 1023.56 936.922 1019.4 928.091 1014.72 919.412 1009.71 910.882 1004.12 895.053 992.129 880.199 978.48 866.675 963.349 854.734 947.03 849.155 938.116 844.129 929.069 839.503 919.684 835.362 909.999 831.62 900.043 828.412 889.818 825.671 879.454 823.526 868.997 821.92 858.63 820.849 848.184 820.315 837.901 820.248 827.605 820.716 817.363 821.655 807.241 823.129 797.188 825.068 787.226 827.479 777.447 830.357 767.809 833.694 758.333 837.439 749.038 841.662 739.922 846.278 731.092 851.371 722.379 856.945 713.882 868.933 698.053 882.573 683.21 897.648 669.675 914.024 657.741 922.881 652.155 932.012 647.119 941.363 642.51 950.985 638.368 960.957 634.62 971.297 631.376 987.523 627.386 1003.92 624.776 1020.29 623.44 1036.61 623.373 1052.81 624.578 1068.84 627.059 1084.56 630.806 1099.84 635.678 1114.82 641.696 1129.24 648.871 1143.15 657.228 1156.39 666.59 1168.91 677.038 1180.69 688.551 1191.6 701.064 1201.27 714.117 1179.17 730.486 1169.83 717.872 1170.51 718.722 1160.32 707.035 1161.08 707.834 1150.08 697.084 1150.88 697.808 1139.19 688.058 1140.06 688.727 1127.69 679.977 1128.54 680.535 1115.54 672.723 1116.5 673.247 1103.06 666.56 1104.06 667.009 1090.06 661.384 1091.01 661.725 1076.7 657.163 1077.69 657.438 1063 653.938 1064.08 654.151 1049.15 651.838 1050.23 651.962 1035.1 650.837 1036.18 650.875 1020.93 650.937 1021.99 650.892 1006.68 652.142 1007.72 652.016 992.411 654.454 993.533 654.227 978.283 657.977 979.116 657.744 969.553 660.744 970.275 660.496 960.962 663.996 961.562 663.754 952.562 667.629 953.204 667.333 944.454 671.646 945.015 671.353 936.515 676.04 937.211 675.63 929.086 680.755 929.848 680.237 914.411 691.487 915.498 690.607 901.436 703.232 902.374 702.304 889.624 716.179 890.461 715.176 879.149 730.114 879.684 729.354 874.559 737.167 874.933 736.565 870.183 744.69 870.498 744.12 866.186 752.37 866.476 751.779 862.539 760.279 862.816 759.638 859.316 768.326 859.532 767.754 856.407 776.629 856.613 775.997 853.925 784.997 854.1 784.354 851.85 793.479 851.997 792.814 850.184 802.127 850.292 801.495 848.917 810.87 849.004 810.144 848.129 819.582 848.173 818.941 847.736 828.503 847.75 827.786 847.812 837.411 847.794 836.787 848.294 846.412 848.241 845.722 849.241 855.472 849.151 854.771 850.651 864.458 850.532 863.799 852.532 873.549 852.355 872.796 854.918 882.484 854.744 881.884 857.744 891.447 857.496 890.725 860.996 900.037 860.768 899.469 864.643 908.532 864.333 907.859 868.646 916.609 868.332 916.01 873.02 924.447 872.655 923.829 877.78 932.017 877.222 931.193 888.472 946.568 887.627 945.524 900.252 959.649 899.304 958.688 913.179 971.438 912.176 970.601 927.114 981.914 926.354 981.378 934.167 986.503 933.496 986.09 941.621 990.777 941.192 990.54 949.442 994.915 948.704 994.551 957.204 998.426 956.717 998.216 965.404 1001.78 964.673 1001.5 973.548 1004.56 972.997 1004.39 981.997 1007.07 981.354 1006.9 990.479 1009.15 989.814 1009 999.127 1010.82 996.261 1010.56 1014.17 1010.25ZM997.91 983.77 1083 1019.37 1003.46 1066.08Z"
              fill="#00B0F0"/>
        <path d="M581 1831.25 836.661 1831.25 836.661 1858.75 581 1858.75ZM822.911 1803.75 905.411 1845 822.911 1886.25Z"
              fill="#FF0000"/>
        <path d="M598.75 1604.75 598.75 1860.8 571.25 1860.8 571.25 1604.75ZM543.75 1618.5 585 1536 626.25 1618.5Z"
              fill="#FF0000"/>
        <text font-family="Arial,Arial_MSFontService,sans-serif"
              font-weight="400" font-size="83"
              transform="matrix(1 0 0 1 2124.4 1815)">q<tspan font-size="83"
                                                              x="45.8335" y="0">1, u1</tspan>
            <tspan font-size="83" x="-1519.22" y="-1084">q3</tspan>
            <tspan font-size="83" x="-1427.55" y="-1084">, u3</tspan>
            <tspan font-size="83" x="9.44824" y="-853">q2</tspan>
            <tspan font-size="83" x="101.115" y="-853">, u2</tspan>
            <tspan fill="#FFFFFF" font-size="83" x="-968.89"
                   y="52">Link1</tspan></text>
        <text fill="#FFFFFF" font-family="Arial,Arial_MSFontService,sans-serif"
              font-weight="400" font-size="83"
              transform="matrix(0.935838 0.35243 -0.35243 0.935838 1503.71 989)">Link3</text>
        <text fill="#FFFFFF" font-family="Arial,Arial_MSFontService,sans-serif"
              font-weight="400" font-size="83"
              transform="matrix(0.508282 -0.861191 0.861191 0.508282 2023.86 1616)">Link2</text>
        <text fill="#FFFFFF" font-family="Arial,Arial_MSFontService,sans-serif"
              font-weight="400" font-size="83"
              transform="matrix(0.423675 -0.905814 0.905814 0.423675 772.824 1449)">Link4</text>
        <path d="M1892.31 1656.34 1911.66 1657.06 1922.58 1659.74 1932.27 1662.7 1941.75 1666.1 1951.06 1669.92 1960.09 1674.2 1968.95 1678.86 1977.58 1683.95 1985.94 1689.43 1994.19 1695.43 2009.38 1708.3 2023.43 1722.69 2035.98 1738.35 2041.9 1746.92 2047.27 1755.65 2052.21 1764.67 2056.74 1773.93 2060.9 1783.53 2064.52 1793.43 2067.72 1803.52 2070.4 1813.98 2072.54 1824.46 2074.14 1834.95 2075.21 1845.45 2075.75 1855.9 2075.75 1866.25 2075.28 1876.55 2074.27 1886.77 2072.73 1896.9 2070.73 1906.75 2068.33 1916.58 2065.37 1926.27 2061.96 1935.75 2058.14 1945.06 2053.86 1954.09 2049.2 1962.95 2044.12 1971.58 2038.63 1979.94 2032.63 1988.19 2019.76 2003.38 2005.36 2017.44 1989.66 2029.97 1981.16 2035.88 1972.41 2041.27 1963.39 2046.21 1954.12 2050.75 1944.47 2054.9 1934.63 2058.52 1924.48 2061.72 1914.01 2064.42 1899.05 2067.28 1884.07 2069.09 1869 2069.76 1854.1 2069.36 1839.32 2067.95 1824.7 2065.47 1810.32 2061.93 1796.29 2057.45 1782.54 2051.95 1769.3 2045.46 1756.48 2038.12 1744.16 2029.81 1732.37 2020.57 1721.26 2010.46 1710.83 1999.5 1701.4 1988.08 1722.61 1970.58 1731.73 1981.62 1731.09 1980.9 1740.84 1991.15 1740.13 1990.45 1750.5 1999.89 1749.73 1999.24 1760.73 2007.87 1759.93 2007.29 1771.43 2015.04 1770.59 2014.51 1782.59 2021.38 1781.8 2020.96 1794.17 2027.03 1793.23 2026.61 1806.04 2031.73 1805.12 2031.4 1818.24 2035.59 1817.35 2035.34 1830.79 2038.65 1829.8 2038.44 1843.43 2040.76 1842.43 2040.62 1856.24 2041.94 1855.31 2041.88 1869.24 2042.26 1868.26 2042.26 1882.33 2041.64 1881.29 2041.72 1895.29 2040.04 1894.36 2040.18 1908.42 2037.49 1907.56 2037.69 1917.25 2035.19 1916.55 2035.39 1926.05 2032.39 1925.45 2032.59 1934.63 2029.22 1933.94 2029.5 1942.94 2025.62 1942.33 2025.9 1951.02 2021.65 1950.45 2021.94 1958.89 2017.32 1958.29 2017.66 1966.42 2012.66 1965.77 2013.09 1973.58 2007.65 1972.86 2008.19 1987.68 1996.38 1986.64 1997.29 2000.08 1984.16 1999.2 1985.11 2011.32 1970.8 2010.69 1971.6 2016.19 1964.04 2015.82 1964.58 2020.94 1956.77 2020.59 1957.33 2025.34 1949.27 2025.02 1949.85 2029.39 1941.53 2029.14 1942.05 2033.14 1933.61 2032.84 1934.28 2036.4 1925.6 2036.18 1926.16 2039.37 1917.29 2039.16 1917.92 2041.91 1908.92 2041.71 1909.67 2043.96 1900.48 2043.84 1901.02 2045.71 1891.77 2045.59 1892.43 2047.03 1882.99 2046.94 1883.71 2047.88 1874.21 2047.83 1874.94 2048.26 1865.31 2048.25 1865.94 2048.25 1856.25 2048.27 1856.95 2047.77 1847.2 2047.82 1847.89 2046.82 1838.08 2046.91 1838.77 2045.41 1828.95 2045.53 1829.62 2043.53 1819.81 2043.68 1820.48 2041.18 1810.73 2041.4 1811.48 2038.4 1802.04 2038.58 1802.59 2035.21 1793.34 2035.51 1794.09 2031.63 1785.16 2031.9 1785.73 2027.65 1777.04 2027.94 1777.61 2023.32 1769.17 2023.66 1769.77 2018.66 1761.64 2019.06 1762.25 2013.62 1754.38 2014.2 1755.16 2002.39 1740.41 2003.29 1741.42 1990.16 1727.98 1991.11 1728.87 1976.8 1716.74 1977.6 1717.37 1970.04 1711.87 1970.58 1712.25 1962.77 1707.12 1963.33 1707.47 1955.27 1702.72 1955.85 1703.04 1947.53 1698.67 1948.05 1698.92 1939.61 1694.92 1940.28 1695.22 1931.6 1691.66 1932.16 1691.88 1923.29 1688.69 1923.92 1688.9 1914.92 1686.15 1915.67 1686.36 1906.48 1684.11 1909.24 1684.49 1891.29 1683.83ZM1906.11 1711.14 1823.06 1671.02 1904.99 1628.65Z"
              fill="#92D050"/>
        <path d="M0 0 259.843 0.000360892" stroke="#92D050" stroke-width="27.5"
              stroke-miterlimit="8" fill="none" fill-rule="evenodd"
              transform="matrix(-1 0 0 1 3015.84 1359)"/>
        <text font-family="Arial,Arial_MSFontService,sans-serif"
              font-weight="400" font-size="83"
              transform="matrix(1 0 0 1 3049.59 1388)">Degree of Freedom (DoF)</text>
        <path d="M0 0 259.843 0.000360892" stroke="#00B0F0" stroke-width="27.5"
              stroke-miterlimit="8" fill="none" fill-rule="evenodd"
              transform="matrix(-1 0 0 1 3015.84 1497)"/>
        <text font-family="Arial,Arial_MSFontService,sans-serif"
              font-weight="400" font-size="83"
              transform="matrix(1 0 0 1 3049.59 1526)">Constrained DoF<tspan
                font-size="83" x="0.000488281" y="138">Active constraint</tspan></text>
        <path d="M0 0 259.843 0.000360892" stroke="#FF0000" stroke-width="27.5"
              stroke-miterlimit="8" fill="none" fill-rule="evenodd"
              transform="matrix(-1 0 0 1 3015.84 1631)"/>
        <path d="M2756 1222.5C2756 1204.55 2770.55 1190 2788.5 1190L2983.5 1190C3001.45 1190 3016 1204.55 3016 1222.5L3016 1222.5C3016 1240.45 3001.45 1255 2983.5 1255L2788.5 1255C2770.55 1255 2756 1240.45 2756 1222.5Z"
              fill="#4472C4" fill-rule="evenodd"/>
        <text font-family="Arial,Arial_MSFontService,sans-serif"
              font-weight="400" font-size="83"
              transform="matrix(1 0 0 1 3049.59 1252)">Moving body</text>
        <path d="M2756 1089.5C2756 1071.55 2770.55 1057 2788.5 1057L2983.5 1057C3001.45 1057 3016 1071.55 3016 1089.5L3016 1089.5C3016 1107.45 3001.45 1122 2983.5 1122L2788.5 1122C2770.55 1122 2756 1107.45 2756 1089.5Z"
              fill="#00B050" fill-rule="evenodd"/>
        <text font-family="Arial,Arial_MSFontService,sans-serif"
              font-weight="400" font-size="83"
              transform="matrix(1 0 0 1 3049.59 1116)">Fixed body</text></g></svg>
