<svg width="1993" height="1358" xmlns="http://www.w3.org/2000/svg" xmlns:xlink="http://www.w3.org/1999/xlink"
     xml:space="preserve" overflow="hidden"><defs><clipPath id="clip0"><rect x="2256" y="652" width="1993" height="1358"/></clipPath></defs>
    <style>
        text { fill: black; }
        @media (prefers-color-scheme: dark) {
            text { fill: white; }
        }
    </style>
    <g clip-path="url(#clip0)" transform="translate(-2256 -652)"><path d="M2267 1874.5C2267 1804.64 2323.64 1748 2393.5 1748L3685.5 1748C3755.36 1748 3812 1804.64 3812 1874.5L3812 1874.5C3812 1944.36 3755.36 2001 3685.5 2001L2393.5 2001C2323.64 2001 2267 1944.36 2267 1874.5Z" fill="#00B050" fill-rule="evenodd"/>
        <path d="M3616.41 1986.19C3556.38 1950.73 3536.46 1873.32 3571.92 1813.29L3943.56 1184.13C3979.02 1124.1 4056.43 1104.18 4116.46 1139.64L4116.46 1139.64C4176.49 1175.1 4196.41 1252.51 4160.95 1312.54L3789.31 1941.7C3753.85 2001.73 3676.44 2021.65 3616.41 1986.19Z"
              fill="#0070C0" fill-rule="evenodd"/>
        <path d="M2330.27 1998.23C2266.78 1969.42 2238.67 1894.59 2267.48 1831.1L2740.17 789.414C2768.98 725.924 2843.8 697.811 2907.29 726.621L2907.29 726.622C2970.78 755.432 2998.9 830.256 2970.09 893.747L2497.4 1935.43C2468.59 1998.92 2393.76 2027.04 2330.27 1998.23Z"
              fill="#0070C0" fill-rule="evenodd"/>
        <path d="M2338 1874.5C2338 1842.19 2364.19 1816 2396.5 1816 2428.81 1816 2455 1842.19 2455 1874.5 2455 1906.81 2428.81 1933 2396.5 1933 2364.19 1933 2338 1906.81 2338 1874.5Z"
              stroke="#FFFFFF" stroke-width="27.5" stroke-miterlimit="8" fill="none" fill-rule="evenodd"/>
        <path d="M3636 1874.5C3636 1842.19 3662.19 1816 3694.5 1816 3726.81 1816 3753 1842.19 3753 1874.5 3753 1906.81 3726.81 1933 3694.5 1933 3662.19 1933 3636 1906.81 3636 1874.5Z"
              stroke="#FFFFFF" stroke-width="27.5" stroke-miterlimit="8" fill="none" fill-rule="evenodd"/>
        <path d="M2740.53 800.476C2763.06 734.497 2834.82 699.277 2900.8 721.811L4090.02 1127.97C4156 1150.5 4191.22 1222.26 4168.69 1288.24L4168.69 1288.24C4146.15 1354.22 4074.4 1389.44 4008.42 1366.9L2819.19 960.743C2753.21 938.209 2718 866.454 2740.53 800.475Z"
              fill="#2F5597" fill-rule="evenodd"/>
        <path d="M3984 1240.5C3984 1208.19 4010.19 1182 4042.5 1182 4074.81 1182 4101 1208.19 4101 1240.5 4101 1272.81 4074.81 1299 4042.5 1299 4010.19 1299 3984 1272.81 3984 1240.5Z"
              stroke="#FFFFFF" stroke-width="27.5" stroke-miterlimit="8" fill="none" fill-rule="evenodd"/>
        <path d="M2798 847.5C2798 815.191 2824.19 789 2856.5 789 2888.81 789 2915 815.191 2915 847.5 2915 879.809 2888.81 906 2856.5 906 2824.19 906 2798 879.809 2798 847.5Z"
              stroke="#FFFFFF" stroke-width="27.5" stroke-miterlimit="8" fill="none" fill-rule="evenodd"/>
        <path d="M3713.91 1670.37 3733.1 1671.06 3743.97 1673.74 3753.62 1676.69 3763.03 1680.03 3772.37 1683.86 3781.42 1688.15 3790.21 1692.81 3798.85 1697.9 3807.15 1703.39 3815.37 1709.37 3830.51 1722.18 3844.55 1736.55 3857.1 1752.16 3862.96 1760.68 3868.33 1769.4 3873.26 1778.4 3877.81 1787.63 3881.9 1797.22 3885.58 1807.12 3888.73 1817.24 3891.4 1827.57 3893.27 1836.63 3894.75 1845.72 3895.82 1854.82 3896.48 1863.92 3896.75 1873.09 3896.62 1882.35 3895.16 1900.32 3892.15 1918.32 3887.52 1936.02 3881.3 1953.29 3873.86 1969.4 3848.89 1957.87 3856.08 1942.3 3855.63 1943.4 3861.44 1927.27 3861.07 1928.46 3865.38 1911.96 3865.13 1913.17 3867.94 1896.36 3867.79 1897.51 3869.17 1880.57 3869.13 1881.49 3869.25 1872.99 3869.26 1873.59 3869.01 1865.03 3869.04 1865.63 3868.41 1857.13 3868.47 1857.73 3867.47 1849.23 3867.55 1849.82 3866.18 1841.32 3866.29 1841.92 3864.54 1833.48 3864.69 1834.12 3862.19 1824.44 3862.37 1825.09 3859.43 1815.65 3859.67 1816.35 3856.24 1807.1 3856.48 1807.71 3852.66 1798.77 3852.98 1799.45 3848.73 1790.83 3849 1791.36 3844.38 1782.92 3844.73 1783.52 3839.73 1775.39 3840.11 1775.98 3834.73 1768.17 3835.35 1768.99 3823.54 1754.3 3824.41 1755.3 3811.29 1741.86 3812.24 1742.74 3797.99 1730.68 3798.79 1731.31 3791.22 1725.81 3791.73 1726.16 3783.98 1721.03 3784.58 1721.41 3776.52 1716.66 3777.06 1716.96 3768.81 1712.58 3769.36 1712.86 3760.92 1708.86 3761.6 1709.16 3752.91 1705.6 3753.53 1705.83 3744.72 1702.71 3745.29 1702.9 3736.29 1700.15 3737.02 1700.35 3727.9 1698.1 3730.69 1698.49 3712.92 1697.85ZM3727.7 1725.18 3644.67 1685 3726.63 1642.69Z"
              fill="#92D050"/>
        <path d="M3844.74 1317.41 3836.96 1299.72 3834.65 1288.71 3833.12 1278.77 3831.98 1268.82 3831.38 1258.71 3831.31 1248.69 3831.64 1238.78 3832.45 1228.72 3833.79 1218.83 3835.52 1208.94 3837.8 1199.16 3840.47 1189.53 3843.69 1179.96 3847.3 1170.58 3851.45 1161.36 3855.99 1152.27 3861.03 1143.41 3866.51 1134.78 3872.45 1126.37 3878.8 1118.21 3885.66 1110.29 3892.96 1102.71 3900.7 1095.44 3908.83 1088.51 3917.34 1081.94 3926.12 1075.91 3935.02 1070.42 3944.17 1065.41 3953.47 1060.86 3962.92 1056.85 3972.51 1053.29 3982.24 1050.27 3992.05 1047.73 4001.91 1045.66 4011.86 1044.12 4021.81 1042.98 4031.85 1042.38 4041.87 1042.31 4051.78 1042.64 4061.79 1043.45 4071.68 1044.79 4081.51 1046.52 4091.32 1048.81 4100.92 1051.54 4110.43 1054.69 4119.83 1058.39 4129.04 1062.52 4138.06 1067.06 4146.9 1072.09 4155.56 1077.59 4163.95 1083.57 4172.02 1089.97 4179.9 1096.78 4187.5 1104.11 4194.72 1111.87 4201.66 1120.07 4208.14 1128.55 4214.14 1137.3 4219.7 1146.26 4224.73 1155.46 4229.22 1164.77 4233.23 1174.26 4236.78 1183.9 4239.79 1193.61 4242.33 1203.43 4244.41 1213.35 4245.94 1223.3 4247.08 1233.25 4247.68 1243.35 4247.75 1253.37 4247.42 1263.28 4246.61 1273.34 4245.28 1283.24 4243.54 1293.07 4241.27 1302.83 4238.59 1312.52 4235.38 1322.1 4231.76 1331.48 4227.61 1340.71 4223.07 1349.79 4218.04 1358.65 4212.55 1367.28 4206.61 1375.69 4200.24 1383.87 4193.41 1391.71 4186.12 1399.33 4178.36 1406.62 4170.13 1413.64 4158.18 1422.53 4141.77 1400.46 4153.36 1391.84 4152.64 1392.41 4160.27 1385.91 4159.77 1386.35 4167.02 1379.54 4166.5 1380.06 4173.31 1372.94 4172.89 1373.4 4179.26 1366.09 4178.78 1366.68 4184.71 1359.05 4184.33 1359.57 4189.89 1351.69 4189.52 1352.25 4194.65 1344.19 4194.29 1344.77 4198.98 1336.52 4198.64 1337.16 4202.89 1328.66 4202.65 1329.18 4206.52 1320.55 4206.23 1321.24 4209.61 1312.49 4209.4 1313.06 4212.4 1304.12 4212.18 1304.84 4214.68 1295.78 4214.55 1296.32 4216.67 1287.19 4216.52 1287.92 4218.15 1278.73 4218.06 1279.28 4219.31 1270.03 4219.23 1270.78 4219.98 1261.4 4219.94 1262.04 4220.26 1252.73 4220.25 1253.28 4220.19 1243.9 4220.21 1244.64 4219.65 1235.26 4219.71 1236 4218.65 1226.68 4218.72 1227.22 4217.29 1217.91 4217.42 1218.63 4215.48 1209.38 4215.62 1210 4213.25 1200.82 4213.43 1201.45 4210.62 1192.39 4210.85 1193.06 4207.53 1184.06 4207.77 1184.66 4204.02 1175.79 4204.3 1176.41 4200.11 1167.72 4200.44 1168.35 4195.75 1159.79 4196.12 1160.43 4190.94 1152.05 4191.29 1152.6 4185.67 1144.41 4186.07 1144.97 4180.01 1137.03 4180.44 1137.57 4173.94 1129.88 4174.37 1130.37 4167.62 1123.12 4168.14 1123.65 4161.08 1116.83 4161.63 1117.34 4154.26 1110.96 4154.7 1111.33 4147.14 1105.33 4147.71 1105.76 4139.9 1100.2 4140.5 1100.6 4132.44 1095.48 4133.02 1095.83 4124.77 1091.14 4125.38 1091.47 4116.94 1087.22 4117.49 1087.48 4108.86 1083.6 4109.47 1083.86 4100.72 1080.42 4101.43 1080.68 4092.55 1077.74 4093.11 1077.91 4084.11 1075.35 4084.76 1075.52 4075.63 1073.39 4076.35 1073.54 4067.17 1071.91 4067.72 1072 4058.47 1070.75 4059.21 1070.83 4049.9 1070.08 4050.54 1070.12 4041.23 1069.8 4041.78 1069.81 4032.4 1069.87 4033.14 1069.85 4023.83 1070.41 4024.56 1070.35 4015.25 1071.41 4015.78 1071.34 4006.47 1072.78 4007.21 1072.64 3998.02 1074.58 3998.63 1074.44 3989.44 1076.81 3990.08 1076.63 3981.01 1079.44 3981.72 1079.21 3972.78 1082.52 3973.38 1082.28 3964.57 1086.03 3965.23 1085.73 3956.54 1089.98 3957.1 1089.69 3948.54 1094.37 3949.15 1094.02 3940.84 1099.14 3941.41 1098.77 3933.22 1104.4 3933.84 1103.95 3925.9 1110.07 3926.42 1109.65 3918.79 1116.15 3919.29 1115.71 3912.04 1122.52 3912.52 1122.05 3905.71 1129.11 3906.21 1128.55 3899.84 1135.93 3900.29 1135.39 3894.35 1143.01 3894.73 1142.5 3889.17 1150.37 3889.54 1149.81 3884.42 1157.88 3884.77 1157.29 3880.08 1165.54 3880.42 1164.9 3876.17 1173.4 3876.42 1172.89 3872.54 1181.51 3872.83 1180.82 3869.45 1189.57 3869.66 1189 3866.66 1197.94 3866.87 1197.24 3864.37 1206.24 3864.52 1205.68 3862.39 1214.81 3862.54 1214.07 3860.92 1223.32 3861 1222.78 3859.75 1232.03 3859.83 1231.28 3859.08 1240.66 3859.12 1240.02 3858.8 1249.34 3858.81 1248.78 3858.87 1258.16 3858.85 1257.43 3859.41 1266.8 3859.35 1266.07 3860.41 1275.38 3860.34 1274.84 3861.78 1284.15 3861.65 1283.43 3863.58 1292.68 3862.71 1289.96 3869.91 1306.34ZM3888.08 1281.13 3888.07 1373.37 3814.28 1318.02Z"
              fill="#00B0F0"/>
        <path d="M2830.5 1066.77 2811.09 1067.08 2800.09 1064.93 2790.33 1062.52 2780.62 1059.64 2771.19 1056.3 2761.91 1052.56 2752.82 1048.35 2743.94 1043.74 2735.27 1038.7 2726.76 1033.12 2710.93 1021.13 2696.15 1007.55 2682.62 992.487 2670.65 976.124 2665.14 967.208 2660.13 958.194 2655.51 948.824 2651.37 939.217 2647.62 929.307 2644.4 919.028 2641.74 908.713 2639.53 898.36 2637.92 887.946 2636.85 877.561 2636.31 867.212 2636.25 856.936 2636.78 846.693 2637.72 836.616 2639.19 826.554 2641.14 816.644 2643.55 806.937 2646.42 797.295 2649.76 787.881 2653.51 778.582 2657.74 769.512 2662.4 760.652 2667.42 752.018 2673.02 743.495 2685.01 727.717 2698.67 712.926 2713.81 699.457 2730.2 687.584 2739.04 682.074 2748.14 677.056 2757.49 672.448 2767.15 668.289 2777.13 664.603 2787.46 661.383 2802.03 657.725 2816.84 655.178 2831.6 653.709 2846.41 653.24 2861.13 653.909 2875.7 655.513 2890.09 658.191 2904.19 661.798 2918.12 666.422 2931.63 672.039 2944.74 678.524 2957.47 686.03 2969.58 694.395 2981.21 703.684 2992.25 713.859 3002.2 724.49 2982.11 743.275 2972.52 733.017 2973.25 733.738 2962.93 724.238 2963.67 724.868 2952.79 716.18 2953.56 716.752 2942.25 708.939 2943.08 709.47 2931.21 702.47 2932.09 702.948 2919.84 696.886 2920.66 697.258 2908.03 692.008 2908.98 692.363 2895.98 688.051 2896.9 688.321 2883.72 684.946 2884.61 685.143 2871.17 682.643 2872.18 682.792 2858.56 681.292 2859.44 681.361 2845.69 680.736 2846.75 680.743 2832.94 681.18 2833.86 681.12 2820.05 682.495 2821.02 682.364 2807.21 684.739 2808.22 684.523 2794.54 687.961 2795.28 687.752 2785.65 690.752 2786.32 690.524 2777.01 693.962 2777.69 693.692 2768.69 697.567 2769.33 697.271 2760.58 701.583 2761.14 701.29 2752.64 705.978 2753.27 705.607 2745.15 710.67 2745.94 710.134 2730.51 721.321 2731.58 720.462 2717.45 733.024 2718.42 732.076 2705.67 745.889 2706.51 744.886 2695.19 759.761 2695.75 758.979 2690.62 766.792 2691.01 766.161 2686.32 774.223 2686.61 773.716 2682.23 782.029 2682.52 781.44 2678.58 789.877 2678.88 789.201 2675.38 797.888 2675.58 797.345 2672.46 806.158 2672.68 805.497 2669.99 814.497 2670.16 813.876 2667.91 822.938 2668.06 822.269 2666.24 831.519 2666.35 830.87 2664.98 840.245 2665.07 839.519 2664.19 848.957 2664.23 848.405 2663.73 857.968 2663.75 857.16 2663.81 866.723 2663.79 866.104 2664.29 875.791 2664.24 875.088 2665.24 884.776 2665.15 884.083 2666.65 893.771 2666.51 893.012 2668.57 902.699 2668.44 902.127 2670.94 911.814 2670.74 911.134 2673.74 920.696 2673.49 919.946 2676.99 929.196 2676.75 928.625 2680.63 937.625 2680.33 936.984 2684.65 945.734 2684.33 945.135 2689.02 953.572 2688.7 953.019 2693.76 961.206 2693.16 960.318 2704.41 975.693 2703.54 974.627 2716.17 988.689 2715.24 987.749 2729.05 1000.44 2728.05 999.601 2742.99 1010.91 2742.23 1010.38 2750.04 1015.5 2749.41 1015.11 2757.47 1019.8 2756.89 1019.48 2765.21 1023.79 2764.65 1023.52 2773.15 1027.46 2772.51 1027.18 2781.2 1030.68 2780.66 1030.48 2789.47 1033.6 2788.78 1033.38 2797.85 1036.07 2797.23 1035.9 2806.35 1038.15 2805.71 1038.01 2814.96 1039.82 2812.09 1039.56 2830.05 1039.27ZM2813.8 1012.78 2898.87 1048.43 2819.31 1095.09Z"
              fill="#00B0F0"/>
        <path d="M2396 1861.25 2651.66 1861.25 2651.66 1888.75 2396 1888.75ZM2637.91 1833.75 2720.41 1875 2637.91 1916.25Z"
              fill="#FF0000"/>
        <path d="M2414.75 1633.75 2414.75 1889.8 2387.25 1889.8 2387.25 1633.75ZM2359.75 1647.5 2401 1565 2442.25 1647.5Z"
              fill="#FF0000"/>
        <text font-family="Arial,Arial_MSFontService,sans-serif" font-weight="400" font-size="83"
              transform="matrix(1 0 0 1 3939.93 1845)">q<tspan font-size="83" x="45.8333" y="0">1, u1</tspan>
            <tspan font-size="83" x="-1519.22" y="-1084">q</tspan>
            <tspan font-size="83" x="-1473.39" y="-1084">3</tspan>
            <tspan font-size="83" x="-1427.55" y="-1084">, u3</tspan>
            <tspan font-size="83" x="9.448" y="-854">q</tspan>
            <tspan font-size="83" x="55.2815" y="-854">2</tspan>
            <tspan font-size="83" x="101.115" y="-854">, u2</tspan>
            <tspan font-size="83" x="-968.891" y="51">Link1</tspan></text>
        <text font-family="Arial,Arial_MSFontService,sans-serif" font-weight="400" font-size="83"
              transform="matrix(0.935838 0.35243 -0.35243 0.935838 3319.24 1018)">Link3</text>
        <text font-family="Arial,Arial_MSFontService,sans-serif" font-weight="400" font-size="83"
              transform="matrix(0.508282 -0.861191 0.861191 0.508282 3839.4 1645)">Link2</text>
        <text font-family="Arial,Arial_MSFontService,sans-serif" font-weight="400" font-size="83"
              transform="matrix(0.423675 -0.905814 0.905814 0.423675 2588.36 1478)">Link4</text></g></svg>
