<?xml version="1.0" encoding="UTF-8" standalone="no"?>
<!-- Created with Inkscape (https://www.inkscape.org/) -->

<svg
   xmlns:dc="http://purl.org/dc/elements/1.1/"
   xmlns:cc="http://creativecommons.org/ns#"
   xmlns:rdf="http://www.w3.org/1999/02/22-rdf-syntax-ns#"
   xmlns:svg="http://www.w3.org/2000/svg"
   xmlns="http://www.w3.org/2000/svg"
   xmlns:sodipodi="http://sodipodi.sourceforge.net/DTD/sodipodi-0.dtd"
   xmlns:inkscape="https://www.inkscape.org/namespaces/inkscape"
   class="align-center"
   width="400"
   height="300"
   id="svg3060"
   version="1.1"
   inkscape:version="0.48.1 r9760"
   sodipodi:docname="New document 3">
  <defs
     id="defs3062" />
  <sodipodi:namedview
     id="base"
     pagecolor="#ffffff"
     bordercolor="#666666"
     borderopacity="1.0"
     inkscape:pageopacity="0.0"
     inkscape:pageshadow="2"
     inkscape:zoom="2.16"
     inkscape:cx="200"
     inkscape:cy="150"
     inkscape:document-units="px"
     inkscape:current-layer="layer1"
     showgrid="false"
     inkscape:window-width="990"
     inkscape:window-height="889"
     inkscape:window-x="14"
     inkscape:window-y="5"
     inkscape:window-maximized="0" />
  <metadata
     id="metadata3065">
    <rdf:RDF>
      <cc:Work
         rdf:about="">
        <dc:format>image/svg+xml</dc:format>
        <dc:type
           rdf:resource="http://purl.org/dc/dcmitype/StillImage" />
        <dc:title></dc:title>
      </cc:Work>
    </rdf:RDF>
  </metadata>
  <g
     inkscape:label="Layer 1"
     inkscape:groupmode="layer"
     id="layer1"
     transform="translate(0,-752.36218)">
    <path
       style="fill:none;stroke:CurrentColor;stroke-width:1px;stroke-linecap:butt;stroke-linejoin:miter;stroke-opacity:1"
       d="M 19.907407,219.44444 54.62963,182.87037 96.759259,211.11111"
       id="path3068"
       inkscape:connector-curvature="0"
       transform="translate(0,752.36218)" />
    <path
       style="fill:none;stroke:CurrentColor;stroke-width:1px;stroke-linecap:butt;stroke-linejoin:miter;stroke-opacity:1"
       d="M 54.62963,182.87037 53.703704,127.77778"
       id="path3070"
       inkscape:connector-curvature="0"
       transform="translate(0,752.36218)" />
    <path
       sodipodi:type="arc"
       id="path3072"
       sodipodi:cx="270.13889"
       sodipodi:cy="137.5"
       sodipodi:rx="41.898148"
       sodipodi:ry="26.851852"
       d="m 312.03703,137.5 a 41.898148,26.851852 0 1 1 -83.79629,0 41.898148,26.851852 0 1 1 83.79629,0 z"
       transform="matrix(1.3979832,0,0,1.4972804,-117.9274,672.26168)"
       style="fill:none;stroke:CurrentColor" />
    <path
       style="fill:none;stroke:CurrentColor;stroke-width:1.4467802px;stroke-linecap:butt;stroke-linejoin:miter;stroke-opacity:1"
       d="M 256.16254,875.36501 267.81241,799.8078 z"
       id="path3074"
       inkscape:connector-curvature="0" />
    <path
       style="fill:none;stroke:CurrentColor;stroke-width:1.4467802px;stroke-linecap:butt;stroke-linejoin:miter;stroke-opacity:1"
       d="m 289.17047,876.75137 0,0 0,0 0,0 -33.00793,-1.38636 -16.18036,30.50015"
       id="path3076"
       inkscape:connector-curvature="0" />
    <path
       sodipodi:type="arc"
       id="path3084"
       style="fill:CurrentColor;stroke:none"
       sodipodi:cx="268.05557"
       sodipodi:cy="887.54736"
       sodipodi:rx="2.5"
       sodipodi:ry="2.5"
       d="m 270.55557,887.54736 a 2.5,2.5 0 1 1 -5,0 2.5,2.5 0 1 1 5,0 z"
       transform="matrix(1.3979832,0,0,1.4972804,-117.9274,-454.23549)" />
    <path
       sodipodi:type="arc"
       id="path3086"
       style="fill:CurrentColor;stroke:none"
       sodipodi:cx="290.27777"
       sodipodi:cy="913.01031"
       sodipodi:rx="2.5"
       sodipodi:ry="2.5"
       d="m 292.77777,913.01031 a 2.5,2.5 0 1 1 -5,0 2.5,2.5 0 1 1 5,0 z"
       transform="matrix(1.3979832,0,0,1.4972804,-117.9274,-454.23549)" />
    <path
       style="fill:none;stroke:CurrentColor;stroke-width:1.4467802px;stroke-linecap:butt;stroke-linejoin:miter;stroke-opacity:1"
       d="m 258.75139,874.67182 29.12466,38.81838 z"
       id="path3088"
       inkscape:connector-curvature="0" />
    <text
       xml:space="preserve"
       style="font-size:40px;font-style:normal;font-weight:normal;line-height:125%;letter-spacing:0px;word-spacing:0px;fill:CurrentColor;fill-opacity:1;stroke:none;font-family:Sans"
       x="56.944443"
       y="933.38068"
       id="text3090"
       sodipodi:linespacing="125%"><tspan
         sodipodi:role="line"
         id="tspan3092"
         x="56.944443"
         y="933.38068">N</tspan></text>
    <text
       xml:space="preserve"
       style="font-size:40px;font-style:normal;font-weight:normal;line-height:125%;letter-spacing:0px;word-spacing:0px;fill:CurrentColor;fill-opacity:1;stroke:none;font-family:Sans"
       x="26.851852"
       y="235.1852"
       id="text3094"
       sodipodi:linespacing="125%"
       transform="translate(0,752.36218)"><tspan
         sodipodi:role="line"
         id="tspan3096"
         x="26.851852"
         y="235.1852"
         style="font-size:20px">n<tspan
   style="font-size:65%;baseline-shift:sub"
   id="tspan3102">x</tspan></tspan></text>
    <text
       xml:space="preserve"
       style="font-size:40px;font-style:normal;font-weight:normal;line-height:125%;letter-spacing:0px;word-spacing:0px;fill:CurrentColor;fill-opacity:1;stroke:none;font-family:Sans"
       x="102.31481"
       y="217.59259"
       id="text3104"
       sodipodi:linespacing="125%"
       transform="translate(0,752.36218)"><tspan
         sodipodi:role="line"
         id="tspan3106"
         x="102.31481"
         y="217.59259"
         style="font-size:20px">n<tspan
   style="font-size:65%;baseline-shift:sub"
   id="tspan3108">y</tspan></tspan></text>
    <text
       xml:space="preserve"
       style="font-size:40px;font-style:normal;font-weight:normal;line-height:125%;letter-spacing:0px;word-spacing:0px;fill:CurrentColor;fill-opacity:1;stroke:none;font-family:Sans"
       x="42.129631"
       y="118.51852"
       id="text3110"
       sodipodi:linespacing="125%"
       transform="translate(0,752.36218)"><tspan
         sodipodi:role="line"
         id="tspan3112"
         x="42.129631"
         y="118.51852"
         style="font-size:20px">n<tspan
   style="font-size:65%;baseline-shift:sub"
   id="tspan3114">z</tspan></tspan></text>
    <path
       style="fill:none;stroke:CurrentColor;stroke-width:1px;stroke-linecap:butt;stroke-linejoin:miter;stroke-opacity:1"
       d="M 43.518519,105.55556 48.148148,100 l 4.166667,4.62963"
       id="path3116"
       inkscape:connector-curvature="0"
       transform="translate(0,752.36218)" />
    <path
       style="fill:none;stroke:CurrentColor;stroke-width:1px;stroke-linecap:butt;stroke-linejoin:miter;stroke-opacity:1"
       d="m 105.55556,203.24074 5.09259,-5.09259 4.62963,4.62963"
       id="path3120"
       inkscape:connector-curvature="0"
       transform="translate(0,752.36218)" />
    <path
       style="fill:none;stroke:CurrentColor;stroke-width:1px;stroke-linecap:butt;stroke-linejoin:miter;stroke-opacity:1"
       d="m 28.703704,219.90741 6.018518,-5.0926 5.092593,4.62963"
       id="path3122"
       inkscape:connector-curvature="0"
       transform="translate(0,752.36218)" />
    <text
       xml:space="preserve"
       style="font-size:40px;font-style:normal;font-weight:normal;line-height:125%;letter-spacing:0px;word-spacing:0px;fill:CurrentColor;fill-opacity:1;stroke:none;font-family:Sans"
       x="167.12962"
       y="78.240738"
       id="text3124"
       sodipodi:linespacing="125%"
       transform="translate(0,752.36218)"><tspan
         sodipodi:role="line"
         id="tspan3126"
         x="167.12962"
         y="78.240738">B</tspan></text>
    <text
       xml:space="preserve"
       style="font-size:40px;font-style:normal;font-weight:normal;line-height:125%;letter-spacing:0px;word-spacing:0px;fill:CurrentColor;fill-opacity:1;stroke:none;font-family:Sans"
       x="237.96297"
       y="871.34369"
       id="text3128"
       sodipodi:linespacing="125%"><tspan
         sodipodi:role="line"
         id="tspan3130"
         x="237.96297"
         y="871.34369"
         style="font-size:20px">O</tspan></text>
    <text
       xml:space="preserve"
       style="font-size:40px;font-style:normal;font-weight:normal;line-height:125%;letter-spacing:0px;word-spacing:0px;fill:CurrentColor;fill-opacity:1;stroke:none;font-family:Sans"
       x="300"
       y="170.37038"
       id="text3132"
       sodipodi:linespacing="125%"
       transform="translate(0,752.36218)"><tspan
         sodipodi:role="line"
         id="tspan3134"
         x="300"
         y="170.37038"
         style="font-size:20px">P</tspan></text>
    <text
       xml:space="preserve"
       style="font-size:40px;font-style:normal;font-weight:normal;line-height:125%;letter-spacing:0px;word-spacing:0px;fill:CurrentColor;fill-opacity:1;stroke:none;font-family:Sans"
       x="275"
       y="45.370369"
       id="text3136"
       sodipodi:linespacing="125%"
       transform="translate(0,752.36218)"><tspan
         sodipodi:role="line"
         id="tspan3138"
         x="275"
         y="45.370369"
         style="font-size:20px">b<tspan
   style="font-size:65%;baseline-shift:sub"
   id="tspan3140">z</tspan></tspan></text>
    <text
       xml:space="preserve"
       style="font-size:40px;font-style:normal;font-weight:normal;line-height:125%;letter-spacing:0px;word-spacing:0px;fill:CurrentColor;fill-opacity:1;stroke:none;font-family:Sans"
       x="290.27777"
       y="881.06586"
       id="text3142"
       sodipodi:linespacing="125%"><tspan
         sodipodi:role="line"
         id="tspan3144"
         x="290.27777"
         y="881.06586"
         style="font-size:20px">b<tspan
   style="font-size:65.00091553%;baseline-shift:sub"
   id="tspan3146">y</tspan></tspan></text>
    <text
       xml:space="preserve"
       style="font-size:40px;font-style:normal;font-weight:normal;line-height:125%;letter-spacing:0px;word-spacing:0px;fill:CurrentColor;fill-opacity:1;stroke:none;font-family:Sans"
       x="217.59259"
       y="903.28809"
       id="text3148"
       sodipodi:linespacing="125%"><tspan
         sodipodi:role="line"
         id="tspan3150"
         x="217.59259"
         y="903.28809"
         style="font-size:20px">b<tspan
   style="font-size:65.00091553%;baseline-shift:sub"
   id="tspan3152">x</tspan></tspan></text>
    <path
       style="fill:none;stroke:CurrentColor;stroke-width:1px;stroke-linecap:butt;stroke-linejoin:miter;stroke-opacity:1"
       d="m 220.37037,133.33333 4.16667,-3.7037 2.77777,3.24074"
       id="path3176"
       inkscape:connector-curvature="0"
       transform="translate(0,752.36218)" />
    <path
       style="fill:none;stroke:CurrentColor;stroke-width:1px;stroke-linecap:butt;stroke-linejoin:miter;stroke-opacity:1"
       d="m 293.05556,111.57407 5.09259,-2.77777 3.24074,2.77777"
       id="path3178"
       inkscape:connector-curvature="0"
       transform="translate(0,752.36218)" />
    <path
       style="fill:none;stroke:CurrentColor;stroke-width:1px;stroke-linecap:butt;stroke-linejoin:miter;stroke-opacity:1"
       d="m 277.31481,28.240741 3.70371,-3.703704 2.77778,3.240741"
       id="path3180"
       inkscape:connector-curvature="0"
       transform="translate(0,752.36218)" />
    <path
       style="fill:none;stroke:CurrentColor;stroke-width:1px;stroke-linecap:butt;stroke-linejoin:miter;stroke-opacity:1"
       d="m 270.83333,145.37037 c 0,2.77778 0,5.55556 0,8.33333 0,0.61729 0.16958,1.25832 0,1.85186 -0.15285,0.535 -0.70674,0.87746 -0.92592,1.38888 -0.25065,0.58484 -0.26176,1.24823 -0.46297,1.85186 -0.21824,0.65472 -0.75854,1.18231 -0.92592,1.85185 -0.0749,0.29942 0.13803,0.64987 0,0.92592 -0.34507,0.69015 -1.00607,1.18192 -1.38889,1.85186 -0.48424,0.84741 -0.48944,1.9048 -0.92593,2.77777 -0.0976,0.19521 -0.41003,0.25124 -0.46296,0.46297 -0.11228,0.44914 0.0761,0.93222 0,1.38889 -0.16045,0.96273 -0.73451,1.82072 -0.92593,2.77777 -0.0605,0.30265 0,0.61729 0,0.92593 -0.15432,0.30864 -0.35384,0.59856 -0.46296,0.92593 -0.0976,0.2928 0.0976,0.63312 0,0.92592 -0.10912,0.32737 -0.39529,0.58756 -0.46296,0.92593 -0.0908,0.45397 0,0.92592 0,1.38889 0,0.7716 0,1.54321 0,2.31481 0,1.23457 0,2.46914 0,3.7037 0,0.46297 0,0.92593 0,1.38889 0,0.15432 -0.069,0.32494 0,0.46297 0.0976,0.1952 0.3419,0.28137 0.46296,0.46296 1.0479,1.57185 -0.20397,0.86635 1.38889,2.77778 0.41915,0.50297 1.02571,0.84412 1.38889,1.38889 0.2707,0.40604 0.30864,0.92592 0.46296,1.38888 0.15432,0.46297 0.34461,0.91546 0.46297,1.38889 0.0374,0.14972 0,0.30865 0,0.46297"
       id="path3182"
       inkscape:connector-curvature="0"
       transform="translate(0,752.36218)" />
    <path
       style="fill:none;stroke:CurrentColor;stroke-width:1px;stroke-linecap:butt;stroke-linejoin:miter;stroke-opacity:1"
       d="m 270.23919,144.01093 -1.96419,3.10996 4.5831,-0.32736 z"
       id="path3188"
       inkscape:connector-curvature="0"
       transform="translate(0,752.36218)" />
    <text
       xml:space="preserve"
       style="font-size:40px;font-style:normal;font-weight:normal;line-height:125%;letter-spacing:0px;word-spacing:0px;fill:CurrentColor;fill-opacity:1;stroke:none;font-family:Sans"
       x="255.09259"
       y="964.39923"
       id="text3190"
       sodipodi:linespacing="125%"><tspan
         sodipodi:role="line"
         id="tspan3192"
         x="255.09259"
         y="964.39923"
         style="font-size:20px">r<tspan
   style="font-size:65.00091553%;baseline-shift:super"
   id="tspan3196">OP</tspan></tspan></text>
    <path
       style="fill:none;stroke:CurrentColor;stroke-width:1px;stroke-linecap:butt;stroke-linejoin:miter;stroke-opacity:1"
       d="m 255.09259,214.35185 7.40741,0 z"
       id="path3198"
       inkscape:connector-curvature="0"
       transform="translate(0,752.36218)" />
  </g>
</svg>
