<?xml version="1.0" encoding="UTF-8" standalone="no"?>
<!-- Created with Inkscape (https://www.inkscape.org/) -->

<svg
   xmlns:dc="http://purl.org/dc/elements/1.1/"
   xmlns:cc="http://creativecommons.org/ns#"
   xmlns:rdf="http://www.w3.org/1999/02/22-rdf-syntax-ns#"
   xmlns:svg="http://www.w3.org/2000/svg"
   xmlns="http://www.w3.org/2000/svg"
   xmlns:sodipodi="http://sodipodi.sourceforge.net/DTD/sodipodi-0.dtd"
   xmlns:inkscape="https://www.inkscape.org/namespaces/inkscape"
   class="align-center"
   width="300"
   height="300"
   id="svg3219"
   version="1.1"
   inkscape:version="0.48.1 r9760"
   sodipodi:docname="New document 7">
  <defs
     id="defs3221">
    <inkscape:path-effect
       effect="skeletal"
       id="path-effect3265"
       is_visible="true"
       pattern="M 0,0 0,10 10,5 z"
       copytype="single_stretched"
       prop_scale="1"
       scale_y_rel="false"
       spacing="0"
       normal_offset="0"
       tang_offset="0"
       prop_units="false"
       vertical_pattern="false"
       fuse_tolerance="0" />
  </defs>
  <sodipodi:namedview
     id="base"
     pagecolor="#ffffff"
     bordercolor="#666666"
     borderopacity="1.0"
     inkscape:pageopacity="0.0"
     inkscape:pageshadow="2"
     inkscape:zoom="2.1766667"
     inkscape:cx="150"
     inkscape:cy="150"
     inkscape:document-units="px"
     inkscape:current-layer="layer1"
     showgrid="false"
     inkscape:window-width="1119"
     inkscape:window-height="870"
     inkscape:window-x="13"
     inkscape:window-y="7"
     inkscape:window-maximized="0" />
  <metadata
     id="metadata3224">
    <rdf:RDF>
      <cc:Work
         rdf:about="">
        <dc:format>image/svg+xml</dc:format>
        <dc:type
           rdf:resource="http://purl.org/dc/dcmitype/StillImage" />
        <dc:title></dc:title>
      </cc:Work>
    </rdf:RDF>
  </metadata>
  <g
     inkscape:label="Layer 1"
     inkscape:groupmode="layer"
     id="layer1"
     transform="translate(0,-752.36218)">
    <path
       style="fill:none;stroke:CurrentColor;stroke-width:1px;stroke-linecap:butt;stroke-linejoin:miter;stroke-opacity:1"
       d="m 18.376723,74.885145 0,177.794795 123.124047,0 0,0"
       id="path3227"
       inkscape:connector-curvature="0"
       transform="translate(0,752.36218)" />
    <path
       sodipodi:type="arc"
       id="path3229"
       style="fill:CurrentColor;stroke:none"
       sodipodi:cx="27.565084"
       sodipodi:cy="991.71899"
       sodipodi:rx="2.5"
       sodipodi:ry="2.5"
       d="m 30.065084,991.71899 a 2.5,2.5 0 1 1 -5,0 2.5,2.5 0 1 1 5,0 z" />
    <path
       style="fill:none;stroke:CurrentColor;stroke-width:1px;stroke-linecap:butt;stroke-linejoin:miter;stroke-opacity:1"
       d="m 105.66616,54.67075 c 0,0.918837 0.18019,1.855516 0,2.756509 -0.29216,1.460778 -2.01615,3.098259 -2.75651,4.134762 -0.19904,0.278647 -0.28324,0.625205 -0.45942,0.918837 -0.28408,0.473466 -0.5979,0.928949 -0.91884,1.378254 -0.44505,0.623073 -1.03582,1.152812 -1.37825,1.837672 -0.282376,0.56475 -0.237716,1.246465 -0.459419,1.837672 -0.702247,1.872659 -1.594843,2.721523 -2.29709,4.594181 -0.107542,0.286778 0.07428,0.621702 0,0.918836 -0.08305,0.332206 -0.351132,0.593979 -0.459418,0.918836 -0.09037,0.271115 0,2.040402 0,2.297091 0,0.459418 0,0.918836 0,1.378254 0,0.765697 -0.166103,1.549627 0,2.29709 0.148567,0.668552 0.649056,1.208187 0.918836,1.837673 0.190763,0.445113 0.168857,0.990838 0.459418,1.378254 0.205458,0.273944 0.676702,0.217283 0.918836,0.459418 0.242135,0.242134 0.245504,0.651443 0.459418,0.918836 0.405879,0.507342 0.918839,0.918836 1.378259,1.378254 0.30627,0.306279 0.57232,0.65895 0.91883,0.918836 0.74389,0.557918 0.90986,0.216243 1.37826,0.918836 0.18994,0.284919 0.26947,0.633918 0.45941,0.918837 0.35121,0.526803 1.55053,1.162891 1.83768,1.378254 0.78445,0.588342 1.52307,1.23566 2.29709,1.837672 1.70756,1.328103 3.57334,2.705509 5.51301,3.675345 0.43315,0.216571 0.93314,0.268655 1.37826,0.459418 2.80177,1.200758 0.92908,0.769111 4.13476,1.837672 0.59901,0.199669 1.26068,0.202978 1.83767,0.459418 8.21807,3.652473 -1.02625,-0.248215 3.21593,2.297093 0.41526,0.24915 0.92862,0.27956 1.37825,0.45942 0.31794,0.12717 0.6009,0.33224 0.91884,0.45941 0.44963,0.17986 0.92862,0.27957 1.37825,0.45942 0.31794,0.12718 0.59398,0.35113 0.91884,0.45942 0.59901,0.19967 1.24646,0.23772 1.83767,0.45942 0.64126,0.24047 1.22512,0.61256 1.83767,0.91883 0.61256,0.30628 1.24305,0.57905 1.83768,0.91884 0.4794,0.27394 0.89885,0.64489 1.37825,0.91884 0.0393,0.0224 3.66123,1.82779 3.67535,1.83767 0.97984,0.68589 1.74744,1.65496 2.7565,2.29709 4.25062,2.70494 0.37241,-1.08033 4.59418,2.29709 0.84558,0.67646 1.48776,1.57768 2.29709,2.29709 0.57229,0.5087 1.23327,0.90816 1.83768,1.37825 0.77401,0.60202 1.49377,1.27536 2.29709,1.83768 0.73153,0.51207 1.61911,0.79713 2.29709,1.37825 0.41922,0.35934 0.57391,0.9471 0.91883,1.37825 0.27059,0.33823 0.65895,0.57233 0.91884,0.91884 0.13562,0.18083 1.32799,2.55544 1.37825,2.75651 0.0743,0.29713 -0.16989,0.664 0,0.91884 0.18995,0.28491 0.79167,0.14147 0.91884,0.45941 0.2275,0.56875 0,1.22512 0,1.83768 0,1.99081 0,3.98162 0,5.97243 0,1.23327 -0.25169,3.06811 0.45942,4.13476 0.3604,0.5406 1.01786,0.83766 1.37825,1.37826 0.26863,0.40293 0.24285,0.94511 0.45942,1.37825 0.39934,0.79868 0.88294,1.55411 1.37826,2.29709 0.42473,0.6371 0.88806,1.24945 1.37825,1.83767 0.55458,0.6655 1.29651,1.16122 1.83767,1.83768 0.34493,0.43115 0.46953,1.05732 0.91884,1.37825 0.67107,0.47934 1.54349,0.5839 2.29709,0.91884 7.24893,3.22174 -2.6967,-1.11864 3.21592,1.83767 6.15774,3.07887 -1.28709,-1.31748 4.13477,2.29709 0.6515,0.43433 3.02114,1.28086 3.21592,1.37825 0.49386,0.24693 0.86126,0.72497 1.37826,0.91884 1.32198,0.49574 2.81278,0.42309 4.13476,0.91884 0.64125,0.24047 1.20819,0.64905 1.83767,0.91883 0.89023,0.38153 1.83768,0.61256 2.75651,0.91884 1.85231,0.61743 3.60842,0.95501 5.51302,1.37825 0.61637,0.13697 1.21114,0.3811 1.83767,0.45942 0.60783,0.076 1.22512,0 1.83767,0 1.37826,0 2.75651,0 4.13477,0 1.07197,0 2.14395,0 3.21592,0 0.30628,0 0.61256,0 0.91884,0 0.30628,0 0.6217,0.0743 0.91883,0 0.33221,-0.0831 0.61256,-0.30628 0.91884,-0.45942 0.30628,-0.15314 0.63392,-0.26947 0.91884,-0.45942 0.27533,-0.18355 1.76432,-1.74598 1.83767,-1.83767 0.68985,-0.86231 1.14782,-1.89419 1.83767,-2.75651 0.27058,-0.33822 0.67857,-0.55844 0.91884,-0.91883 0.37989,-0.56984 0.66448,-1.2018 0.91883,-1.83767 0.0569,-0.14219 -0.10828,-0.35114 0,-0.45942 0.39043,-0.39043 0.98783,-0.52841 1.37826,-0.91884 0.24213,-0.24213 0.26947,-0.63392 0.45942,-0.91884 0.70085,-1.05128 0.36366,0.28727 0.91883,-1.37825 0.0904,-0.27111 0,-2.0404 0,-2.29709 0,-1.68453 0,-3.36907 0,-5.0536 0,-2.29709 0,-4.59418 0,-6.89127 0,-0.61256 0,-1.22511 0,-1.83767 0,-0.45942 0.065,-0.92346 0,-1.37826 -0.0968,-0.67765 -0.62794,-2.48868 -0.91883,-3.21592 -0.12718,-0.31794 -0.39227,-0.58306 -0.45942,-0.91884 -0.0901,-0.4505 0.0901,-0.92776 0,-1.37825 -0.0672,-0.33578 -0.30628,-0.61256 -0.45942,-0.91884 -0.35485,-0.7097 -0.8053,-1.5023 -0.91884,-2.29709 -0.0866,-0.6064 0.076,-1.22984 0,-1.83767 -0.0783,-0.62654 -0.3811,-1.21114 -0.45941,-1.83767 -0.076,-0.60783 0,-1.22512 0,-1.83768 0,-0.76569 0,-1.53139 0,-2.29709 0,-0.76569 0,-1.53139 0,-2.29709 0,-0.76569 -0.16611,-1.54962 0,-2.29709 0.41217,-1.85478 1.19088,-1.88847 2.29709,-3.21592 0.35347,-0.42418 0.57391,-0.9471 0.91883,-1.37826 0.67646,-0.84557 1.60386,-1.46521 2.29709,-2.29709 0.35348,-0.42417 0.5595,-0.95903 0.91884,-1.37825 2.23897,-2.612132 1.35022,-0.87211 2.75651,-3.215929 0.17618,-0.293631 0.30628,-0.612557 0.45941,-0.918836 0.15314,-0.306279 0.35114,-0.593979 0.45942,-0.918836 0.0484,-0.145281 0,-0.306279 0,-0.459418 0.15314,-0.459418 0.24285,-0.945111 0.45942,-1.378255 0.0968,-0.193707 0.39093,-0.25396 0.45942,-0.459418 0.0968,-0.290561 0,-0.612557 0,-0.918836 0,-1.378254 0,-2.756508 0,-4.134762 0,-1.684533 0,-3.369066 0,-5.053599 0,-1.225115 0.24026,-2.474021 0,-3.675345 -0.22873,-1.143626 -0.95959,-2.127389 -1.37826,-3.215926 -0.34768,-0.903981 -0.48569,-1.890222 -0.91883,-2.756509 -0.34243,-0.68486 -0.99836,-1.172861 -1.37826,-1.837672 -0.24026,-0.420463 -0.21915,-0.957791 -0.45941,-1.378254 -1.26823,-2.219399 -1.17692,-1.104611 -1.83768,-2.756509 -1.28142,-3.203559 0.36259,0.447051 -0.91883,-2.756508 -0.12718,-0.317938 -0.33225,-0.600898 -0.45942,-0.918836 -0.17985,-0.449633 -0.27957,-0.928622 -0.45942,-1.378254 -0.12717,-0.317939 -0.37637,-0.586631 -0.45942,-0.918837 -0.14856,-0.594268 0.16829,-1.248683 0,-1.837672 -0.99731,-3.490608 -0.57024,-1.195909 -1.37825,-3.215926 -0.17985,-0.449633 -0.20276,-0.967595 -0.45942,-1.378255 -0.5197,-0.831522 -1.29375,-1.481206 -1.83767,-2.29709 -0.37989,-0.569838 -0.56648,-1.25041 -0.91884,-1.837672 -0.50233,-0.837221 -3.66049,-5.455046 -4.13476,-5.972435 -0.8082,-0.881678 -1.83081,-1.539702 -2.75651,-2.29709 -1.74028,-1.423867 -2.59828,-2.217976 -4.59418,-3.215927 -3.63983,-1.819914 -0.91783,-0.208462 -4.13476,-1.378254 -1.09606,-0.398566 -2.09453,-1.057854 -3.21593,-1.378254 -1.04119,-0.297485 -2.1654,-0.196787 -3.21592,-0.459418 -0.80006,-0.200015 -1.51473,-0.65805 -2.29709,-0.918837 -1.05766,-0.352553 -2.15827,-0.566282 -3.21593,-0.918836 -0.78236,-0.260787 -1.51473,-0.658049 -2.29709,-0.918836 -0.59901,-0.199669 -1.23867,-0.259749 -1.83767,-0.459418 -0.78236,-0.260787 -1.51473,-0.658049 -2.29709,-0.918836 -0.59901,-0.199669 -1.25732,-0.210694 -1.83768,-0.459418 -0.5075,-0.217503 -0.88439,-0.671906 -1.37825,-0.918836 -0.43314,-0.216572 -0.94511,-0.242847 -1.37826,-0.459418 -0.49385,-0.24693 -0.88439,-0.671907 -1.37825,-0.918836 -0.86629,-0.433144 -1.85724,-0.559131 -2.75651,-0.918837 -0.31794,-0.127175 -0.59821,-0.339182 -0.91883,-0.459418 -0.90687,-0.340076 -1.86248,-0.546321 -2.75651,-0.918836 -3.41144,-1.421432 -2.25302,-1.516704 -5.97244,-2.756508 -0.74079,-0.24693 -1.53139,-0.306279 -2.29709,-0.459418 -1.07197,-0.306279 -2.16818,-0.537837 -3.21592,-0.918836 -2.35368,-0.855882 -1.21821,-1.071112 -3.67535,-1.378255 -0.60783,-0.07598 -1.22511,0 -1.83767,0 -0.25,0 -4.8036,0 -5.0536,0 -0.7657,0 -1.53139,0 -2.29709,0 -0.91884,0 -1.84145,-0.08319 -2.75651,0 -1.7448,0.158619 -3.00941,0.657903 -4.59418,1.378255 -0.93521,0.425095 -1.95433,0.736511 -2.75651,1.378254 -0.76569,0.612557 -1.11211,1.637487 -1.83767,2.29709 -0.97476,0.886149 -2.15053,1.52226 -3.21593,2.29709 -0.61924,0.450362 -1.29624,0.836825 -1.83767,1.378255 -0.84574,0.845739 -1.50247,1.862564 -2.29709,2.756508 -0.43165,0.485603 -1.00061,0.849559 -1.37825,1.378254 -0.79614,1.114587 -1.07789,2.535669 -1.83768,3.675345 -0.24026,0.360397 -0.65895,0.572321 -0.91883,0.918836 -2.11521,2.820277 0.89905,-0.879271 -0.45942,1.837672 -0.19371,0.387416 -0.65895,0.572322 -0.91884,0.918836 -0.20545,0.273944 -0.30627,0.612558 -0.45941,0.918837 -0.30628,0.612557 -0.64906,1.208186 -0.91884,1.837672 -0.19076,0.445113 -0.30628,0.918836 -0.45942,1.378254 -0.30628,0.612557 -0.64069,1.211839 -0.91883,1.837672 -0.33494,0.753603 -0.48176,1.597763 -0.91884,2.297091 -0.57391,0.918262 -1.73996,1.368546 -2.29709,2.29709 -0.24916,0.415257 -0.27957,0.928622 -0.45942,1.378254 -0.12717,0.317939 -0.35113,0.593979 -0.45942,0.918836 -0.0484,0.145281 0.10829,0.351133 0,0.459418 -0.10828,0.108286 -0.32244,-0.06849 -0.45942,0 -0.1937,0.09685 -0.28616,0.329475 -0.45941,0.459419 -0.44172,0.331291 -0.98783,0.528405 -1.37826,0.918836 -0.10828,0.108286 0.0685,0.322446 0,0.459418 -0.31884,0.637691 -0.81745,0.459418 -1.37825,0.459418 -0.30628,0 -0.74894,0.254839 -0.91884,0 -0.53725,-0.805873 -0.61256,-1.837672 -0.91883,-2.756509 z"
       id="path3231"
       inkscape:connector-curvature="0"
       transform="translate(0,752.36218)" />
    <text
       xml:space="preserve"
       style="font-size:40px;font-style:normal;font-variant:normal;font-weight:bold;font-stretch:normal;line-height:125%;letter-spacing:0px;word-spacing:0px;fill:CurrentColor;fill-opacity:1;stroke:none;font-family:Skia;-inkscape-font-specification:Skia Bold"
       x="21.592649"
       y="72.588058"
       id="text3233"
       sodipodi:linespacing="125%"
       transform="translate(0,752.36218)"><tspan
         sodipodi:role="line"
         id="tspan3235"
         x="21.592649"
         y="72.588058">N</tspan></text>
    <text
       xml:space="preserve"
       style="font-size:40px;font-style:normal;font-variant:normal;font-weight:bold;font-stretch:normal;line-height:125%;letter-spacing:0px;word-spacing:0px;fill:CurrentColor;fill-opacity:1;stroke:none;font-family:Skia;-inkscape-font-specification:Skia Bold"
       x="226.95253"
       y="57.427258"
       id="text3237"
       sodipodi:linespacing="125%"
       transform="translate(0,752.36218)"><tspan
         sodipodi:role="line"
         id="tspan3239"
         x="226.95253"
         y="57.427258">B</tspan></text>
    <path
       sodipodi:type="arc"
       id="path3241"
       style="fill:CurrentColor;stroke:none"
       sodipodi:cx="137.82542"
       sodipodi:cy="801.06049"
       sodipodi:rx="2.5"
       sodipodi:ry="2.5"
       d="m 140.32542,801.06049 a 2.5,2.5 0 1 1 -5,0 2.5,2.5 0 1 1 5,0 z" />
    <path
       sodipodi:type="arc"
       id="path3243"
       style="fill:CurrentColor;stroke:none"
       sodipodi:cx="200.7657"
       sodipodi:cy="886.97168"
       sodipodi:rx="2.5"
       sodipodi:ry="2.5"
       d="m 203.2657,886.97168 a 2.5,2.5 0 1 1 -5,0 2.5,2.5 0 1 1 5,0 z" />
    <text
       xml:space="preserve"
       style="font-size:40px;font-style:normal;font-variant:normal;font-weight:bold;font-stretch:normal;line-height:125%;letter-spacing:0px;word-spacing:0px;fill:CurrentColor;fill-opacity:1;stroke:none;font-family:Skia;-inkscape-font-specification:Skia Bold"
       x="33.078102"
       y="999.98853"
       id="text3245"
       sodipodi:linespacing="125%"><tspan
         sodipodi:role="line"
         id="tspan3247"
         x="33.078102"
         y="999.98853"
         style="font-size:20px">O<tspan
   style="font-size:12px"
   id="tspan3257"></tspan></tspan><tspan
         sodipodi:role="line"
         x="33.078102"
         y="1017.22"
         style="font-size:20px"
         id="tspan3267"><tspan
           style="font-size:12px"
           id="tspan3269">fixed in N</tspan></tspan></text>
    <text
       xml:space="preserve"
       style="font-size:40px;font-style:normal;font-variant:normal;font-weight:bold;font-stretch:normal;line-height:125%;letter-spacing:0px;word-spacing:0px;fill:CurrentColor;fill-opacity:1;stroke:none;font-family:Skia;-inkscape-font-specification:Skia Bold"
       x="146.55437"
       y="50.535988"
       id="text3249"
       sodipodi:linespacing="125%"
       transform="translate(0,752.36218)"><tspan
         sodipodi:role="line"
         id="tspan3251"
         x="146.55437"
         y="50.535988"
         style="font-size:20px">P</tspan><tspan
         sodipodi:role="line"
         x="146.55437"
         y="65.825294"
         style="font-size:10px"
         id="tspan3259">fixed in B</tspan></text>
    <text
       xml:space="preserve"
       style="font-size:40px;font-style:normal;font-variant:normal;font-weight:bold;font-stretch:normal;line-height:125%;letter-spacing:0px;word-spacing:0px;fill:CurrentColor;fill-opacity:1;stroke:none;font-family:Skia;-inkscape-font-specification:Skia Bold"
       x="194.33383"
       y="904.88898"
       id="text3253"
       sodipodi:linespacing="125%"><tspan
         sodipodi:role="line"
         id="tspan3255"
         x="194.33383"
         y="904.88898"
         style="font-size:20px">S</tspan><tspan
         sodipodi:role="line"
         x="194.33383"
         y="920.17828"
         style="font-size:10px"
         id="tspan3261">fixed in B</tspan></text>
    <path
       style="fill:CurrentColor;fill-rule:evenodd;stroke:none"
       d="m 15.996088,249.07672 8.436614,5.36876 c -0.746607,-4.67821 -0.01357,-8.92554 2.199111,-12.742 -0.05193,0.12009 -0.04712,0.2567 0.01443,0.40984 0.06155,-0.15314 0.06636,-0.3228 0.01443,-0.50898 -2.075222,2.92167 -5.630086,5.41246 -10.664595,7.47238 z"
       id="path3263"
       inkscape:path-effect="#path-effect3265"
       inkscape:original-d="m 20.214395,251.7611 6.431853,-10.10719 0,0.45941"
       inkscape:connector-curvature="0"
       transform="translate(0,752.36218)" />
  </g>
</svg>
