<svg inkscape0:version="0.48.1 r9760" version="1.1" class="align-center" width="450" viewBox="0 0 450 290" xmlns="http://www.w3.org/2000/svg" xmlns:inkscape0="https://www.inkscape.org/namespaces/inkscape">
 <g transform="translate(0,-752.36218)" inkscape0:groupmode="layer" inkscape0:label="Layer 1">
  <g fill="#767676" fill-rule="evenodd" stroke="CurrentColor" inkscape0:corner0="0.29164835 : -0.023012823 : 0 : 1" inkscape0:corner7="0.021376434 : -0.08537105 : 0.25 : 1" inkscape0:perspectiveID="#perspective2985">
   <path d="m160.69522 910.16309 46.09494 29.4402 45.16936-27.66623-46.5388-19.81579z" inkscape0:box3dsidetype="13"/>
   <path d="m160.69522 861.88507v48.27802l44.7255-18.04182v-40.44906z" inkscape0:box3dsidetype="6"/>
   <path d="m205.42072 851.67221 46.5388 11.21704v49.04781l-46.5388-19.81579z" inkscape0:box3dsidetype="11"/>
   <path d="m160.69522 861.88507 46.09494 16.6651 45.16936-15.66092-46.5388-11.21704z" inkscape0:box3dsidetype="5"/>
   <path d="m206.79016 878.55017v61.05312l45.16936-27.66623v-49.04781z" inkscape0:box3dsidetype="14"/>
   <path d="m160.69522 861.88507 46.09494 16.6651v61.05312l-46.09494-29.4402z" inkscape0:box3dsidetype="3"/>
  </g>
  <g fill="#767676" fill-rule="evenodd" stroke="CurrentColor" inkscape0:corner0="-0.16210436 : 0.0042165672 : 0 : 1" inkscape0:corner7="-0.30035715 : -0.037104167 : 0.25 : 1" inkscape0:perspectiveID="#perspective2985">
   <path d="m255.02906 912.80792 53.06279 22.50747 33.80412-35.91057-45.16481-12.77161z" inkscape0:box3dsidetype="13"/>
   <path d="m255.02906 863.49303v49.31489l41.7021-26.17471v-37.98226z" inkscape0:box3dsidetype="6"/>
   <path d="m296.73116 848.65095 45.16481 7.242v43.51187l-45.16481-12.77161z" inkscape0:box3dsidetype="11"/>
   <path d="m255.02906 863.49303 53.06279 12.76261 33.80412-20.36269-45.16481-7.242z" inkscape0:box3dsidetype="5"/>
   <path d="m308.09185 876.25564v59.05975l33.80412-35.91057v-43.51187z" inkscape0:box3dsidetype="14"/>
   <path d="m255.02906 863.49303 53.06279 12.76261v59.05975l-53.06279-22.50747z" inkscape0:box3dsidetype="3"/>
  </g>
  <g fill="#767676" fill-rule="evenodd" stroke="CurrentColor" inkscape0:corner0="-0.30035714 : -0.039729165 : 0 : 1" inkscape0:corner7="-0.40371348 : -0.066151752 : 0.25 : 1" inkscape0:perspectiveID="#perspective2985">
   <path d="m308.09185 976.83312 55.74273 30.84058 21.46572-61.67152-43.40434-16.00946z" inkscape0:box3dsidetype="13"/>
   <path d="m308.09185 939.0673v37.76582l33.80411-46.8404v-27.82371z" inkscape0:box3dsidetype="6"/>
   <path d="m341.89596 902.16901 43.40434 12.61137v31.2218l-43.40434-16.00946z" inkscape0:box3dsidetype="11"/>
   <path d="m308.09185 939.0673 55.74273 24.29454 21.46572-48.58146-43.40434-12.61137z" inkscape0:box3dsidetype="5"/>
   <path d="m363.83458 963.36184v44.31186l21.46572-61.67152v-31.2218z" inkscape0:box3dsidetype="14"/>
   <path d="m308.09185 939.0673 55.74273 24.29454v44.31186l-55.74273-30.84058z" inkscape0:box3dsidetype="3"/>
  </g>
  <g fill="#767676" fill-rule="evenodd" stroke="CurrentColor" inkscape0:corner0="0.73465171 : 0.057868461 : 0 : 1" inkscape0:corner7="0.29964618 : -0.020730132 : 0.25 : 1" inkscape0:perspectiveID="#perspective2985">
   <path d="m116.20824 844.48538 43.415 15.25573 44.66761-9.81427-47.73662-11.18288z" inkscape0:box3dsidetype="13"/>
   <path d="m116.20824 799.1745v45.31088l40.34599-5.74142v-39.60322z" inkscape0:box3dsidetype="6"/>
   <path d="m156.55423 799.14074 47.73662 0.0657v50.72035l-47.73662-11.18288z" inkscape0:box3dsidetype="11"/>
   <path d="m116.20824 799.1745 43.415 0.0897 44.66761-0.0577-47.73662-0.0657z" inkscape0:box3dsidetype="5"/>
   <path d="m159.62324 799.2642v60.47691l44.66761-9.81427v-50.72035z" inkscape0:box3dsidetype="14"/>
   <path d="m116.20824 799.1745 43.415 0.0897v60.47691l-43.415-15.25573z" inkscape0:box3dsidetype="3"/>
  </g>
  <path d="m53.261377 826.62426-15.586592 24.63687z" fill="none" stroke="CurrentColor" stroke-width="1px" inkscape0:connector-curvature="0"/>
  <path d="m53.261377 827.12705 24.134078 13.07263z" fill="none" stroke="CurrentColor" stroke-width="1px" inkscape0:connector-curvature="0"/>
  <path d="m52.758583 826.62426-1.508379-24.63687z" fill="none" stroke="CurrentColor" stroke-width="1px" inkscape0:connector-curvature="0"/>
  <text x="27.669903" y="858.18744" fill="CurrentColor" font-family="Sans" font-size="15px" letter-spacing="0px" word-spacing="0px" style="line-height:125%" xml:space="preserve"><tspan x="27.669903" y="858.18744">n<tspan baseline-shift="sub" font-size="65.00091553%">x</tspan></tspan></text>
  <text x="78.640778" y="839.25537" fill="CurrentColor" font-family="Sans" font-size="15px" letter-spacing="0px" word-spacing="0px" style="line-height:125%" xml:space="preserve"><tspan x="78.640778" y="839.25537">n<tspan baseline-shift="sub" font-size="65.00091553%">y</tspan></tspan></text>
  <text x="46.116505" y="793.13885" fill="CurrentColor" font-family="Sans" font-size="15px" letter-spacing="0px" word-spacing="0px" style="line-height:125%" xml:space="preserve"><tspan x="46.116505" y="793.13885">n<tspan baseline-shift="sub" font-size="65.00091553%">z</tspan></tspan></text>
  <text x="124.27184" y="880.51752" fill="CurrentColor" font-family="Sans" font-size="15px" letter-spacing="0px" word-spacing="0px" style="line-height:125%" xml:space="preserve"><tspan x="124.27184" y="880.51752">q<tspan baseline-shift="sub" font-size="65.00091553%">1</tspan></tspan></text>
  <text x="251.94174" y="844.59521" fill="CurrentColor" font-family="Sans" font-size="15px" letter-spacing="0px" word-spacing="0px" style="line-height:125%" xml:space="preserve"><tspan x="251.94174" y="844.59521">q<tspan baseline-shift="sub" font-size="65.00091553%">2</tspan></tspan></text>
  <text x="338.83496" y="931.00293" fill="CurrentColor" font-family="Sans" font-size="15px" letter-spacing="0px" word-spacing="0px" style="line-height:125%" xml:space="preserve"><tspan x="338.83496" y="931.00293">q<tspan baseline-shift="sub" font-size="65.00091553%">3</tspan></tspan></text>
  <text x="189.80582" y="831.4884" fill="CurrentColor" font-family="Sans" font-size="15px" letter-spacing="0px" word-spacing="0px" style="line-height:125%" xml:space="preserve"><tspan x="189.80582" y="831.4884"/></text>
  <text x="175.72815" y="835.37189" fill="CurrentColor" font-family="Sans" font-size="15px" letter-spacing="0px" word-spacing="0px" style="line-height:125%" xml:space="preserve"><tspan x="175.72815" y="835.37189">a<tspan baseline-shift="sub" font-size="65.00091553%">x</tspan></tspan></text>
  <text x="233.49515" y="891.19714" fill="CurrentColor" font-family="Sans" font-size="15px" letter-spacing="0px" word-spacing="0px" style="line-height:125%" xml:space="preserve"><tspan x="233.49515" y="891.19714">b<tspan baseline-shift="sub" font-size="65.00091553%">z</tspan></tspan></text>
  <text x="326.21359" y="882.45929" fill="CurrentColor" font-family="Sans" font-size="15px" letter-spacing="0px" word-spacing="0px" style="line-height:125%" xml:space="preserve"><tspan x="326.21359" y="882.45929">c<tspan baseline-shift="sub" font-size="65.00091553%">y</tspan></tspan></text>
  <path d="m162.62136 854.78936 30.58252-6.79611-9.2233-1.45632" fill="none" stroke="CurrentColor" stroke-width="1px" inkscape0:connector-curvature="0"/>
  <path d="m211.65048 928.57577-0.97087-44.17476 3.39806 6.79612" fill="none" stroke="CurrentColor" stroke-width="1px" inkscape0:connector-curvature="0"/>
  <path d="m312.13592 923.23596 24.27184-24.27184-10.67961 4.85437" fill="none" stroke="CurrentColor" stroke-width="1px" inkscape0:connector-curvature="0"/>
  <path d="m139.80582 855.2748c4.36893 22.3301 14.56311 26.69903 14.56311 26.69903l-6.31068 0.48543" fill="none" stroke="CurrentColor" stroke-width="1px" inkscape0:connector-curvature="0"/>
  <path d="m228.64077 852.36218c29.12622-0.97088 29.61165 4.36893 29.61165 4.36893l-1.45631-4.36893" fill="none" stroke="CurrentColor" stroke-width="1px" inkscape0:connector-curvature="0"/>
  <path d="m312.13592 914.01266c15.53398 15.04855 11.65048 23.78641 11.65048 23.78641l2.91263-4.36893" fill="none" stroke="CurrentColor" stroke-width="1px" inkscape0:connector-curvature="0"/>
  <path d="m48.54369 782.45927 3.883495-3.39806 3.398058 3.39806" fill="none" stroke="CurrentColor" stroke-width="1px" inkscape0:connector-curvature="0"/>
  <path d="m28.640777 846.0515 4.368932-3.39806 2.912621 2.91262" fill="none" stroke="CurrentColor" stroke-width="1px" inkscape0:connector-curvature="0"/>
  <path d="m79.611651 827.6049 3.398058-3.39806 2.427184 2.91262" fill="none" stroke="CurrentColor" stroke-width="1px" inkscape0:connector-curvature="0"/>
  <path d="m177.6699 824.69228 2.91262-3.39806 3.39806 3.39806" fill="none" stroke="CurrentColor" stroke-width="1px" inkscape0:connector-curvature="0"/>
  <path d="m236.8932 880.51752 3.8835-2.91262 3.39805 2.42718" fill="none" stroke="CurrentColor" stroke-width="1px" inkscape0:connector-curvature="0"/>
  <path d="m327.18446 871.77965 4.36893-2.91262 3.39806 3.8835" fill="none" stroke="CurrentColor" stroke-width="1px" inkscape0:connector-curvature="0"/>
  <path d="m53.972855 826.85574-7.55806 6.54796c8.835869 9.08204 18.928612 17.62689 30.722025 22.84773h2e-6c6.86003 3.0599 14.554517 4.72264 21.950643 3.60665h4e-6c4.713221-0.73869 9.156851-2.62096 12.812141-5.41172 1.38655-1.34543 2.75981-2.67883 4.11979-4.0002 1e-5 -1e-5 1e-5 -2e-5 1e-5 -2e-5l-2e-5 2e-5c-1.53401 1.1506-3.05473 2.28917-4.56217 3.41571-3.88781 2.24902-8.27645 3.43202-12.596979 3.52348h-4e-6c-6.847081 0.19286-13.468458-2.30564-19.325719-5.79193h-3e-6c-10.178318-6.08905-18.216388-15.14243-25.56166-24.73768z" fill="CurrentColor" fill-rule="evenodd" inkscape0:connector-curvature="0" inkscape0:original-d="m 50.193825,830.12972 c 42.352903,48.88638 65.825585,20.31642 65.825585,20.31642 l 0,0" inkscape0:path-effect="#path-effect3190"/>
  <text x="160.19417" y="784.88647" fill="CurrentColor" font-family="Sans" font-size="22px" letter-spacing="0px" word-spacing="0px" style="line-height:125%" xml:space="preserve"><tspan x="160.19417" y="784.88647">A</tspan></text>
  <text x="169.41747" y="937.31366" fill="CurrentColor" font-family="Sans" font-size="22px" letter-spacing="0px" word-spacing="0px" style="line-height:125%" xml:space="preserve"><tspan x="169.41747" y="937.31366"/></text>
  <text x="171.84467" y="943.62433" fill="CurrentColor" font-family="Sans" font-size="22px" letter-spacing="0px" word-spacing="0px" style="line-height:125%" xml:space="preserve"><tspan x="171.84467" y="943.62433">B</tspan></text>
  <text x="263.10681" y="936.82819" fill="CurrentColor" font-family="Sans" font-size="22px" letter-spacing="0px" word-spacing="0px" style="line-height:125%" xml:space="preserve"><tspan x="263.10681" y="936.82819"/></text>
  <text x="259.70874" y="941.68256" fill="CurrentColor" font-family="Sans" font-size="22px" letter-spacing="0px" word-spacing="0px" style="line-height:125%" xml:space="preserve"><tspan x="259.70874" y="941.68256">C</tspan></text>
  <text x="382.03885" y="975.66315" fill="CurrentColor" font-family="Sans" font-size="22px" letter-spacing="0px" word-spacing="0px" style="line-height:125%" xml:space="preserve"><tspan x="382.03885" y="975.66315">D</tspan></text>
  <text x="25.728155" y="809.64374" fill="CurrentColor" font-family="Sans" font-size="22px" letter-spacing="0px" word-spacing="0px" style="line-height:125%" xml:space="preserve"><tspan x="25.728155" y="809.64374">N</tspan></text>
 </g>
</svg>
