<?xml version="1.0" encoding="UTF-8" standalone="no"?>
<!-- Created with Inkscape (https://www.inkscape.org/) -->

<svg
   xmlns:dc="http://purl.org/dc/elements/1.1/"
   xmlns:cc="http://creativecommons.org/ns#"
   xmlns:rdf="http://www.w3.org/1999/02/22-rdf-syntax-ns#"
   xmlns:svg="http://www.w3.org/2000/svg"
   xmlns="http://www.w3.org/2000/svg"
   xmlns:sodipodi="http://sodipodi.sourceforge.net/DTD/sodipodi-0.dtd"
   xmlns:inkscape="https://www.inkscape.org/namespaces/inkscape"
   class="align-center"
   width="400"
   height="250"
   id="svg3341"
   version="1.1"
   inkscape:version="0.48.1 r9760"
   sodipodi:docname="New document 6">
  <defs
     id="defs3343" />
  <sodipodi:namedview
     id="base"
     pagecolor="#ffffff"
     bordercolor="#666666"
     borderopacity="1.0"
     inkscape:pageopacity="0.0"
     inkscape:pageshadow="2"
     inkscape:zoom="2.035"
     inkscape:cx="200"
     inkscape:cy="125"
     inkscape:document-units="px"
     inkscape:current-layer="layer1"
     showgrid="false"
     inkscape:window-width="940"
     inkscape:window-height="819"
     inkscape:window-x="20"
     inkscape:window-y="20"
     inkscape:window-maximized="0" />
  <metadata
     id="metadata3346">
    <rdf:RDF>
      <cc:Work
         rdf:about="">
        <dc:format>image/svg+xml</dc:format>
        <dc:type
           rdf:resource="http://purl.org/dc/dcmitype/StillImage" />
        <dc:title></dc:title>
      </cc:Work>
    </rdf:RDF>
  </metadata>
  <g
     inkscape:label="Layer 1"
     inkscape:groupmode="layer"
     id="layer1"
     transform="translate(0,-802.36218)">
    <path
       style="fill:none;stroke:CurrentColor;stroke-width:1px;stroke-linecap:butt;stroke-linejoin:miter;stroke-opacity:1"
       d="m 21.621622,908.38184 c -13.3355172,18.56797 -19.4339512,51.62201 10.31941,64.37346 9.986844,4.28007 21.36153,-2.88232 31.449632,0 20.408978,5.83113 -6.539345,31.2606 29.975428,26.04422 18.939608,-2.70566 60.986818,-44.46505 48.157248,-65.84766 -13.66751,-22.77919 -45.274898,-9.96695 -64.373463,-16.70762 -16.708525,-5.89712 -45.091911,-53.08656 -55.528255,-7.8624 z"
       id="path3349"
       inkscape:connector-curvature="0" />
    <path
       style="fill:none;stroke:CurrentColor;stroke-width:1px;stroke-linecap:butt;stroke-linejoin:miter;stroke-opacity:1"
       d="m 148.40295,871.0354 c -2.4454,24.39256 33.9228,14.76511 44.22604,29.48403 8.15195,11.64565 -13.19972,41.62014 -7.37101,45.70024 11.60061,8.12042 29.12364,9.33661 42.75185,9.33661 50.83698,0 7.23173,-43.30503 4.4226,-64.37346 -1.29831,-9.73734 21.89753,-28.71672 19.16462,-31.44963 -23.80757,-23.80758 -84.93334,-5.13247 -103.1941,11.30221 z"
       id="path3351"
       inkscape:connector-curvature="0" />
    <path
       style="fill:none;stroke:CurrentColor;stroke-width:1px;stroke-linecap:butt;stroke-linejoin:miter;stroke-opacity:1"
       d="m 288.45209,923.61525 c 31.98996,12.60193 -1.83953,34.15878 6.3882,50.61425 1.55151,3.103 16.63343,5.55378 14.74202,9.33661 -2.72568,5.45136 -21.26698,15.21752 -15.23342,22.11299 4.0238,4.5987 27.01192,21.3835 33.41524,18.1819 19.74821,-9.8742 65.84483,-144.96319 7.371,-144.96319 -7.14229,0 -21.32021,1.02677 -27.51842,5.8968 -15.05466,11.82866 -7.20445,29.03504 -19.16462,38.82064 z"
       id="path3353"
       inkscape:connector-curvature="0" />
    <path
       style="fill:none;stroke:CurrentColor;stroke-width:1px;stroke-linecap:butt;stroke-linejoin:miter;stroke-opacity:1"
       d="M 66.339066,124.20147 149.87715,78.992629"
       id="path3359"
       inkscape:connector-curvature="0"
       transform="translate(0,802.36218)" />
    <path
       style="fill:none;stroke:CurrentColor;stroke-width:1px;stroke-linecap:butt;stroke-linejoin:miter;stroke-opacity:1"
       d="m 211.30221,67.199017 83.53808,90.909093 0,0"
       id="path3361"
       inkscape:connector-curvature="0"
       transform="translate(0,802.36218)" />
    <path
       style="fill:none;stroke:CurrentColor;stroke-width:1px;stroke-linecap:butt;stroke-linejoin:miter;stroke-opacity:1"
       d="m 338.08354,107.98526 6.8796,-85.012287 0,-0.491401 15.72482,1.965602 -0.9828,11.302212 -15.23342,-1.965602"
       id="path3363"
       inkscape:connector-curvature="0"
       transform="translate(0,802.36218)" />
    <path
       style="fill:none;stroke:CurrentColor;stroke-width:1px;stroke-linecap:butt;stroke-linejoin:miter;stroke-opacity:1"
       d="m 72.235872,125.18428 11.793612,-6.38821 -2.457002,3.4398"
       id="path3365"
       inkscape:connector-curvature="0"
       transform="translate(0,802.36218)" />
    <path
       style="fill:none;stroke:CurrentColor;stroke-width:1px;stroke-linecap:butt;stroke-linejoin:miter;stroke-opacity:1"
       d="m 217.69042,66.707617 9.82801,11.793612 -0.4914,-7.371008"
       id="path3367"
       inkscape:connector-curvature="0"
       transform="translate(0,802.36218)" />
    <path
       style="fill:none;stroke:CurrentColor;stroke-width:1px;stroke-linecap:butt;stroke-linejoin:miter;stroke-opacity:1"
       d="m 345.94595,106.01966 0.4914,-17.690422 1.9656,3.931204"
       id="path3369"
       inkscape:connector-curvature="0"
       transform="translate(0,802.36218)" />
    <path
       sodipodi:type="spiral"
       style="fill:none;stroke:CurrentColor;stroke-width:1px;stroke-linecap:butt;stroke-linejoin:miter;stroke-opacity:1"
       id="path3373"
       sodipodi:cx="96.805901"
       sodipodi:cy="106.01965"
       sodipodi:expansion="0"
       sodipodi:revolution="0.75"
       sodipodi:radius="7.4362388"
       sodipodi:argument="-6.4157367"
       sodipodi:t0="0"
       d="m 104.17691,105.03685 c 0.53536,4.01523 -2.37298,7.81845 -6.38821,8.35381 -4.015227,0.53536 -7.818444,-2.37298 -8.353807,-6.38821 -0.535363,-4.01522 2.372981,-7.818441 6.388208,-8.353804"
       transform="translate(0,802.36218)" />
    <path
       sodipodi:type="spiral"
       style="fill:none;stroke:CurrentColor;stroke-width:1px;stroke-linecap:butt;stroke-linejoin:miter;stroke-opacity:1"
       id="path3375"
       sodipodi:cx="231.94102"
       sodipodi:cy="89.312042"
       sodipodi:expansion="0"
       sodipodi:revolution="0.75"
       sodipodi:radius="8.4114218"
       sodipodi:argument="-4.5952802"
       sodipodi:t0="0"
       d="m 230.95822,97.665851 c -4.55059,-0.535364 -7.90637,-4.78602 -7.371,-9.33661 0.53536,-4.550591 4.78602,-7.906371 9.33661,-7.371007 4.55059,0.535364 7.90637,4.786019 7.371,9.33661"
       transform="translate(0,802.36218)" />
    <path
       sodipodi:type="spiral"
       style="fill:none;stroke:CurrentColor;stroke-width:1px;stroke-linecap:butt;stroke-linejoin:miter;stroke-opacity:1"
       id="path3377"
       sodipodi:cx="339.06635"
       sodipodi:cy="69.164619"
       sodipodi:expansion="0"
       sodipodi:revolution="0.75"
       sodipodi:radius="6.3882065"
       sodipodi:argument="-6.6779766"
       sodipodi:t0="0"
       d="m 344.96315,66.707616 c 1.33841,3.212181 -0.22762,7.015399 -3.4398,8.353809 -3.21218,1.33841 -7.0154,-0.227621 -8.35381,-3.439802 -1.33841,-3.212181 0.22762,-7.015399 3.4398,-8.353809"
       transform="translate(0,802.36218)" />
    <path
       style="fill:none;stroke:CurrentColor;stroke-width:1px;stroke-linecap:butt;stroke-linejoin:miter;stroke-opacity:1"
       d="m 104.1769,105.52826 0.4914,4.914"
       id="path3379"
       inkscape:connector-curvature="0"
       transform="translate(0,802.36218)" />
    <path
       style="fill:none;stroke:CurrentColor;stroke-width:1px;stroke-linecap:butt;stroke-linejoin:miter;stroke-opacity:1"
       d="m 229.48403,96.191646 -6.38821,0.982801"
       id="path3381"
       inkscape:connector-curvature="0"
       transform="translate(0,802.36218)" />
    <path
       style="fill:none;stroke:CurrentColor;stroke-width:1px;stroke-linecap:butt;stroke-linejoin:miter;stroke-opacity:1"
       d="m 344.96314,67.199017 3.43981,4.914005"
       id="path3383"
       inkscape:connector-curvature="0"
       transform="translate(0,802.36218)" />
    <text
       xml:space="preserve"
       style="font-size:14px;font-style:normal;font-weight:normal;line-height:125%;letter-spacing:0px;word-spacing:0px;fill:CurrentColor;fill-opacity:1;stroke:none;font-family:Sans"
       x="69.77887"
       y="133.04668"
       id="text3385"
       sodipodi:linespacing="125%"
       transform="translate(0,802.36218)"><tspan
         sodipodi:role="line"
         id="tspan3387"
         x="69.77887"
         y="133.04668" /></text>
    <text
       xml:space="preserve"
       style="font-size:14px;font-style:normal;font-weight:normal;line-height:125%;letter-spacing:0px;word-spacing:0px;fill:CurrentColor;fill-opacity:1;stroke:none;font-family:Sans"
       x="70.761673"
       y="141.4005"
       id="text3389"
       sodipodi:linespacing="125%"
       transform="translate(0,802.36218)"><tspan
         sodipodi:role="line"
         id="tspan3391"
         x="70.761673"
         y="141.4005">p<tspan
   style="font-size:65%;baseline-shift:sub"
   id="tspan3393">1</tspan></tspan></text>
    <text
       xml:space="preserve"
       style="font-size:14px;font-style:normal;font-weight:normal;line-height:125%;letter-spacing:0px;word-spacing:0px;fill:CurrentColor;fill-opacity:1;stroke:none;font-family:Sans"
       x="80.589684"
       y="94.226044"
       id="text3395"
       sodipodi:linespacing="125%"
       transform="translate(0,802.36218)"><tspan
         sodipodi:role="line"
         id="tspan3397"
         x="80.589684"
         y="94.226044">w<tspan
   style="font-size:65%;baseline-shift:sub"
   id="tspan3399">1</tspan></tspan></text>
    <text
       xml:space="preserve"
       style="font-size:14px;font-style:normal;font-weight:normal;line-height:125%;letter-spacing:0px;word-spacing:0px;fill:CurrentColor;fill-opacity:1;stroke:none;font-family:Sans"
       x="247.66585"
       y="87.346436"
       id="text3401"
       sodipodi:linespacing="125%"
       transform="translate(0,802.36218)"><tspan
         sodipodi:role="line"
         id="tspan3403"
         x="247.66585"
         y="87.346436">w<tspan
   style="font-size:65%;baseline-shift:sub"
   id="tspan3405">2</tspan></tspan></text>
    <text
       xml:space="preserve"
       style="font-size:14px;font-style:normal;font-weight:normal;line-height:125%;letter-spacing:0px;word-spacing:0px;fill:CurrentColor;fill-opacity:1;stroke:none;font-family:Sans"
       x="221.62163"
       y="869.56122"
       id="text3407"
       sodipodi:linespacing="125%"><tspan
         sodipodi:role="line"
         id="tspan3409"
         x="221.62163"
         y="869.56122">p<tspan
   style="font-size:65.00091553%;baseline-shift:sub"
   id="tspan3411">2</tspan></tspan></text>
    <text
       xml:space="preserve"
       style="font-size:14px;font-style:normal;font-weight:normal;line-height:125%;letter-spacing:0px;word-spacing:0px;fill:CurrentColor;fill-opacity:1;stroke:none;font-family:Sans"
       x="322.35873"
       y="921.64966"
       id="text3413"
       sodipodi:linespacing="125%"><tspan
         sodipodi:role="line"
         id="tspan3415"
         x="322.35873"
         y="921.64966">p<tspan
   style="font-size:65.00091553%;baseline-shift:sub"
   id="tspan3417">3</tspan></tspan></text>
    <text
       xml:space="preserve"
       style="font-size:14px;font-style:normal;font-weight:normal;line-height:125%;letter-spacing:0px;word-spacing:0px;fill:CurrentColor;fill-opacity:1;stroke:none;font-family:Sans"
       x="314.00491"
       y="67.19902"
       id="text3419"
       sodipodi:linespacing="125%"
       transform="translate(0,802.36218)"><tspan
         sodipodi:role="line"
         id="tspan3421"
         x="314.00491"
         y="67.19902">w<tspan
   style="font-size:65%;baseline-shift:sub"
   id="tspan3423">3</tspan></tspan></text>
    <path
       style="fill:none;stroke:CurrentColor;stroke-width:1px;stroke-linecap:butt;stroke-linejoin:miter;stroke-opacity:1"
       d="m 71.253071,131.57248 4.422605,-3.9312 4.422604,4.914"
       id="path3425"
       inkscape:connector-curvature="0"
       transform="translate(0,802.36218)" />
    <path
       style="fill:none;stroke:CurrentColor;stroke-width:1px;stroke-linecap:butt;stroke-linejoin:miter;stroke-opacity:1"
       d="m 223.09583,858.25899 6.8796,-4.42261 2.94841,6.38821"
       id="path3427"
       inkscape:connector-curvature="0" />
    <path
       style="fill:none;stroke:CurrentColor;stroke-width:1px;stroke-linecap:butt;stroke-linejoin:miter;stroke-opacity:1"
       d="m 323.34152,910.34744 3.4398,-2.9484 2.94841,3.4398"
       id="path3429"
       inkscape:connector-curvature="0" />
    <path
       sodipodi:type="arc"
       id="path3433"
       style="fill:CurrentColor"
       sodipodi:cx="65.601967"
       sodipodi:cy="124.69287"
       sodipodi:rx="3.6855037"
       sodipodi:ry="3.4398034"
       d="m 69.287471,124.69287 a 3.6855037,3.4398034 0 1 1 -7.371008,0 3.6855037,3.4398034 0 1 1 7.371008,0 z"
       transform="translate(0,802.36218)" />
    <path
       sodipodi:type="arc"
       id="path3435"
       style="fill:CurrentColor"
       sodipodi:cx="210.07372"
       sodipodi:cy="66.953316"
       sodipodi:rx="4.6683044"
       sodipodi:ry="3.6855037"
       d="m 214.74202,66.953316 a 4.6683044,3.6855037 0 1 1 -9.33661,0 4.6683044,3.6855037 0 1 1 9.33661,0 z"
       transform="translate(0,802.36218)" />
    <path
       sodipodi:type="arc"
       id="path3437"
       style="fill:CurrentColor"
       sodipodi:cx="337.59213"
       sodipodi:cy="107.73956"
       sodipodi:rx="3.4398034"
       sodipodi:ry="2.7027028"
       d="m 341.03194,107.73956 a 3.4398034,2.7027028 0 1 1 -6.87961,0 3.4398034,2.7027028 0 1 1 6.87961,0 z"
       transform="translate(0,802.36218)" />
    <path
       sodipodi:type="arc"
       id="path3439"
       style="fill:CurrentColor"
       sodipodi:cx="62.653564"
       sodipodi:cy="125.92138"
       sodipodi:rx="4.1769042"
       sodipodi:ry="3.1941032"
       d="m 66.830469,125.92138 a 4.1769042,3.1941032 0 1 1 -8.353809,0 4.1769042,3.1941032 0 1 1 8.353809,0 z"
       transform="translate(0,802.36218)" />
    <path
       sodipodi:type="arc"
       id="path3441"
       style="fill:CurrentColor"
       sodipodi:cx="208.5995"
       sodipodi:cy="65.479118"
       sodipodi:rx="4.1769042"
       sodipodi:ry="3.6855037"
       d="m 212.77641,65.479118 a 4.1769042,3.6855037 0 1 1 -8.35381,0 4.1769042,3.6855037 0 1 1 8.35381,0 z"
       transform="translate(0,802.36218)" />
  </g>
</svg>
