<svg width="2472" height="1646" xmlns="http://www.w3.org/2000/svg"
     xmlns:xlink="http://www.w3.org/1999/xlink" xml:space="preserve"
     overflow="hidden"><defs><clipPath id="clip0"><rect x="1043" y="623" width="2472" height="1646"/></clipPath><clipPath
        id="clip1"><rect x="1061" y="622" width="2454" height="1521"/></clipPath><clipPath
        id="clip2"><rect x="1061" y="622" width="2454" height="1521"/></clipPath><clipPath
        id="clip3"><rect x="1061" y="622" width="2454" height="1521"/></clipPath></defs>
    <g clip-path="url(#clip0)" transform="translate(-1043 -623)"><g clip-path="url(#clip1)"><g clip-path="url(#clip2)"><g clip-path="url(#clip3)"><path d="M450.718 1615.82C407.343 1449.33 424.198 1123.98 605.281 1073.18 763.28 1028.85 952.039 1127.08 1053.49 1162.57 1150.04 1196.37 1233.46 1243.04 1350.3 1240.61 1470.97 1238.09 1527.09 1168.36 1620.02 1163.69 1658.5 1161.76 1688.97 1177.36 1730.37 1207.18 1718.77 1654.32 599.111 1609.35 450.718 1615.82Z" fill="#EDFAA9" transform="matrix(1 0 0 1.00037 630.287 225.447)"/><path
            d="M1389.11 1272.12C1503.12 1270.89 1644.79 1150.77 1732.28 1208.48 1819.79 1266.21 1829.96 1383.68 1830.72 1399.11 1832.95 1444.29 1823.41 1531.35 1748.29 1624.96 1662.67 1733.04 1559.52 1766.55 1499.91 1762.69 1418.55 1757.43 1302.53 1650.85 1220.4 1642.26 1077.96 1627.37 951.648 1777.44 765.802 1881.16 727.469 1902.55 687.486 1926.21 621.906 1911.2 547.461 1894.15 487.247 1772.42 455.457 1634.06 419.065 1475.68 448.646 1219.8 554.542 1138.87 628.521 1082.34 713.291 1088.6 784.905 1098.16 901.493 1113.74 1021.88 1174.32 1120.28 1207.89 1218.68 1241.46 1275.1 1273.35 1389.11 1272.12Z"
            fill="#A2CC60" transform="matrix(1 0 0 1.00037 630.287 225.447)"/><path
            d="M1694.93 1628.48C1497.16 1636.24 1429.28 1403.76 1421.8 1381.35 1407.81 1339.5 1390.12 1240.21 1464.92 1156.26 1555.56 1054.55 1659.08 1019.46 1717.6 924.591 1770.72 838.49 1738.97 687.246 1785.7 600.247 1832.96 512.258 1944.28 511.579 2026.28 534.68 2324.22 618.62 1735.22 1612.89 1694.93 1628.48Z"
            fill="#39E2EE" transform="matrix(1 0 0 1.00037 1186.94 100.948)"/><path
            d="M1748.39 1624.89C1792.88 1611.61 1820.29 1567.99 1839.45 1535.58 1893.12 1444.74 1889.45 1322.9 1987.07 1210.3 2060.71 1125.38 2241.03 1072.9 2300.09 977.263 2354.84 888.628 2320.5 756.967 2249.11 664.703 2199.62 600.731 2113.57 554.415 2042.09 538.127 1975.38 522.923 1896.97 526.216 1844.54 593.914 1791.6 662.278 1816.3 820.166 1772.37 923.808 1726.06 1033.07 1561.35 1095.99 1487.4 1206.4 1395.9 1342.99 1590.85 1671.86 1748.39 1624.89Z"
            fill="#31CED2" transform="matrix(1 0 0 1.00037 1186.94 100.948)"/></g></g></g>
        <path d="M2206 1694C2206 1679.64 2217.64 1668 2232 1668 2246.36 1668 2258 1679.64 2258 1694 2258 1708.36 2246.36 1720 2232 1720 2217.64 1720 2206 1708.36 2206 1694Z"
              fill="#008000" fill-rule="evenodd"/>
        <path d="M5.15625-8.6517e-06 5.15653 168.679-5.15597 168.679-5.15625 8.6517e-06ZM15.469 163.522 0.000360892 215.085-15.4685 163.523Z"
              fill="#008000"
              transform="matrix(0.524875 -0.851179 -0.851179 -0.524875 2234.56 1694.29)"/>
        <path d="M2.38231-4.57291 142.492 68.4185 137.727 77.5644-2.38231 4.57291ZM142.683 56.8904 181.265 94.4322 128.389 84.3278Z"
              fill="#008000"
              transform="matrix(-0.524875 0.851179 0.851179 0.524875 2234.56 1694.29)"/>
        <path d="M2232.09 1689.23 2368.48 1632.21 2372.46 1641.72 2236.07 1698.75ZM2359.74 1624.68 2413.28 1619.06 2371.68 1653.22Z"
              fill="#008000"/>
        <path d="M2845.97 1446.21C2853.83 1434.2 2869.94 1430.84 2881.95 1438.69 2893.95 1446.55 2897.32 1462.66 2889.46 1474.67 2881.6 1486.67 2865.5 1490.04 2853.49 1482.18 2841.48 1474.32 2838.12 1458.22 2845.97 1446.21Z"
              fill="#4472C4" fill-rule="evenodd"/>
        <path d="M5.15625-8.6517e-06 5.15653 168.679-5.15597 168.679-5.15625 8.6517e-06ZM15.469 163.522 0.000360892 215.085-15.4685 163.523Z"
              fill="#4472C4"
              transform="matrix(0.90525 -0.424879 -0.424879 -0.90525 2870.07 1462.02)"/>
        <path d="M2.38231-4.57291 142.492 68.4185 137.727 77.5644-2.38231 4.57291ZM142.683 56.8904 181.265 94.4322 128.389 84.3278Z"
              fill="#4472C4"
              transform="matrix(-0.90525 0.424879 0.424879 0.90525 2870.07 1462.02)"/>
        <path d="M2870.76 1456.43 3016.12 1483.39 3014.24 1493.53 2868.88 1466.57ZM3012.93 1472.31 3060.81 1496.92 3007.29 1502.73Z"
              fill="#4472C4"/>
        <text fill="#008000"
              font-family="Calibri,Calibri_MSFontService,sans-serif"
              font-weight="400" font-size="83"
              transform="matrix(1 0 0 1 1859.34 2050)">parent<tspan
                font-size="83" x="222.177" y="0">_poin</tspan>
            <tspan font-size="83" x="412.202" y="0">t</tspan></text>
        <path d="M2084.5 1956.96C2084.5 1825.73 2145.51 1694.5 2206.51 1694.5"
              stroke="#008000" stroke-width="6.875" stroke-miterlimit="8"
              fill="none" fill-rule="evenodd"/>
        <text fill="#0070C0"
              font-family="Calibri,Calibri_MSFontService,sans-serif"
              font-weight="400" font-size="83"
              transform="matrix(1 0 0 1 2800.44 1288)">child_point</text>
        <path d="M2997.76 1328.5C2997.76 1356.28 2968.94 1384.05 2940.13 1384.05 2911.31 1384.05 2882.5 1411.83 2882.5 1439.6"
              stroke="#0070C0" stroke-width="6.875" stroke-miterlimit="8"
              fill="none" fill-rule="evenodd"/>
        <text fill="#008000"
              font-family="Calibri,Calibri_MSFontService,sans-serif"
              font-weight="400" font-size="83"
              transform="matrix(1 0 0 1 1093.09 1877)">p<tspan font-size="83"
                                                               x="43.5418"
                                                               y="0">arent</tspan>.masscenter</text>
        <path d="M1421.5 1783.82C1421.5 1765.99 1468.73 1748.16 1515.97 1748.16 1563.2 1748.16 1610.44 1730.33 1610.44 1712.5"
              stroke="#008000" stroke-width="6.875" stroke-miterlimit="8"
              fill="none" fill-rule="evenodd"/>
        <text fill="#0070C0"
              font-family="Calibri,Calibri_MSFontService,sans-serif"
              font-weight="400" font-size="83"
              transform="matrix(1 0 0 1 2360 892)">child.masscenter</text>
        <path d="M0 0C27.9263 0 55.853 117.782 55.853 235.565 55.853 353.347 83.7793 471.129 111.706 471.129"
              stroke="#0070C0" stroke-width="6.875" stroke-miterlimit="8"
              fill="none" fill-rule="evenodd"
              transform="matrix(-1.83697e-16 -1 -1 1.83697e-16 3117.63 1043.21)"/>
        <path d="M1597 1679.5C1597 1654.37 1617.37 1634 1642.5 1634 1667.63 1634 1688 1654.37 1688 1679.5 1688 1704.63 1667.63 1725 1642.5 1725 1617.37 1725 1597 1704.63 1597 1679.5Z"
              stroke="#000000" stroke-width="13.75" stroke-miterlimit="8"
              fill-rule="evenodd"/>
        <path d="M1597 1679.5C1597 1654.37 1617.37 1634 1642.5 1634L1642.5 1679.5Z"
              fill="#FFFFFF" fill-rule="evenodd"/>
        <path d="M1688 1679.5C1688 1704.63 1667.63 1725 1642.5 1725L1642.5 1679.5Z"
              fill="#FFFFFF" fill-rule="evenodd"/>
        <path d="M5.15625-8.6517e-06 5.15653 168.679-5.15597 168.679-5.15625 8.6517e-06ZM15.469 163.522 0.000360892 215.085-15.4685 163.523Z"
              fill="#008000"
              transform="matrix(0.92237 0.386308 0.386308 -0.92237 1643.57 1681.11)"/>
        <path d="M2.38231-4.57291 142.492 68.4185 137.727 77.5644-2.38231 4.57291ZM142.683 56.8904 181.265 94.4322 128.389 84.3278Z"
              fill="#008000"
              transform="matrix(-0.92237 -0.386308 -0.386308 0.92237 1643.57 1681.11)"/>
        <path d="M1648.18 1677.88 1725.69 1803.76 1716.91 1809.17 1639.39 1683.29ZM1731.77 1793.97 1745.64 1845.98 1705.43 1810.19Z"
              fill="#008000"/>
        <path d="M3104 1075.5C3104 1050.37 3124.37 1030 3149.5 1030 3174.63 1030 3195 1050.37 3195 1075.5 3195 1100.63 3174.63 1121 3149.5 1121 3124.37 1121 3104 1100.63 3104 1075.5Z"
              stroke="#000000" stroke-width="13.75" stroke-miterlimit="8"
              fill-rule="evenodd"/>
        <path d="M3104 1075.5C3104 1050.37 3124.37 1030 3149.5 1030L3149.5 1075.5Z"
              fill="#FFFFFF" fill-rule="evenodd"/>
        <path d="M3195 1075.5C3195 1100.63 3174.63 1121 3149.5 1121L3149.5 1075.5Z"
              fill="#FFFFFF" fill-rule="evenodd"/>
        <path d="M5.15625-8.6517e-06 5.15653 168.679-5.15597 168.679-5.15625 8.6517e-06ZM15.469 163.522 0.000360892 215.085-15.4685 163.523Z"
              fill="#4472C4"
              transform="matrix(0.817454 0.575993 0.575993 -0.817454 3148.71 1075.72)"/>
        <path d="M2.38231-4.57291 142.492 68.4185 137.727 77.5644-2.38231 4.57291ZM142.683 56.8904 181.265 94.4322 128.389 84.3278Z"
              fill="#4472C4"
              transform="matrix(-0.817454 -0.575993 -0.575993 0.817454 3148.71 1075.72)"/>
        <path d="M3153.91 1073.56 3202.48 1213.19 3192.74 1216.58 3144.17 1076.95ZM3210.53 1204.93 3212.86 1258.71 3181.31 1215.1Z"
              fill="#4472C4"/>
        <text fill="#008000"
              font-family="Calibri,Calibri_MSFontService,sans-serif"
              font-weight="400" font-size="83"
              transform="matrix(1 0 0 1 1182.28 1452)">parent.frame</text>
        <path d="M1684.72 1556.28C1544.61 1556.28 1404.5 1523.89 1404.5 1491.5"
              stroke="#008000" stroke-width="6.875" stroke-miterlimit="8"
              fill="none" fill-rule="evenodd"/>
        <text fill="#0070C0"
              font-family="Calibri,Calibri_MSFontService,sans-serif"
              font-weight="400" font-size="83"
              transform="matrix(1 0 0 1 3030.2 847)">child.frame</text>
        <path d="M0 0C21.9231 0 43.8463 10.551 43.8463 21.1021 43.8463 31.6532 65.7694 42.2042 87.6925 42.2042"
              stroke="#0070C0" stroke-width="6.875" stroke-miterlimit="8"
              fill="none" fill-rule="evenodd"
              transform="matrix(-1.83697e-16 -1 -1 1.83697e-16 3218.7 954.193)"/>
        <path d="M2880.96 1512.15 2960.17 1587.42 2931.94 1598.67C2957.99 1774.51 2869.81 1932.82 2722.07 1975.43 2840.88 1913.95 2904.73 1771.52 2882.06 1618.54L2853.83 1629.79Z"
              fill="#FF0000" fill-rule="evenodd"/>
        <path d="M2697.62 1986.59C2533.91 2051.82 2339.41 1949.6 2263.18 1758.28L2313.05 1738.41C2389.28 1929.73 2583.78 2031.95 2747.49 1966.72Z"
              fill="#CD0000" fill-rule="evenodd"/>
        <text fill="#FF0000"
              font-family="Calibri,Calibri_MSFontService,sans-serif"
              font-weight="400" font-size="83"
              transform="matrix(0.894461 -0.447147 0.447147 0.894461 2493.9 2182)">joint transformation</text>
        <text fill="#008000"
              font-family="Calibri,Calibri_MSFontService,sans-serif"
              font-weight="400" font-size="83"
              transform="matrix(1 0 0 1 1672.67 1365)">parent_interframe<tspan
                fill="#4472C4" font-size="83" x="448.112" y="-163">child_interframe</tspan></text>
        <path d="M2791.49 1333.19C2604.5 1333.19 2417.5 1287.35 2417.5 1241.5"
              stroke="#0070C0" stroke-width="6.875" stroke-miterlimit="8"
              fill="none" fill-rule="evenodd"/>
        <path d="M0 0C50.9164 0 101.833 35.1491 101.833 70.2979 101.833 105.447 152.749 140.596 203.666 140.596"
              stroke="#008000" stroke-width="6.875" stroke-miterlimit="8"
              fill="none" fill-rule="evenodd"
              transform="matrix(-1.83697e-16 -1 -1 1.83697e-16 2129.1 1609.17)"/></g></svg>
