<svg width="2471" height="1711" xmlns="http://www.w3.org/2000/svg"
     xmlns:xlink="http://www.w3.org/1999/xlink" xml:space="preserve"
     overflow="hidden"><defs><clipPath id="clip0"><rect x="1423" y="546" width="2471" height="1711"/></clipPath><clipPath
        id="clip1"><rect x="1423" y="545" width="2328" height="1713"/></clipPath><clipPath
        id="clip2"><rect x="1423" y="545" width="2328" height="1713"/></clipPath><clipPath
        id="clip3"><rect x="1423" y="545" width="2328" height="1713"/></clipPath></defs>
    <g clip-path="url(#clip0)" transform="translate(-1423 -546)"><g clip-path="url(#clip1)"><g clip-path="url(#clip2)"><g clip-path="url(#clip3)"><path d="M1734 1511.82C1746.42 1490.28 1759.17 1470.67 1772.14 1452.69 1892.09 1286.47 2030.84 1260.22 2108.18 1134.84 2173.38 1029.17 2134.41 843.524 2191.77 736.742 2249.77 628.745 2386.41 627.911 2487.05 656.266 2852.74 759.294 1645.44 1662.23 1734 1511.82Z" fill="#39E2EE" transform="matrix(1 0 0 1.00019 894.344 -94.6499)"/><path
            d="M2145.97 1994.38C2200.58 1978.09 2234.23 1924.55 2257.73 1884.77 2323.61 1773.27 2319.1 1623.72 2438.93 1485.53 2529.32 1381.29 2750.64 1316.87 2823.14 1199.5 2890.33 1090.7 2848.17 929.099 2760.56 815.855 2699.81 737.337 2594.19 680.488 2506.47 660.497 2424.58 641.835 2328.33 645.876 2263.98 728.966 2199 812.878 2229.32 1006.67 2175.4 1133.88 2118.56 1267.99 1916.4 1345.22 1825.63 1480.73 1713.33 1648.38 1952.6 2052.04 2145.97 1994.38Z"
            fill="#31CED2" transform="matrix(1 0 0 1.00019 894.344 -94.6499)"/><path
            d="M553.211 1983.26C499.972 1778.9 520.66 1379.57 742.92 1317.22 936.849 1262.81 1168.53 1383.37 1293.06 1426.95 1411.56 1468.42 1513.94 1525.71 1657.35 1522.72 1805.47 1519.63 1874.35 1434.04 1988.41 1428.31 2035.64 1425.94 2073.04 1445.09 2123.85 1481.7 2109.61 2030.51 735.349 1975.31 553.211 1983.26Z"
            fill="#EDFAA9" transform="matrix(1 0 0 1.00019 894.344 -94.6499)"/><path
            d="M1704.99 1561.4C1844.93 1559.89 2018.81 1412.45 2126.21 1483.29 2233.6 1554.14 2246.09 1698.32 2247.02 1717.26 2249.76 1772.72 2238.05 1879.57 2145.85 1994.47 2040.76 2127.13 1914.15 2168.26 1840.98 2163.52 1741.13 2157.06 1598.72 2026.26 1497.92 2015.72 1323.09 1997.43 1168.05 2181.63 939.943 2308.93 892.893 2335.19 843.82 2364.22 763.324 2345.8 671.951 2324.88 598.046 2175.46 559.025 2005.64 514.357 1811.25 550.666 1497.18 680.643 1397.85 771.445 1328.46 875.492 1336.14 963.389 1347.88 1106.49 1367 1254.25 1441.36 1375.03 1482.56 1495.8 1523.76 1565.06 1562.92 1704.99 1561.4Z"
            fill="#A2CC60" transform="matrix(1 0 0 1.00019 894.344 -94.6499)"/><path
            d="M2100.78 1852.76 2016.12 1780.63C2008.6 1775.5 1995.96 1780.93 1990.62 1787.63 1985.01 1794.67 1983.16 1807.53 1987.81 1812.54L2070.38 1884.02Z"
            fill="#A7ACB8" transform="matrix(1 0 0 1.00019 894.344 -94.6499)"/><path
            d="M2817.57 14.4576C2817.57 26.5618 2809.57 36.3743 2799.7 36.3743 2789.83 36.3743 2781.83 26.5618 2781.83 14.4576 2781.83 2.3533 2789.83-7.45915 2799.7-7.45915 2809.57-7.45915 2817.57 2.3533 2817.57 14.4576Z"
            fill="#818389"
            transform="matrix(0.748204 0.663469 -0.663342 0.748347 894.344 -94.6499)"/></g></g></g>
        <path d="M0 0 411.339 582.267" stroke="#000000" stroke-width="10.3125"
              stroke-miterlimit="8" stroke-dasharray="41.25 30.9375" fill="none"
              fill-rule="evenodd" transform="matrix(-1 0 0 1 3312.34 1134)"/>
        <path d="M2926.32 1725.05 3169.64 1929.66 3163.01 1937.55 2919.68 1732.95ZM3172.33 1918.45 3201.84 1963.47 3152.42 1942.13Z"
              fill="#FF0000"/>
        <path d="M2911 1708 3599.51 1714.58" stroke="#000000"
              stroke-width="10.3125" stroke-miterlimit="8"
              stroke-dasharray="41.25 30.9375" fill="none" fill-rule="evenodd"/>
        <path d="M3150.5 1489.08 3160.32 1497.7 3173.2 1511.75 3185.08 1526.31 3196.12 1541.56 3206.26 1557.32 3215.52 1573.73 3223.81 1590.56 3231.22 1607.87 3237.54 1625.69 3242.9 1643.8 3247.24 1662.3 3250.56 1681.15 3252.65 1700.04 3238.98 1701.55 3236.92 1682.88 3236.98 1683.32 3233.73 1664.88 3233.81 1665.26 3229.56 1647.13 3229.66 1647.51 3224.41 1629.76 3224.52 1630.11 3218.33 1612.67 3218.49 1613.08 3211.24 1596.14 3211.39 1596.47 3203.27 1579.97 3203.45 1580.32 3194.39 1564.25 3194.59 1564.6 3184.66 1549.16 3184.87 1549.47 3174.06 1534.53 3174.3 1534.85 3162.67 1520.6 3162.93 1520.9 3150.43 1507.27 3150.96 1507.79 3141.42 1499.41ZM3138.37 1514.62 3097.79 1455.42 3164.26 1482.5Z"
              fill="#FF0000"/>
        <text fill="#FF0000"
              font-family="Calibri,Calibri_MSFontService,sans-serif"
              font-weight="400" font-size="83"
              transform="matrix(1 0 0 1 3259.58 1576)">θ, ω<tspan font-size="83"
                                                                  x="-42.585"
                                                                  y="395">joint_axis</tspan>
            <tspan fill="#008000" font-size="83" x="-1704.28" y="-33">parent.masscenter</tspan></text>
        <path d="M0 0C61.3584 0 122.717 145.654 122.717 291.307"
              stroke="#008000" stroke-width="6.875" stroke-miterlimit="8"
              fill="none" fill-rule="evenodd"
              transform="matrix(1.83697e-16 1 1 -1.83697e-16 1909.5 1583.5)"/>
        <text fill="#0070C0"
              font-family="Calibri,Calibri_MSFontService,sans-serif"
              font-weight="400" font-size="83"
              transform="matrix(1 0 0 1 3154.25 889)">child.masscenter</text>
        <path d="M0 0C74.7442 0 149.488 102.21 149.488 204.42" stroke="#0070C0"
              stroke-width="6.875" stroke-miterlimit="8" fill="none"
              fill-rule="evenodd" transform="matrix(1 0 0 -1 3358.5 1133.92)"/>
        <text font-family="Calibri,Calibri_MSFontService,sans-serif"
              font-weight="400" font-size="83"
              transform="matrix(1 0 0 1 2415.86 1907)">attachment points</text>
        <path d="M2904.68 1736.5C2904.68 1755.84 2860.14 1775.17 2815.59 1775.17 2771.05 1775.17 2726.5 1794.51 2726.5 1813.84"
              stroke="#000000" stroke-width="6.875" stroke-miterlimit="8"
              fill="none" fill-rule="evenodd"/>
        <path d="M2200 1705.5C2200 1680.37 2220.37 1660 2245.5 1660 2270.63 1660 2291 1680.37 2291 1705.5 2291 1730.63 2270.63 1751 2245.5 1751 2220.37 1751 2200 1730.63 2200 1705.5Z"
              stroke="#000000" stroke-width="13.75" stroke-miterlimit="8"
              fill-rule="evenodd"/>
        <path d="M2200 1705.5C2200 1680.37 2220.37 1660 2245.5 1660L2245.5 1705.5Z"
              fill="#FFFFFF" fill-rule="evenodd"/>
        <path d="M2291 1705.5C2291 1730.63 2270.63 1751 2245.5 1751L2245.5 1705.5Z"
              fill="#FFFFFF" fill-rule="evenodd"/>
        <path d="M3267 1133.5C3267 1108.37 3287.37 1088 3312.5 1088 3337.63 1088 3358 1108.37 3358 1133.5 3358 1158.63 3337.63 1179 3312.5 1179 3287.37 1179 3267 1158.63 3267 1133.5Z"
              stroke="#000000" stroke-width="13.75" stroke-miterlimit="8"
              fill-rule="evenodd"/>
        <path d="M3267 1133.5C3267 1108.37 3287.37 1088 3312.5 1088L3312.5 1133.5Z"
              fill="#FFFFFF" fill-rule="evenodd"/>
        <path d="M3358 1133.5C3358 1158.63 3337.63 1179 3312.5 1179L3312.5 1133.5Z"
              fill="#FFFFFF" fill-rule="evenodd"/>
        <path d="M2906.04 1702.84 3074.99 1704.18 3074.91 1714.49 2905.96 1713.16ZM3069.92 1693.83 3121.36 1709.7 3069.67 1724.77Z"
              fill="#008000"/>
        <path d="M4.19905-2.99247 106.876 141.084 98.4775 147.069-4.19905 2.99247ZM112.281 130.9 129.609 181.868 87.0869 148.855Z"
              fill="#4472C4" transform="matrix(1 0 0 -1 2908 1705.87)"/>
        <path d="M2899.52 1707.16 2897.43 1540.47 2907.74 1540.34 2909.84 1707.03ZM2887.18 1545.75 2902 1494 2918.12 1545.36Z"
              fill="#008000"/>
        <path d="M2904.34 1710.93 2762.35 1613.51 2768.18 1605 2910.17 1702.43ZM2760.77 1624.93 2727 1583 2778.27 1599.42Z"
              fill="#4472C4"/>
        <path d="M2879 1710C2879 1695.64 2890.64 1684 2905 1684 2919.36 1684 2931 1695.64 2931 1710 2931 1724.36 2919.36 1736 2905 1736 2890.64 1736 2879 1724.36 2879 1710Z"
              fill-rule="evenodd"/>
        <text fill="#008000"
              font-family="Calibri,Calibri_MSFontService,sans-serif"
              font-weight="400" font-size="83"
              transform="matrix(1 0 0 1 2104.66 1277)">parent_interframe<tspan
                fill="#4472C4" font-size="83" x="61.2996" y="-115">child_interframe</tspan></text>
        <path d="M0 0C119.815 0 239.629 229.274 239.629 458.548"
              stroke="#008000" stroke-width="6.875" stroke-miterlimit="8"
              fill="none" fill-rule="evenodd"
              transform="matrix(1.83697e-16 1 1 -1.83697e-16 2420.5 1317.5)"/>
        <path d="M0 0C212.795 0 425.59 107.453 425.59 214.906" stroke="#0070C0"
              stroke-width="6.875" stroke-miterlimit="8" fill="none"
              fill-rule="evenodd"
              transform="matrix(-1.83697e-16 -1 -1 1.83697e-16 2983.41 1561.09)"/>
        <path d="M2241.04 1704.84 2409.99 1706.18 2409.91 1716.49 2240.96 1715.16ZM2404.92 1695.83 2456.36 1711.7 2404.67 1726.77Z"
              fill="#008000"/>
        <path d="M2240.52 1710.16 2238.43 1543.47 2248.74 1543.34 2250.84 1710.03ZM2228.18 1548.75 2243 1497 2259.12 1548.36Z"
              fill="#008000"/>
        <path d="M2247.32 1706.05 2372.13 1810.86 2365.5 1818.76 2240.68 1713.95ZM2374.82 1799.65 2404.36 1844.65 2354.92 1823.34Z"
              fill="#008000"/>
        <path d="M4.19905-2.99247 106.876 141.084 98.4775 147.069-4.19905 2.99247ZM112.281 130.9 129.609 181.868 87.0869 148.855Z"
              fill="#4472C4" transform="matrix(1 0 0 -1 3312 1133.87)"/>
        <path d="M3308.34 1136.93 3166.35 1039.51 3172.18 1031 3314.17 1128.43ZM3164.77 1050.93 3131 1009 3182.27 1025.42Z"
              fill="#4472C4"/>
        <path d="M3314.32 1129.05 3439.13 1233.86 3432.5 1241.76 3307.68 1136.95ZM3441.82 1222.65 3471.36 1267.65 3421.92 1246.34Z"
              fill="#4472C4"/>
        <text fill="#008000"
              font-family="Calibri,Calibri_MSFontService,sans-serif"
              font-weight="400" font-size="83"
              transform="matrix(1 0 0 1 1724.8 1898)">parent.frame</text>
        <path d="M0 0C32.827 0 65.6539 15.6921 65.6539 31.3841 65.6539 47.0762 98.4809 62.7682 131.308 62.7682"
              stroke="#008000" stroke-width="6.875" stroke-miterlimit="8"
              fill="none" fill-rule="evenodd"
              transform="matrix(1 0 0 -1 2198.5 1871.27)"/>
        <text fill="#0070C0"
              font-family="Calibri,Calibri_MSFontService,sans-serif"
              font-weight="400" font-size="83"
              transform="matrix(1 0 0 1 2562.54 976)">child.frame</text>
        <path d="M3135.47 1047.98C3096.73 1047.98 3057.99 1023.36 3057.99 998.739 3057.99 974.119 3019.24 949.5 2980.5 949.5"
              stroke="#0070C0" stroke-width="6.875" stroke-miterlimit="8"
              fill="none" fill-rule="evenodd"/></g></svg>
