<svg width="2461" height="1711" xmlns="http://www.w3.org/2000/svg"
     xmlns:xlink="http://www.w3.org/1999/xlink" xml:space="preserve"
     overflow="hidden"><defs><clipPath id="clip0"><rect x="1423" y="546" width="2461" height="1711"/></clipPath><clipPath
        id="clip1"><rect x="1423" y="545" width="2328" height="1713"/></clipPath><clipPath
        id="clip2"><rect x="1423" y="545" width="2328" height="1713"/></clipPath><clipPath
        id="clip3"><rect x="1423" y="545" width="2328" height="1713"/></clipPath></defs>
    <g clip-path="url(#clip0)" transform="translate(-1423 -546)"><g clip-path="url(#clip1)"><g clip-path="url(#clip2)"><g clip-path="url(#clip3)"><path d="M1734 1511.82C1746.42 1490.28 1759.17 1470.67 1772.14 1452.69 1892.08 1286.47 2030.84 1260.22 2108.18 1134.84 2173.38 1029.16 2134.41 843.524 2191.76 736.741 2249.77 628.744 2386.41 627.911 2487.05 656.265 2852.74 759.293 1645.45 1662.23 1734 1511.82Z" fill="#39E2EE" transform="matrix(1 0 0 1.00019 894.343 -94.6497)"/><path
            d="M2145.97 1994.38C2200.58 1978.09 2234.22 1924.55 2257.73 1884.77 2323.61 1773.27 2319.1 1623.72 2438.93 1485.52 2529.31 1381.29 2750.64 1316.87 2823.13 1199.49 2890.33 1090.7 2848.17 929.099 2760.55 815.855 2699.81 737.336 2594.19 680.487 2506.46 660.496 2424.57 641.834 2328.33 645.876 2263.98 728.968 2199 812.878 2229.32 1006.67 2175.4 1133.88 2118.56 1267.99 1916.4 1345.22 1825.63 1480.73 1713.33 1648.38 1952.6 2052.04 2145.97 1994.38Z"
            fill="#31CED2" transform="matrix(1 0 0 1.00019 894.343 -94.6497)"/><path
            d="M553.21 1983.25C499.972 1778.9 520.659 1379.57 742.92 1317.22 936.848 1262.81 1168.53 1383.37 1293.05 1426.94 1411.56 1468.42 1513.94 1525.7 1657.35 1522.72 1805.47 1519.63 1874.35 1434.04 1988.41 1428.31 2035.64 1425.94 2073.04 1445.09 2123.85 1481.69 2109.61 2030.51 735.347 1975.31 553.21 1983.25Z"
            fill="#EDFAA9" transform="matrix(1 0 0 1.00019 894.343 -94.6497)"/><path
            d="M1704.99 1561.4C1844.93 1559.89 2018.81 1412.45 2126.2 1483.29 2233.6 1554.14 2246.09 1698.32 2247.02 1717.26 2249.76 1772.72 2238.05 1879.57 2145.85 1994.47 2040.76 2127.13 1914.15 2168.26 1840.98 2163.52 1741.12 2157.06 1598.72 2026.25 1497.91 2015.71 1323.09 1997.43 1168.05 2181.63 939.944 2308.93 892.893 2335.19 843.819 2364.22 763.326 2345.8 671.952 2324.88 598.046 2175.46 559.027 2005.64 514.359 1811.25 550.667 1497.18 680.643 1397.85 771.445 1328.46 875.491 1336.14 963.39 1347.88 1106.49 1367 1254.25 1441.36 1375.03 1482.56 1495.8 1523.76 1565.05 1562.91 1704.99 1561.4Z"
            fill="#A2CC60" transform="matrix(1 0 0 1.00019 894.343 -94.6497)"/><path
            d="M2100.78 1852.75 2016.12 1780.63C2008.6 1775.5 1995.96 1780.93 1990.62 1787.62 1985 1794.67 1983.16 1807.53 1987.81 1812.54L2070.38 1884.02Z"
            fill="#A7ACB8" transform="matrix(1 0 0 1.00019 894.343 -94.6497)"/><path
            d="M2817.57 14.4576C2817.57 26.5618 2809.57 36.3742 2799.7 36.3742 2789.82 36.3742 2781.82 26.5618 2781.82 14.4576 2781.82 2.3533 2789.82-7.45913 2799.7-7.45913 2809.57-7.45913 2817.57 2.3533 2817.57 14.4576Z"
            fill="#818389"
            transform="matrix(0.748204 0.663469 -0.663342 0.748347 894.343 -94.6497)"/></g></g></g>
        <path d="M2879 1710C2879 1695.64 2890.64 1684 2905 1684 2919.36 1684 2931 1695.64 2931 1710 2931 1724.36 2919.36 1736 2905 1736 2890.64 1736 2879 1724.36 2879 1710Z"
              fill-rule="evenodd"/>
        <path d="M4.22859-2.95058 367.466 517.618 359.009 523.519-4.22859 2.95058ZM372.972 507.487 389.792 558.625 347.6 525.191Z"
              fill="#0070C0" transform="matrix(-1 0 0 1 3312.79 1133)"/>
        <path d="M2245.04 1700.84 2831.69 1705.19 2831.62 1715.51 2244.96 1711.16ZM2826.61 1694.84 2878.06 1710.69 2826.39 1725.78Z"
              fill="#008000"/>
        <path d="M2926.32 1725.05 3169.64 1929.66 3163.01 1937.55 2919.68 1732.95ZM3172.33 1918.45 3201.84 1963.47 3152.42 1942.13Z"/>
        <path d="M2911 1708 3599.51 1714.58" stroke="#000000"
              stroke-width="10.3125" stroke-miterlimit="8"
              stroke-dasharray="41.25 30.9375" fill="none" fill-rule="evenodd"/>
        <path d="M3150.5 1489.08 3160.32 1497.7 3173.2 1511.75 3185.08 1526.31 3196.12 1541.56 3206.26 1557.32 3215.52 1573.73 3223.81 1590.56 3231.22 1607.87 3237.54 1625.69 3242.9 1643.8 3247.24 1662.3 3250.56 1681.15 3252.65 1700.04 3238.98 1701.55 3236.92 1682.88 3236.98 1683.32 3233.73 1664.88 3233.81 1665.26 3229.56 1647.13 3229.66 1647.51 3224.41 1629.76 3224.52 1630.11 3218.33 1612.67 3218.49 1613.08 3211.24 1596.14 3211.39 1596.47 3203.27 1579.97 3203.45 1580.32 3194.39 1564.25 3194.59 1564.6 3184.66 1549.16 3184.87 1549.47 3174.06 1534.53 3174.3 1534.85 3162.67 1520.6 3162.93 1520.9 3150.43 1507.27 3150.96 1507.79 3141.42 1499.41ZM3138.37 1514.62 3097.79 1455.42 3164.26 1482.5Z"
              fill="#FF0000"/>
        <text fill="#FF0000"
              font-family="Calibri,Calibri_MSFontService,sans-serif"
              font-weight="400" font-size="83"
              transform="matrix(1 0 0 1 3259.58 1576)">θ, ω<tspan fill="#000000"
                                                                  font-size="83"
                                                                  x="-42.585"
                                                                  y="395">joint axis</tspan>
            <tspan fill="#008000" font-size="83" x="-1110.02" y="314">parent_joint_pos</tspan>
            <tspan fill="#0070C0" font-size="83" x="-873.834" y="-421">child_joint_pos</tspan>
            <tspan fill="#008000" font-size="83" x="-1704.28" y="-33">parent_masscenter</tspan></text>
        <path d="M0 0C19.3111 0 38.6222 84.1949 38.6222 168.39 38.6222 252.585 57.9332 336.78 77.2443 336.78"
              stroke="#008000" stroke-width="6.875" stroke-miterlimit="8"
              fill="none" fill-rule="evenodd"
              transform="matrix(1.83697e-16 1 1 -1.83697e-16 1909.5 1583.5)"/>
        <path d="M2465.5 1796.95C2465.5 1777.59 2483.02 1758.23 2500.54 1758.23 2518.05 1758.23 2535.57 1738.86 2535.57 1719.5"
              stroke="#008000" stroke-width="6.875" stroke-miterlimit="8"
              fill="none" fill-rule="evenodd"/>
        <path d="M0 0C73.6581 0 147.316 235.516 147.316 471.032"
              stroke="#0070C0" stroke-width="6.875" stroke-miterlimit="8"
              fill="none" fill-rule="evenodd"
              transform="matrix(1.83697e-16 1 1 -1.83697e-16 2645.5 1195.5)"/>
        <text fill="#0070C0"
              font-family="Calibri,Calibri_MSFontService,sans-serif"
              font-weight="400" font-size="83"
              transform="matrix(1 0 0 1 3144.24 986)">child_masscenter</text>
        <path d="M0 0C69.7396 0 139.479 54.0116 139.479 108.023"
              stroke="#0070C0" stroke-width="6.875" stroke-miterlimit="8"
              fill="none" fill-rule="evenodd"
              transform="matrix(1 0 0 -1 3358.5 1134.52)"/>
        <text font-family="Calibri,Calibri_MSFontService,sans-serif"
              font-weight="400" font-size="83"
              transform="matrix(1 0 0 1 2511.18 1568)">joint point</text>
        <path d="M0 0C19.2877 0 38.5752 54.4061 38.5752 108.812 38.5752 163.218 57.863 217.624 77.1505 217.624"
              stroke="#000000" stroke-width="6.875" stroke-miterlimit="8"
              fill="none" fill-rule="evenodd"
              transform="matrix(-1.83697e-16 -1 -1 1.83697e-16 2905.12 1684.65)"/>
        <path d="M2200 1705.5C2200 1680.37 2220.37 1660 2245.5 1660 2270.63 1660 2291 1680.37 2291 1705.5 2291 1730.63 2270.63 1751 2245.5 1751 2220.37 1751 2200 1730.63 2200 1705.5Z"
              stroke="#000000" stroke-width="13.75" stroke-miterlimit="8"
              fill-rule="evenodd"/>
        <path d="M2200 1705.5C2200 1680.37 2220.37 1660 2245.5 1660L2245.5 1705.5Z"
              fill="#FFFFFF" fill-rule="evenodd"/>
        <path d="M2291 1705.5C2291 1730.63 2270.63 1751 2245.5 1751L2245.5 1705.5Z"
              fill="#FFFFFF" fill-rule="evenodd"/>
        <path d="M3267 1133.5C3267 1108.37 3287.37 1088 3312.5 1088 3337.63 1088 3358 1108.37 3358 1133.5 3358 1158.63 3337.63 1179 3312.5 1179 3287.37 1179 3267 1158.63 3267 1133.5Z"
              stroke="#000000" stroke-width="13.75" stroke-miterlimit="8"
              fill-rule="evenodd"/>
        <path d="M3267 1133.5C3267 1108.37 3287.37 1088 3312.5 1088L3312.5 1133.5Z"
              fill="#FFFFFF" fill-rule="evenodd"/>
        <path d="M3358 1133.5C3358 1158.63 3337.63 1179 3312.5 1179L3312.5 1133.5Z"
              fill="#FFFFFF" fill-rule="evenodd"/></g></svg>
