<svg width="1708" height="1153" xmlns="http://www.w3.org/2000/svg"
     xmlns:xlink="http://www.w3.org/1999/xlink" xml:space="preserve"
     overflow="hidden"><defs><clipPath id="clip0"><rect x="1107" y="762" width="1708" height="1153"/></clipPath><clipPath
        id="clip1"><rect x="1310" y="910" width="1462" height="1006"/></clipPath><clipPath
        id="clip2"><rect x="1310" y="910" width="1462" height="1006"/></clipPath><clipPath
        id="clip3"><rect x="1310" y="910" width="1462" height="1006"/></clipPath><clipPath
        id="clip4"><rect x="1908" y="1151" width="311" height="196"/></clipPath><clipPath
        id="clip5"><rect x="1908" y="1151" width="311" height="196"/></clipPath><clipPath
        id="clip6"><rect x="1908" y="1151" width="311" height="196"/></clipPath></defs>
    <g clip-path="url(#clip0)" transform="translate(-1107 -762)"><g clip-path="url(#clip1)"><g clip-path="url(#clip2)"><g clip-path="url(#clip3)"><path d="M-668.497 885.624-381.351 1094.81-408.157 925.473-489.19 870.657-473.56 956.899-620.275 853.639-636.946 771.195-705.298 725.613Z" fill="#9CCB68" transform="matrix(1 0 0 1.00006 2015.3 820.583)"/><path
            d="M-381.351 1094.81 740.451 283.354 756.304 162.191-408.157 925.473Z"
            fill="#9EC152" transform="matrix(1 0 0 1.00006 2015.3 820.583)"/><path
            d="M-489.19 870.657 323.283 368.795 398.354 396.751-408.157 925.473Z"
            fill="#E6F8A3" transform="matrix(1 0 0 1.00006 2015.3 820.583)"/><path
            d="M323.283 368.795 253.501 411.906 182.187 384.896 181.375 316.862 114.953 291.856 114.141 223.038 402.714 323.267 398.354 396.751Z"
            fill="#2BCFDC" transform="matrix(1 0 0 1.00006 2015.3 820.583)"/><path
            d="M-620.275 853.639 182.187 384.896 253.501 411.906-489.19 870.657-473.56 956.899Z"
            fill="#E3F79E" transform="matrix(1 0 0 1.00006 2015.3 820.583)"/><path
            d="M-620.275 853.639-636.946 771.195 181.375 316.862 182.187 384.896Z"
            fill="#A4C654" transform="matrix(1 0 0 1.00006 2015.3 820.583)"/><path
            d="M-705.298 725.613 114.953 291.856 181.375 316.862-636.946 771.195Z"
            fill="#E8F8A5" transform="matrix(1 0 0 1.00006 2015.3 820.583)"/><path
            d="M402.714 323.267 605.048 197.282 598.76 265.566 398.354 396.751Z"
            fill="#37C1BD" transform="matrix(1 0 0 1.00006 2015.3 820.583)"/><path
            d="M114.141 223.038 330.671 114.751 605.048 197.282 402.714 323.267Z"
            fill="#5CF9F9" transform="matrix(1 0 0 1.00006 2015.3 820.583)"/><path
            d="M756.304 162.191 688.997 142.508 601.906 196.315 605.048 197.282 598.76 265.566Z"
            fill="#EDF9A4" transform="matrix(1 0 0 1.00006 2015.3 820.583)"/><path
            d="M601.906 196.315 619.554 185.458 553.884 166.899 537.801 177.102Z"
            fill="#EBF89D" transform="matrix(1 0 0 1.00006 2015.3 820.583)"/><path
            d="M553.884 166.899 558.523 107.626 471.327 157.058 537.801 177.102Z"
            fill="#AACA5B" transform="matrix(1 0 0 1.00006 2015.3 820.583)"/><path
            d="M558.523 107.626 497.601 90.4117 407.523 137.861 471.327 157.058Z"
            fill="#EEF9A5" transform="matrix(1 0 0 1.00006 2015.3 820.583)"/></g></g></g>
        <path d="M2156 1318 2357.38 1389.46" stroke="#FF0000"
              stroke-width="10.3125" stroke-miterlimit="8" fill="none"
              fill-rule="evenodd"/>
        <path d="M2241 1143C2241 1128.64 2250.18 1117 2261.5 1117 2272.82 1117 2282 1128.64 2282 1143 2282 1157.36 2272.82 1169 2261.5 1169 2250.18 1169 2241 1157.36 2241 1143Z"
              fill="#0070C0" fill-rule="evenodd"/>
        <path d="M3.42014-3.8587 46.1256 33.9931 39.2854 41.7105-3.42014 3.8587ZM49.1072 22.8556 77.4338 68.6331 28.5864 46.0078Z"
              fill="#0070C0" transform="matrix(-1 0 0 1 2353.43 1056)"/>
        <path d="M2.64443-4.4265 149.475 83.2912 144.186 92.1442-2.64443 4.4265ZM150.337 71.7938 186.669 111.518 134.471 98.3528Z"
              fill="#FF0000" transform="matrix(1 0 0 -1 2077 1255.52)"/>
        <g clip-path="url(#clip4)"><g clip-path="url(#clip5)"><g clip-path="url(#clip6)"><path d="M-109.788 413.617 200.083 530.068 199.871 451.246-109.902 335.841Z" fill="#2BCFDC" fill-opacity="0.3" transform="matrix(1 0 0 1 2018.9 816.159)"/></g></g></g>
        <path d="M2.98204-4.20646 286.615 196.866 280.651 205.279-2.98204 4.20646ZM288.373 185.471 321.491 227.911 270.48 210.71Z"
              fill="#008000" transform="matrix(1 0 0 -1 1739 1500.91)"/>
        <text fill="#FF0000"
              font-family="Calibri,Calibri_MSFontService,sans-serif"
              font-weight="400" font-size="64"
              transform="matrix(1 0 0 1 2447.49 1370)">q, u<tspan
                fill="#008000" font-size="64" x="-1301.45" y="2">parent.masscenter</tspan>
            <tspan fill="#0070C0" font-size="64" x="-132.069" y="-529">child.masscenter</tspan>
            <tspan fill="#008000" font-size="64" x="-1085.66" y="-232">parent_point</tspan>
            <tspan fill="#0070C0" font-size="64" x="-844.036" y="-426">child_point</tspan></text>
        <path d="M0 0C23.4946 0 46.9893 68.0942 46.9893 136.188 46.9893 204.283 70.4839 272.377 93.9785 272.377"
              stroke="#008000" stroke-width="6.875" stroke-miterlimit="8"
              fill="none" fill-rule="evenodd"
              transform="matrix(1.83697e-16 1 1 -1.83697e-16 1402.5 1407.5)"/>
        <path d="M0 0C96.8678 0 193.736 163.908 193.736 327.817"
              stroke="#0070C0" stroke-width="6.875" stroke-miterlimit="8"
              fill="none" fill-rule="evenodd"
              transform="matrix(-1.83697e-16 -1 -1 1.83697e-16 2262.32 1117.24)"/>
        <path d="M1661 1519C1661 1504.64 1681.37 1493 1706.5 1493 1731.63 1493 1752 1504.64 1752 1519 1752 1533.36 1731.63 1545 1706.5 1545 1681.37 1545 1661 1533.36 1661 1519Z"
              stroke="#000000" stroke-width="13.75" stroke-miterlimit="8"
              fill-rule="evenodd"/>
        <path d="M1661 1519C1661 1504.64 1681.37 1493 1706.5 1493L1706.5 1519Z"
              fill="#FFFFFF" fill-rule="evenodd"/>
        <path d="M1752 1519C1752 1533.36 1731.63 1545 1706.5 1545L1706.5 1519Z"
              fill="#FFFFFF" fill-rule="evenodd"/>
        <path d="M2386.5 1012.5C2386.5 978.497 2427.19 944.498 2467.87 944.498 2508.56 944.498 2549.25 910.499 2549.25 876.5"
              stroke="#0070C0" stroke-width="6.875" stroke-miterlimit="8"
              fill="none" fill-rule="evenodd"/>
        <path d="M2340 1038C2340 1023.64 2360.37 1012 2385.5 1012 2410.63 1012 2431 1023.64 2431 1038 2431 1052.36 2410.63 1064 2385.5 1064 2360.37 1064 2340 1052.36 2340 1038Z"
              stroke="#000000" stroke-width="13.75" stroke-miterlimit="8"
              fill-rule="evenodd"/>
        <path d="M2340 1038C2340 1023.64 2360.37 1012 2385.5 1012L2385.5 1038Z"
              fill="#FFFFFF" fill-rule="evenodd"/>
        <path d="M2431 1038C2431 1052.36 2410.63 1064 2385.5 1064L2385.5 1038Z"
              fill="#FFFFFF" fill-rule="evenodd"/>
        <text fill="#FF0000"
              font-family="Calibri,Calibri_MSFontService,sans-serif"
              font-weight="400" font-size="64"
              transform="matrix(1 0 0 1 1512.25 1039)">joint_axis</text>
        <path d="M1780.5 1018.5C1882.68 1018.5 1984.86 1054.91 1984.86 1091.32 1984.86 1127.73 2087.05 1164.15 2189.23 1164.15"
              stroke="#FF0000" stroke-width="6.875" stroke-miterlimit="8"
              fill="none" fill-rule="evenodd"/>
        <path d="M40.7583 22.779 141.999 95.1001 136.005 103.491 34.764 31.1703ZM32.9653 42.5589 0 0 50.9484 17.3848ZM143.798 83.7115 176.763 126.27 125.814 108.886Z"
              fill="#FF0000" transform="matrix(1 0 0 -1 2346 1378.27)"/>
        <path d="M2344 1185 2545.38 1256.46" stroke="#FF0000"
              stroke-width="10.3125" stroke-miterlimit="8" fill="none"
              fill-rule="evenodd"/>
        <path d="M1752.5 1117.5C1828.02 1117.5 1903.55 1151.94 1903.55 1186.38 1903.55 1220.83 1979.07 1255.27 2054.59 1255.27"
              stroke="#008000" stroke-width="6.875" stroke-miterlimit="8"
              fill="none" fill-rule="evenodd"/>
        <path d="M2054 1254.5C2054 1240.42 2063.4 1229 2075 1229 2086.6 1229 2096 1240.42 2096 1254.5 2096 1268.58 2086.6 1280 2075 1280 2063.4 1280 2054 1268.58 2054 1254.5Z"
              fill="#008000" fill-rule="evenodd"/></g></svg>
