<svg width="2047" height="1688" xmlns="http://www.w3.org/2000/svg"
     xmlns:xlink="http://www.w3.org/1999/xlink" xml:space="preserve"
     overflow="hidden"><defs><clipPath id="clip0"><rect x="410" y="443" width="2047" height="1688"/></clipPath><clipPath
        id="clip1"><rect x="716" y="443" width="1201" height="1688"/></clipPath><clipPath
        id="clip2"><rect x="716" y="443" width="1201" height="1688"/></clipPath><clipPath
        id="clip3"><rect x="716" y="443" width="1201" height="1688"/></clipPath></defs>
    <g clip-path="url(#clip0)" transform="translate(-410 -443)"><g clip-path="url(#clip1)"><g clip-path="url(#clip2)"><g clip-path="url(#clip3)"><path d="M1479.94 2543.48C1479.94 2543.48 1479.94 2543.48 1488.13 2932.04 1489.69 3005.97 1587.32 3048.73 1677.37 3047.79 1760.66 3046.93 1841.54 3000.89 1844.35 2952.4 1867.42 2553.35 1867.42 2553.35 1867.42 2553.35Z" fill="#93C056" transform="matrix(1.00015 0 0 1 -183.085 -917.311)"/><path
            d="M2043.19 2116.37C2043.19 2314.43 1882.63 2474.99 1684.57 2474.99 1486.5 2474.99 1325.94 2314.43 1325.94 2116.37 1325.94 1918.31 1486.5 1757.74 1684.57 1757.74 1882.63 1757.74 2043.19 1918.31 2043.19 2116.37Z"
            fill="#47F1F3" transform="matrix(1.00015 0 0 1 -183.085 -917.311)"/><path
            d="M1331.7 2046.72C1330.01 2175.83 1548.3 2218.48 1677.61 2222.75 1807.6 2227.02 2034.27 2185.27 2036.22 2069.04 2037.8 1975.66 1837.97 1891.86 1693.37 1892.59 1538.08 1893.36 1332.65 1974.69 1331.7 2046.72Z"
            fill="#A9D973" transform="matrix(1.00015 0 0 1 -183.085 -917.311)"/><path
            d="M1291.41 2046.06C1220.36 2236.87 1328.06 2477.52 1481.67 2543.48 1600.39 2594.45 1752.78 2609.5 1869.15 2553.35 1984.26 2497.83 2154.01 2313.14 2080.52 2063.64 1983.94 2255.22 1430.45 2275.31 1291.41 2046.06Z"
            fill="#A6D671" transform="matrix(1.00015 0 0 1 -183.085 -917.311)"/><path
            d="M1291.41 2046.06C1279.31 2194.38 1545.44 2237.62 1694.25 2238.51 1903.14 2239.73 2097.93 2153.26 2080.01 2062.04 2065.08 1986.04 1922.36 1862.68 1700.38 1861.94 1451.08 1861.1 1296.61 1982.39 1291.41 2046.06Z"
            fill="#E4F389" transform="matrix(1.00015 0 0 1 -183.085 -917.311)"/><path
            d="M1684.28 1757.89C1883.9 1754.63 2028.78 1932.94 2036.95 2065.74 2044.63 2190.65 1806.26 2226.41 1674.47 2223.88 1549.21 2221.47 1322.89 2166.07 1332.36 2056.84 1345.76 1902.3 1529.4 1760.42 1684.28 1757.89Z"
            fill="#47F1F3" transform="matrix(1.00015 0 0 1 -183.085 -917.311)"/><path
            d="M908.381 1628.94C908.381 1628.94 908.381 1628.94 1389.66 2044.25 1445.61 2060 1512.26 2014.08 1549.2 1968.19 1581.98 1927.45 1606.24 1868.42 1584.87 1815.42 1132.78 1364.42 1132.78 1364.42 1132.78 1364.42Z"
            fill="#3DDDDB" transform="matrix(1.00015 0 0 1 -183.085 -917.311)"/><path
            d="M908.381 1628.94C939.459 1660.31 1045.14 1566.05 1080.45 1525.07 1115.76 1484.09 1170.56 1386.87 1132.78 1364.42 1095.01 1341.95 1007.49 1416.96 968.627 1464.3 929.76 1511.63 877.302 1597.56 908.381 1628.94Z"
            fill="#55F7FB" transform="matrix(1.00015 0 0 1 -183.085 -917.311)"/></g></g></g>
        <text fill="#008000" font-family="Arial,Arial_MSFontService,sans-serif"
              font-weight="400" font-size="83"
              transform="matrix(1 0 0 1 1452.04 824)">parent_interframe</text>
        <path d="M0 0C118.746 0 237.491 100.322 237.491 200.645"
              stroke="#008000" stroke-width="6.875" stroke-miterlimit="8"
              fill="none" fill-rule="evenodd"
              transform="matrix(1 0 0 -1 1540.5 1062.14)"/>
        <text fill="#4472C4" font-family="Arial,Arial_MSFontService,sans-serif"
              font-weight="400" font-size="83"
              transform="matrix(1 0 0 1 503.247 1363)">child_interframe</text>
        <path d="M0 0C62.8807 0 125.761 47.8628 125.761 95.7256 125.761 143.588 188.642 191.451 251.523 191.451"
              stroke="#0070C0" stroke-width="6.875" stroke-miterlimit="8"
              fill="none" fill-rule="evenodd"
              transform="matrix(-1 1.22465e-16 1.22465e-16 1 1375.02 1141.5)"/>
        <text fill="#0070C0" font-family="Arial,Arial_MSFontService,sans-serif"
              font-weight="400" font-size="83"
              transform="matrix(1 0 0 1 1147.67 610)">child.masscenter</text>
        <path d="M1183.5 875.698C1183.5 818.648 1251.9 761.599 1320.3 761.599 1388.7 761.599 1457.1 704.55 1457.1 647.5"
              stroke="#0070C0" stroke-width="6.875" stroke-miterlimit="8"
              fill="none" fill-rule="evenodd"/>
        <text fill="#0070C0" font-family="Arial,Arial_MSFontService,sans-serif"
              font-weight="400" font-size="83"
              transform="matrix(1 0 0 1 517.723 955)">child.frame</text>
        <path d="M0 0C30.8405 0 61.681 18.6399 61.681 37.2798 61.681 55.9197 92.5215 74.5596 123.362 74.5596"
              stroke="#0070C0" stroke-width="6.875" stroke-miterlimit="8"
              fill="none" fill-rule="evenodd"
              transform="matrix(-1 1.22465e-16 1.22465e-16 1 1077.86 851.5)"/>
        <text fill="#008000" font-family="Arial,Arial_MSFontService,sans-serif"
              font-weight="400" font-size="83"
              transform="matrix(1 0 0 1 459.642 1756)">parent<tspan
                font-size="83" x="233.75" y="0">.</tspan>
            <tspan font-size="83" x="256.667" y="0">masscenter</tspan></text>
        <path d="M1176.5 1727.5C1245.37 1727.5 1314.24 1760.21 1314.24 1792.92 1314.24 1825.63 1383.11 1858.35 1451.98 1858.35"
              stroke="#008000" stroke-width="6.875" stroke-miterlimit="8"
              fill="none" fill-rule="evenodd"/>
        <text fill="#008000" font-family="Arial,Arial_MSFontService,sans-serif"
              font-weight="400" font-size="83"
              transform="matrix(1 0 0 1 667.926 1644)">parent.frame</text>
        <path d="M1478.47 1727.99C1401.23 1727.99 1323.98 1699.62 1323.98 1671.24 1323.98 1642.87 1246.74 1614.5 1169.5 1614.5"
              stroke="#008000" stroke-width="6.875" stroke-miterlimit="8"
              fill="none" fill-rule="evenodd"/>
        <text font-family="Arial,Arial_MSFontService,sans-serif"
              font-weight="400" font-size="83"
              transform="matrix(1 0 0 1 1411.67 1513)">joint point</text>
        <path d="M0 0C42.985 0 85.97 16.2623 85.97 32.5248 85.97 48.7871 128.955 65.0494 171.94 65.0494"
              stroke="#000000" stroke-width="6.875" stroke-miterlimit="8"
              fill="none" fill-rule="evenodd"
              transform="matrix(1.83697e-16 1 1 -1.83697e-16 1523.5 1245.5)"/>
        <path d="M1809.2 963.141 1891.58 896.331 1898.23 924.787C2070.25 916.921 2202.73 998.287 2211.14 1116.98 2173.44 1024.73 2054.03 968.46 1909.96 975.048L1916.61 1003.5Z"
              fill="#FF0000" fill-rule="evenodd"/>
        <path d="M2219.02 1141.64C2249.31 1271.37 2117.56 1413.03 1924.75 1458.04L1913.02 1407.78C2105.82 1362.76 2237.57 1221.11 2207.28 1091.38Z"
              fill="#CD0000" fill-rule="evenodd"/>
        <text fill="#FF0000" font-family="Arial,Arial_MSFontService,sans-serif"
              font-weight="400" font-size="83"
              transform="matrix(0.180896 0.983502 -0.983502 0.180896 2214.8 845)">successive rotation</text>
        <path d="M1138 920.5C1138 895.371 1158.37 875 1183.5 875 1208.63 875 1229 895.371 1229 920.5 1229 945.629 1208.63 966 1183.5 966 1158.37 966 1138 945.629 1138 920.5Z"
              stroke="#000000" stroke-width="13.75" stroke-miterlimit="8"
              fill-rule="evenodd"/>
        <path d="M1138 920.5C1138 895.371 1158.37 875 1183.5 875L1183.5 920.5Z"
              fill="#FFFFFF" fill-rule="evenodd"/>
        <path d="M1229 920.5C1229 945.629 1208.63 966 1183.5 966L1183.5 920.5Z"
              fill="#FFFFFF" fill-rule="evenodd"/>
        <path d="M5.15625-8.6517e-06 5.15653 168.679-5.15597 168.679-5.15625 8.6517e-06ZM15.469 163.522 0.000360892 215.085-15.4685 163.523Z"
              fill="#0070C0"
              transform="matrix(0.671857 -0.740681 -0.740681 -0.671857 1186.61 922.952)"/>
        <path d="M2.38231-4.57291 142.492 68.4185 137.727 77.5644-2.38231 4.57291ZM142.683 56.8904 181.265 94.4322 128.389 84.3278Z"
              fill="#0070C0"
              transform="matrix(-0.671857 0.740681 0.740681 0.671857 1186.61 922.952)"/>
        <path d="M1185.1 917.529 1329.63 886.44 1331.8 896.522 1187.27 927.611ZM1322.42 877.442 1376.08 881.722 1328.92 907.688Z"
              fill="#0070C0"/>
        <path d="M1491 1212.5C1491 1194.55 1505.55 1180 1523.5 1180 1541.45 1180 1556 1194.55 1556 1212.5 1556 1230.45 1541.45 1245 1523.5 1245 1505.55 1245 1491 1230.45 1491 1212.5Z"
              fill-rule="evenodd"/>
        <path d="M5.15625-8.6517e-06 5.15653 168.679-5.15597 168.679-5.15625 8.6517e-06ZM15.469 163.522 0.000360892 215.085-15.4685 163.523Z"
              fill="#0070C0"
              transform="matrix(0.671857 -0.740681 -0.740681 -0.671857 1526.23 1211.01)"/>
        <path d="M2.38231-4.57291 142.492 68.4185 137.727 77.5644-2.38231 4.57291ZM142.683 56.8904 181.265 94.4322 128.389 84.3278Z"
              fill="#0070C0"
              transform="matrix(-0.671857 0.740681 0.740681 0.671857 1526.23 1211.01)"/>
        <path d="M1524.72 1205.59 1669.25 1174.5 1671.42 1184.58 1526.89 1215.67ZM1662.04 1165.5 1715.7 1169.78 1668.54 1195.75Z"
              fill="#0070C0"/>
        <path d="M5.15625-8.6517e-06 5.15653 168.679-5.15597 168.679-5.15625 8.6517e-06ZM15.469 163.522 0.000360892 215.085-15.4685 163.523Z"
              fill="#008000" transform="matrix(1 0 0 -1 1523 1209.09)"/>
        <path d="M2.38231-4.57291 142.492 68.4185 137.727 77.5644-2.38231 4.57291ZM142.683 56.8904 181.265 94.4322 128.389 84.3278Z"
              fill="#008000" transform="matrix(-1 0 0 1 1523.27 1209)"/>
        <path d="M1526.01 1204.81 1646.13 1290.97 1640.12 1299.35 1519.99 1213.19ZM1647.95 1279.59 1680.84 1322.21 1629.92 1304.73Z"
              fill="#008000"/>
        <path d="M1452 1857.5C1452 1832.37 1472.15 1812 1497 1812 1521.85 1812 1542 1832.37 1542 1857.5 1542 1882.63 1521.85 1903 1497 1903 1472.15 1903 1452 1882.63 1452 1857.5Z"
              stroke="#000000" stroke-width="13.75" stroke-miterlimit="8"
              fill-rule="evenodd"/>
        <path d="M1452 1857.5C1452 1832.37 1472.15 1812 1497 1812L1497 1857.5Z"
              fill="#FFFFFF" fill-rule="evenodd"/>
        <path d="M1542 1857.5C1542 1882.63 1521.85 1903 1497 1903L1497 1857.5Z"
              fill="#FFFFFF" fill-rule="evenodd"/>
        <path d="M5.15625-8.6517e-06 5.15653 168.679-5.15597 168.679-5.15625 8.6517e-06ZM15.469 163.522 0.000360892 215.085-15.4685 163.523Z"
              fill="#008000" transform="matrix(1 0 0 -1 1497 1856.09)"/>
        <path d="M2.38231-4.57291 142.492 68.4185 137.727 77.5644-2.38231 4.57291ZM142.683 56.8904 181.265 94.4322 128.389 84.3278Z"
              fill="#008000" transform="matrix(-1 0 0 1 1497.27 1856)"/>
        <path d="M1500.01 1850.81 1620.13 1936.97 1614.12 1945.35 1493.99 1859.19ZM1621.95 1925.59 1654.84 1968.21 1603.92 1950.73Z"
              fill="#008000"/></g></svg>
