<svg width="1841" height="1292" xmlns="http://www.w3.org/2000/svg"
     xmlns:xlink="http://www.w3.org/1999/xlink" xml:space="preserve"
     overflow="hidden"><defs><clipPath id="clip0"><rect x="1043" y="850" width="1841" height="1292"/></clipPath></defs>
    <g clip-path="url(#clip0)" transform="translate(-1043 -850)"><path d="M1080.63 1840.57C1037.28 1674.06 1054.12 1348.66 1235.12 1297.85 1393.04 1253.52 1581.7 1351.76 1683.1 1387.26 1779.6 1421.06 1862.97 1467.74 1979.76 1465.31 2100.37 1462.79 2156.46 1393.05 2249.34 1388.38 2287.81 1386.45 2318.26 1402.05 2359.64 1431.87 2348.04 1879.08 1228.95 1834.1 1080.63 1840.57Z" fill="#EDFAA9" fill-rule="evenodd"/>
        <path d="M2018.54 1496.98C2132.6 1495.75 2274.33 1375.48 2361.86 1433.26 2449.4 1491.06 2459.58 1608.66 2460.34 1624.11 2462.57 1669.35 2453.03 1756.5 2377.88 1850.22 2292.22 1958.43 2189.02 1991.98 2129.38 1988.11 2047.99 1982.85 1931.92 1876.15 1849.75 1867.55 1707.25 1852.64 1580.88 2002.89 1394.96 2106.72 1356.6 2128.14 1316.6 2151.82 1251 2136.8 1176.52 2119.73 1116.28 1997.85 1084.47 1859.33 1048.07 1700.78 1077.66 1444.59 1183.6 1363.57 1257.61 1306.97 1342.42 1313.24 1414.07 1322.81 1530.71 1338.41 1651.14 1399.06 1749.59 1432.67 1848.03 1466.28 1904.47 1498.21 2018.54 1496.98Z"
              fill="#A2CC60" fill-rule="evenodd"/>
        <path d="M2251.25 1957.43C2053.4 1965.2 1985.49 1732.67 1978.01 1710.26 1964.03 1668.4 1946.32 1569.1 2021.15 1485.14 2111.82 1383.4 2215.38 1348.31 2273.92 1253.42 2327.06 1167.31 2295.3 1016.04 2342.04 929.024 2389.32 841.02 2500.68 840.341 2582.71 863.446 2880.75 947.401 2291.55 1941.84 2251.25 1957.43Z"
              fill="#39E2EE" fill-rule="evenodd"/>
        <path d="M2304.25 1954.07C2348.79 1940.79 2376.22 1897.16 2395.39 1864.74 2449.12 1773.88 2445.44 1652.01 2543.17 1539.39 2616.88 1454.45 2797.38 1401.96 2856.5 1306.3 2911.3 1217.65 2876.92 1085.96 2805.46 993.676 2755.93 929.69 2669.79 883.363 2598.24 867.072 2531.46 851.864 2452.97 855.158 2400.49 922.871 2347.5 991.25 2372.22 1149.17 2328.25 1252.84 2281.89 1362.12 2117.03 1425.06 2043 1535.49 1951.41 1672.11 2146.55 2001.05 2304.25 1954.07Z"
              fill="#31CED2" fill-rule="evenodd"/>
        <path d="M2206 1694C2206 1679.64 2217.64 1668 2232 1668 2246.36 1668 2258 1679.64 2258 1694 2258 1708.36 2246.36 1720 2232 1720 2217.64 1720 2206 1708.36 2206 1694Z"
              fill-rule="evenodd"/>
        <path d="M5.15625-8.6517e-06 5.15653 168.679-5.15597 168.679-5.15625 8.6517e-06ZM15.469 163.522 0.000360892 215.085-15.4685 163.523Z"
              transform="matrix(0.524875 -0.851179 -0.851179 -0.524875 2234.56 1694.29)"/>
        <path d="M2.38231-4.57291 142.492 68.4185 137.727 77.5644-2.38231 4.57291ZM142.683 56.8904 181.265 94.4322 128.389 84.3278Z"
              transform="matrix(-0.524875 0.851179 0.851179 0.524875 2234.56 1694.29)"/>
        <path d="M2232.09 1689.23 2368.48 1632.21 2372.46 1641.72 2236.07 1698.75ZM2359.74 1624.68 2413.28 1619.06 2371.68 1653.22Z"/>
        <text font-family="Arial,Arial_MSFontService,sans-serif"
              font-weight="400" font-size="83"
              transform="matrix(1 0 0 1 1745.95 2052)">a<tspan font-size="83"
                                                               x="45.8334"
                                                               y="0">ttachment points</tspan></text>
        <path d="M2071.5 1955.48C2071.5 1824.99 2138.69 1694.5 2205.88 1694.5"
              stroke="#000000" stroke-width="6.875" stroke-miterlimit="8"
              fill="none" fill-rule="evenodd"/>
        <text fill="#008000" font-family="Arial,Arial_MSFontService,sans-serif"
              font-weight="400" font-size="83"
              transform="matrix(1 0 0 1 1093.09 1880)">parent<tspan
                font-size="83" x="233.75" y="0">.</tspan>
            <tspan font-size="83" x="256.667" y="0">masscenter</tspan></text>
        <path d="M1437.5 1783.82C1437.5 1765.99 1480.6 1748.16 1523.71 1748.16 1566.81 1748.16 1609.92 1730.33 1609.92 1712.5"
              stroke="#008000" stroke-width="6.875" stroke-miterlimit="8"
              fill="none" fill-rule="evenodd"/>
        <text fill="#0070C0" font-family="Arial,Arial_MSFontService,sans-serif"
              font-weight="400" font-size="83"
              transform="matrix(1 0 0 1 1663.07 1123)">child.masscenter</text>
        <path d="M0 0C27.9263 0 55.8531 128.633 55.8531 257.266 55.8531 385.899 83.7793 514.533 111.706 514.533"
              stroke="#0070C0" stroke-width="6.875" stroke-miterlimit="8"
              fill="none" fill-rule="evenodd"
              transform="matrix(-1.83697e-16 -1 -1 1.83697e-16 2487.03 1272.21)"/>
        <path d="M1597 1679.5C1597 1654.37 1617.37 1634 1642.5 1634 1667.63 1634 1688 1654.37 1688 1679.5 1688 1704.63 1667.63 1725 1642.5 1725 1617.37 1725 1597 1704.63 1597 1679.5Z"
              stroke="#000000" stroke-width="13.75" stroke-miterlimit="8"
              fill-rule="evenodd"/>
        <path d="M1597 1679.5C1597 1654.37 1617.37 1634 1642.5 1634L1642.5 1679.5Z"
              fill="#FFFFFF" fill-rule="evenodd"/>
        <path d="M1688 1679.5C1688 1704.63 1667.63 1725 1642.5 1725L1642.5 1679.5Z"
              fill="#FFFFFF" fill-rule="evenodd"/>
        <path d="M5.15625-8.6517e-06 5.15653 168.679-5.15597 168.679-5.15625 8.6517e-06ZM15.469 163.522 0.000360892 215.085-15.4685 163.523Z"
              fill="#008000"
              transform="matrix(0.92237 0.386308 0.386308 -0.92237 1643.57 1681.11)"/>
        <path d="M2.38231-4.57291 142.492 68.4185 137.727 77.5644-2.38231 4.57291ZM142.683 56.8904 181.265 94.4322 128.389 84.3278Z"
              fill="#008000"
              transform="matrix(-0.92237 -0.386308 -0.386308 0.92237 1643.57 1681.11)"/>
        <path d="M1648.18 1677.88 1725.69 1803.76 1716.91 1809.17 1639.39 1683.29ZM1731.77 1793.97 1745.64 1845.98 1705.43 1810.19Z"
              fill="#008000"/>
        <path d="M2474 1303.5C2474 1278.37 2494.37 1258 2519.5 1258 2544.63 1258 2565 1278.37 2565 1303.5 2565 1328.63 2544.63 1349 2519.5 1349 2494.37 1349 2474 1328.63 2474 1303.5Z"
              stroke="#000000" stroke-width="13.75" stroke-miterlimit="8"
              fill-rule="evenodd"/>
        <path d="M2474 1303.5C2474 1278.37 2494.37 1258 2519.5 1258L2519.5 1303.5Z"
              fill="#FFFFFF" fill-rule="evenodd"/>
        <path d="M2565 1303.5C2565 1328.63 2544.63 1349 2519.5 1349L2519.5 1303.5Z"
              fill="#FFFFFF" fill-rule="evenodd"/>
        <path d="M5.15625-8.6517e-06 5.15653 168.679-5.15597 168.679-5.15625 8.6517e-06ZM15.469 163.522 0.000360892 215.085-15.4685 163.523Z"
              fill="#4472C4"
              transform="matrix(0.817454 0.575993 0.575993 -0.817454 2518.4 1304.44)"/>
        <path d="M2.38231-4.57291 142.492 68.4185 137.727 77.5644-2.38231 4.57291ZM142.683 56.8904 181.265 94.4322 128.389 84.3278Z"
              fill="#4472C4"
              transform="matrix(-0.817454 -0.575993 -0.575993 0.817454 2518.4 1304.44)"/>
        <path d="M2523.6 1302.28 2572.17 1441.91 2562.43 1445.3 2513.86 1305.67ZM2580.21 1433.65 2582.55 1487.43 2550.99 1443.81Z"
              fill="#4472C4"/>
        <text fill="#008000" font-family="Arial,Arial_MSFontService,sans-serif"
              font-weight="400" font-size="83"
              transform="matrix(1 0 0 1 1143.27 1455)">parent.frame</text>
        <path d="M1685.11 1556.28C1531.31 1556.28 1377.5 1523.89 1377.5 1491.5"
              stroke="#008000" stroke-width="6.875" stroke-miterlimit="8"
              fill="none" fill-rule="evenodd"/>
        <text fill="#0070C0" font-family="Arial,Arial_MSFontService,sans-serif"
              font-weight="400" font-size="83"
              transform="matrix(1 0 0 1 2394.69 1074)">child.frame</text>
        <path d="M0 0C21.9231 0 43.8463 10.551 43.8463 21.1021 43.8463 31.6532 65.7694 42.2042 87.6925 42.2042"
              stroke="#0070C0" stroke-width="6.875" stroke-miterlimit="8"
              fill="none" fill-rule="evenodd"
              transform="matrix(-1.83697e-16 -1 -1 1.83697e-16 2588.7 1183.19)"/>
        <text font-family="Arial,Arial_MSFontService,sans-serif"
              font-weight="400" font-size="83"
              transform="matrix(1 0 0 1 1603.59 1357)">attachment frames</text>
        <path d="M0 0C50.1111 0 100.222 43.9551 100.222 87.9099 100.222 131.865 150.333 175.82 200.444 175.82"
              stroke="#000000" stroke-width="6.875" stroke-miterlimit="8"
              fill="none" fill-rule="evenodd"
              transform="matrix(-1.83697e-16 -1 -1 1.83697e-16 2121.32 1594.94)"/></g></svg>
