<svg overflow="hidden" version="1.1" class="align-center" width="500" viewBox="0 0 351.14169 248.66788" xmlns="http://www.w3.org/2000/svg">
 <defs>
  <clipPath id="a">
   <rect x="1043" y="850" width="1841" height="1292"/>
  </clipPath>
 </defs>
 <g transform="matrix(.19263016 0 0 .19263016 -204.31056 -163.85541)" clip-path="url(#a)">
  <path d="m1080.63 1840.57c-43.35-166.51-26.51-491.91 154.49-542.72 157.92-44.33 346.58 53.91 447.98 89.41 96.5 33.8 179.87 80.48 296.66 78.05 120.61-2.52 176.7-72.26 269.58-76.93 38.47-1.93 68.92 13.67 110.3 43.49-11.6 447.21-1130.69 402.23-1279.01 408.7z" fill="#edfaa9" fill-rule="evenodd"/>
  <path d="m2018.54 1496.98c114.06-1.23 255.79-121.5 343.32-63.72 87.54 57.8 97.72 175.4 98.48 190.85 2.23 45.24-7.31 132.39-82.46 226.11-85.66 108.21-188.86 141.76-248.5 137.89-81.39-5.26-197.46-111.96-279.63-120.56-142.5-14.91-268.87 135.34-454.79 239.17-38.36 21.42-78.36 45.1-143.96 30.08-74.48-17.07-134.72-138.95-166.53-277.47-36.4-158.55-6.81-414.74 99.13-495.76 74.01-56.6 158.82-50.33 230.47-40.76 116.64 15.6 237.07 76.25 335.52 109.86 98.44 33.61 154.88 65.54 268.95 64.31z" fill="#a2cc60" fill-rule="evenodd"/>
  <path d="m2251.25 1957.43c-197.85 7.77-265.76-224.76-273.24-247.17-13.98-41.86-31.69-141.16 43.14-225.12 90.67-101.74 194.23-136.83 252.77-231.72 53.14-86.11 21.38-237.38 68.12-324.396 47.28-88.004 158.64-88.683 240.67-65.578 298.04 83.955-291.16 1078.394-331.46 1093.984z" fill="#39e2ee" fill-rule="evenodd"/>
  <path d="m2304.25 1954.07c44.54-13.28 71.97-56.91 91.14-89.33 53.73-90.86 50.05-212.73 147.78-325.35 73.71-84.94 254.21-137.43 313.33-233.09 54.8-88.65 20.42-220.34-51.04-312.624-49.53-63.986-135.67-110.313-207.22-126.604-66.78-15.208-145.27-11.914-197.75 55.799-52.99 68.379-28.27 226.299-72.24 329.969-46.36 109.28-211.22 172.22-285.25 282.65-91.59 136.62 103.55 465.56 261.25 418.58z" fill="#31ced2" fill-rule="evenodd"/>
  <path d="m2206 1694c0-14.36 11.64-26 26-26s26 11.64 26 26-11.64 26-26 26-26-11.64-26-26z" fill="#000000" fill-rule="evenodd"/>
  <path transform="matrix(.524875 -.851179 -.851179 -.524875 2234.56 1694.29)" d="M 5.15625,-8.6517e-6 5.15653,168.679 H -5.15597 L -5.15625,8.6517e-6 Z M 15.469,163.522 3.60892e-4,215.085 -15.4685,163.523 Z" fill="#000000"/>
  <path transform="matrix(-.524875 .851179 .851179 .524875 2234.56 1694.29)" d="m2.38231-4.57291 140.10969 72.99141-4.765 9.1459-140.10931-72.99149zm140.30069 61.46331 38.582 37.5418-52.876-10.1044z" fill="#000000"/>
  <path d="m2232.09 1689.23 136.39-57.02 3.98 9.51-136.39 57.03zm127.65-64.55 53.54-5.62-41.6 34.16z" fill="#000000"/>
  <text transform="translate(1745.95,2052)" fill="CurrentColor" font-family="Arial, Arial_MSFontService, sans-serif" font-size="83.0607px" font-weight="400">attachment points</text>
  <path d="m2071.5 1955.48c0-130.49 67.19-260.98 134.38-260.98" fill="none" fill-rule="evenodd" stroke="CurrentColor" stroke-miterlimit="8" stroke-width="6.875"/>
  <text x="1093.09" y="1869.6174" fill="#008000" font-family="Arial, Arial_MSFontService, sans-serif" font-size="83.0607px" font-weight="400">parent.masscenter</text>
  <path d="m1432.8129 1793.1942c0-17.83 47.7871-45.0342 90.8971-45.0342 43.1 0 86.21-17.83 86.21-35.66" fill="none" fill-rule="evenodd" stroke="#008000" stroke-miterlimit="8" stroke-width="6.875"/>
  <text transform="translate(1663.07,1123)" fill="#0070c0" font-family="Arial, Arial_MSFontService, sans-serif" font-size="83.0607px" font-weight="400">child.masscenter</text>
  <path transform="matrix(0,-1,-1,0,2487.03,1272.21)" d="m0 0c27.9263 0 55.8531 128.633 55.8531 257.266s27.9262 257.267 55.8529 257.267" fill="none" fill-rule="evenodd" stroke="#0070c0" stroke-miterlimit="8" stroke-width="6.875"/>
  <path d="m1597 1679.5c0-25.13 20.37-45.5 45.5-45.5s45.5 20.37 45.5 45.5-20.37 45.5-45.5 45.5-45.5-20.37-45.5-45.5z" fill-rule="evenodd" stroke="#000000" stroke-miterlimit="8" stroke-width="13.75"/>
  <path d="m1597 1679.5c0-25.13 20.37-45.5 45.5-45.5v45.5z" fill="#ffffff" fill-rule="evenodd"/>
  <path d="m1688 1679.5c0 25.13-20.37 45.5-45.5 45.5v-45.5z" fill="#ffffff" fill-rule="evenodd"/>
  <path d="m1648.3552 1679.4362 32.835-165.4523-10.1152-2.0074-32.835 165.4523zm41.9464-158.3866-5.1356-53.5877-25.2099 47.5645z" fill="#008000"/>
  <path d="m1641.851 1673.4833-151.6379 44.3217 2.8935 9.8985 151.6376-44.3218zm-149.5812 32.977-45.1518 29.3133 53.8314 0.3817z" fill="#008000"/>
  <path d="m1647.171 1674.3482 101.0508 107.8995-7.5251 7.0519-101.0606-107.8975zm105.0569 97.0939 23.9609 48.2006-46.5383-27.0548z" fill="#008000"/>
  <path d="m2474 1303.5c0-25.13 20.37-45.5 45.5-45.5s45.5 20.37 45.5 45.5-20.37 45.5-45.5 45.5-45.5-20.37-45.5-45.5z" fill-rule="evenodd" stroke="#000000" stroke-miterlimit="8" stroke-width="13.75"/>
  <path d="m2474 1303.5c0-25.13 20.37-45.5 45.5-45.5v45.5z" fill="#ffffff" fill-rule="evenodd"/>
  <path d="m2565 1303.5c0 25.13-20.37 45.5-45.5 45.5v-45.5z" fill="#ffffff" fill-rule="evenodd"/>
  <path transform="matrix(.817454 .575993 .575993 -.817454 2518.4 1304.44)" d="M 5.15625,-8.6517e-6 5.15653,168.679 H -5.15597 L -5.15625,8.6517e-6 Z M 15.469,163.522 3.60892e-4,215.085 -15.4685,163.523 Z" fill="#4472c4"/>
  <path transform="matrix(-.817454 -.575993 -.575993 .817454 2518.4 1304.44)" d="m2.38231-4.57291 140.10969 72.99141-4.765 9.1459-140.10931-72.99149zm140.30069 61.46331 38.582 37.5418-52.876-10.1044z" fill="#4472c4"/>
  <path d="m2523.6 1302.28 48.57 139.63-9.74 3.39-48.57-139.63zm56.61 131.37 2.34 53.78-31.56-43.62z" fill="#4472c4"/>
  <text transform="translate(1143.27,1455)" fill="#008000" font-family="Arial, Arial_MSFontService, sans-serif" font-size="83.0607px" font-weight="400">parent.frame</text>
  <path d="m1640.5827 1565.6542c-153.8 0-263.0827-41.7642-263.0827-74.1542" fill="none" fill-rule="evenodd" stroke="#008000" stroke-miterlimit="8" stroke-width="6.875"/>
  <text transform="translate(2394.69,1074)" fill="#0070c0" font-family="Arial, Arial_MSFontService, sans-serif" font-size="83.0607px" font-weight="400">child.frame</text>
  <path transform="matrix(0,-1,-1,0,2588.7,1183.19)" d="m0 0c21.9231 0 43.8463 10.551 43.8463 21.1021s21.9231 21.1021 43.8462 21.1021" fill="none" fill-rule="evenodd" stroke="#0070c0" stroke-miterlimit="8" stroke-width="6.875"/>
  <text transform="translate(1603.59,1357)" fill="CurrentColor" font-family="Arial, Arial_MSFontService, sans-serif" font-size="83.0607px" font-weight="400">attachment frames</text>
  <path transform="matrix(0,-1,-1,0,2121.32,1594.94)" d="m0 0c50.1111 0 100.222 43.9551 100.222 87.9099 0 43.9551 50.111 87.9101 100.222 87.9101" fill="none" fill-rule="evenodd" stroke="CurrentColor" stroke-miterlimit="8" stroke-width="6.875"/>
 </g>
</svg>
